<?xml version="1.0" standalone="no"?>
<svg xmlns="http://www.w3.org/2000/svg" width="4320" height="1245" viewBox="0 -289 4320 1245">
  <!-- Gruppe zur Transformation der y-Achse, damit der Text korrekt ausgerichtet wird -->
  <g transform="translate(0, 956) scale(1, -1)">
    <path d="M455 62Q453 116 451.5 175.5Q450 235 450 313Q418 312 382.0 311.5Q346 311 308 311Q263 311 226.0 311.0Q189 311 160 312Q159 249 158.0 190.5Q157 132 154 63Q153 39 149.5 26.0Q146 13 140.0 6.0Q134 -1 126.5 -2.5Q119 -4 109 -4Q91 -4 79.0 8.5Q67 21 65 62Q63 98 62.5 137.0Q62 176 61.0 221.0Q60 266 60.0 318.5Q60 371 60 436Q60 507 61.0 557.5Q62 608 66.5 640.0Q71 672 81.0 687.0Q91 702 109 702Q126 702 139.0 691.0Q152 680 154 640Q156 606 157.0 578.5Q158 551 159.0 524.5Q160 498 160.0 470.0Q160 442 160 408Q235 411 307 411Q342 411 377.5 410.0Q413 409 450 407V436Q450 507 451.0 557.5Q452 608 456.5 640.0Q461 672 471.0 687.0Q481 702 499 702Q516 702 529.0 691.0Q542 680 544 640Q546 604 547.0 576.0Q548 548 549.0 520.5Q550 493 550.0 463.5Q550 434 550 397Q550 352 550.0 311.0Q550 270 549.0 230.0Q548 190 547.0 149.0Q546 108 544 63Q543 39 539.5 26.0Q536 13 530.0 6.0Q524 -1 516.5 -2.5Q509 -4 499 -4Q481 -4 469.0 8.5Q457 21 455 62Z" transform="translate(0, 0)" /> <path d="M471 -4Q455 -4 445.5 1.5Q436 7 431.0 16.0Q426 25 424.0 37.5Q422 50 421 64Q396 33 356.5 12.0Q317 -9 256 -9Q217 -9 176.5 2.5Q136 14 103.0 42.5Q70 71 49.0 119.0Q28 167 28 240Q28 297 42.0 347.0Q56 397 84.5 434.5Q113 472 156.0 494.0Q199 516 257 516Q308 516 348.0 497.5Q388 479 420 437Q420 449 421.0 461.5Q422 474 426.5 484.5Q431 495 441.0 501.5Q451 508 468 508Q483 508 496.0 496.0Q509 484 511 444Q514 391 515.5 349.0Q517 307 517 262Q517 207 516.0 161.0Q515 115 511 63Q509 40 505.5 26.5Q502 13 497.0 6.5Q492 0 485.0 -2.0Q478 -4 471 -4ZM417 250Q417 302 401.5 335.0Q386 368 362.5 386.5Q339 405 312.0 412.0Q285 419 262 419Q226 419 200.5 406.0Q175 393 159.0 370.5Q143 348 135.5 317.5Q128 287 128 251Q128 163 166.5 121.0Q205 79 271 79Q310 79 337.5 92.5Q365 106 382.5 129.0Q400 152 408.5 183.5Q417 215 417 250Z" transform="translate(610, 0)" /> <path d="M67 58Q66 94 65.0 142.0Q64 190 63.5 246.0Q63 302 62.5 364.0Q62 426 62 491Q62 562 63.0 613.0Q64 664 68.5 697.0Q73 730 83.0 745.5Q93 761 111 761Q128 761 141.0 750.0Q154 739 156 699Q160 627 161.0 549.5Q162 472 162 397Q162 352 162.0 310.5Q162 269 161.0 228.5Q160 188 159.0 146.0Q158 104 156 59Q155 35 151.5 22.0Q148 9 142.0 2.0Q136 -5 128.5 -6.5Q121 -8 111 -8Q93 -8 81.0 4.5Q69 17 67 58Z" transform="translate(1183, 0)" /> <path d="M67 58Q66 94 65.0 142.0Q64 190 63.5 246.0Q63 302 62.5 364.0Q62 426 62 491Q62 562 63.0 613.0Q64 664 68.5 697.0Q73 730 83.0 745.5Q93 761 111 761Q128 761 141.0 750.0Q154 739 156 699Q160 627 161.0 549.5Q162 472 162 397Q162 352 162.0 310.5Q162 269 161.0 228.5Q160 188 159.0 146.0Q158 104 156 59Q155 35 151.5 22.0Q148 9 142.0 2.0Q136 -5 128.5 -6.5Q121 -8 111 -8Q93 -8 81.0 4.5Q69 17 67 58Z" transform="translate(1407, 0)" /> <path d="M292 507Q349 507 394.0 489.5Q439 472 470.5 440.0Q502 408 519.0 362.0Q536 316 536 259Q536 196 516.5 146.0Q497 96 462.5 61.0Q428 26 380.5 7.0Q333 -12 277 -12Q216 -12 169.5 9.0Q123 30 91.5 66.0Q60 102 44.0 149.0Q28 196 28 248Q28 305 46.5 352.5Q65 400 99.5 434.5Q134 469 183.0 488.0Q232 507 292 507ZM281 80Q322 80 351.0 94.5Q380 109 398.5 133.0Q417 157 425.5 187.5Q434 218 434 251Q434 285 425.5 314.5Q417 344 399.5 366.0Q382 388 354.5 400.5Q327 413 289 413Q250 413 221.0 400.0Q192 387 172.5 364.5Q153 342 143.0 311.0Q133 280 133 244Q133 171 170.5 125.5Q208 80 281 80Z" transform="translate(1631, 0)" /> <path d="" transform="translate(2195, 0)" /> <path d="M334 510Q340 524 352.5 533.0Q365 542 379 542Q392 542 404.0 533.5Q416 525 423 511Q461 433 498.0 342.5Q535 252 565 171Q582 295 602.0 421.0Q622 547 647 662Q650 675 656.0 683.5Q662 692 669.0 696.5Q676 701 683.5 703.0Q691 705 696 705Q713 705 724.0 695.5Q735 686 735 670Q735 652 729.0 606.5Q723 561 713.0 500.5Q703 440 690.5 372.0Q678 304 666.0 241.0Q654 178 643.0 126.0Q632 74 625 47Q619 24 607.0 12.5Q595 1 572 1Q548 1 531.5 22.5Q515 44 495.5 90.0Q476 136 449.0 207.5Q422 279 379 379Q335 279 307.5 207.0Q280 135 260.5 89.0Q241 43 224.0 21.5Q207 0 184 0Q144 0 131 46Q123 73 112.0 124.5Q101 176 89.5 239.0Q78 302 66.0 369.5Q54 437 45.0 497.0Q36 557 30.5 602.5Q25 648 25 666Q25 683 36.0 694.0Q47 705 67 705Q81 705 94.0 696.5Q107 688 113 662Q137 547 155.5 421.0Q174 295 195 171Q226 244 257.0 326.0Q288 408 334 510Z" transform="translate(2404, 0)" /> <path d="M292 184Q257 184 218.5 189.5Q180 195 135 213Q144 152 185.5 121.0Q227 90 305 90Q333 90 355.5 93.5Q378 97 395.0 101.5Q412 106 425.0 109.5Q438 113 449 113Q463 113 476.0 104.5Q489 96 489 76Q489 51 468.5 35.0Q448 19 418.5 9.5Q389 0 356.0 -3.5Q323 -7 298 -7Q239 -7 189.5 9.0Q140 25 104.0 57.5Q68 90 48.0 138.0Q28 186 28 250Q28 312 47.5 360.0Q67 408 101.0 441.0Q135 474 181.5 491.0Q228 508 282 508Q324 508 363.5 497.0Q403 486 433.5 464.0Q464 442 482.5 408.5Q501 375 501 330Q501 290 486.0 262.0Q471 234 443.5 217.0Q416 200 377.5 192.0Q339 184 292 184ZM285 416Q258 416 233.0 409.5Q208 403 187.5 388.5Q167 374 153.0 350.5Q139 327 134 292Q172 275 208.0 268.5Q244 262 284 262Q343 262 371.5 276.5Q400 291 400 329Q400 364 373.5 390.0Q347 416 285 416Z" transform="translate(3164, 0)" /> <path d="M67 58Q66 94 65.0 142.0Q64 190 63.5 246.0Q63 302 62.5 364.0Q62 426 62 491Q62 562 63.0 613.0Q64 664 68.5 697.0Q73 730 83.0 745.5Q93 761 111 761Q128 761 141.0 750.0Q154 739 156 699Q160 627 161.0 549.5Q162 472 162 397Q162 352 162.0 310.5Q162 269 161.0 228.5Q160 188 159.0 146.0Q158 104 156 59Q155 35 151.5 22.0Q148 9 142.0 2.0Q136 -5 128.5 -6.5Q121 -8 111 -8Q93 -8 81.0 4.5Q69 17 67 58Z" transform="translate(3699, 0)" /> <path d="M147 65Q144 128 143.5 214.5Q143 301 143 411Q133 410 119.5 410.0Q106 410 98 410Q80 410 65.5 411.0Q51 412 40.0 417.0Q29 422 23.0 431.5Q17 441 17 458Q17 506 89 506Q100 506 116.0 506.0Q132 506 143 504Q143 557 145.0 589.0Q147 621 152.5 638.5Q158 656 167.5 661.5Q177 667 192 667Q208 667 218.0 656.0Q228 645 233.5 628.0Q239 611 240.5 590.0Q242 569 242 549Q242 535 241.5 523.5Q241 512 241 503Q255 507 270.0 507.5Q285 508 299 508Q336 508 356.0 496.5Q376 485 376 459Q376 443 369.0 433.5Q362 424 350.5 419.0Q339 414 323.5 412.5Q308 411 290 411Q280 411 267.0 411.0Q254 411 243 413Q243 360 243.0 316.0Q243 272 242.0 231.5Q241 191 240.0 151.0Q239 111 237 66Q236 42 232.5 29.0Q229 16 223.0 9.0Q217 2 209.5 0.5Q202 -1 192 -1Q174 -1 161.5 11.5Q149 24 147 65Z" transform="translate(3923, 0)" />
  </g>
</svg>
