<?xml version="1.0" standalone="no"?>
<svg xmlns="http://www.w3.org/2000/svg" width="5806" height="1245" viewBox="0 -289 5806 1245">
  <g transform="translate(0, 956) scale(1, -1)">
    <path d="M243 0Q187 0 153.0 9.0Q119 18 100.5 34.5Q82 51 75.5 75.0Q69 99 66 129Q63 164 61.5 221.5Q60 279 60 341Q60 371 60.5 404.5Q61 438 61.5 470.5Q62 503 63.0 531.0Q64 559 66 579Q69 610 76.0 635.0Q83 660 102.5 678.0Q122 696 157.5 705.5Q193 715 252 715Q386 715 452.5 665.5Q519 616 519 525Q519 478 498.5 438.0Q478 398 428 378Q456 373 479.0 357.0Q502 341 518.5 318.5Q535 296 543.5 268.5Q552 241 552 213Q552 177 537.0 139.5Q522 102 486.0 71.0Q450 40 390.5 20.0Q331 0 243 0ZM452 216Q452 252 435.5 274.0Q419 296 393.0 307.5Q367 319 335.0 323.0Q303 327 271 327Q246 327 219.0 327.0Q192 327 169 326Q168 305 167.0 283.0Q166 261 165.5 241.5Q165 222 165.0 207.5Q165 193 165 187Q165 160 169.0 142.0Q173 124 184.0 113.0Q195 102 215.5 97.5Q236 93 268 93Q356 93 404.0 124.0Q452 155 452 216ZM267 620Q234 620 213.5 614.5Q193 609 182.5 600.0Q172 591 168.5 578.0Q165 565 165 550V410Q179 409 194.5 409.0Q210 409 224 409Q260 409 294.5 414.0Q329 419 357.0 431.0Q385 443 402.0 464.0Q419 485 419 518Q419 563 382.5 591.5Q346 620 267 620Z" transform="translate(0, 0)" /> <path d="M67 58Q66 94 65.0 142.0Q64 190 63.5 246.0Q63 302 62.5 364.0Q62 426 62 491Q62 562 63.0 613.0Q64 664 68.5 697.0Q73 730 83.0 745.5Q93 761 111 761Q128 761 141.0 750.0Q154 739 156 699Q160 627 161.0 549.5Q162 472 162 397Q162 352 162.0 310.5Q162 269 161.0 228.5Q160 188 159.0 146.0Q158 104 156 59Q155 35 151.5 22.0Q148 9 142.0 2.0Q136 -5 128.5 -6.5Q121 -8 111 -8Q93 -8 81.0 4.5Q69 17 67 58Z" transform="translate(582, 0)" /> <path d="M471 -4Q455 -4 445.5 1.5Q436 7 431.0 16.0Q426 25 424.0 37.5Q422 50 421 64Q396 33 356.5 12.0Q317 -9 256 -9Q217 -9 176.5 2.5Q136 14 103.0 42.5Q70 71 49.0 119.0Q28 167 28 240Q28 297 42.0 347.0Q56 397 84.5 434.5Q113 472 156.0 494.0Q199 516 257 516Q308 516 348.0 497.5Q388 479 420 437Q420 449 421.0 461.5Q422 474 426.5 484.5Q431 495 441.0 501.5Q451 508 468 508Q483 508 496.0 496.0Q509 484 511 444Q514 391 515.5 349.0Q517 307 517 262Q517 207 516.0 161.0Q515 115 511 63Q509 40 505.5 26.5Q502 13 497.0 6.5Q492 0 485.0 -2.0Q478 -4 471 -4ZM417 250Q417 302 401.5 335.0Q386 368 362.5 386.5Q339 405 312.0 412.0Q285 419 262 419Q226 419 200.5 406.0Q175 393 159.0 370.5Q143 348 135.5 317.5Q128 287 128 251Q128 163 166.5 121.0Q205 79 271 79Q310 79 337.5 92.5Q365 106 382.5 129.0Q400 152 408.5 183.5Q417 215 417 250Z" transform="translate(806, 0)" /> <path d="M289 510Q318 510 347.5 505.0Q377 500 401.0 491.0Q425 482 440.0 469.0Q455 456 455 439Q455 395 405 395Q393 395 382.5 398.5Q372 402 358.0 405.5Q344 409 323.0 412.5Q302 416 271 416Q205 416 169.0 371.0Q133 326 133 254Q133 175 169.5 127.0Q206 79 273 79Q315 79 341.0 86.0Q367 93 383.5 102.0Q400 111 410.5 118.0Q421 125 434 125Q452 125 462.5 117.5Q473 110 473 87Q473 63 454.5 45.0Q436 27 408.0 15.0Q380 3 347.5 -3.0Q315 -9 288 -9Q167 -9 98.0 58.0Q29 125 29 248Q29 301 45.5 348.5Q62 396 95.0 432.0Q128 468 176.5 489.0Q225 510 289 510Z" transform="translate(1379, 0)" /> <path d="M65 53Q63 75 62.0 119.5Q61 164 60.0 222.5Q59 281 59.0 350.0Q59 419 59 491Q59 576 60.0 630.0Q61 684 66.0 715.0Q71 746 82.0 757.5Q93 769 114 769Q132 769 140.0 757.5Q148 746 152 707Q154 683 155.5 642.5Q157 602 157.5 554.0Q158 506 158.5 454.0Q159 402 159 355V274L381 475Q392 485 407.5 494.5Q423 504 440 504Q460 504 470.0 488.5Q480 473 480 453Q480 442 476.5 432.5Q473 423 462 415L327 304L491 66Q500 54 500 39Q500 17 486.0 6.0Q472 -5 450 -5Q434 -5 422.0 1.0Q410 7 399 24L249 241L158 166Q157 129 156.0 100.0Q155 71 153 54Q149 19 140.0 8.0Q131 -3 108 -3Q85 -3 76.5 8.0Q68 19 65 53Z" transform="translate(1876, 0)" /> <path d="" transform="translate(2404, 0)" /> <path d="M160 63Q160 39 155.5 26.0Q151 13 144.5 6.0Q138 -1 129.5 -2.5Q121 -4 113 -4Q86 -4 77.5 8.0Q69 20 66 62Q64 84 63.0 126.0Q62 168 61.5 226.0Q61 284 60.5 354.0Q60 424 60 502Q60 539 69.0 577.0Q78 615 103.5 646.0Q129 677 174.5 696.0Q220 715 293 715Q344 715 390.0 704.0Q436 693 471.0 666.0Q506 639 527.0 594.0Q548 549 548 482Q548 412 525.0 366.0Q502 320 460.0 293.0Q418 266 360.0 255.0Q302 244 233 244Q216 244 199.0 244.0Q182 244 161 246ZM448 484Q448 551 410.5 585.0Q373 619 286 619Q253 619 229.5 613.5Q206 608 191.0 594.5Q176 581 168.5 558.0Q161 535 161 500Q161 466 161.0 422.5Q161 379 162 341Q185 340 213.5 340.0Q242 340 267 340Q297 340 329.5 344.0Q362 348 388.0 362.5Q414 377 431.0 405.5Q448 434 448 484Z" transform="translate(2613, 0)" /> <path d="M292 184Q257 184 218.5 189.5Q180 195 135 213Q144 152 185.5 121.0Q227 90 305 90Q333 90 355.5 93.5Q378 97 395.0 101.5Q412 106 425.0 109.5Q438 113 449 113Q463 113 476.0 104.5Q489 96 489 76Q489 51 468.5 35.0Q448 19 418.5 9.5Q389 0 356.0 -3.5Q323 -7 298 -7Q239 -7 189.5 9.0Q140 25 104.0 57.5Q68 90 48.0 138.0Q28 186 28 250Q28 312 47.5 360.0Q67 408 101.0 441.0Q135 474 181.5 491.0Q228 508 282 508Q324 508 363.5 497.0Q403 486 433.5 464.0Q464 442 482.5 408.5Q501 375 501 330Q501 290 486.0 262.0Q471 234 443.5 217.0Q416 200 377.5 192.0Q339 184 292 184ZM285 416Q258 416 233.0 409.5Q208 403 187.5 388.5Q167 374 153.0 350.5Q139 327 134 292Q172 275 208.0 268.5Q244 262 284 262Q343 262 371.5 276.5Q400 291 400 329Q400 364 373.5 390.0Q347 416 285 416Z" transform="translate(3181, 0)" /> <path d="M170 -144Q170 -163 169.0 -180.5Q168 -198 162.5 -212.0Q157 -226 146.5 -234.5Q136 -243 117 -243Q95 -243 80.5 -227.5Q66 -212 64 -173Q63 -148 61.0 -112.0Q59 -76 57.5 -36.0Q56 4 54.5 44.0Q53 84 53 118Q53 235 69.5 311.0Q86 387 119.0 432.0Q152 477 200.5 495.0Q249 513 313 513Q364 513 409.0 497.5Q454 482 487.5 449.5Q521 417 541.0 365.5Q561 314 561 242Q561 182 540.5 136.0Q520 90 484.0 58.5Q448 27 399.5 10.5Q351 -6 296 -6Q249 -6 211.5 13.5Q174 33 158 56Q163 0 166.5 -48.0Q170 -96 170 -144ZM308 413Q273 413 247.5 401.0Q222 389 206.0 368.0Q190 347 182.5 318.0Q175 289 175 255Q175 222 181.5 192.5Q188 163 203.0 141.0Q218 119 243.0 106.0Q268 93 304 93Q332 93 358.0 100.5Q384 108 404.5 126.0Q425 144 437.5 174.0Q450 204 450 249Q450 295 437.5 326.5Q425 358 404.5 377.5Q384 397 358.5 405.0Q333 413 308 413Z" transform="translate(3716, 0)" /> <path d="M170 -144Q170 -163 169.0 -180.5Q168 -198 162.5 -212.0Q157 -226 146.5 -234.5Q136 -243 117 -243Q95 -243 80.5 -227.5Q66 -212 64 -173Q63 -148 61.0 -112.0Q59 -76 57.5 -36.0Q56 4 54.5 44.0Q53 84 53 118Q53 235 69.5 311.0Q86 387 119.0 432.0Q152 477 200.5 495.0Q249 513 313 513Q364 513 409.0 497.5Q454 482 487.5 449.5Q521 417 541.0 365.5Q561 314 561 242Q561 182 540.5 136.0Q520 90 484.0 58.5Q448 27 399.5 10.5Q351 -6 296 -6Q249 -6 211.5 13.5Q174 33 158 56Q163 0 166.5 -48.0Q170 -96 170 -144ZM308 413Q273 413 247.5 401.0Q222 389 206.0 368.0Q190 347 182.5 318.0Q175 289 175 255Q175 222 181.5 192.5Q188 163 203.0 141.0Q218 119 243.0 106.0Q268 93 304 93Q332 93 358.0 100.5Q384 108 404.5 126.0Q425 144 437.5 174.0Q450 204 450 249Q450 295 437.5 326.5Q425 358 404.5 377.5Q384 397 358.5 405.0Q333 413 308 413Z" transform="translate(4305, 0)" /> <path d="M292 184Q257 184 218.5 189.5Q180 195 135 213Q144 152 185.5 121.0Q227 90 305 90Q333 90 355.5 93.5Q378 97 395.0 101.5Q412 106 425.0 109.5Q438 113 449 113Q463 113 476.0 104.5Q489 96 489 76Q489 51 468.5 35.0Q448 19 418.5 9.5Q389 0 356.0 -3.5Q323 -7 298 -7Q239 -7 189.5 9.0Q140 25 104.0 57.5Q68 90 48.0 138.0Q28 186 28 250Q28 312 47.5 360.0Q67 408 101.0 441.0Q135 474 181.5 491.0Q228 508 282 508Q324 508 363.5 497.0Q403 486 433.5 464.0Q464 442 482.5 408.5Q501 375 501 330Q501 290 486.0 262.0Q471 234 443.5 217.0Q416 200 377.5 192.0Q339 184 292 184ZM285 416Q258 416 233.0 409.5Q208 403 187.5 388.5Q167 374 153.0 350.5Q139 327 134 292Q172 275 208.0 268.5Q244 262 284 262Q343 262 371.5 276.5Q400 291 400 329Q400 364 373.5 390.0Q347 416 285 416Z" transform="translate(4894, 0)" /> <path d="M66 61Q62 96 61.0 146.0Q60 196 60 267Q60 337 60.5 380.0Q61 423 66 456Q71 497 81.5 509.0Q92 521 109 521Q121 521 130.5 519.0Q140 517 147.5 510.5Q155 504 159.0 492.0Q163 480 163 459Q163 455 164 451Q164 447 164.5 442.5Q165 438 165 432Q192 466 226.5 490.0Q261 514 305 514Q364 514 364 465Q364 447 356.5 435.0Q349 423 335.5 415.5Q322 408 304.5 404.0Q287 400 266 396Q234 390 206.0 373.5Q178 357 168 332Q168 313 168.5 304.0Q169 295 169.5 289.0Q170 283 170.0 276.0Q170 269 170 254Q170 203 168.0 158.5Q166 114 164 62Q163 38 158.5 25.0Q154 12 147.5 5.0Q141 -2 133.0 -3.5Q125 -5 117 -5Q89 -5 79.5 7.5Q70 20 66 61Z" transform="translate(5429, 0)" />
  </g>
</svg>
