<?xml version="1.0" standalone="no"?>
<svg xmlns="http://www.w3.org/2000/svg" width="3000" height="1245" viewBox="0 -289 3000 1245">
  <g transform="translate(0, 956) scale(1, -1)">
    <path d="M351 708Q384 708 417.5 702.5Q451 697 478.0 685.5Q505 674 522.5 657.5Q540 641 540 619Q540 596 528.0 584.0Q516 572 498 572Q481 572 468.0 577.5Q455 583 438.5 590.0Q422 597 399.0 602.5Q376 608 338 608Q300 608 265.5 588.5Q231 569 205.5 534.5Q180 500 165.0 453.0Q150 406 150 351Q150 283 167.5 234.0Q185 185 213.0 153.5Q241 122 276.5 106.5Q312 91 348 91Q391 91 420.0 100.0Q449 109 469.5 120.0Q490 131 505.0 140.0Q520 149 534 149Q551 149 561.0 139.5Q571 130 571 106Q571 86 555.5 65.5Q540 45 510.5 28.5Q481 12 440.0 1.5Q399 -9 348 -9Q292 -9 236.5 13.0Q181 35 137.5 78.5Q94 122 67.0 187.5Q40 253 40 340Q40 427 64.5 495.0Q89 563 131.5 610.5Q174 658 230.5 683.0Q287 708 351 708Z" transform="translate(0, 0)" /> <path d="M295 411Q258 411 228.5 400.0Q199 389 162 370Q162 369 162.0 351.0Q162 333 161.5 305.0Q161 277 160.5 242.5Q160 208 159.5 173.5Q159 139 157.5 108.0Q156 77 155 56Q153 35 150.5 23.0Q148 11 144.5 5.5Q141 0 135.0 -1.0Q129 -2 122 -2Q105 -2 95.5 -0.5Q86 1 80.0 6.5Q74 12 71.5 23.0Q69 34 67 53Q65 72 63.5 105.5Q62 139 61.0 180.5Q60 222 59.5 269.0Q59 316 59 362Q59 408 59.5 459.5Q60 511 61.0 558.5Q62 606 63.0 643.5Q64 681 66 699Q68 725 75.5 744.0Q83 763 109 763Q129 763 141.5 749.0Q154 735 156 696Q158 661 159.5 598.5Q161 536 162 458Q176 469 196.0 478.5Q216 488 238.0 494.5Q260 501 283.0 505.0Q306 509 326 509Q374 509 409.5 486.5Q445 464 466 422Q480 395 487.0 362.5Q494 330 497 294Q498 278 499.0 262.5Q500 247 500.5 229.5Q501 212 501.0 190.0Q501 168 501 138Q501 108 500.0 82.5Q499 57 494.5 38.5Q490 20 480.0 9.5Q470 -1 452 -1Q426 -1 413.5 15.5Q401 32 401 55Q401 56 401.0 76.0Q401 96 400.5 122.5Q400 149 399.5 176.0Q399 203 398 220Q397 236 395.5 254.5Q394 273 391.5 292.0Q389 311 385.0 328.5Q381 346 375 360Q361 393 340.0 402.0Q319 411 295 411Z" transform="translate(599, 0)" /> <path d="M292 184Q257 184 218.5 189.5Q180 195 135 213Q144 152 185.5 121.0Q227 90 305 90Q333 90 355.5 93.5Q378 97 395.0 101.5Q412 106 425.0 109.5Q438 113 449 113Q463 113 476.0 104.5Q489 96 489 76Q489 51 468.5 35.0Q448 19 418.5 9.5Q389 0 356.0 -3.5Q323 -7 298 -7Q239 -7 189.5 9.0Q140 25 104.0 57.5Q68 90 48.0 138.0Q28 186 28 250Q28 312 47.5 360.0Q67 408 101.0 441.0Q135 474 181.5 491.0Q228 508 282 508Q324 508 363.5 497.0Q403 486 433.5 464.0Q464 442 482.5 408.5Q501 375 501 330Q501 290 486.0 262.0Q471 234 443.5 217.0Q416 200 377.5 192.0Q339 184 292 184ZM285 416Q258 416 233.0 409.5Q208 403 187.5 388.5Q167 374 153.0 350.5Q139 327 134 292Q172 275 208.0 268.5Q244 262 284 262Q343 262 371.5 276.5Q400 291 400 329Q400 364 373.5 390.0Q347 416 285 416Z" transform="translate(1154, 0)" /> <path d="M66 61Q62 96 61.0 146.0Q60 196 60 267Q60 337 60.5 380.0Q61 423 66 456Q71 497 81.5 509.0Q92 521 109 521Q121 521 130.5 519.0Q140 517 147.5 510.5Q155 504 159.0 492.0Q163 480 163 459Q163 455 164 451Q164 447 164.5 442.5Q165 438 165 432Q192 466 226.5 490.0Q261 514 305 514Q364 514 364 465Q364 447 356.5 435.0Q349 423 335.5 415.5Q322 408 304.5 404.0Q287 400 266 396Q234 390 206.0 373.5Q178 357 168 332Q168 313 168.5 304.0Q169 295 169.5 289.0Q170 283 170.0 276.0Q170 269 170 254Q170 203 168.0 158.5Q166 114 164 62Q163 38 158.5 25.0Q154 12 147.5 5.0Q141 -2 133.0 -3.5Q125 -5 117 -5Q89 -5 79.5 7.5Q70 20 66 61Z" transform="translate(1689, 0)" /> <path d="M288 40Q266 -6 235 -6Q206 -6 184 40Q176 56 166.0 80.5Q156 105 145.0 133.5Q134 162 122.0 192.0Q110 222 98 248Q58 336 36.0 386.0Q14 436 14 466Q14 483 24.5 494.0Q35 505 53 505Q64 505 76.5 496.0Q89 487 102 462Q140 386 172.5 307.5Q205 229 236 148Q267 229 299.5 307.5Q332 386 370 462Q383 487 395.5 496.0Q408 505 419 505Q437 505 447.5 494.0Q458 483 458 466Q458 436 436.0 386.0Q414 336 374 248Q362 222 350.0 192.0Q338 162 327.0 133.5Q316 105 306.0 80.5Q296 56 288 40Z" transform="translate(2066, 0)" /> <path d="M68 62Q66 99 64.5 146.5Q63 194 63 251Q63 322 64.0 372.5Q65 423 69.5 455.5Q74 488 84.0 503.5Q94 519 112 519Q129 519 142.0 507.0Q155 495 157 455Q163 350 163 252Q163 202 161.0 158.5Q159 115 157 63Q156 39 152.5 26.0Q149 13 143.0 6.0Q137 -1 129.5 -2.5Q122 -4 112 -4Q94 -4 82.0 8.5Q70 21 68 62ZM113 700Q136 700 155.5 682.0Q175 664 175 639Q175 615 155.0 597.5Q135 580 110 580Q89 580 70.5 597.5Q52 615 52 641Q52 665 70.5 682.5Q89 700 113 700Z" transform="translate(2550, 0)" /> <path d="M67 58Q66 94 65.0 142.0Q64 190 63.5 246.0Q63 302 62.5 364.0Q62 426 62 491Q62 562 63.0 613.0Q64 664 68.5 697.0Q73 730 83.0 745.5Q93 761 111 761Q128 761 141.0 750.0Q154 739 156 699Q160 627 161.0 549.5Q162 472 162 397Q162 352 162.0 310.5Q162 269 161.0 228.5Q160 188 159.0 146.0Q158 104 156 59Q155 35 151.5 22.0Q148 9 142.0 2.0Q136 -5 128.5 -6.5Q121 -8 111 -8Q93 -8 81.0 4.5Q69 17 67 58Z" transform="translate(2776, 0)" />
  </g>
</svg>
