<?xml version="1.0" standalone="no"?>
<svg xmlns="http://www.w3.org/2000/svg" width="7168" height="1245" viewBox="0 -289 7168 1245">
  <g transform="translate(0, 956) scale(1, -1)">
    <path d="M351 708Q384 708 417.5 702.5Q451 697 478.0 685.5Q505 674 522.5 657.5Q540 641 540 619Q540 596 528.0 584.0Q516 572 498 572Q481 572 468.0 577.5Q455 583 438.5 590.0Q422 597 399.0 602.5Q376 608 338 608Q300 608 265.5 588.5Q231 569 205.5 534.5Q180 500 165.0 453.0Q150 406 150 351Q150 283 167.5 234.0Q185 185 213.0 153.5Q241 122 276.5 106.5Q312 91 348 91Q391 91 420.0 100.0Q449 109 469.5 120.0Q490 131 505.0 140.0Q520 149 534 149Q551 149 561.0 139.5Q571 130 571 106Q571 86 555.5 65.5Q540 45 510.5 28.5Q481 12 440.0 1.5Q399 -9 348 -9Q292 -9 236.5 13.0Q181 35 137.5 78.5Q94 122 67.0 187.5Q40 253 40 340Q40 427 64.5 495.0Q89 563 131.5 610.5Q174 658 230.5 683.0Q287 708 351 708Z" transform="translate(0, 0)" /> <path d="M295 411Q258 411 228.5 400.0Q199 389 162 370Q162 369 162.0 351.0Q162 333 161.5 305.0Q161 277 160.5 242.5Q160 208 159.5 173.5Q159 139 157.5 108.0Q156 77 155 56Q153 35 150.5 23.0Q148 11 144.5 5.5Q141 0 135.0 -1.0Q129 -2 122 -2Q105 -2 95.5 -0.5Q86 1 80.0 6.5Q74 12 71.5 23.0Q69 34 67 53Q65 72 63.5 105.5Q62 139 61.0 180.5Q60 222 59.5 269.0Q59 316 59 362Q59 408 59.5 459.5Q60 511 61.0 558.5Q62 606 63.0 643.5Q64 681 66 699Q68 725 75.5 744.0Q83 763 109 763Q129 763 141.5 749.0Q154 735 156 696Q158 661 159.5 598.5Q161 536 162 458Q176 469 196.0 478.5Q216 488 238.0 494.5Q260 501 283.0 505.0Q306 509 326 509Q374 509 409.5 486.5Q445 464 466 422Q480 395 487.0 362.5Q494 330 497 294Q498 278 499.0 262.5Q500 247 500.5 229.5Q501 212 501.0 190.0Q501 168 501 138Q501 108 500.0 82.5Q499 57 494.5 38.5Q490 20 480.0 9.5Q470 -1 452 -1Q426 -1 413.5 15.5Q401 32 401 55Q401 56 401.0 76.0Q401 96 400.5 122.5Q400 149 399.5 176.0Q399 203 398 220Q397 236 395.5 254.5Q394 273 391.5 292.0Q389 311 385.0 328.5Q381 346 375 360Q361 393 340.0 402.0Q319 411 295 411Z" transform="translate(599, 0)" /> <path d="M66 61Q62 96 61.0 146.0Q60 196 60 267Q60 337 60.5 380.0Q61 423 66 456Q71 497 81.5 509.0Q92 521 109 521Q121 521 130.5 519.0Q140 517 147.5 510.5Q155 504 159.0 492.0Q163 480 163 459Q163 455 164 451Q164 447 164.5 442.5Q165 438 165 432Q192 466 226.5 490.0Q261 514 305 514Q364 514 364 465Q364 447 356.5 435.0Q349 423 335.5 415.5Q322 408 304.5 404.0Q287 400 266 396Q234 390 206.0 373.5Q178 357 168 332Q168 313 168.5 304.0Q169 295 169.5 289.0Q170 283 170.0 276.0Q170 269 170 254Q170 203 168.0 158.5Q166 114 164 62Q163 38 158.5 25.0Q154 12 147.5 5.0Q141 -2 133.0 -3.5Q125 -5 117 -5Q89 -5 79.5 7.5Q70 20 66 61Z" transform="translate(1154, 0)" /> <path d="M68 62Q66 99 64.5 146.5Q63 194 63 251Q63 322 64.0 372.5Q65 423 69.5 455.5Q74 488 84.0 503.5Q94 519 112 519Q129 519 142.0 507.0Q155 495 157 455Q163 350 163 252Q163 202 161.0 158.5Q159 115 157 63Q156 39 152.5 26.0Q149 13 143.0 6.0Q137 -1 129.5 -2.5Q122 -4 112 -4Q94 -4 82.0 8.5Q70 21 68 62ZM113 700Q136 700 155.5 682.0Q175 664 175 639Q175 615 155.0 597.5Q135 580 110 580Q89 580 70.5 597.5Q52 615 52 641Q52 665 70.5 682.5Q89 700 113 700Z" transform="translate(1531, 0)" /> <path d="M237 522Q258 522 290.0 518.5Q322 515 351.0 505.5Q380 496 401.0 479.0Q422 462 422 436Q422 421 413.5 410.0Q405 399 387 399Q374 399 357.5 403.0Q341 407 321.5 412.5Q302 418 279.5 422.0Q257 426 232 426Q190 426 163.5 413.0Q137 400 137 372Q137 356 146.5 345.0Q156 334 172.5 325.5Q189 317 211.5 311.0Q234 305 259 299Q290 291 320.5 281.0Q351 271 375.0 253.5Q399 236 414.0 209.5Q429 183 429 144Q429 70 373.0 26.5Q317 -17 208 -17Q184 -17 151.0 -13.5Q118 -10 89.0 -0.5Q60 9 39.5 26.5Q19 44 19 73Q19 93 28.5 103.5Q38 114 52 114Q63 114 75.0 107.0Q87 100 104.0 92.0Q121 84 145.0 77.0Q169 70 204 70Q217 70 238.0 71.5Q259 73 279.5 80.0Q300 87 314.5 99.5Q329 112 329 135Q329 153 319.0 165.5Q309 178 292.0 187.0Q275 196 252.5 202.5Q230 209 205 216Q176 224 146.5 234.0Q117 244 93.0 260.0Q69 276 54.0 300.5Q39 325 39 361Q39 395 53.0 424.5Q67 454 93.0 476.0Q119 498 155.5 510.0Q192 522 237 522Z" transform="translate(1757, 0)" /> <path d="M147 65Q144 128 143.5 214.5Q143 301 143 411Q133 410 119.5 410.0Q106 410 98 410Q80 410 65.5 411.0Q51 412 40.0 417.0Q29 422 23.0 431.5Q17 441 17 458Q17 506 89 506Q100 506 116.0 506.0Q132 506 143 504Q143 557 145.0 589.0Q147 621 152.5 638.5Q158 656 167.5 661.5Q177 667 192 667Q208 667 218.0 656.0Q228 645 233.5 628.0Q239 611 240.5 590.0Q242 569 242 549Q242 535 241.5 523.5Q241 512 241 503Q255 507 270.0 507.5Q285 508 299 508Q336 508 356.0 496.5Q376 485 376 459Q376 443 369.0 433.5Q362 424 350.5 419.0Q339 414 323.5 412.5Q308 411 290 411Q280 411 267.0 411.0Q254 411 243 413Q243 360 243.0 316.0Q243 272 242.0 231.5Q241 191 240.0 151.0Q239 111 237 66Q236 42 232.5 29.0Q229 16 223.0 9.0Q217 2 209.5 0.5Q202 -1 192 -1Q174 -1 161.5 11.5Q149 24 147 65Z" transform="translate(2217, 0)" /> <path d="M735 30Q729 47 727.5 68.0Q726 89 726 120Q726 142 726.5 154.5Q727 167 727.0 176.5Q727 186 727.5 195.5Q728 205 728 222Q728 257 726.5 292.5Q725 328 716.0 356.5Q707 385 688.0 403.0Q669 421 633 421Q572 421 538.0 363.0Q504 305 497 178Q495 138 495.0 105.0Q495 72 491.0 48.5Q487 25 476.5 12.0Q466 -1 442 -1Q420 -1 410.0 10.5Q400 22 395.5 45.0Q391 68 390.5 101.0Q390 134 387 178Q384 226 377.5 270.0Q371 314 356.5 347.5Q342 381 317.5 401.0Q293 421 255 421Q219 421 199.5 403.5Q180 386 171.0 357.5Q162 329 160.5 293.5Q159 258 159 222Q159 204 159.5 195.5Q160 187 160.0 180.0Q160 173 160.5 162.0Q161 151 161 128Q161 95 159.5 71.0Q158 47 152 30Q145 10 133.0 5.5Q121 1 111 1Q80 1 71.0 23.0Q62 45 61 87Q61 110 60.5 138.5Q60 167 60 208Q60 228 60.0 243.0Q60 258 60.5 272.0Q61 286 61.5 300.5Q62 315 63 334Q66 395 85.0 431.5Q104 468 130.0 487.0Q156 506 186.0 511.5Q216 517 241 517Q295 517 332.0 501.0Q369 485 392.5 459.0Q416 433 427.5 400.0Q439 367 443 333Q447 366 459.5 398.5Q472 431 496.5 456.5Q521 482 560.0 498.0Q599 514 656 514Q683 514 711.5 508.5Q740 503 764.0 484.0Q788 465 804.5 429.5Q821 394 824 334Q825 315 825.5 300.5Q826 286 826.5 272.0Q827 258 827.0 243.0Q827 228 827 208Q827 167 826.5 138.5Q826 110 826 87Q826 68 824.5 52.0Q823 36 818.0 25.0Q813 14 803.5 7.5Q794 1 776 1Q759 1 750.0 7.5Q741 14 735 30Z" transform="translate(2614, 0)" /> <path d="M471 -4Q455 -4 445.5 1.5Q436 7 431.0 16.0Q426 25 424.0 37.5Q422 50 421 64Q396 33 356.5 12.0Q317 -9 256 -9Q217 -9 176.5 2.5Q136 14 103.0 42.5Q70 71 49.0 119.0Q28 167 28 240Q28 297 42.0 347.0Q56 397 84.5 434.5Q113 472 156.0 494.0Q199 516 257 516Q308 516 348.0 497.5Q388 479 420 437Q420 449 421.0 461.5Q422 474 426.5 484.5Q431 495 441.0 501.5Q451 508 468 508Q483 508 496.0 496.0Q509 484 511 444Q514 391 515.5 349.0Q517 307 517 262Q517 207 516.0 161.0Q515 115 511 63Q509 40 505.5 26.5Q502 13 497.0 6.5Q492 0 485.0 -2.0Q478 -4 471 -4ZM417 250Q417 302 401.5 335.0Q386 368 362.5 386.5Q339 405 312.0 412.0Q285 419 262 419Q226 419 200.5 406.0Q175 393 159.0 370.5Q143 348 135.5 317.5Q128 287 128 251Q128 163 166.5 121.0Q205 79 271 79Q310 79 337.5 92.5Q365 106 382.5 129.0Q400 152 408.5 183.5Q417 215 417 250Z" transform="translate(3497, 0)" /> <path d="M237 522Q258 522 290.0 518.5Q322 515 351.0 505.5Q380 496 401.0 479.0Q422 462 422 436Q422 421 413.5 410.0Q405 399 387 399Q374 399 357.5 403.0Q341 407 321.5 412.5Q302 418 279.5 422.0Q257 426 232 426Q190 426 163.5 413.0Q137 400 137 372Q137 356 146.5 345.0Q156 334 172.5 325.5Q189 317 211.5 311.0Q234 305 259 299Q290 291 320.5 281.0Q351 271 375.0 253.5Q399 236 414.0 209.5Q429 183 429 144Q429 70 373.0 26.5Q317 -17 208 -17Q184 -17 151.0 -13.5Q118 -10 89.0 -0.5Q60 9 39.5 26.5Q19 44 19 73Q19 93 28.5 103.5Q38 114 52 114Q63 114 75.0 107.0Q87 100 104.0 92.0Q121 84 145.0 77.0Q169 70 204 70Q217 70 238.0 71.5Q259 73 279.5 80.0Q300 87 314.5 99.5Q329 112 329 135Q329 153 319.0 165.5Q309 178 292.0 187.0Q275 196 252.5 202.5Q230 209 205 216Q176 224 146.5 234.0Q117 244 93.0 260.0Q69 276 54.0 300.5Q39 325 39 361Q39 395 53.0 424.5Q67 454 93.0 476.0Q119 498 155.5 510.0Q192 522 237 522Z" transform="translate(4070, 0)" /> <path d="" transform="translate(4530, 0)" /> <path d="M304 706Q332 706 368.5 701.5Q405 697 437.0 685.5Q469 674 491.0 655.5Q513 637 513 610Q513 594 504.0 583.0Q495 572 475 572Q460 572 444.5 578.0Q429 584 409.5 590.5Q390 597 364.5 603.0Q339 609 305 609Q239 609 207.5 585.5Q176 562 176 521Q176 493 190.0 474.0Q204 455 227.5 441.5Q251 428 280.5 419.0Q310 410 341 402Q376 393 410.5 380.0Q445 367 472.0 346.0Q499 325 515.5 293.0Q532 261 532 212Q532 161 513.0 120.5Q494 80 461.0 51.5Q428 23 382.0 7.5Q336 -8 282 -8Q252 -8 212.0 -2.5Q172 3 136.0 16.5Q100 30 75.0 52.5Q50 75 50 108Q50 128 60.5 140.0Q71 152 92 152Q109 152 120.0 145.5Q131 139 139 131Q169 105 207.0 96.0Q245 87 285 87Q308 87 333.5 90.5Q359 94 380.0 105.0Q401 116 415.0 136.5Q429 157 429 192Q429 224 416.5 244.5Q404 265 383.0 279.0Q362 293 333.5 302.0Q305 311 272 320Q235 330 199.0 342.0Q163 354 135.0 374.5Q107 395 89.5 426.5Q72 458 72 507Q72 556 90.0 593.0Q108 630 139.0 655.0Q170 680 212.5 693.0Q255 706 304 706Z" transform="translate(4739, 0)" /> <path d="M170 -144Q170 -163 169.0 -180.5Q168 -198 162.5 -212.0Q157 -226 146.5 -234.5Q136 -243 117 -243Q95 -243 80.5 -227.5Q66 -212 64 -173Q63 -148 61.0 -112.0Q59 -76 57.5 -36.0Q56 4 54.5 44.0Q53 84 53 118Q53 235 69.5 311.0Q86 387 119.0 432.0Q152 477 200.5 495.0Q249 513 313 513Q364 513 409.0 497.5Q454 482 487.5 449.5Q521 417 541.0 365.5Q561 314 561 242Q561 182 540.5 136.0Q520 90 484.0 58.5Q448 27 399.5 10.5Q351 -6 296 -6Q249 -6 211.5 13.5Q174 33 158 56Q163 0 166.5 -48.0Q170 -96 170 -144ZM308 413Q273 413 247.5 401.0Q222 389 206.0 368.0Q190 347 182.5 318.0Q175 289 175 255Q175 222 181.5 192.5Q188 163 203.0 141.0Q218 119 243.0 106.0Q268 93 304 93Q332 93 358.0 100.5Q384 108 404.5 126.0Q425 144 437.5 174.0Q450 204 450 249Q450 295 437.5 326.5Q425 358 404.5 377.5Q384 397 358.5 405.0Q333 413 308 413Z" transform="translate(5321, 0)" /> <path d="M68 62Q66 99 64.5 146.5Q63 194 63 251Q63 322 64.0 372.5Q65 423 69.5 455.5Q74 488 84.0 503.5Q94 519 112 519Q129 519 142.0 507.0Q155 495 157 455Q163 350 163 252Q163 202 161.0 158.5Q159 115 157 63Q156 39 152.5 26.0Q149 13 143.0 6.0Q137 -1 129.5 -2.5Q122 -4 112 -4Q94 -4 82.0 8.5Q70 21 68 62ZM113 700Q136 700 155.5 682.0Q175 664 175 639Q175 615 155.0 597.5Q135 580 110 580Q89 580 70.5 597.5Q52 615 52 641Q52 665 70.5 682.5Q89 700 113 700Z" transform="translate(5910, 0)" /> <path d="M289 510Q318 510 347.5 505.0Q377 500 401.0 491.0Q425 482 440.0 469.0Q455 456 455 439Q455 395 405 395Q393 395 382.5 398.5Q372 402 358.0 405.5Q344 409 323.0 412.5Q302 416 271 416Q205 416 169.0 371.0Q133 326 133 254Q133 175 169.5 127.0Q206 79 273 79Q315 79 341.0 86.0Q367 93 383.5 102.0Q400 111 410.5 118.0Q421 125 434 125Q452 125 462.5 117.5Q473 110 473 87Q473 63 454.5 45.0Q436 27 408.0 15.0Q380 3 347.5 -3.0Q315 -9 288 -9Q167 -9 98.0 58.0Q29 125 29 248Q29 301 45.5 348.5Q62 396 95.0 432.0Q128 468 176.5 489.0Q225 510 289 510Z" transform="translate(6136, 0)" /> <path d="M292 184Q257 184 218.5 189.5Q180 195 135 213Q144 152 185.5 121.0Q227 90 305 90Q333 90 355.5 93.5Q378 97 395.0 101.5Q412 106 425.0 109.5Q438 113 449 113Q463 113 476.0 104.5Q489 96 489 76Q489 51 468.5 35.0Q448 19 418.5 9.5Q389 0 356.0 -3.5Q323 -7 298 -7Q239 -7 189.5 9.0Q140 25 104.0 57.5Q68 90 48.0 138.0Q28 186 28 250Q28 312 47.5 360.0Q67 408 101.0 441.0Q135 474 181.5 491.0Q228 508 282 508Q324 508 363.5 497.0Q403 486 433.5 464.0Q464 442 482.5 408.5Q501 375 501 330Q501 290 486.0 262.0Q471 234 443.5 217.0Q416 200 377.5 192.0Q339 184 292 184ZM285 416Q258 416 233.0 409.5Q208 403 187.5 388.5Q167 374 153.0 350.5Q139 327 134 292Q172 275 208.0 268.5Q244 262 284 262Q343 262 371.5 276.5Q400 291 400 329Q400 364 373.5 390.0Q347 416 285 416Z" transform="translate(6633, 0)" />
  </g>
</svg>
