<?xml version="1.0" standalone="no"?>
<svg xmlns="http://www.w3.org/2000/svg" width="1293" height="1245" viewBox="0 -289 1293 1245">
  <g transform="translate(0, 956) scale(1, -1)">
    <path d="M265 707Q368 707 430.0 676.0Q492 645 525.0 594.0Q558 543 568.5 478.0Q579 413 579 346Q579 273 560.5 208.0Q542 143 503.5 94.5Q465 46 405.0 17.5Q345 -11 262 -11Q196 -11 156.5 -1.5Q117 8 95.5 27.0Q74 46 67.0 75.0Q60 104 60 143V519Q60 562 67.5 597.0Q75 632 97.0 656.5Q119 681 159.5 694.0Q200 707 265 707ZM269 89Q331 89 371.5 111.5Q412 134 436.0 171.0Q460 208 469.5 255.0Q479 302 479 351Q479 396 472.0 441.5Q465 487 443.0 524.0Q421 561 380.0 584.0Q339 607 271 607Q209 607 185.0 589.0Q161 571 161 534V151Q161 120 183.5 104.5Q206 89 269 89Z" transform="translate(0, 0)" /> <path d="M68 62Q66 99 64.5 146.5Q63 194 63 251Q63 322 64.0 372.5Q65 423 69.5 455.5Q74 488 84.0 503.5Q94 519 112 519Q129 519 142.0 507.0Q155 495 157 455Q163 350 163 252Q163 202 161.0 158.5Q159 115 157 63Q156 39 152.5 26.0Q149 13 143.0 6.0Q137 -1 129.5 -2.5Q122 -4 112 -4Q94 -4 82.0 8.5Q70 21 68 62ZM113 700Q136 700 155.5 682.0Q175 664 175 639Q175 615 155.0 597.5Q135 580 110 580Q89 580 70.5 597.5Q52 615 52 641Q52 665 70.5 682.5Q89 700 113 700Z" transform="translate(619, 0)" /> <path d="M67 58Q66 94 65.0 142.0Q64 190 63.5 246.0Q63 302 62.5 364.0Q62 426 62 491Q62 562 63.0 613.0Q64 664 68.5 697.0Q73 730 83.0 745.5Q93 761 111 761Q128 761 141.0 750.0Q154 739 156 699Q160 627 161.0 549.5Q162 472 162 397Q162 352 162.0 310.5Q162 269 161.0 228.5Q160 188 159.0 146.0Q158 104 156 59Q155 35 151.5 22.0Q148 9 142.0 2.0Q136 -5 128.5 -6.5Q121 -8 111 -8Q93 -8 81.0 4.5Q69 17 67 58Z" transform="translate(845, 0)" /> <path d="M67 58Q66 94 65.0 142.0Q64 190 63.5 246.0Q63 302 62.5 364.0Q62 426 62 491Q62 562 63.0 613.0Q64 664 68.5 697.0Q73 730 83.0 745.5Q93 761 111 761Q128 761 141.0 750.0Q154 739 156 699Q160 627 161.0 549.5Q162 472 162 397Q162 352 162.0 310.5Q162 269 161.0 228.5Q160 188 159.0 146.0Q158 104 156 59Q155 35 151.5 22.0Q148 9 142.0 2.0Q136 -5 128.5 -6.5Q121 -8 111 -8Q93 -8 81.0 4.5Q69 17 67 58Z" transform="translate(1069, 0)" />
  </g>
</svg>
