<?xml version="1.0" standalone="no"?>
<svg xmlns="http://www.w3.org/2000/svg" width="2888" height="1245" viewBox="0 -289 2888 1245">
  <g transform="translate(0, 956) scale(1, -1)">
    <path d="M365 708Q398 708 433.0 702.0Q468 696 497.0 684.5Q526 673 545.0 656.0Q564 639 564 617Q564 594 552.0 582.0Q540 570 522 570Q505 570 490.5 576.0Q476 582 458.0 589.0Q440 596 415.0 602.0Q390 608 352 608Q310 608 273.5 588.5Q237 569 209.0 534.5Q181 500 165.0 453.0Q149 406 149 351Q149 284 166.0 235.0Q183 186 210.5 154.0Q238 122 272.5 106.5Q307 91 342 91Q399 91 432.5 107.5Q466 124 486 150Q487 171 487.0 200.0Q487 229 487 263Q487 276 485.0 283.5Q483 291 475.0 295.0Q467 299 451.5 300.0Q436 301 410 301Q378 301 358.0 309.5Q338 318 338 346Q338 366 348.5 378.5Q359 391 392 393Q398 393 411.5 393.5Q425 394 440.5 394.0Q456 394 471.0 394.0Q486 394 495 394Q525 394 543.0 388.5Q561 383 575 364Q582 354 583.5 329.0Q585 304 585 271V13Q585 -14 570.5 -27.0Q556 -40 537 -40Q514 -40 499.5 -28.5Q485 -17 485 8V47Q459 17 423.5 4.0Q388 -9 334 -9Q279 -9 226.0 13.0Q173 35 132.0 78.5Q91 122 65.5 187.5Q40 253 40 340Q40 427 65.5 495.0Q91 563 135.0 610.5Q179 658 238.0 683.0Q297 708 365 708Z" transform="translate(0, 0)" /> <path d="M68 62Q66 99 64.5 146.5Q63 194 63 251Q63 322 64.0 372.5Q65 423 69.5 455.5Q74 488 84.0 503.5Q94 519 112 519Q129 519 142.0 507.0Q155 495 157 455Q163 350 163 252Q163 202 161.0 158.5Q159 115 157 63Q156 39 152.5 26.0Q149 13 143.0 6.0Q137 -1 129.5 -2.5Q122 -4 112 -4Q94 -4 82.0 8.5Q70 21 68 62ZM113 700Q136 700 155.5 682.0Q175 664 175 639Q175 615 155.0 597.5Q135 580 110 580Q89 580 70.5 597.5Q52 615 52 641Q52 665 70.5 682.5Q89 700 113 700Z" transform="translate(635, 0)" /> <path d="M296 426Q259 426 229.5 414.0Q200 402 163 378Q163 357 163.0 316.5Q163 276 162.0 228.5Q161 181 160.0 135.0Q159 89 156 58Q154 38 151.5 26.5Q149 15 144.5 9.0Q140 3 132.5 1.5Q125 0 113 0Q101 0 93.5 1.5Q86 3 81.0 8.5Q76 14 73.0 25.0Q70 36 68 55Q66 73 64.5 103.0Q63 133 62.0 168.5Q61 204 60.5 240.5Q60 277 60 308Q60 359 61.5 391.0Q63 423 67 448Q73 490 83.0 501.0Q93 512 110 512Q135 512 147.5 498.0Q160 484 163 452Q200 484 242.5 503.0Q285 522 330 522Q373 522 408.5 502.0Q444 482 467 437Q481 410 488.0 377.5Q495 345 498 309Q499 293 500.0 277.5Q501 262 501.5 244.5Q502 227 502.0 205.0Q502 183 502 153Q502 121 501.0 93.0Q500 65 495.5 44.5Q491 24 480.0 12.5Q469 1 450 1Q404 1 402 45Q402 48 402.0 70.5Q402 93 401.5 123.0Q401 153 400.5 184.0Q400 215 399 235Q398 251 396.5 269.5Q395 288 392.5 307.0Q390 326 386.0 343.5Q382 361 376 375Q362 408 341.0 417.0Q320 426 296 426Z" transform="translate(861, 0)" /> <path d="M258 -137Q305 -137 337.5 -118.5Q370 -100 390.0 -65.5Q410 -31 418.5 17.5Q427 66 427 127Q418 95 401.0 73.0Q384 51 361.5 37.5Q339 24 311.0 18.0Q283 12 253 12Q207 12 166.0 25.0Q125 38 94.5 66.0Q64 94 46.0 137.5Q28 181 28 242Q28 301 45.5 350.5Q63 400 96.5 436.0Q130 472 178.0 492.0Q226 512 288 512Q321 512 346.5 506.0Q372 500 392.0 490.0Q412 480 427.5 466.0Q443 452 456 436Q494 388 511.0 322.5Q528 257 528 165Q528 97 516.5 26.0Q505 -45 475.0 -102.5Q445 -160 392.0 -196.5Q339 -233 256 -233Q241 -233 222.5 -231.5Q204 -230 184.5 -227.0Q165 -224 146.0 -218.5Q127 -213 111 -204Q91 -193 79.0 -183.0Q67 -173 67 -150Q67 -131 75.5 -115.5Q84 -100 105 -100Q115 -100 127.0 -106.0Q139 -112 156.5 -118.5Q174 -125 198.5 -131.0Q223 -137 258 -137ZM263 103Q302 103 329.5 117.5Q357 132 374.5 156.0Q392 180 400.5 210.0Q409 240 409 270Q409 295 402.5 320.5Q396 346 381.0 367.0Q366 388 340.0 401.0Q314 414 275 414Q209 414 168.5 374.0Q128 334 128 256Q128 183 164.0 143.0Q200 103 263 103Z" transform="translate(1418, 0)" /> <path d="M292 184Q257 184 218.5 189.5Q180 195 135 213Q144 152 185.5 121.0Q227 90 305 90Q333 90 355.5 93.5Q378 97 395.0 101.5Q412 106 425.0 109.5Q438 113 449 113Q463 113 476.0 104.5Q489 96 489 76Q489 51 468.5 35.0Q448 19 418.5 9.5Q389 0 356.0 -3.5Q323 -7 298 -7Q239 -7 189.5 9.0Q140 25 104.0 57.5Q68 90 48.0 138.0Q28 186 28 250Q28 312 47.5 360.0Q67 408 101.0 441.0Q135 474 181.5 491.0Q228 508 282 508Q324 508 363.5 497.0Q403 486 433.5 464.0Q464 442 482.5 408.5Q501 375 501 330Q501 290 486.0 262.0Q471 234 443.5 217.0Q416 200 377.5 192.0Q339 184 292 184ZM285 416Q258 416 233.0 409.5Q208 403 187.5 388.5Q167 374 153.0 350.5Q139 327 134 292Q172 275 208.0 268.5Q244 262 284 262Q343 262 371.5 276.5Q400 291 400 329Q400 364 373.5 390.0Q347 416 285 416Z" transform="translate(1976, 0)" /> <path d="M66 61Q62 96 61.0 146.0Q60 196 60 267Q60 337 60.5 380.0Q61 423 66 456Q71 497 81.5 509.0Q92 521 109 521Q121 521 130.5 519.0Q140 517 147.5 510.5Q155 504 159.0 492.0Q163 480 163 459Q163 455 164 451Q164 447 164.5 442.5Q165 438 165 432Q192 466 226.5 490.0Q261 514 305 514Q364 514 364 465Q364 447 356.5 435.0Q349 423 335.5 415.5Q322 408 304.5 404.0Q287 400 266 396Q234 390 206.0 373.5Q178 357 168 332Q168 313 168.5 304.0Q169 295 169.5 289.0Q170 283 170.0 276.0Q170 269 170 254Q170 203 168.0 158.5Q166 114 164 62Q163 38 158.5 25.0Q154 12 147.5 5.0Q141 -2 133.0 -3.5Q125 -5 117 -5Q89 -5 79.5 7.5Q70 20 66 61Z" transform="translate(2511, 0)" />
  </g>
</svg>
