<?xml version="1.0" standalone="no"?>
<svg xmlns="http://www.w3.org/2000/svg" width="5214" height="1245" viewBox="0 -289 5214 1245">
  <g transform="translate(0, 956) scale(1, -1)">
    <path d="M455 62Q453 116 451.5 175.5Q450 235 450 313Q418 312 382.0 311.5Q346 311 308 311Q263 311 226.0 311.0Q189 311 160 312Q159 249 158.0 190.5Q157 132 154 63Q153 39 149.5 26.0Q146 13 140.0 6.0Q134 -1 126.5 -2.5Q119 -4 109 -4Q91 -4 79.0 8.5Q67 21 65 62Q63 98 62.5 137.0Q62 176 61.0 221.0Q60 266 60.0 318.5Q60 371 60 436Q60 507 61.0 557.5Q62 608 66.5 640.0Q71 672 81.0 687.0Q91 702 109 702Q126 702 139.0 691.0Q152 680 154 640Q156 606 157.0 578.5Q158 551 159.0 524.5Q160 498 160.0 470.0Q160 442 160 408Q235 411 307 411Q342 411 377.5 410.0Q413 409 450 407V436Q450 507 451.0 557.5Q452 608 456.5 640.0Q461 672 471.0 687.0Q481 702 499 702Q516 702 529.0 691.0Q542 680 544 640Q546 604 547.0 576.0Q548 548 549.0 520.5Q550 493 550.0 463.5Q550 434 550 397Q550 352 550.0 311.0Q550 270 549.0 230.0Q548 190 547.0 149.0Q546 108 544 63Q543 39 539.5 26.0Q536 13 530.0 6.0Q524 -1 516.5 -2.5Q509 -4 499 -4Q481 -4 469.0 8.5Q457 21 455 62Z" transform="translate(0, 0)" /> <path d="M292 507Q349 507 394.0 489.5Q439 472 470.5 440.0Q502 408 519.0 362.0Q536 316 536 259Q536 196 516.5 146.0Q497 96 462.5 61.0Q428 26 380.5 7.0Q333 -12 277 -12Q216 -12 169.5 9.0Q123 30 91.5 66.0Q60 102 44.0 149.0Q28 196 28 248Q28 305 46.5 352.5Q65 400 99.5 434.5Q134 469 183.0 488.0Q232 507 292 507ZM281 80Q322 80 351.0 94.5Q380 109 398.5 133.0Q417 157 425.5 187.5Q434 218 434 251Q434 285 425.5 314.5Q417 344 399.5 366.0Q382 388 354.5 400.5Q327 413 289 413Q250 413 221.0 400.0Q192 387 172.5 364.5Q153 342 143.0 311.0Q133 280 133 244Q133 171 170.5 125.5Q208 80 281 80Z" transform="translate(610, 0)" /> <path d="M147 65Q144 128 143.5 214.5Q143 301 143 411Q133 410 119.5 410.0Q106 410 98 410Q80 410 65.5 411.0Q51 412 40.0 417.0Q29 422 23.0 431.5Q17 441 17 458Q17 506 89 506Q100 506 116.0 506.0Q132 506 143 504Q143 557 145.0 589.0Q147 621 152.5 638.5Q158 656 167.5 661.5Q177 667 192 667Q208 667 218.0 656.0Q228 645 233.5 628.0Q239 611 240.5 590.0Q242 569 242 549Q242 535 241.5 523.5Q241 512 241 503Q255 507 270.0 507.5Q285 508 299 508Q336 508 356.0 496.5Q376 485 376 459Q376 443 369.0 433.5Q362 424 350.5 419.0Q339 414 323.5 412.5Q308 411 290 411Q280 411 267.0 411.0Q254 411 243 413Q243 360 243.0 316.0Q243 272 242.0 231.5Q241 191 240.0 151.0Q239 111 237 66Q236 42 232.5 29.0Q229 16 223.0 9.0Q217 2 209.5 0.5Q202 -1 192 -1Q174 -1 161.5 11.5Q149 24 147 65Z" transform="translate(1174, 0)" /> <path d="" transform="translate(1571, 0)" /> <path d="M160 63Q160 39 155.5 26.0Q151 13 144.5 6.0Q138 -1 129.5 -2.5Q121 -4 113 -4Q86 -4 77.5 8.0Q69 20 66 62Q64 84 63.0 126.0Q62 168 61.5 226.0Q61 284 60.5 354.0Q60 424 60 502Q60 539 69.0 577.0Q78 615 103.5 646.0Q129 677 174.5 696.0Q220 715 293 715Q344 715 390.0 704.0Q436 693 471.0 666.0Q506 639 527.0 594.0Q548 549 548 482Q548 412 525.0 366.0Q502 320 460.0 293.0Q418 266 360.0 255.0Q302 244 233 244Q216 244 199.0 244.0Q182 244 161 246ZM448 484Q448 551 410.5 585.0Q373 619 286 619Q253 619 229.5 613.5Q206 608 191.0 594.5Q176 581 168.5 558.0Q161 535 161 500Q161 466 161.0 422.5Q161 379 162 341Q185 340 213.5 340.0Q242 340 267 340Q297 340 329.5 344.0Q362 348 388.0 362.5Q414 377 431.0 405.5Q448 434 448 484Z" transform="translate(1780, 0)" /> <path d="M471 -4Q455 -4 445.5 1.5Q436 7 431.0 16.0Q426 25 424.0 37.5Q422 50 421 64Q396 33 356.5 12.0Q317 -9 256 -9Q217 -9 176.5 2.5Q136 14 103.0 42.5Q70 71 49.0 119.0Q28 167 28 240Q28 297 42.0 347.0Q56 397 84.5 434.5Q113 472 156.0 494.0Q199 516 257 516Q308 516 348.0 497.5Q388 479 420 437Q420 449 421.0 461.5Q422 474 426.5 484.5Q431 495 441.0 501.5Q451 508 468 508Q483 508 496.0 496.0Q509 484 511 444Q514 391 515.5 349.0Q517 307 517 262Q517 207 516.0 161.0Q515 115 511 63Q509 40 505.5 26.5Q502 13 497.0 6.5Q492 0 485.0 -2.0Q478 -4 471 -4ZM417 250Q417 302 401.5 335.0Q386 368 362.5 386.5Q339 405 312.0 412.0Q285 419 262 419Q226 419 200.5 406.0Q175 393 159.0 370.5Q143 348 135.5 317.5Q128 287 128 251Q128 163 166.5 121.0Q205 79 271 79Q310 79 337.5 92.5Q365 106 382.5 129.0Q400 152 408.5 183.5Q417 215 417 250Z" transform="translate(2348, 0)" /> <path d="M170 -144Q170 -163 169.0 -180.5Q168 -198 162.5 -212.0Q157 -226 146.5 -234.5Q136 -243 117 -243Q95 -243 80.5 -227.5Q66 -212 64 -173Q63 -148 61.0 -112.0Q59 -76 57.5 -36.0Q56 4 54.5 44.0Q53 84 53 118Q53 235 69.5 311.0Q86 387 119.0 432.0Q152 477 200.5 495.0Q249 513 313 513Q364 513 409.0 497.5Q454 482 487.5 449.5Q521 417 541.0 365.5Q561 314 561 242Q561 182 540.5 136.0Q520 90 484.0 58.5Q448 27 399.5 10.5Q351 -6 296 -6Q249 -6 211.5 13.5Q174 33 158 56Q163 0 166.5 -48.0Q170 -96 170 -144ZM308 413Q273 413 247.5 401.0Q222 389 206.0 368.0Q190 347 182.5 318.0Q175 289 175 255Q175 222 181.5 192.5Q188 163 203.0 141.0Q218 119 243.0 106.0Q268 93 304 93Q332 93 358.0 100.5Q384 108 404.5 126.0Q425 144 437.5 174.0Q450 204 450 249Q450 295 437.5 326.5Q425 358 404.5 377.5Q384 397 358.5 405.0Q333 413 308 413Z" transform="translate(2921, 0)" /> <path d="M66 61Q62 96 61.0 146.0Q60 196 60 267Q60 337 60.5 380.0Q61 423 66 456Q71 497 81.5 509.0Q92 521 109 521Q121 521 130.5 519.0Q140 517 147.5 510.5Q155 504 159.0 492.0Q163 480 163 459Q163 455 164 451Q164 447 164.5 442.5Q165 438 165 432Q192 466 226.5 490.0Q261 514 305 514Q364 514 364 465Q364 447 356.5 435.0Q349 423 335.5 415.5Q322 408 304.5 404.0Q287 400 266 396Q234 390 206.0 373.5Q178 357 168 332Q168 313 168.5 304.0Q169 295 169.5 289.0Q170 283 170.0 276.0Q170 269 170 254Q170 203 168.0 158.5Q166 114 164 62Q163 38 158.5 25.0Q154 12 147.5 5.0Q141 -2 133.0 -3.5Q125 -5 117 -5Q89 -5 79.5 7.5Q70 20 66 61Z" transform="translate(3510, 0)" /> <path d="M68 62Q66 99 64.5 146.5Q63 194 63 251Q63 322 64.0 372.5Q65 423 69.5 455.5Q74 488 84.0 503.5Q94 519 112 519Q129 519 142.0 507.0Q155 495 157 455Q163 350 163 252Q163 202 161.0 158.5Q159 115 157 63Q156 39 152.5 26.0Q149 13 143.0 6.0Q137 -1 129.5 -2.5Q122 -4 112 -4Q94 -4 82.0 8.5Q70 21 68 62ZM113 700Q136 700 155.5 682.0Q175 664 175 639Q175 615 155.0 597.5Q135 580 110 580Q89 580 70.5 597.5Q52 615 52 641Q52 665 70.5 682.5Q89 700 113 700Z" transform="translate(3887, 0)" /> <path d="M65 53Q63 75 62.0 119.5Q61 164 60.0 222.5Q59 281 59.0 350.0Q59 419 59 491Q59 576 60.0 630.0Q61 684 66.0 715.0Q71 746 82.0 757.5Q93 769 114 769Q132 769 140.0 757.5Q148 746 152 707Q154 683 155.5 642.5Q157 602 157.5 554.0Q158 506 158.5 454.0Q159 402 159 355V274L381 475Q392 485 407.5 494.5Q423 504 440 504Q460 504 470.0 488.5Q480 473 480 453Q480 442 476.5 432.5Q473 423 462 415L327 304L491 66Q500 54 500 39Q500 17 486.0 6.0Q472 -5 450 -5Q434 -5 422.0 1.0Q410 7 399 24L249 241L158 166Q157 129 156.0 100.0Q155 71 153 54Q149 19 140.0 8.0Q131 -3 108 -3Q85 -3 76.5 8.0Q68 19 65 53Z" transform="translate(4113, 0)" /> <path d="M471 -4Q455 -4 445.5 1.5Q436 7 431.0 16.0Q426 25 424.0 37.5Q422 50 421 64Q396 33 356.5 12.0Q317 -9 256 -9Q217 -9 176.5 2.5Q136 14 103.0 42.5Q70 71 49.0 119.0Q28 167 28 240Q28 297 42.0 347.0Q56 397 84.5 434.5Q113 472 156.0 494.0Q199 516 257 516Q308 516 348.0 497.5Q388 479 420 437Q420 449 421.0 461.5Q422 474 426.5 484.5Q431 495 441.0 501.5Q451 508 468 508Q483 508 496.0 496.0Q509 484 511 444Q514 391 515.5 349.0Q517 307 517 262Q517 207 516.0 161.0Q515 115 511 63Q509 40 505.5 26.5Q502 13 497.0 6.5Q492 0 485.0 -2.0Q478 -4 471 -4ZM417 250Q417 302 401.5 335.0Q386 368 362.5 386.5Q339 405 312.0 412.0Q285 419 262 419Q226 419 200.5 406.0Q175 393 159.0 370.5Q143 348 135.5 317.5Q128 287 128 251Q128 163 166.5 121.0Q205 79 271 79Q310 79 337.5 92.5Q365 106 382.5 129.0Q400 152 408.5 183.5Q417 215 417 250Z" transform="translate(4641, 0)" />
  </g>
</svg>
