<?xml version="1.0" standalone="no"?>
<svg xmlns="http://www.w3.org/2000/svg" width="2217" height="1245" viewBox="0 -289 2217 1245">
  <g transform="translate(0, 956) scale(1, -1)">
    <path d="M304 706Q332 706 368.5 701.5Q405 697 437.0 685.5Q469 674 491.0 655.5Q513 637 513 610Q513 594 504.0 583.0Q495 572 475 572Q460 572 444.5 578.0Q429 584 409.5 590.5Q390 597 364.5 603.0Q339 609 305 609Q239 609 207.5 585.5Q176 562 176 521Q176 493 190.0 474.0Q204 455 227.5 441.5Q251 428 280.5 419.0Q310 410 341 402Q376 393 410.5 380.0Q445 367 472.0 346.0Q499 325 515.5 293.0Q532 261 532 212Q532 161 513.0 120.5Q494 80 461.0 51.5Q428 23 382.0 7.5Q336 -8 282 -8Q252 -8 212.0 -2.5Q172 3 136.0 16.5Q100 30 75.0 52.5Q50 75 50 108Q50 128 60.5 140.0Q71 152 92 152Q109 152 120.0 145.5Q131 139 139 131Q169 105 207.0 96.0Q245 87 285 87Q308 87 333.5 90.5Q359 94 380.0 105.0Q401 116 415.0 136.5Q429 157 429 192Q429 224 416.5 244.5Q404 265 383.0 279.0Q362 293 333.5 302.0Q305 311 272 320Q235 330 199.0 342.0Q163 354 135.0 374.5Q107 395 89.5 426.5Q72 458 72 507Q72 556 90.0 593.0Q108 630 139.0 655.0Q170 680 212.5 693.0Q255 706 304 706Z" transform="translate(0, 0)" /> <path d="M147 65Q144 128 143.5 214.5Q143 301 143 411Q133 410 119.5 410.0Q106 410 98 410Q80 410 65.5 411.0Q51 412 40.0 417.0Q29 422 23.0 431.5Q17 441 17 458Q17 506 89 506Q100 506 116.0 506.0Q132 506 143 504Q143 557 145.0 589.0Q147 621 152.5 638.5Q158 656 167.5 661.5Q177 667 192 667Q208 667 218.0 656.0Q228 645 233.5 628.0Q239 611 240.5 590.0Q242 569 242 549Q242 535 241.5 523.5Q241 512 241 503Q255 507 270.0 507.5Q285 508 299 508Q336 508 356.0 496.5Q376 485 376 459Q376 443 369.0 433.5Q362 424 350.5 419.0Q339 414 323.5 412.5Q308 411 290 411Q280 411 267.0 411.0Q254 411 243 413Q243 360 243.0 316.0Q243 272 242.0 231.5Q241 191 240.0 151.0Q239 111 237 66Q236 42 232.5 29.0Q229 16 223.0 9.0Q217 2 209.5 0.5Q202 -1 192 -1Q174 -1 161.5 11.5Q149 24 147 65Z" transform="translate(582, 0)" /> <path d="M292 184Q257 184 218.5 189.5Q180 195 135 213Q144 152 185.5 121.0Q227 90 305 90Q333 90 355.5 93.5Q378 97 395.0 101.5Q412 106 425.0 109.5Q438 113 449 113Q463 113 476.0 104.5Q489 96 489 76Q489 51 468.5 35.0Q448 19 418.5 9.5Q389 0 356.0 -3.5Q323 -7 298 -7Q239 -7 189.5 9.0Q140 25 104.0 57.5Q68 90 48.0 138.0Q28 186 28 250Q28 312 47.5 360.0Q67 408 101.0 441.0Q135 474 181.5 491.0Q228 508 282 508Q324 508 363.5 497.0Q403 486 433.5 464.0Q464 442 482.5 408.5Q501 375 501 330Q501 290 486.0 262.0Q471 234 443.5 217.0Q416 200 377.5 192.0Q339 184 292 184ZM285 416Q258 416 233.0 409.5Q208 403 187.5 388.5Q167 374 153.0 350.5Q139 327 134 292Q172 275 208.0 268.5Q244 262 284 262Q343 262 371.5 276.5Q400 291 400 329Q400 364 373.5 390.0Q347 416 285 416Z" transform="translate(979, 0)" /> <path d="M304 378Q310 391 321.5 397.5Q333 404 347 404Q359 404 370.5 398.0Q382 392 389 379Q418 325 441.5 269.5Q465 214 492 157Q517 238 536.0 313.5Q555 389 575 462Q582 488 594.0 496.5Q606 505 625 505Q642 505 653.0 495.5Q664 486 664 470Q664 457 657.5 424.5Q651 392 640.5 349.5Q630 307 617.5 259.0Q605 211 592.5 167.0Q580 123 569.0 87.0Q558 51 552 33Q544 10 533.0 -1.5Q522 -13 499 -13Q478 -13 464.0 3.5Q450 20 438 43Q434 51 425.0 70.0Q416 89 403.5 115.0Q391 141 376.5 172.0Q362 203 347 235Q332 203 316.5 172.0Q301 141 288.0 114.5Q275 88 265.5 69.0Q256 50 252 42Q240 19 226.5 2.5Q213 -14 191 -14Q156 -14 138 32Q131 50 120.0 85.5Q109 121 97.0 165.0Q85 209 73.0 256.5Q61 304 51.5 346.0Q42 388 36.0 420.0Q30 452 30 466Q30 483 39.5 494.0Q49 505 67 505Q87 505 99.5 496.5Q112 488 119 462Q139 389 158.0 313.5Q177 238 202 157Q224 205 246.0 257.0Q268 309 304 378Z" transform="translate(1514, 0)" />
  </g>
</svg>
