<?xml version="1.0" standalone="no"?>
<svg xmlns="http://www.w3.org/2000/svg" width="4245" height="1245" viewBox="0 -289 4245 1245">
  <g transform="translate(0, 956) scale(1, -1)">
    <path d="M243 0Q187 0 153.0 9.0Q119 18 100.5 34.5Q82 51 75.5 75.0Q69 99 66 129Q63 164 61.5 221.5Q60 279 60 341Q60 371 60.5 404.5Q61 438 61.5 470.5Q62 503 63.0 531.0Q64 559 66 579Q69 610 76.0 635.0Q83 660 102.5 678.0Q122 696 157.5 705.5Q193 715 252 715Q386 715 452.5 665.5Q519 616 519 525Q519 478 498.5 438.0Q478 398 428 378Q456 373 479.0 357.0Q502 341 518.5 318.5Q535 296 543.5 268.5Q552 241 552 213Q552 177 537.0 139.5Q522 102 486.0 71.0Q450 40 390.5 20.0Q331 0 243 0ZM452 216Q452 252 435.5 274.0Q419 296 393.0 307.5Q367 319 335.0 323.0Q303 327 271 327Q246 327 219.0 327.0Q192 327 169 326Q168 305 167.0 283.0Q166 261 165.5 241.5Q165 222 165.0 207.5Q165 193 165 187Q165 160 169.0 142.0Q173 124 184.0 113.0Q195 102 215.5 97.5Q236 93 268 93Q356 93 404.0 124.0Q452 155 452 216ZM267 620Q234 620 213.5 614.5Q193 609 182.5 600.0Q172 591 168.5 578.0Q165 565 165 550V410Q179 409 194.5 409.0Q210 409 224 409Q260 409 294.5 414.0Q329 419 357.0 431.0Q385 443 402.0 464.0Q419 485 419 518Q419 563 382.5 591.5Q346 620 267 620Z" transform="translate(0, 0)" /> <path d="M471 -4Q455 -4 445.5 1.5Q436 7 431.0 16.0Q426 25 424.0 37.5Q422 50 421 64Q396 33 356.5 12.0Q317 -9 256 -9Q217 -9 176.5 2.5Q136 14 103.0 42.5Q70 71 49.0 119.0Q28 167 28 240Q28 297 42.0 347.0Q56 397 84.5 434.5Q113 472 156.0 494.0Q199 516 257 516Q308 516 348.0 497.5Q388 479 420 437Q420 449 421.0 461.5Q422 474 426.5 484.5Q431 495 441.0 501.5Q451 508 468 508Q483 508 496.0 496.0Q509 484 511 444Q514 391 515.5 349.0Q517 307 517 262Q517 207 516.0 161.0Q515 115 511 63Q509 40 505.5 26.5Q502 13 497.0 6.5Q492 0 485.0 -2.0Q478 -4 471 -4ZM417 250Q417 302 401.5 335.0Q386 368 362.5 386.5Q339 405 312.0 412.0Q285 419 262 419Q226 419 200.5 406.0Q175 393 159.0 370.5Q143 348 135.5 317.5Q128 287 128 251Q128 163 166.5 121.0Q205 79 271 79Q310 79 337.5 92.5Q365 106 382.5 129.0Q400 152 408.5 183.5Q417 215 417 250Z" transform="translate(582, 0)" /> <path d="M237 522Q258 522 290.0 518.5Q322 515 351.0 505.5Q380 496 401.0 479.0Q422 462 422 436Q422 421 413.5 410.0Q405 399 387 399Q374 399 357.5 403.0Q341 407 321.5 412.5Q302 418 279.5 422.0Q257 426 232 426Q190 426 163.5 413.0Q137 400 137 372Q137 356 146.5 345.0Q156 334 172.5 325.5Q189 317 211.5 311.0Q234 305 259 299Q290 291 320.5 281.0Q351 271 375.0 253.5Q399 236 414.0 209.5Q429 183 429 144Q429 70 373.0 26.5Q317 -17 208 -17Q184 -17 151.0 -13.5Q118 -10 89.0 -0.5Q60 9 39.5 26.5Q19 44 19 73Q19 93 28.5 103.5Q38 114 52 114Q63 114 75.0 107.0Q87 100 104.0 92.0Q121 84 145.0 77.0Q169 70 204 70Q217 70 238.0 71.5Q259 73 279.5 80.0Q300 87 314.5 99.5Q329 112 329 135Q329 153 319.0 165.5Q309 178 292.0 187.0Q275 196 252.5 202.5Q230 209 205 216Q176 224 146.5 234.0Q117 244 93.0 260.0Q69 276 54.0 300.5Q39 325 39 361Q39 395 53.0 424.5Q67 454 93.0 476.0Q119 498 155.5 510.0Q192 522 237 522Z" transform="translate(1155, 0)" /> <path d="M68 62Q66 99 64.5 146.5Q63 194 63 251Q63 322 64.0 372.5Q65 423 69.5 455.5Q74 488 84.0 503.5Q94 519 112 519Q129 519 142.0 507.0Q155 495 157 455Q163 350 163 252Q163 202 161.0 158.5Q159 115 157 63Q156 39 152.5 26.0Q149 13 143.0 6.0Q137 -1 129.5 -2.5Q122 -4 112 -4Q94 -4 82.0 8.5Q70 21 68 62ZM113 700Q136 700 155.5 682.0Q175 664 175 639Q175 615 155.0 597.5Q135 580 110 580Q89 580 70.5 597.5Q52 615 52 641Q52 665 70.5 682.5Q89 700 113 700Z" transform="translate(1615, 0)" /> <path d="M67 58Q66 94 65.0 142.0Q64 190 63.5 246.0Q63 302 62.5 364.0Q62 426 62 491Q62 562 63.0 613.0Q64 664 68.5 697.0Q73 730 83.0 745.5Q93 761 111 761Q128 761 141.0 750.0Q154 739 156 699Q160 627 161.0 549.5Q162 472 162 397Q162 352 162.0 310.5Q162 269 161.0 228.5Q160 188 159.0 146.0Q158 104 156 59Q155 35 151.5 22.0Q148 9 142.0 2.0Q136 -5 128.5 -6.5Q121 -8 111 -8Q93 -8 81.0 4.5Q69 17 67 58Z" transform="translate(1841, 0)" /> <path d="M68 62Q66 99 64.5 146.5Q63 194 63 251Q63 322 64.0 372.5Q65 423 69.5 455.5Q74 488 84.0 503.5Q94 519 112 519Q129 519 142.0 507.0Q155 495 157 455Q163 350 163 252Q163 202 161.0 158.5Q159 115 157 63Q156 39 152.5 26.0Q149 13 143.0 6.0Q137 -1 129.5 -2.5Q122 -4 112 -4Q94 -4 82.0 8.5Q70 21 68 62ZM113 700Q136 700 155.5 682.0Q175 664 175 639Q175 615 155.0 597.5Q135 580 110 580Q89 580 70.5 597.5Q52 615 52 641Q52 665 70.5 682.5Q89 700 113 700Z" transform="translate(2065, 0)" /> <path d="M65 53Q63 75 62.0 119.5Q61 164 60.0 222.5Q59 281 59.0 350.0Q59 419 59 491Q59 576 60.0 630.0Q61 684 66.0 715.0Q71 746 82.0 757.5Q93 769 114 769Q132 769 140.0 757.5Q148 746 152 707Q154 683 155.5 642.5Q157 602 157.5 554.0Q158 506 158.5 454.0Q159 402 159 355V274L381 475Q392 485 407.5 494.5Q423 504 440 504Q460 504 470.0 488.5Q480 473 480 453Q480 442 476.5 432.5Q473 423 462 415L327 304L491 66Q500 54 500 39Q500 17 486.0 6.0Q472 -5 450 -5Q434 -5 422.0 1.0Q410 7 399 24L249 241L158 166Q157 129 156.0 100.0Q155 71 153 54Q149 19 140.0 8.0Q131 -3 108 -3Q85 -3 76.5 8.0Q68 19 65 53Z" transform="translate(2291, 0)" /> <path d="M149 453Q151 427 150.5 390.0Q150 353 151.5 312.5Q153 272 158.0 231.5Q163 191 175.5 159.0Q188 127 210.5 107.0Q233 87 269 87Q305 87 327.5 107.0Q350 127 362.5 159.0Q375 191 380.0 231.5Q385 272 386.5 312.5Q388 353 387.5 390.0Q387 427 389 453Q393 515 440 515Q458 515 468.0 505.0Q478 495 482.5 477.0Q487 459 488.0 434.0Q489 409 489 378Q489 314 482.5 245.5Q476 177 453.5 120.0Q431 63 387.0 26.0Q343 -11 269 -11Q195 -11 151.0 26.0Q107 63 84.5 120.0Q62 177 55.5 245.5Q49 314 49 378Q49 409 50.0 434.0Q51 459 55.5 477.0Q60 495 70.0 505.0Q80 515 98 515Q145 515 149 453Z" transform="translate(2819, 0)" /> <path d="M735 30Q729 47 727.5 68.0Q726 89 726 120Q726 142 726.5 154.5Q727 167 727.0 176.5Q727 186 727.5 195.5Q728 205 728 222Q728 257 726.5 292.5Q725 328 716.0 356.5Q707 385 688.0 403.0Q669 421 633 421Q572 421 538.0 363.0Q504 305 497 178Q495 138 495.0 105.0Q495 72 491.0 48.5Q487 25 476.5 12.0Q466 -1 442 -1Q420 -1 410.0 10.5Q400 22 395.5 45.0Q391 68 390.5 101.0Q390 134 387 178Q384 226 377.5 270.0Q371 314 356.5 347.5Q342 381 317.5 401.0Q293 421 255 421Q219 421 199.5 403.5Q180 386 171.0 357.5Q162 329 160.5 293.5Q159 258 159 222Q159 204 159.5 195.5Q160 187 160.0 180.0Q160 173 160.5 162.0Q161 151 161 128Q161 95 159.5 71.0Q158 47 152 30Q145 10 133.0 5.5Q121 1 111 1Q80 1 71.0 23.0Q62 45 61 87Q61 110 60.5 138.5Q60 167 60 208Q60 228 60.0 243.0Q60 258 60.5 272.0Q61 286 61.5 300.5Q62 315 63 334Q66 395 85.0 431.5Q104 468 130.0 487.0Q156 506 186.0 511.5Q216 517 241 517Q295 517 332.0 501.0Q369 485 392.5 459.0Q416 433 427.5 400.0Q439 367 443 333Q447 366 459.5 398.5Q472 431 496.5 456.5Q521 482 560.0 498.0Q599 514 656 514Q683 514 711.5 508.5Q740 503 764.0 484.0Q788 465 804.5 429.5Q821 394 824 334Q825 315 825.5 300.5Q826 286 826.5 272.0Q827 258 827.0 243.0Q827 228 827 208Q827 167 826.5 138.5Q826 110 826 87Q826 68 824.5 52.0Q823 36 818.0 25.0Q813 14 803.5 7.5Q794 1 776 1Q759 1 750.0 7.5Q741 14 735 30Z" transform="translate(3362, 0)" />
  </g>
</svg>
