<?xml version="1.0" standalone="no"?>
<svg xmlns="http://www.w3.org/2000/svg" width="9803" height="1245" viewBox="0 -289 9803 1245">
  <g transform="translate(0, 956) scale(1, -1)">
    <path d="M365 708Q398 708 433.0 702.0Q468 696 497.0 684.5Q526 673 545.0 656.0Q564 639 564 617Q564 594 552.0 582.0Q540 570 522 570Q505 570 490.5 576.0Q476 582 458.0 589.0Q440 596 415.0 602.0Q390 608 352 608Q310 608 273.5 588.5Q237 569 209.0 534.5Q181 500 165.0 453.0Q149 406 149 351Q149 284 166.0 235.0Q183 186 210.5 154.0Q238 122 272.5 106.5Q307 91 342 91Q399 91 432.5 107.5Q466 124 486 150Q487 171 487.0 200.0Q487 229 487 263Q487 276 485.0 283.5Q483 291 475.0 295.0Q467 299 451.5 300.0Q436 301 410 301Q378 301 358.0 309.5Q338 318 338 346Q338 366 348.5 378.5Q359 391 392 393Q398 393 411.5 393.5Q425 394 440.5 394.0Q456 394 471.0 394.0Q486 394 495 394Q525 394 543.0 388.5Q561 383 575 364Q582 354 583.5 329.0Q585 304 585 271V13Q585 -14 570.5 -27.0Q556 -40 537 -40Q514 -40 499.5 -28.5Q485 -17 485 8V47Q459 17 423.5 4.0Q388 -9 334 -9Q279 -9 226.0 13.0Q173 35 132.0 78.5Q91 122 65.5 187.5Q40 253 40 340Q40 427 65.5 495.0Q91 563 135.0 610.5Q179 658 238.0 683.0Q297 708 365 708Z" transform="translate(0, 0)" /> <path d="M292 184Q257 184 218.5 189.5Q180 195 135 213Q144 152 185.5 121.0Q227 90 305 90Q333 90 355.5 93.5Q378 97 395.0 101.5Q412 106 425.0 109.5Q438 113 449 113Q463 113 476.0 104.5Q489 96 489 76Q489 51 468.5 35.0Q448 19 418.5 9.5Q389 0 356.0 -3.5Q323 -7 298 -7Q239 -7 189.5 9.0Q140 25 104.0 57.5Q68 90 48.0 138.0Q28 186 28 250Q28 312 47.5 360.0Q67 408 101.0 441.0Q135 474 181.5 491.0Q228 508 282 508Q324 508 363.5 497.0Q403 486 433.5 464.0Q464 442 482.5 408.5Q501 375 501 330Q501 290 486.0 262.0Q471 234 443.5 217.0Q416 200 377.5 192.0Q339 184 292 184ZM285 416Q258 416 233.0 409.5Q208 403 187.5 388.5Q167 374 153.0 350.5Q139 327 134 292Q172 275 208.0 268.5Q244 262 284 262Q343 262 371.5 276.5Q400 291 400 329Q400 364 373.5 390.0Q347 416 285 416Z" transform="translate(635, 0)" /> <path d="M304 378Q310 391 321.5 397.5Q333 404 347 404Q359 404 370.5 398.0Q382 392 389 379Q418 325 441.5 269.5Q465 214 492 157Q517 238 536.0 313.5Q555 389 575 462Q582 488 594.0 496.5Q606 505 625 505Q642 505 653.0 495.5Q664 486 664 470Q664 457 657.5 424.5Q651 392 640.5 349.5Q630 307 617.5 259.0Q605 211 592.5 167.0Q580 123 569.0 87.0Q558 51 552 33Q544 10 533.0 -1.5Q522 -13 499 -13Q478 -13 464.0 3.5Q450 20 438 43Q434 51 425.0 70.0Q416 89 403.5 115.0Q391 141 376.5 172.0Q362 203 347 235Q332 203 316.5 172.0Q301 141 288.0 114.5Q275 88 265.5 69.0Q256 50 252 42Q240 19 226.5 2.5Q213 -14 191 -14Q156 -14 138 32Q131 50 120.0 85.5Q109 121 97.0 165.0Q85 209 73.0 256.5Q61 304 51.5 346.0Q42 388 36.0 420.0Q30 452 30 466Q30 483 39.5 494.0Q49 505 67 505Q87 505 99.5 496.5Q112 488 119 462Q139 389 158.0 313.5Q177 238 202 157Q224 205 246.0 257.0Q268 309 304 378Z" transform="translate(1170, 0)" /> <path d="M149 453Q151 427 150.5 390.0Q150 353 151.5 312.5Q153 272 158.0 231.5Q163 191 175.5 159.0Q188 127 210.5 107.0Q233 87 269 87Q305 87 327.5 107.0Q350 127 362.5 159.0Q375 191 380.0 231.5Q385 272 386.5 312.5Q388 353 387.5 390.0Q387 427 389 453Q393 515 440 515Q458 515 468.0 505.0Q478 495 482.5 477.0Q487 459 488.0 434.0Q489 409 489 378Q489 314 482.5 245.5Q476 177 453.5 120.0Q431 63 387.0 26.0Q343 -11 269 -11Q195 -11 151.0 26.0Q107 63 84.5 120.0Q62 177 55.5 245.5Q49 314 49 378Q49 409 50.0 434.0Q51 459 55.5 477.0Q60 495 70.0 505.0Q80 515 98 515Q145 515 149 453ZM172 725Q195 725 214.5 707.0Q234 689 234 664Q234 640 214.0 622.5Q194 605 169 605Q148 605 129.5 622.5Q111 640 111 666Q111 690 129.5 707.5Q148 725 172 725ZM352 725Q375 725 394.5 707.0Q414 689 414 664Q414 640 394.0 622.5Q374 605 349 605Q328 605 309.5 622.5Q291 640 291 666Q291 690 309.5 707.5Q328 725 352 725Z" transform="translate(1873, 0)" /> <path d="M66 61Q62 96 61.0 146.0Q60 196 60 267Q60 337 60.5 380.0Q61 423 66 456Q71 497 81.5 509.0Q92 521 109 521Q121 521 130.5 519.0Q140 517 147.5 510.5Q155 504 159.0 492.0Q163 480 163 459Q163 455 164 451Q164 447 164.5 442.5Q165 438 165 432Q192 466 226.5 490.0Q261 514 305 514Q364 514 364 465Q364 447 356.5 435.0Q349 423 335.5 415.5Q322 408 304.5 404.0Q287 400 266 396Q234 390 206.0 373.5Q178 357 168 332Q168 313 168.5 304.0Q169 295 169.5 289.0Q170 283 170.0 276.0Q170 269 170 254Q170 203 168.0 158.5Q166 114 164 62Q163 38 158.5 25.0Q154 12 147.5 5.0Q141 -2 133.0 -3.5Q125 -5 117 -5Q89 -5 79.5 7.5Q70 20 66 61Z" transform="translate(2416, 0)" /> <path d="M373 1Q339 -1 297.5 -2.5Q256 -4 205 -4Q144 -4 108.0 -3.0Q72 -2 53.5 1.5Q35 5 29.5 12.0Q24 19 24 32Q24 56 39.5 87.5Q55 119 76.5 150.5Q98 182 119.5 209.0Q141 236 153 252Q187 297 220.0 332.0Q253 367 293 405Q270 403 240.5 403.0Q211 403 184 403Q142 403 113.5 404.0Q85 405 67.5 409.5Q50 414 43.0 424.0Q36 434 36 452Q36 469 47.0 481.5Q58 494 99 497Q117 498 126.0 499.5Q135 501 142.0 501.5Q149 502 157.5 502.5Q166 503 183 503Q224 503 263.0 501.5Q302 500 345 498Q355 498 367.5 496.0Q380 494 391.0 489.0Q402 484 409.5 475.0Q417 466 417 452Q417 428 391.0 388.0Q365 348 325.5 299.5Q286 251 239.5 197.5Q193 144 152 94Q163 95 178.0 95.5Q193 96 204 96Q249 96 287.0 94.5Q325 93 372 91Q396 90 409.0 86.5Q422 83 429.0 77.0Q436 71 437.5 63.0Q439 55 439 45Q439 27 426.5 15.0Q414 3 373 1Z" transform="translate(2793, 0)" /> <path d="M292 184Q257 184 218.5 189.5Q180 195 135 213Q144 152 185.5 121.0Q227 90 305 90Q333 90 355.5 93.5Q378 97 395.0 101.5Q412 106 425.0 109.5Q438 113 449 113Q463 113 476.0 104.5Q489 96 489 76Q489 51 468.5 35.0Q448 19 418.5 9.5Q389 0 356.0 -3.5Q323 -7 298 -7Q239 -7 189.5 9.0Q140 25 104.0 57.5Q68 90 48.0 138.0Q28 186 28 250Q28 312 47.5 360.0Q67 408 101.0 441.0Q135 474 181.5 491.0Q228 508 282 508Q324 508 363.5 497.0Q403 486 433.5 464.0Q464 442 482.5 408.5Q501 375 501 330Q501 290 486.0 262.0Q471 234 443.5 217.0Q416 200 377.5 192.0Q339 184 292 184ZM285 416Q258 416 233.0 409.5Q208 403 187.5 388.5Q167 374 153.0 350.5Q139 327 134 292Q172 275 208.0 268.5Q244 262 284 262Q343 262 371.5 276.5Q400 291 400 329Q400 364 373.5 390.0Q347 416 285 416Z" transform="translate(3257, 0)" /> <path d="" transform="translate(3792, 0)" /> <path d="M478 2Q458 2 444.5 18.0Q431 34 426 55Q414 44 398.5 33.0Q383 22 363.0 12.5Q343 3 319.0 -3.0Q295 -9 267 -9Q233 -9 191.5 2.5Q150 14 113.5 42.5Q77 71 52.5 120.0Q28 169 28 243Q28 306 47.0 355.0Q66 404 100.5 437.5Q135 471 182.5 488.5Q230 506 286 506Q334 506 362.0 495.0Q390 484 406 469Q406 496 406.0 530.5Q406 565 406.5 597.5Q407 630 407.5 657.0Q408 684 409 698Q411 732 421.0 744.5Q431 757 456 757Q482 757 491.5 744.5Q501 732 503 701Q504 688 504.5 666.0Q505 644 505.0 618.0Q505 592 505.5 565.5Q506 539 506.0 517.5Q506 496 506.0 482.0Q506 468 506 468Q506 366 504.5 280.0Q503 194 503 143Q505 132 511.5 122.0Q518 112 525.5 102.0Q533 92 539.0 81.0Q545 70 545 58Q545 44 538.0 33.5Q531 23 520.5 16.0Q510 9 498.5 5.5Q487 2 478 2ZM285 90Q347 90 380.0 127.0Q413 164 413 249Q413 412 284 412Q254 412 226.0 403.0Q198 394 176.5 375.0Q155 356 141.5 327.0Q128 298 128 258Q128 225 137.5 195.0Q147 165 166.5 141.5Q186 118 215.5 104.0Q245 90 285 90Z" transform="translate(4001, 0)" /> <path d="M292 184Q257 184 218.5 189.5Q180 195 135 213Q144 152 185.5 121.0Q227 90 305 90Q333 90 355.5 93.5Q378 97 395.0 101.5Q412 106 425.0 109.5Q438 113 449 113Q463 113 476.0 104.5Q489 96 489 76Q489 51 468.5 35.0Q448 19 418.5 9.5Q389 0 356.0 -3.5Q323 -7 298 -7Q239 -7 189.5 9.0Q140 25 104.0 57.5Q68 90 48.0 138.0Q28 186 28 250Q28 312 47.5 360.0Q67 408 101.0 441.0Q135 474 181.5 491.0Q228 508 282 508Q324 508 363.5 497.0Q403 486 433.5 464.0Q464 442 482.5 408.5Q501 375 501 330Q501 290 486.0 262.0Q471 234 443.5 217.0Q416 200 377.5 192.0Q339 184 292 184ZM285 416Q258 416 233.0 409.5Q208 403 187.5 388.5Q167 374 153.0 350.5Q139 327 134 292Q172 275 208.0 268.5Q244 262 284 262Q343 262 371.5 276.5Q400 291 400 329Q400 364 373.5 390.0Q347 416 285 416Z" transform="translate(4565, 0)" /> <path d="M66 61Q62 96 61.0 146.0Q60 196 60 267Q60 337 60.5 380.0Q61 423 66 456Q71 497 81.5 509.0Q92 521 109 521Q121 521 130.5 519.0Q140 517 147.5 510.5Q155 504 159.0 492.0Q163 480 163 459Q163 455 164 451Q164 447 164.5 442.5Q165 438 165 432Q192 466 226.5 490.0Q261 514 305 514Q364 514 364 465Q364 447 356.5 435.0Q349 423 335.5 415.5Q322 408 304.5 404.0Q287 400 266 396Q234 390 206.0 373.5Q178 357 168 332Q168 313 168.5 304.0Q169 295 169.5 289.0Q170 283 170.0 276.0Q170 269 170 254Q170 203 168.0 158.5Q166 114 164 62Q163 38 158.5 25.0Q154 12 147.5 5.0Q141 -2 133.0 -3.5Q125 -5 117 -5Q89 -5 79.5 7.5Q70 20 66 61Z" transform="translate(5100, 0)" /> <path d="" transform="translate(5477, 0)" /> <path d="M160 63Q160 39 155.5 26.0Q151 13 144.5 6.0Q138 -1 129.5 -2.5Q121 -4 113 -4Q86 -4 77.5 8.0Q69 20 66 62Q64 84 63.0 126.0Q62 168 61.5 226.0Q61 284 60.5 354.0Q60 424 60 502Q60 539 69.0 577.0Q78 615 103.5 646.0Q129 677 174.5 696.0Q220 715 293 715Q344 715 390.0 704.0Q436 693 471.0 666.0Q506 639 527.0 594.0Q548 549 548 482Q548 412 525.0 366.0Q502 320 460.0 293.0Q418 266 360.0 255.0Q302 244 233 244Q216 244 199.0 244.0Q182 244 161 246ZM448 484Q448 551 410.5 585.0Q373 619 286 619Q253 619 229.5 613.5Q206 608 191.0 594.5Q176 581 168.5 558.0Q161 535 161 500Q161 466 161.0 422.5Q161 379 162 341Q185 340 213.5 340.0Q242 340 267 340Q297 340 329.5 344.0Q362 348 388.0 362.5Q414 377 431.0 405.5Q448 434 448 484Z" transform="translate(5686, 0)" /> <path d="M66 61Q62 96 61.0 146.0Q60 196 60 267Q60 337 60.5 380.0Q61 423 66 456Q71 497 81.5 509.0Q92 521 109 521Q121 521 130.5 519.0Q140 517 147.5 510.5Q155 504 159.0 492.0Q163 480 163 459Q163 455 164 451Q164 447 164.5 442.5Q165 438 165 432Q192 466 226.5 490.0Q261 514 305 514Q364 514 364 465Q364 447 356.5 435.0Q349 423 335.5 415.5Q322 408 304.5 404.0Q287 400 266 396Q234 390 206.0 373.5Q178 357 168 332Q168 313 168.5 304.0Q169 295 169.5 289.0Q170 283 170.0 276.0Q170 269 170 254Q170 203 168.0 158.5Q166 114 164 62Q163 38 158.5 25.0Q154 12 147.5 5.0Q141 -2 133.0 -3.5Q125 -5 117 -5Q89 -5 79.5 7.5Q70 20 66 61Z" transform="translate(6254, 0)" /> <path d="M292 507Q349 507 394.0 489.5Q439 472 470.5 440.0Q502 408 519.0 362.0Q536 316 536 259Q536 196 516.5 146.0Q497 96 462.5 61.0Q428 26 380.5 7.0Q333 -12 277 -12Q216 -12 169.5 9.0Q123 30 91.5 66.0Q60 102 44.0 149.0Q28 196 28 248Q28 305 46.5 352.5Q65 400 99.5 434.5Q134 469 183.0 488.0Q232 507 292 507ZM281 80Q322 80 351.0 94.5Q380 109 398.5 133.0Q417 157 425.5 187.5Q434 218 434 251Q434 285 425.5 314.5Q417 344 399.5 366.0Q382 388 354.5 400.5Q327 413 289 413Q250 413 221.0 400.0Q192 387 172.5 364.5Q153 342 143.0 311.0Q133 280 133 244Q133 171 170.5 125.5Q208 80 281 80Z" transform="translate(6631, 0)" /> <path d="M288 40Q266 -6 235 -6Q206 -6 184 40Q176 56 166.0 80.5Q156 105 145.0 133.5Q134 162 122.0 192.0Q110 222 98 248Q58 336 36.0 386.0Q14 436 14 466Q14 483 24.5 494.0Q35 505 53 505Q64 505 76.5 496.0Q89 487 102 462Q140 386 172.5 307.5Q205 229 236 148Q267 229 299.5 307.5Q332 386 370 462Q383 487 395.5 496.0Q408 505 419 505Q437 505 447.5 494.0Q458 483 458 466Q458 436 436.0 386.0Q414 336 374 248Q362 222 350.0 192.0Q338 162 327.0 133.5Q316 105 306.0 80.5Q296 56 288 40Z" transform="translate(7195, 0)" /> <path d="M292 184Q257 184 218.5 189.5Q180 195 135 213Q144 152 185.5 121.0Q227 90 305 90Q333 90 355.5 93.5Q378 97 395.0 101.5Q412 106 425.0 109.5Q438 113 449 113Q463 113 476.0 104.5Q489 96 489 76Q489 51 468.5 35.0Q448 19 418.5 9.5Q389 0 356.0 -3.5Q323 -7 298 -7Q239 -7 189.5 9.0Q140 25 104.0 57.5Q68 90 48.0 138.0Q28 186 28 250Q28 312 47.5 360.0Q67 408 101.0 441.0Q135 474 181.5 491.0Q228 508 282 508Q324 508 363.5 497.0Q403 486 433.5 464.0Q464 442 482.5 408.5Q501 375 501 330Q501 290 486.0 262.0Q471 234 443.5 217.0Q416 200 377.5 192.0Q339 184 292 184ZM285 416Q258 416 233.0 409.5Q208 403 187.5 388.5Q167 374 153.0 350.5Q139 327 134 292Q172 275 208.0 268.5Q244 262 284 262Q343 262 371.5 276.5Q400 291 400 329Q400 364 373.5 390.0Q347 416 285 416Z" transform="translate(7679, 0)" /> <path d="M296 426Q259 426 229.5 414.0Q200 402 163 378Q163 357 163.0 316.5Q163 276 162.0 228.5Q161 181 160.0 135.0Q159 89 156 58Q154 38 151.5 26.5Q149 15 144.5 9.0Q140 3 132.5 1.5Q125 0 113 0Q101 0 93.5 1.5Q86 3 81.0 8.5Q76 14 73.0 25.0Q70 36 68 55Q66 73 64.5 103.0Q63 133 62.0 168.5Q61 204 60.5 240.5Q60 277 60 308Q60 359 61.5 391.0Q63 423 67 448Q73 490 83.0 501.0Q93 512 110 512Q135 512 147.5 498.0Q160 484 163 452Q200 484 242.5 503.0Q285 522 330 522Q373 522 408.5 502.0Q444 482 467 437Q481 410 488.0 377.5Q495 345 498 309Q499 293 500.0 277.5Q501 262 501.5 244.5Q502 227 502.0 205.0Q502 183 502 153Q502 121 501.0 93.0Q500 65 495.5 44.5Q491 24 480.0 12.5Q469 1 450 1Q404 1 402 45Q402 48 402.0 70.5Q402 93 401.5 123.0Q401 153 400.5 184.0Q400 215 399 235Q398 251 396.5 269.5Q395 288 392.5 307.0Q390 326 386.0 343.5Q382 361 376 375Q362 408 341.0 417.0Q320 426 296 426Z" transform="translate(8214, 0)" /> <path d="M289 510Q318 510 347.5 505.0Q377 500 401.0 491.0Q425 482 440.0 469.0Q455 456 455 439Q455 395 405 395Q393 395 382.5 398.5Q372 402 358.0 405.5Q344 409 323.0 412.5Q302 416 271 416Q205 416 169.0 371.0Q133 326 133 254Q133 175 169.5 127.0Q206 79 273 79Q315 79 341.0 86.0Q367 93 383.5 102.0Q400 111 410.5 118.0Q421 125 434 125Q452 125 462.5 117.5Q473 110 473 87Q473 63 454.5 45.0Q436 27 408.0 15.0Q380 3 347.5 -3.0Q315 -9 288 -9Q167 -9 98.0 58.0Q29 125 29 248Q29 301 45.5 348.5Q62 396 95.0 432.0Q128 468 176.5 489.0Q225 510 289 510Z" transform="translate(8771, 0)" /> <path d="M292 184Q257 184 218.5 189.5Q180 195 135 213Q144 152 185.5 121.0Q227 90 305 90Q333 90 355.5 93.5Q378 97 395.0 101.5Q412 106 425.0 109.5Q438 113 449 113Q463 113 476.0 104.5Q489 96 489 76Q489 51 468.5 35.0Q448 19 418.5 9.5Q389 0 356.0 -3.5Q323 -7 298 -7Q239 -7 189.5 9.0Q140 25 104.0 57.5Q68 90 48.0 138.0Q28 186 28 250Q28 312 47.5 360.0Q67 408 101.0 441.0Q135 474 181.5 491.0Q228 508 282 508Q324 508 363.5 497.0Q403 486 433.5 464.0Q464 442 482.5 408.5Q501 375 501 330Q501 290 486.0 262.0Q471 234 443.5 217.0Q416 200 377.5 192.0Q339 184 292 184ZM285 416Q258 416 233.0 409.5Q208 403 187.5 388.5Q167 374 153.0 350.5Q139 327 134 292Q172 275 208.0 268.5Q244 262 284 262Q343 262 371.5 276.5Q400 291 400 329Q400 364 373.5 390.0Q347 416 285 416Z" transform="translate(9268, 0)" />
  </g>
</svg>
