<?xml version="1.0" standalone="no"?>
<svg xmlns="http://www.w3.org/2000/svg" width="2832" height="1245" viewBox="0 -289 2832 1245">
  <g transform="translate(0, 956) scale(1, -1)">
    <path d="M65 62Q63 98 62.5 137.0Q62 176 61.0 221.0Q60 266 60.0 318.5Q60 371 60 436Q60 507 61.0 557.5Q62 608 66.5 640.0Q71 672 81.0 687.0Q91 702 109 702Q126 702 139.0 691.0Q152 680 154 640Q156 604 157.0 576.0Q158 548 159.0 520.5Q160 493 160.0 463.5Q160 434 160 397V345L374 590Q416 638 439.0 653.5Q462 669 479 669Q499 669 508.5 659.0Q518 649 518 634Q518 628 516.0 622.0Q514 616 507.5 605.5Q501 595 488.0 579.5Q475 564 453 540L314 389L533 77Q541 66 545.5 54.0Q550 42 550 31Q550 12 539.5 -0.5Q529 -13 503 -13Q482 -13 465.5 -1.5Q449 10 435 32L245 313L159 219Q158 181 157.0 143.0Q156 105 154 63Q153 39 149.5 26.0Q146 13 140.0 6.0Q134 -1 126.5 -2.5Q119 -4 109 -4Q91 -4 79.0 8.5Q67 21 65 62Z" transform="translate(0, 0)" /> <path d="M292 184Q257 184 218.5 189.5Q180 195 135 213Q144 152 185.5 121.0Q227 90 305 90Q333 90 355.5 93.5Q378 97 395.0 101.5Q412 106 425.0 109.5Q438 113 449 113Q463 113 476.0 104.5Q489 96 489 76Q489 51 468.5 35.0Q448 19 418.5 9.5Q389 0 356.0 -3.5Q323 -7 298 -7Q239 -7 189.5 9.0Q140 25 104.0 57.5Q68 90 48.0 138.0Q28 186 28 250Q28 312 47.5 360.0Q67 408 101.0 441.0Q135 474 181.5 491.0Q228 508 282 508Q324 508 363.5 497.0Q403 486 433.5 464.0Q464 442 482.5 408.5Q501 375 501 330Q501 290 486.0 262.0Q471 234 443.5 217.0Q416 200 377.5 192.0Q339 184 292 184ZM285 416Q258 416 233.0 409.5Q208 403 187.5 388.5Q167 374 153.0 350.5Q139 327 134 292Q172 275 208.0 268.5Q244 262 284 262Q343 262 371.5 276.5Q400 291 400 329Q400 364 373.5 390.0Q347 416 285 416Z" transform="translate(570, 0)" /> <path d="M66 61Q62 96 61.0 146.0Q60 196 60 267Q60 337 60.5 380.0Q61 423 66 456Q71 497 81.5 509.0Q92 521 109 521Q121 521 130.5 519.0Q140 517 147.5 510.5Q155 504 159.0 492.0Q163 480 163 459Q163 455 164 451Q164 447 164.5 442.5Q165 438 165 432Q192 466 226.5 490.0Q261 514 305 514Q364 514 364 465Q364 447 356.5 435.0Q349 423 335.5 415.5Q322 408 304.5 404.0Q287 400 266 396Q234 390 206.0 373.5Q178 357 168 332Q168 313 168.5 304.0Q169 295 169.5 289.0Q170 283 170.0 276.0Q170 269 170 254Q170 203 168.0 158.5Q166 114 164 62Q163 38 158.5 25.0Q154 12 147.5 5.0Q141 -2 133.0 -3.5Q125 -5 117 -5Q89 -5 79.5 7.5Q70 20 66 61Z" transform="translate(1105, 0)" /> <path d="M171 654Q171 594 167.5 528.5Q164 463 159 401Q172 428 193.0 447.5Q214 467 239.5 479.0Q265 491 293.0 497.0Q321 503 347 503Q392 503 431.5 486.5Q471 470 500.5 438.5Q530 407 546.5 360.5Q563 314 563 254Q563 196 546.0 148.0Q529 100 495.5 65.5Q462 31 412.5 12.0Q363 -7 299 -7Q212 -7 162.5 28.0Q113 63 89.0 121.5Q65 180 59.5 256.0Q54 332 54 415Q54 499 57.0 567.0Q60 635 66 677Q72 715 86.0 731.0Q100 747 123 747Q140 747 150.0 739.5Q160 732 164.5 719.0Q169 706 170.0 689.5Q171 673 171 654ZM319 404Q290 404 263.5 394.5Q237 385 216.5 365.0Q196 345 184.0 314.5Q172 284 172 241Q172 165 209.5 125.5Q247 86 310 86Q336 86 363.0 93.5Q390 101 412.0 119.5Q434 138 448.0 169.0Q462 200 462 246Q462 287 450.5 317.0Q439 347 419.0 366.5Q399 386 373.0 395.0Q347 404 319 404Z" transform="translate(1482, 0)" /> <path d="M292 184Q257 184 218.5 189.5Q180 195 135 213Q144 152 185.5 121.0Q227 90 305 90Q333 90 355.5 93.5Q378 97 395.0 101.5Q412 106 425.0 109.5Q438 113 449 113Q463 113 476.0 104.5Q489 96 489 76Q489 51 468.5 35.0Q448 19 418.5 9.5Q389 0 356.0 -3.5Q323 -7 298 -7Q239 -7 189.5 9.0Q140 25 104.0 57.5Q68 90 48.0 138.0Q28 186 28 250Q28 312 47.5 360.0Q67 408 101.0 441.0Q135 474 181.5 491.0Q228 508 282 508Q324 508 363.5 497.0Q403 486 433.5 464.0Q464 442 482.5 408.5Q501 375 501 330Q501 290 486.0 262.0Q471 234 443.5 217.0Q416 200 377.5 192.0Q339 184 292 184ZM285 416Q258 416 233.0 409.5Q208 403 187.5 388.5Q167 374 153.0 350.5Q139 327 134 292Q172 275 208.0 268.5Q244 262 284 262Q343 262 371.5 276.5Q400 291 400 329Q400 364 373.5 390.0Q347 416 285 416Z" transform="translate(2073, 0)" /> <path d="M67 58Q66 94 65.0 142.0Q64 190 63.5 246.0Q63 302 62.5 364.0Q62 426 62 491Q62 562 63.0 613.0Q64 664 68.5 697.0Q73 730 83.0 745.5Q93 761 111 761Q128 761 141.0 750.0Q154 739 156 699Q160 627 161.0 549.5Q162 472 162 397Q162 352 162.0 310.5Q162 269 161.0 228.5Q160 188 159.0 146.0Q158 104 156 59Q155 35 151.5 22.0Q148 9 142.0 2.0Q136 -5 128.5 -6.5Q121 -8 111 -8Q93 -8 81.0 4.5Q69 17 67 58Z" transform="translate(2608, 0)" />
  </g>
</svg>
