<?xml version="1.0" standalone="no"?>
<svg xmlns="http://www.w3.org/2000/svg" width="3905" height="1245" viewBox="0 -289 3905 1245">
  <g transform="translate(0, 956) scale(1, -1)">
    <path d="M328 170Q282 271 246.5 365.5Q211 460 186 534Q163 410 147.5 284.0Q132 158 108 43Q102 17 86.0 8.5Q70 0 59 0Q41 0 30.5 11.0Q20 22 20 39Q20 62 25.5 109.5Q31 157 39.5 217.0Q48 277 59.0 343.0Q70 409 81.5 470.5Q93 532 103.5 582.0Q114 632 122 659Q135 705 175 705Q199 705 216.0 681.5Q233 658 252.5 609.5Q272 561 299.5 487.0Q327 413 371 313Q414 413 440.5 486.5Q467 560 485.5 608.5Q504 657 521.0 680.5Q538 704 563 704Q586 704 598.0 692.5Q610 681 616 658Q623 630 633.0 580.5Q643 531 654.5 470.5Q666 410 677.0 344.0Q688 278 697.0 218.0Q706 158 711.5 109.5Q717 61 717 35Q717 19 706.0 9.5Q695 0 678 0Q667 0 651.0 8.5Q635 17 629 43Q617 100 607.5 161.0Q598 222 589.5 284.5Q581 347 573.0 409.5Q565 472 556 534Q543 494 526.0 446.0Q509 398 490.0 349.5Q471 301 451.0 254.0Q431 207 412 169Q405 156 393.5 149.5Q382 143 370 143Q357 143 345.5 149.5Q334 156 328 170Z" transform="translate(0, 0)" /> <path d="M292 184Q257 184 218.5 189.5Q180 195 135 213Q144 152 185.5 121.0Q227 90 305 90Q333 90 355.5 93.5Q378 97 395.0 101.5Q412 106 425.0 109.5Q438 113 449 113Q463 113 476.0 104.5Q489 96 489 76Q489 51 468.5 35.0Q448 19 418.5 9.5Q389 0 356.0 -3.5Q323 -7 298 -7Q239 -7 189.5 9.0Q140 25 104.0 57.5Q68 90 48.0 138.0Q28 186 28 250Q28 312 47.5 360.0Q67 408 101.0 441.0Q135 474 181.5 491.0Q228 508 282 508Q324 508 363.5 497.0Q403 486 433.5 464.0Q464 442 482.5 408.5Q501 375 501 330Q501 290 486.0 262.0Q471 234 443.5 217.0Q416 200 377.5 192.0Q339 184 292 184ZM285 416Q258 416 233.0 409.5Q208 403 187.5 388.5Q167 374 153.0 350.5Q139 327 134 292Q172 275 208.0 268.5Q244 262 284 262Q343 262 371.5 276.5Q400 291 400 329Q400 364 373.5 390.0Q347 416 285 416Z" transform="translate(737, 0)" /> <path d="M292 184Q257 184 218.5 189.5Q180 195 135 213Q144 152 185.5 121.0Q227 90 305 90Q333 90 355.5 93.5Q378 97 395.0 101.5Q412 106 425.0 109.5Q438 113 449 113Q463 113 476.0 104.5Q489 96 489 76Q489 51 468.5 35.0Q448 19 418.5 9.5Q389 0 356.0 -3.5Q323 -7 298 -7Q239 -7 189.5 9.0Q140 25 104.0 57.5Q68 90 48.0 138.0Q28 186 28 250Q28 312 47.5 360.0Q67 408 101.0 441.0Q135 474 181.5 491.0Q228 508 282 508Q324 508 363.5 497.0Q403 486 433.5 464.0Q464 442 482.5 408.5Q501 375 501 330Q501 290 486.0 262.0Q471 234 443.5 217.0Q416 200 377.5 192.0Q339 184 292 184ZM285 416Q258 416 233.0 409.5Q208 403 187.5 388.5Q167 374 153.0 350.5Q139 327 134 292Q172 275 208.0 268.5Q244 262 284 262Q343 262 371.5 276.5Q400 291 400 329Q400 364 373.5 390.0Q347 416 285 416Z" transform="translate(1272, 0)" /> <path d="M66 61Q62 96 61.0 146.0Q60 196 60 267Q60 337 60.5 380.0Q61 423 66 456Q71 497 81.5 509.0Q92 521 109 521Q121 521 130.5 519.0Q140 517 147.5 510.5Q155 504 159.0 492.0Q163 480 163 459Q163 455 164 451Q164 447 164.5 442.5Q165 438 165 432Q192 466 226.5 490.0Q261 514 305 514Q364 514 364 465Q364 447 356.5 435.0Q349 423 335.5 415.5Q322 408 304.5 404.0Q287 400 266 396Q234 390 206.0 373.5Q178 357 168 332Q168 313 168.5 304.0Q169 295 169.5 289.0Q170 283 170.0 276.0Q170 269 170 254Q170 203 168.0 158.5Q166 114 164 62Q163 38 158.5 25.0Q154 12 147.5 5.0Q141 -2 133.0 -3.5Q125 -5 117 -5Q89 -5 79.5 7.5Q70 20 66 61Z" transform="translate(1807, 0)" /> <path d="M237 522Q258 522 290.0 518.5Q322 515 351.0 505.5Q380 496 401.0 479.0Q422 462 422 436Q422 421 413.5 410.0Q405 399 387 399Q374 399 357.5 403.0Q341 407 321.5 412.5Q302 418 279.5 422.0Q257 426 232 426Q190 426 163.5 413.0Q137 400 137 372Q137 356 146.5 345.0Q156 334 172.5 325.5Q189 317 211.5 311.0Q234 305 259 299Q290 291 320.5 281.0Q351 271 375.0 253.5Q399 236 414.0 209.5Q429 183 429 144Q429 70 373.0 26.5Q317 -17 208 -17Q184 -17 151.0 -13.5Q118 -10 89.0 -0.5Q60 9 39.5 26.5Q19 44 19 73Q19 93 28.5 103.5Q38 114 52 114Q63 114 75.0 107.0Q87 100 104.0 92.0Q121 84 145.0 77.0Q169 70 204 70Q217 70 238.0 71.5Q259 73 279.5 80.0Q300 87 314.5 99.5Q329 112 329 135Q329 153 319.0 165.5Q309 178 292.0 187.0Q275 196 252.5 202.5Q230 209 205 216Q176 224 146.5 234.0Q117 244 93.0 260.0Q69 276 54.0 300.5Q39 325 39 361Q39 395 53.0 424.5Q67 454 93.0 476.0Q119 498 155.5 510.0Q192 522 237 522Z" transform="translate(2184, 0)" /> <path d="M471 -4Q455 -4 445.5 1.5Q436 7 431.0 16.0Q426 25 424.0 37.5Q422 50 421 64Q396 33 356.5 12.0Q317 -9 256 -9Q217 -9 176.5 2.5Q136 14 103.0 42.5Q70 71 49.0 119.0Q28 167 28 240Q28 297 42.0 347.0Q56 397 84.5 434.5Q113 472 156.0 494.0Q199 516 257 516Q308 516 348.0 497.5Q388 479 420 437Q420 449 421.0 461.5Q422 474 426.5 484.5Q431 495 441.0 501.5Q451 508 468 508Q483 508 496.0 496.0Q509 484 511 444Q514 391 515.5 349.0Q517 307 517 262Q517 207 516.0 161.0Q515 115 511 63Q509 40 505.5 26.5Q502 13 497.0 6.5Q492 0 485.0 -2.0Q478 -4 471 -4ZM417 250Q417 302 401.5 335.0Q386 368 362.5 386.5Q339 405 312.0 412.0Q285 419 262 419Q226 419 200.5 406.0Q175 393 159.0 370.5Q143 348 135.5 317.5Q128 287 128 251Q128 163 166.5 121.0Q205 79 271 79Q310 79 337.5 92.5Q365 106 382.5 129.0Q400 152 408.5 183.5Q417 215 417 250Z" transform="translate(2644, 0)" /> <path d="M67 58Q66 94 65.0 142.0Q64 190 63.5 246.0Q63 302 62.5 364.0Q62 426 62 491Q62 562 63.0 613.0Q64 664 68.5 697.0Q73 730 83.0 745.5Q93 761 111 761Q128 761 141.0 750.0Q154 739 156 699Q160 627 161.0 549.5Q162 472 162 397Q162 352 162.0 310.5Q162 269 161.0 228.5Q160 188 159.0 146.0Q158 104 156 59Q155 35 151.5 22.0Q148 9 142.0 2.0Q136 -5 128.5 -6.5Q121 -8 111 -8Q93 -8 81.0 4.5Q69 17 67 58Z" transform="translate(3217, 0)" /> <path d="M373 1Q339 -1 297.5 -2.5Q256 -4 205 -4Q144 -4 108.0 -3.0Q72 -2 53.5 1.5Q35 5 29.5 12.0Q24 19 24 32Q24 56 39.5 87.5Q55 119 76.5 150.5Q98 182 119.5 209.0Q141 236 153 252Q187 297 220.0 332.0Q253 367 293 405Q270 403 240.5 403.0Q211 403 184 403Q142 403 113.5 404.0Q85 405 67.5 409.5Q50 414 43.0 424.0Q36 434 36 452Q36 469 47.0 481.5Q58 494 99 497Q117 498 126.0 499.5Q135 501 142.0 501.5Q149 502 157.5 502.5Q166 503 183 503Q224 503 263.0 501.5Q302 500 345 498Q355 498 367.5 496.0Q380 494 391.0 489.0Q402 484 409.5 475.0Q417 466 417 452Q417 428 391.0 388.0Q365 348 325.5 299.5Q286 251 239.5 197.5Q193 144 152 94Q163 95 178.0 95.5Q193 96 204 96Q249 96 287.0 94.5Q325 93 372 91Q396 90 409.0 86.5Q422 83 429.0 77.0Q436 71 437.5 63.0Q439 55 439 45Q439 27 426.5 15.0Q414 3 373 1Z" transform="translate(3441, 0)" />
  </g>
</svg>
