<?xml version="1.0" standalone="no"?>
<svg xmlns="http://www.w3.org/2000/svg" width="3010" height="1245" viewBox="0 -289 3010 1245">
  <g transform="translate(0, 956) scale(1, -1)">
    <path d="M456 47Q424 91 395.5 134.5Q367 178 334.5 230.0Q302 282 260.5 345.5Q219 409 161 494Q161 419 161.0 359.5Q161 300 160.0 249.0Q159 198 158.0 153.0Q157 108 155 63Q154 39 150.5 26.0Q147 13 141.0 6.0Q135 -1 127.5 -2.5Q120 -4 110 -4Q92 -4 80.0 8.5Q68 21 66 62Q61 172 60.5 282.5Q60 393 60 511Q60 578 61.5 616.0Q63 654 68.5 673.0Q74 692 83.5 697.0Q93 702 109 702Q125 702 151.0 677.5Q177 653 208.0 613.0Q239 573 274.5 521.0Q310 469 345.0 414.0Q380 359 412.5 305.0Q445 251 472 207Q471 254 471.0 310.5Q471 367 471 436Q471 515 472.0 566.5Q473 618 477.5 648.0Q482 678 492.0 690.0Q502 702 520 702Q537 702 550.0 691.0Q563 680 565 640Q567 604 568.0 576.0Q569 548 570.0 520.5Q571 493 571.0 463.5Q571 434 571 397Q571 352 571.0 311.0Q571 270 570.0 230.0Q569 190 568.0 149.0Q567 108 565 63Q564 39 560.5 26.0Q557 13 551.0 6.0Q545 -1 537.5 -2.5Q530 -4 520 -4Q503 -4 491.0 6.0Q479 16 456 47Z" transform="translate(0, 0)" /> <path d="M292 184Q257 184 218.5 189.5Q180 195 135 213Q144 152 185.5 121.0Q227 90 305 90Q333 90 355.5 93.5Q378 97 395.0 101.5Q412 106 425.0 109.5Q438 113 449 113Q463 113 476.0 104.5Q489 96 489 76Q489 51 468.5 35.0Q448 19 418.5 9.5Q389 0 356.0 -3.5Q323 -7 298 -7Q239 -7 189.5 9.0Q140 25 104.0 57.5Q68 90 48.0 138.0Q28 186 28 250Q28 312 47.5 360.0Q67 408 101.0 441.0Q135 474 181.5 491.0Q228 508 282 508Q324 508 363.5 497.0Q403 486 433.5 464.0Q464 442 482.5 408.5Q501 375 501 330Q501 290 486.0 262.0Q471 234 443.5 217.0Q416 200 377.5 192.0Q339 184 292 184ZM285 416Q258 416 233.0 409.5Q208 403 187.5 388.5Q167 374 153.0 350.5Q139 327 134 292Q172 275 208.0 268.5Q244 262 284 262Q343 262 371.5 276.5Q400 291 400 329Q400 364 373.5 390.0Q347 416 285 416Z" transform="translate(631, 0)" /> <path d="M67 58Q66 94 65.0 142.0Q64 190 63.5 246.0Q63 302 62.5 364.0Q62 426 62 491Q62 562 63.0 613.0Q64 664 68.5 697.0Q73 730 83.0 745.5Q93 761 111 761Q128 761 141.0 750.0Q154 739 156 699Q160 627 161.0 549.5Q162 472 162 397Q162 352 162.0 310.5Q162 269 161.0 228.5Q160 188 159.0 146.0Q158 104 156 59Q155 35 151.5 22.0Q148 9 142.0 2.0Q136 -5 128.5 -6.5Q121 -8 111 -8Q93 -8 81.0 4.5Q69 17 67 58Z" transform="translate(1166, 0)" /> <path d="M65 53Q63 75 62.0 119.5Q61 164 60.0 222.5Q59 281 59.0 350.0Q59 419 59 491Q59 576 60.0 630.0Q61 684 66.0 715.0Q71 746 82.0 757.5Q93 769 114 769Q132 769 140.0 757.5Q148 746 152 707Q154 683 155.5 642.5Q157 602 157.5 554.0Q158 506 158.5 454.0Q159 402 159 355V274L381 475Q392 485 407.5 494.5Q423 504 440 504Q460 504 470.0 488.5Q480 473 480 453Q480 442 476.5 432.5Q473 423 462 415L327 304L491 66Q500 54 500 39Q500 17 486.0 6.0Q472 -5 450 -5Q434 -5 422.0 1.0Q410 7 399 24L249 241L158 166Q157 129 156.0 100.0Q155 71 153 54Q149 19 140.0 8.0Q131 -3 108 -3Q85 -3 76.5 8.0Q68 19 65 53Z" transform="translate(1390, 0)" /> <path d="M292 184Q257 184 218.5 189.5Q180 195 135 213Q144 152 185.5 121.0Q227 90 305 90Q333 90 355.5 93.5Q378 97 395.0 101.5Q412 106 425.0 109.5Q438 113 449 113Q463 113 476.0 104.5Q489 96 489 76Q489 51 468.5 35.0Q448 19 418.5 9.5Q389 0 356.0 -3.5Q323 -7 298 -7Q239 -7 189.5 9.0Q140 25 104.0 57.5Q68 90 48.0 138.0Q28 186 28 250Q28 312 47.5 360.0Q67 408 101.0 441.0Q135 474 181.5 491.0Q228 508 282 508Q324 508 363.5 497.0Q403 486 433.5 464.0Q464 442 482.5 408.5Q501 375 501 330Q501 290 486.0 262.0Q471 234 443.5 217.0Q416 200 377.5 192.0Q339 184 292 184ZM285 416Q258 416 233.0 409.5Q208 403 187.5 388.5Q167 374 153.0 350.5Q139 327 134 292Q172 275 208.0 268.5Q244 262 284 262Q343 262 371.5 276.5Q400 291 400 329Q400 364 373.5 390.0Q347 416 285 416Z" transform="translate(1918, 0)" /> <path d="M296 426Q259 426 229.5 414.0Q200 402 163 378Q163 357 163.0 316.5Q163 276 162.0 228.5Q161 181 160.0 135.0Q159 89 156 58Q154 38 151.5 26.5Q149 15 144.5 9.0Q140 3 132.5 1.5Q125 0 113 0Q101 0 93.5 1.5Q86 3 81.0 8.5Q76 14 73.0 25.0Q70 36 68 55Q66 73 64.5 103.0Q63 133 62.0 168.5Q61 204 60.5 240.5Q60 277 60 308Q60 359 61.5 391.0Q63 423 67 448Q73 490 83.0 501.0Q93 512 110 512Q135 512 147.5 498.0Q160 484 163 452Q200 484 242.5 503.0Q285 522 330 522Q373 522 408.5 502.0Q444 482 467 437Q481 410 488.0 377.5Q495 345 498 309Q499 293 500.0 277.5Q501 262 501.5 244.5Q502 227 502.0 205.0Q502 183 502 153Q502 121 501.0 93.0Q500 65 495.5 44.5Q491 24 480.0 12.5Q469 1 450 1Q404 1 402 45Q402 48 402.0 70.5Q402 93 401.5 123.0Q401 153 400.5 184.0Q400 215 399 235Q398 251 396.5 269.5Q395 288 392.5 307.0Q390 326 386.0 343.5Q382 361 376 375Q362 408 341.0 417.0Q320 426 296 426Z" transform="translate(2453, 0)" />
  </g>
</svg>
