<?xml version="1.0" standalone="no"?>
<svg xmlns="http://www.w3.org/2000/svg" width="6738" height="1245" viewBox="0 -289 6738 1245">
  <g transform="translate(0, 956) scale(1, -1)">
    <path d="M160 63Q160 39 155.5 26.0Q151 13 144.5 6.0Q138 -1 129.5 -2.5Q121 -4 113 -4Q86 -4 77.5 8.0Q69 20 66 62Q64 84 63.0 126.0Q62 168 61.5 226.0Q61 284 60.5 354.0Q60 424 60 502Q60 539 69.0 577.0Q78 615 103.5 646.0Q129 677 174.5 696.0Q220 715 293 715Q344 715 390.0 704.0Q436 693 471.0 666.0Q506 639 527.0 594.0Q548 549 548 482Q548 412 525.0 366.0Q502 320 460.0 293.0Q418 266 360.0 255.0Q302 244 233 244Q216 244 199.0 244.0Q182 244 161 246ZM448 484Q448 551 410.5 585.0Q373 619 286 619Q253 619 229.5 613.5Q206 608 191.0 594.5Q176 581 168.5 558.0Q161 535 161 500Q161 466 161.0 422.5Q161 379 162 341Q185 340 213.5 340.0Q242 340 267 340Q297 340 329.5 344.0Q362 348 388.0 362.5Q414 377 431.0 405.5Q448 434 448 484Z" transform="translate(0, 0)" /> <path d="M85 406Q74 405 63.5 404.5Q53 404 43 404Q10 404 -6.5 414.5Q-23 425 -23 455Q-23 478 -10.5 491.5Q2 505 39 505Q62 505 86 502V560Q86 600 95.0 636.0Q104 672 123.0 699.5Q142 727 172.5 743.5Q203 760 247 760Q287 760 303.0 748.5Q319 737 319 711Q319 685 298.0 679.0Q277 673 250 673Q217 673 200.5 644.0Q184 615 184 573V503Q197 506 209.5 506.5Q222 507 236 507Q273 507 288.5 495.0Q304 483 304 457Q304 424 283.0 414.5Q262 405 227 405Q218 405 206.5 405.0Q195 405 184 407V63Q184 39 180.0 26.0Q176 13 169.0 6.0Q162 -1 153.0 -2.5Q144 -4 134 -4Q125 -4 116.0 -1.5Q107 1 100.5 8.5Q94 16 89.5 29.0Q85 42 85 62Z" transform="translate(568, 0)" /> <path d="M292 184Q257 184 218.5 189.5Q180 195 135 213Q144 152 185.5 121.0Q227 90 305 90Q333 90 355.5 93.5Q378 97 395.0 101.5Q412 106 425.0 109.5Q438 113 449 113Q463 113 476.0 104.5Q489 96 489 76Q489 51 468.5 35.0Q448 19 418.5 9.5Q389 0 356.0 -3.5Q323 -7 298 -7Q239 -7 189.5 9.0Q140 25 104.0 57.5Q68 90 48.0 138.0Q28 186 28 250Q28 312 47.5 360.0Q67 408 101.0 441.0Q135 474 181.5 491.0Q228 508 282 508Q324 508 363.5 497.0Q403 486 433.5 464.0Q464 442 482.5 408.5Q501 375 501 330Q501 290 486.0 262.0Q471 234 443.5 217.0Q416 200 377.5 192.0Q339 184 292 184ZM285 416Q258 416 233.0 409.5Q208 403 187.5 388.5Q167 374 153.0 350.5Q139 327 134 292Q172 275 208.0 268.5Q244 262 284 262Q343 262 371.5 276.5Q400 291 400 329Q400 364 373.5 390.0Q347 416 285 416Z" transform="translate(863, 0)" /> <path d="M85 406Q74 405 63.5 404.5Q53 404 43 404Q10 404 -6.5 414.5Q-23 425 -23 455Q-23 478 -10.5 491.5Q2 505 39 505Q62 505 86 502V560Q86 600 95.0 636.0Q104 672 123.0 699.5Q142 727 172.5 743.5Q203 760 247 760Q287 760 303.0 748.5Q319 737 319 711Q319 685 298.0 679.0Q277 673 250 673Q217 673 200.5 644.0Q184 615 184 573V503Q197 506 209.5 506.5Q222 507 236 507Q273 507 288.5 495.0Q304 483 304 457Q304 424 283.0 414.5Q262 405 227 405Q218 405 206.5 405.0Q195 405 184 407V63Q184 39 180.0 26.0Q176 13 169.0 6.0Q162 -1 153.0 -2.5Q144 -4 134 -4Q125 -4 116.0 -1.5Q107 1 100.5 8.5Q94 16 89.5 29.0Q85 42 85 62Z" transform="translate(1398, 0)" /> <path d="M85 406Q74 405 63.5 404.5Q53 404 43 404Q10 404 -6.5 414.5Q-23 425 -23 455Q-23 478 -10.5 491.5Q2 505 39 505Q62 505 86 502V560Q86 600 95.0 636.0Q104 672 123.0 699.5Q142 727 172.5 743.5Q203 760 247 760Q287 760 303.0 748.5Q319 737 319 711Q319 685 298.0 679.0Q277 673 250 673Q217 673 200.5 644.0Q184 615 184 573V503Q197 506 209.5 506.5Q222 507 236 507Q273 507 288.5 495.0Q304 483 304 457Q304 424 283.0 414.5Q262 405 227 405Q218 405 206.5 405.0Q195 405 184 407V63Q184 39 180.0 26.0Q176 13 169.0 6.0Q162 -1 153.0 -2.5Q144 -4 134 -4Q125 -4 116.0 -1.5Q107 1 100.5 8.5Q94 16 89.5 29.0Q85 42 85 62Z" transform="translate(1693, 0)" /> <path d="M292 184Q257 184 218.5 189.5Q180 195 135 213Q144 152 185.5 121.0Q227 90 305 90Q333 90 355.5 93.5Q378 97 395.0 101.5Q412 106 425.0 109.5Q438 113 449 113Q463 113 476.0 104.5Q489 96 489 76Q489 51 468.5 35.0Q448 19 418.5 9.5Q389 0 356.0 -3.5Q323 -7 298 -7Q239 -7 189.5 9.0Q140 25 104.0 57.5Q68 90 48.0 138.0Q28 186 28 250Q28 312 47.5 360.0Q67 408 101.0 441.0Q135 474 181.5 491.0Q228 508 282 508Q324 508 363.5 497.0Q403 486 433.5 464.0Q464 442 482.5 408.5Q501 375 501 330Q501 290 486.0 262.0Q471 234 443.5 217.0Q416 200 377.5 192.0Q339 184 292 184ZM285 416Q258 416 233.0 409.5Q208 403 187.5 388.5Q167 374 153.0 350.5Q139 327 134 292Q172 275 208.0 268.5Q244 262 284 262Q343 262 371.5 276.5Q400 291 400 329Q400 364 373.5 390.0Q347 416 285 416Z" transform="translate(1988, 0)" /> <path d="M66 61Q62 96 61.0 146.0Q60 196 60 267Q60 337 60.5 380.0Q61 423 66 456Q71 497 81.5 509.0Q92 521 109 521Q121 521 130.5 519.0Q140 517 147.5 510.5Q155 504 159.0 492.0Q163 480 163 459Q163 455 164 451Q164 447 164.5 442.5Q165 438 165 432Q192 466 226.5 490.0Q261 514 305 514Q364 514 364 465Q364 447 356.5 435.0Q349 423 335.5 415.5Q322 408 304.5 404.0Q287 400 266 396Q234 390 206.0 373.5Q178 357 168 332Q168 313 168.5 304.0Q169 295 169.5 289.0Q170 283 170.0 276.0Q170 269 170 254Q170 203 168.0 158.5Q166 114 164 62Q163 38 158.5 25.0Q154 12 147.5 5.0Q141 -2 133.0 -3.5Q125 -5 117 -5Q89 -5 79.5 7.5Q70 20 66 61Z" transform="translate(2523, 0)" /> <path d="" transform="translate(2900, 0)" /> <path d="M237 522Q258 522 290.0 518.5Q322 515 351.0 505.5Q380 496 401.0 479.0Q422 462 422 436Q422 421 413.5 410.0Q405 399 387 399Q374 399 357.5 403.0Q341 407 321.5 412.5Q302 418 279.5 422.0Q257 426 232 426Q190 426 163.5 413.0Q137 400 137 372Q137 356 146.5 345.0Q156 334 172.5 325.5Q189 317 211.5 311.0Q234 305 259 299Q290 291 320.5 281.0Q351 271 375.0 253.5Q399 236 414.0 209.5Q429 183 429 144Q429 70 373.0 26.5Q317 -17 208 -17Q184 -17 151.0 -13.5Q118 -10 89.0 -0.5Q60 9 39.5 26.5Q19 44 19 73Q19 93 28.5 103.5Q38 114 52 114Q63 114 75.0 107.0Q87 100 104.0 92.0Q121 84 145.0 77.0Q169 70 204 70Q217 70 238.0 71.5Q259 73 279.5 80.0Q300 87 314.5 99.5Q329 112 329 135Q329 153 319.0 165.5Q309 178 292.0 187.0Q275 196 252.5 202.5Q230 209 205 216Q176 224 146.5 234.0Q117 244 93.0 260.0Q69 276 54.0 300.5Q39 325 39 361Q39 395 53.0 424.5Q67 454 93.0 476.0Q119 498 155.5 510.0Q192 522 237 522Z" transform="translate(3109, 0)" /> <path d="M289 510Q318 510 347.5 505.0Q377 500 401.0 491.0Q425 482 440.0 469.0Q455 456 455 439Q455 395 405 395Q393 395 382.5 398.5Q372 402 358.0 405.5Q344 409 323.0 412.5Q302 416 271 416Q205 416 169.0 371.0Q133 326 133 254Q133 175 169.5 127.0Q206 79 273 79Q315 79 341.0 86.0Q367 93 383.5 102.0Q400 111 410.5 118.0Q421 125 434 125Q452 125 462.5 117.5Q473 110 473 87Q473 63 454.5 45.0Q436 27 408.0 15.0Q380 3 347.5 -3.0Q315 -9 288 -9Q167 -9 98.0 58.0Q29 125 29 248Q29 301 45.5 348.5Q62 396 95.0 432.0Q128 468 176.5 489.0Q225 510 289 510Z" transform="translate(3569, 0)" /> <path d="M295 411Q258 411 228.5 400.0Q199 389 162 370Q162 369 162.0 351.0Q162 333 161.5 305.0Q161 277 160.5 242.5Q160 208 159.5 173.5Q159 139 157.5 108.0Q156 77 155 56Q153 35 150.5 23.0Q148 11 144.5 5.5Q141 0 135.0 -1.0Q129 -2 122 -2Q105 -2 95.5 -0.5Q86 1 80.0 6.5Q74 12 71.5 23.0Q69 34 67 53Q65 72 63.5 105.5Q62 139 61.0 180.5Q60 222 59.5 269.0Q59 316 59 362Q59 408 59.5 459.5Q60 511 61.0 558.5Q62 606 63.0 643.5Q64 681 66 699Q68 725 75.5 744.0Q83 763 109 763Q129 763 141.5 749.0Q154 735 156 696Q158 661 159.5 598.5Q161 536 162 458Q176 469 196.0 478.5Q216 488 238.0 494.5Q260 501 283.0 505.0Q306 509 326 509Q374 509 409.5 486.5Q445 464 466 422Q480 395 487.0 362.5Q494 330 497 294Q498 278 499.0 262.5Q500 247 500.5 229.5Q501 212 501.0 190.0Q501 168 501 138Q501 108 500.0 82.5Q499 57 494.5 38.5Q490 20 480.0 9.5Q470 -1 452 -1Q426 -1 413.5 15.5Q401 32 401 55Q401 56 401.0 76.0Q401 96 400.5 122.5Q400 149 399.5 176.0Q399 203 398 220Q397 236 395.5 254.5Q394 273 391.5 292.0Q389 311 385.0 328.5Q381 346 375 360Q361 393 340.0 402.0Q319 411 295 411Z" transform="translate(4066, 0)" /> <path d="M304 378Q310 391 321.5 397.5Q333 404 347 404Q359 404 370.5 398.0Q382 392 389 379Q418 325 441.5 269.5Q465 214 492 157Q517 238 536.0 313.5Q555 389 575 462Q582 488 594.0 496.5Q606 505 625 505Q642 505 653.0 495.5Q664 486 664 470Q664 457 657.5 424.5Q651 392 640.5 349.5Q630 307 617.5 259.0Q605 211 592.5 167.0Q580 123 569.0 87.0Q558 51 552 33Q544 10 533.0 -1.5Q522 -13 499 -13Q478 -13 464.0 3.5Q450 20 438 43Q434 51 425.0 70.0Q416 89 403.5 115.0Q391 141 376.5 172.0Q362 203 347 235Q332 203 316.5 172.0Q301 141 288.0 114.5Q275 88 265.5 69.0Q256 50 252 42Q240 19 226.5 2.5Q213 -14 191 -14Q156 -14 138 32Q131 50 120.0 85.5Q109 121 97.0 165.0Q85 209 73.0 256.5Q61 304 51.5 346.0Q42 388 36.0 420.0Q30 452 30 466Q30 483 39.5 494.0Q49 505 67 505Q87 505 99.5 496.5Q112 488 119 462Q139 389 158.0 313.5Q177 238 202 157Q224 205 246.0 257.0Q268 309 304 378Z" transform="translate(4621, 0)" /> <path d="M471 -4Q455 -4 445.5 1.5Q436 7 431.0 16.0Q426 25 424.0 37.5Q422 50 421 64Q396 33 356.5 12.0Q317 -9 256 -9Q217 -9 176.5 2.5Q136 14 103.0 42.5Q70 71 49.0 119.0Q28 167 28 240Q28 297 42.0 347.0Q56 397 84.5 434.5Q113 472 156.0 494.0Q199 516 257 516Q308 516 348.0 497.5Q388 479 420 437Q420 449 421.0 461.5Q422 474 426.5 484.5Q431 495 441.0 501.5Q451 508 468 508Q483 508 496.0 496.0Q509 484 511 444Q514 391 515.5 349.0Q517 307 517 262Q517 207 516.0 161.0Q515 115 511 63Q509 40 505.5 26.5Q502 13 497.0 6.5Q492 0 485.0 -2.0Q478 -4 471 -4ZM417 250Q417 302 401.5 335.0Q386 368 362.5 386.5Q339 405 312.0 412.0Q285 419 262 419Q226 419 200.5 406.0Q175 393 159.0 370.5Q143 348 135.5 317.5Q128 287 128 251Q128 163 166.5 121.0Q205 79 271 79Q310 79 337.5 92.5Q365 106 382.5 129.0Q400 152 408.5 183.5Q417 215 417 250Z" transform="translate(5324, 0)" /> <path d="M66 61Q62 96 61.0 146.0Q60 196 60 267Q60 337 60.5 380.0Q61 423 66 456Q71 497 81.5 509.0Q92 521 109 521Q121 521 130.5 519.0Q140 517 147.5 510.5Q155 504 159.0 492.0Q163 480 163 459Q163 455 164 451Q164 447 164.5 442.5Q165 438 165 432Q192 466 226.5 490.0Q261 514 305 514Q364 514 364 465Q364 447 356.5 435.0Q349 423 335.5 415.5Q322 408 304.5 404.0Q287 400 266 396Q234 390 206.0 373.5Q178 357 168 332Q168 313 168.5 304.0Q169 295 169.5 289.0Q170 283 170.0 276.0Q170 269 170 254Q170 203 168.0 158.5Q166 114 164 62Q163 38 158.5 25.0Q154 12 147.5 5.0Q141 -2 133.0 -3.5Q125 -5 117 -5Q89 -5 79.5 7.5Q70 20 66 61Z" transform="translate(5897, 0)" /> <path d="M373 1Q339 -1 297.5 -2.5Q256 -4 205 -4Q144 -4 108.0 -3.0Q72 -2 53.5 1.5Q35 5 29.5 12.0Q24 19 24 32Q24 56 39.5 87.5Q55 119 76.5 150.5Q98 182 119.5 209.0Q141 236 153 252Q187 297 220.0 332.0Q253 367 293 405Q270 403 240.5 403.0Q211 403 184 403Q142 403 113.5 404.0Q85 405 67.5 409.5Q50 414 43.0 424.0Q36 434 36 452Q36 469 47.0 481.5Q58 494 99 497Q117 498 126.0 499.5Q135 501 142.0 501.5Q149 502 157.5 502.5Q166 503 183 503Q224 503 263.0 501.5Q302 500 345 498Q355 498 367.5 496.0Q380 494 391.0 489.0Q402 484 409.5 475.0Q417 466 417 452Q417 428 391.0 388.0Q365 348 325.5 299.5Q286 251 239.5 197.5Q193 144 152 94Q163 95 178.0 95.5Q193 96 204 96Q249 96 287.0 94.5Q325 93 372 91Q396 90 409.0 86.5Q422 83 429.0 77.0Q436 71 437.5 63.0Q439 55 439 45Q439 27 426.5 15.0Q414 3 373 1Z" transform="translate(6274, 0)" />
  </g>
</svg>
