<?xml version="1.0" standalone="no"?>
<svg xmlns="http://www.w3.org/2000/svg" width="2731" height="1245" viewBox="0 -289 2731 1245">
  <g transform="translate(0, 956) scale(1, -1)">
    <path d="M304 706Q332 706 368.5 701.5Q405 697 437.0 685.5Q469 674 491.0 655.5Q513 637 513 610Q513 594 504.0 583.0Q495 572 475 572Q460 572 444.5 578.0Q429 584 409.5 590.5Q390 597 364.5 603.0Q339 609 305 609Q239 609 207.5 585.5Q176 562 176 521Q176 493 190.0 474.0Q204 455 227.5 441.5Q251 428 280.5 419.0Q310 410 341 402Q376 393 410.5 380.0Q445 367 472.0 346.0Q499 325 515.5 293.0Q532 261 532 212Q532 161 513.0 120.5Q494 80 461.0 51.5Q428 23 382.0 7.5Q336 -8 282 -8Q252 -8 212.0 -2.5Q172 3 136.0 16.5Q100 30 75.0 52.5Q50 75 50 108Q50 128 60.5 140.0Q71 152 92 152Q109 152 120.0 145.5Q131 139 139 131Q169 105 207.0 96.0Q245 87 285 87Q308 87 333.5 90.5Q359 94 380.0 105.0Q401 116 415.0 136.5Q429 157 429 192Q429 224 416.5 244.5Q404 265 383.0 279.0Q362 293 333.5 302.0Q305 311 272 320Q235 330 199.0 342.0Q163 354 135.0 374.5Q107 395 89.5 426.5Q72 458 72 507Q72 556 90.0 593.0Q108 630 139.0 655.0Q170 680 212.5 693.0Q255 706 304 706Z" transform="translate(0, 0)" /> <path d="M471 -4Q455 -4 445.5 1.5Q436 7 431.0 16.0Q426 25 424.0 37.5Q422 50 421 64Q396 33 356.5 12.0Q317 -9 256 -9Q217 -9 176.5 2.5Q136 14 103.0 42.5Q70 71 49.0 119.0Q28 167 28 240Q28 297 42.0 347.0Q56 397 84.5 434.5Q113 472 156.0 494.0Q199 516 257 516Q308 516 348.0 497.5Q388 479 420 437Q420 449 421.0 461.5Q422 474 426.5 484.5Q431 495 441.0 501.5Q451 508 468 508Q483 508 496.0 496.0Q509 484 511 444Q514 391 515.5 349.0Q517 307 517 262Q517 207 516.0 161.0Q515 115 511 63Q509 40 505.5 26.5Q502 13 497.0 6.5Q492 0 485.0 -2.0Q478 -4 471 -4ZM417 250Q417 302 401.5 335.0Q386 368 362.5 386.5Q339 405 312.0 412.0Q285 419 262 419Q226 419 200.5 406.0Q175 393 159.0 370.5Q143 348 135.5 317.5Q128 287 128 251Q128 163 166.5 121.0Q205 79 271 79Q310 79 337.5 92.5Q365 106 382.5 129.0Q400 152 408.5 183.5Q417 215 417 250Z" transform="translate(582, 0)" /> <path d="M67 58Q66 94 65.0 142.0Q64 190 63.5 246.0Q63 302 62.5 364.0Q62 426 62 491Q62 562 63.0 613.0Q64 664 68.5 697.0Q73 730 83.0 745.5Q93 761 111 761Q128 761 141.0 750.0Q154 739 156 699Q160 627 161.0 549.5Q162 472 162 397Q162 352 162.0 310.5Q162 269 161.0 228.5Q160 188 159.0 146.0Q158 104 156 59Q155 35 151.5 22.0Q148 9 142.0 2.0Q136 -5 128.5 -6.5Q121 -8 111 -8Q93 -8 81.0 4.5Q69 17 67 58Z" transform="translate(1155, 0)" /> <path d="M171 654Q171 594 167.5 528.5Q164 463 159 401Q172 428 193.0 447.5Q214 467 239.5 479.0Q265 491 293.0 497.0Q321 503 347 503Q392 503 431.5 486.5Q471 470 500.5 438.5Q530 407 546.5 360.5Q563 314 563 254Q563 196 546.0 148.0Q529 100 495.5 65.5Q462 31 412.5 12.0Q363 -7 299 -7Q212 -7 162.5 28.0Q113 63 89.0 121.5Q65 180 59.5 256.0Q54 332 54 415Q54 499 57.0 567.0Q60 635 66 677Q72 715 86.0 731.0Q100 747 123 747Q140 747 150.0 739.5Q160 732 164.5 719.0Q169 706 170.0 689.5Q171 673 171 654ZM319 404Q290 404 263.5 394.5Q237 385 216.5 365.0Q196 345 184.0 314.5Q172 284 172 241Q172 165 209.5 125.5Q247 86 310 86Q336 86 363.0 93.5Q390 101 412.0 119.5Q434 138 448.0 169.0Q462 200 462 246Q462 287 450.5 317.0Q439 347 419.0 366.5Q399 386 373.0 395.0Q347 404 319 404Z" transform="translate(1379, 0)" /> <path d="M292 184Q257 184 218.5 189.5Q180 195 135 213Q144 152 185.5 121.0Q227 90 305 90Q333 90 355.5 93.5Q378 97 395.0 101.5Q412 106 425.0 109.5Q438 113 449 113Q463 113 476.0 104.5Q489 96 489 76Q489 51 468.5 35.0Q448 19 418.5 9.5Q389 0 356.0 -3.5Q323 -7 298 -7Q239 -7 189.5 9.0Q140 25 104.0 57.5Q68 90 48.0 138.0Q28 186 28 250Q28 312 47.5 360.0Q67 408 101.0 441.0Q135 474 181.5 491.0Q228 508 282 508Q324 508 363.5 497.0Q403 486 433.5 464.0Q464 442 482.5 408.5Q501 375 501 330Q501 290 486.0 262.0Q471 234 443.5 217.0Q416 200 377.5 192.0Q339 184 292 184ZM285 416Q258 416 233.0 409.5Q208 403 187.5 388.5Q167 374 153.0 350.5Q139 327 134 292Q172 275 208.0 268.5Q244 262 284 262Q343 262 371.5 276.5Q400 291 400 329Q400 364 373.5 390.0Q347 416 285 416Z" transform="translate(1970, 0)" /> <path d="M68 62Q66 99 64.5 146.5Q63 194 63 251Q63 322 64.0 372.5Q65 423 69.5 455.5Q74 488 84.0 503.5Q94 519 112 519Q129 519 142.0 507.0Q155 495 157 455Q163 350 163 252Q163 202 161.0 158.5Q159 115 157 63Q156 39 152.5 26.0Q149 13 143.0 6.0Q137 -1 129.5 -2.5Q122 -4 112 -4Q94 -4 82.0 8.5Q70 21 68 62ZM113 700Q136 700 155.5 682.0Q175 664 175 639Q175 615 155.0 597.5Q135 580 110 580Q89 580 70.5 597.5Q52 615 52 641Q52 665 70.5 682.5Q89 700 113 700Z" transform="translate(2505, 0)" />
  </g>
</svg>
