<?xml version="1.0" standalone="no"?>
<svg xmlns="http://www.w3.org/2000/svg" width="5640" height="1245" viewBox="0 -289 5640 1245">
  <g transform="translate(0, 956) scale(1, -1)">
    <path d="M304 706Q332 706 368.5 701.5Q405 697 437.0 685.5Q469 674 491.0 655.5Q513 637 513 610Q513 594 504.0 583.0Q495 572 475 572Q460 572 444.5 578.0Q429 584 409.5 590.5Q390 597 364.5 603.0Q339 609 305 609Q239 609 207.5 585.5Q176 562 176 521Q176 493 190.0 474.0Q204 455 227.5 441.5Q251 428 280.5 419.0Q310 410 341 402Q376 393 410.5 380.0Q445 367 472.0 346.0Q499 325 515.5 293.0Q532 261 532 212Q532 161 513.0 120.5Q494 80 461.0 51.5Q428 23 382.0 7.5Q336 -8 282 -8Q252 -8 212.0 -2.5Q172 3 136.0 16.5Q100 30 75.0 52.5Q50 75 50 108Q50 128 60.5 140.0Q71 152 92 152Q109 152 120.0 145.5Q131 139 139 131Q169 105 207.0 96.0Q245 87 285 87Q308 87 333.5 90.5Q359 94 380.0 105.0Q401 116 415.0 136.5Q429 157 429 192Q429 224 416.5 244.5Q404 265 383.0 279.0Q362 293 333.5 302.0Q305 311 272 320Q235 330 199.0 342.0Q163 354 135.0 374.5Q107 395 89.5 426.5Q72 458 72 507Q72 556 90.0 593.0Q108 630 139.0 655.0Q170 680 212.5 693.0Q255 706 304 706Z" transform="translate(0, 0)" /> <path d="M471 -4Q455 -4 445.5 1.5Q436 7 431.0 16.0Q426 25 424.0 37.5Q422 50 421 64Q396 33 356.5 12.0Q317 -9 256 -9Q217 -9 176.5 2.5Q136 14 103.0 42.5Q70 71 49.0 119.0Q28 167 28 240Q28 297 42.0 347.0Q56 397 84.5 434.5Q113 472 156.0 494.0Q199 516 257 516Q308 516 348.0 497.5Q388 479 420 437Q420 449 421.0 461.5Q422 474 426.5 484.5Q431 495 441.0 501.5Q451 508 468 508Q483 508 496.0 496.0Q509 484 511 444Q514 391 515.5 349.0Q517 307 517 262Q517 207 516.0 161.0Q515 115 511 63Q509 40 505.5 26.5Q502 13 497.0 6.5Q492 0 485.0 -2.0Q478 -4 471 -4ZM417 250Q417 302 401.5 335.0Q386 368 362.5 386.5Q339 405 312.0 412.0Q285 419 262 419Q226 419 200.5 406.0Q175 393 159.0 370.5Q143 348 135.5 317.5Q128 287 128 251Q128 163 166.5 121.0Q205 79 271 79Q310 79 337.5 92.5Q365 106 382.5 129.0Q400 152 408.5 183.5Q417 215 417 250Z" transform="translate(582, 0)" /> <path d="M149 453Q151 427 150.5 390.0Q150 353 151.5 312.5Q153 272 158.0 231.5Q163 191 175.5 159.0Q188 127 210.5 107.0Q233 87 269 87Q305 87 327.5 107.0Q350 127 362.5 159.0Q375 191 380.0 231.5Q385 272 386.5 312.5Q388 353 387.5 390.0Q387 427 389 453Q393 515 440 515Q458 515 468.0 505.0Q478 495 482.5 477.0Q487 459 488.0 434.0Q489 409 489 378Q489 314 482.5 245.5Q476 177 453.5 120.0Q431 63 387.0 26.0Q343 -11 269 -11Q195 -11 151.0 26.0Q107 63 84.5 120.0Q62 177 55.5 245.5Q49 314 49 378Q49 409 50.0 434.0Q51 459 55.5 477.0Q60 495 70.0 505.0Q80 515 98 515Q145 515 149 453Z" transform="translate(1155, 0)" /> <path d="M292 184Q257 184 218.5 189.5Q180 195 135 213Q144 152 185.5 121.0Q227 90 305 90Q333 90 355.5 93.5Q378 97 395.0 101.5Q412 106 425.0 109.5Q438 113 449 113Q463 113 476.0 104.5Q489 96 489 76Q489 51 468.5 35.0Q448 19 418.5 9.5Q389 0 356.0 -3.5Q323 -7 298 -7Q239 -7 189.5 9.0Q140 25 104.0 57.5Q68 90 48.0 138.0Q28 186 28 250Q28 312 47.5 360.0Q67 408 101.0 441.0Q135 474 181.5 491.0Q228 508 282 508Q324 508 363.5 497.0Q403 486 433.5 464.0Q464 442 482.5 408.5Q501 375 501 330Q501 290 486.0 262.0Q471 234 443.5 217.0Q416 200 377.5 192.0Q339 184 292 184ZM285 416Q258 416 233.0 409.5Q208 403 187.5 388.5Q167 374 153.0 350.5Q139 327 134 292Q172 275 208.0 268.5Q244 262 284 262Q343 262 371.5 276.5Q400 291 400 329Q400 364 373.5 390.0Q347 416 285 416Z" transform="translate(1698, 0)" /> <path d="M66 61Q62 96 61.0 146.0Q60 196 60 267Q60 337 60.5 380.0Q61 423 66 456Q71 497 81.5 509.0Q92 521 109 521Q121 521 130.5 519.0Q140 517 147.5 510.5Q155 504 159.0 492.0Q163 480 163 459Q163 455 164 451Q164 447 164.5 442.5Q165 438 165 432Q192 466 226.5 490.0Q261 514 305 514Q364 514 364 465Q364 447 356.5 435.0Q349 423 335.5 415.5Q322 408 304.5 404.0Q287 400 266 396Q234 390 206.0 373.5Q178 357 168 332Q168 313 168.5 304.0Q169 295 169.5 289.0Q170 283 170.0 276.0Q170 269 170 254Q170 203 168.0 158.5Q166 114 164 62Q163 38 158.5 25.0Q154 12 147.5 5.0Q141 -2 133.0 -3.5Q125 -5 117 -5Q89 -5 79.5 7.5Q70 20 66 61Z" transform="translate(2233, 0)" /> <path d="M171 654Q171 594 167.5 528.5Q164 463 159 401Q172 428 193.0 447.5Q214 467 239.5 479.0Q265 491 293.0 497.0Q321 503 347 503Q392 503 431.5 486.5Q471 470 500.5 438.5Q530 407 546.5 360.5Q563 314 563 254Q563 196 546.0 148.0Q529 100 495.5 65.5Q462 31 412.5 12.0Q363 -7 299 -7Q212 -7 162.5 28.0Q113 63 89.0 121.5Q65 180 59.5 256.0Q54 332 54 415Q54 499 57.0 567.0Q60 635 66 677Q72 715 86.0 731.0Q100 747 123 747Q140 747 150.0 739.5Q160 732 164.5 719.0Q169 706 170.0 689.5Q171 673 171 654ZM319 404Q290 404 263.5 394.5Q237 385 216.5 365.0Q196 345 184.0 314.5Q172 284 172 241Q172 165 209.5 125.5Q247 86 310 86Q336 86 363.0 93.5Q390 101 412.0 119.5Q434 138 448.0 169.0Q462 200 462 246Q462 287 450.5 317.0Q439 347 419.0 366.5Q399 386 373.0 395.0Q347 404 319 404Z" transform="translate(2610, 0)" /> <path d="M66 61Q62 96 61.0 146.0Q60 196 60 267Q60 337 60.5 380.0Q61 423 66 456Q71 497 81.5 509.0Q92 521 109 521Q121 521 130.5 519.0Q140 517 147.5 510.5Q155 504 159.0 492.0Q163 480 163 459Q163 455 164 451Q164 447 164.5 442.5Q165 438 165 432Q192 466 226.5 490.0Q261 514 305 514Q364 514 364 465Q364 447 356.5 435.0Q349 423 335.5 415.5Q322 408 304.5 404.0Q287 400 266 396Q234 390 206.0 373.5Q178 357 168 332Q168 313 168.5 304.0Q169 295 169.5 289.0Q170 283 170.0 276.0Q170 269 170 254Q170 203 168.0 158.5Q166 114 164 62Q163 38 158.5 25.0Q154 12 147.5 5.0Q141 -2 133.0 -3.5Q125 -5 117 -5Q89 -5 79.5 7.5Q70 20 66 61Z" transform="translate(3201, 0)" /> <path d="M471 -4Q455 -4 445.5 1.5Q436 7 431.0 16.0Q426 25 424.0 37.5Q422 50 421 64Q396 33 356.5 12.0Q317 -9 256 -9Q217 -9 176.5 2.5Q136 14 103.0 42.5Q70 71 49.0 119.0Q28 167 28 240Q28 297 42.0 347.0Q56 397 84.5 434.5Q113 472 156.0 494.0Q199 516 257 516Q308 516 348.0 497.5Q388 479 420 437Q420 449 421.0 461.5Q422 474 426.5 484.5Q431 495 441.0 501.5Q451 508 468 508Q483 508 496.0 496.0Q509 484 511 444Q514 391 515.5 349.0Q517 307 517 262Q517 207 516.0 161.0Q515 115 511 63Q509 40 505.5 26.5Q502 13 497.0 6.5Q492 0 485.0 -2.0Q478 -4 471 -4ZM417 250Q417 302 401.5 335.0Q386 368 362.5 386.5Q339 405 312.0 412.0Q285 419 262 419Q226 419 200.5 406.0Q175 393 159.0 370.5Q143 348 135.5 317.5Q128 287 128 251Q128 163 166.5 121.0Q205 79 271 79Q310 79 337.5 92.5Q365 106 382.5 129.0Q400 152 408.5 183.5Q417 215 417 250Z" transform="translate(3578, 0)" /> <path d="M147 65Q144 128 143.5 214.5Q143 301 143 411Q133 410 119.5 410.0Q106 410 98 410Q80 410 65.5 411.0Q51 412 40.0 417.0Q29 422 23.0 431.5Q17 441 17 458Q17 506 89 506Q100 506 116.0 506.0Q132 506 143 504Q143 557 145.0 589.0Q147 621 152.5 638.5Q158 656 167.5 661.5Q177 667 192 667Q208 667 218.0 656.0Q228 645 233.5 628.0Q239 611 240.5 590.0Q242 569 242 549Q242 535 241.5 523.5Q241 512 241 503Q255 507 270.0 507.5Q285 508 299 508Q336 508 356.0 496.5Q376 485 376 459Q376 443 369.0 433.5Q362 424 350.5 419.0Q339 414 323.5 412.5Q308 411 290 411Q280 411 267.0 411.0Q254 411 243 413Q243 360 243.0 316.0Q243 272 242.0 231.5Q241 191 240.0 151.0Q239 111 237 66Q236 42 232.5 29.0Q229 16 223.0 9.0Q217 2 209.5 0.5Q202 -1 192 -1Q174 -1 161.5 11.5Q149 24 147 65Z" transform="translate(4151, 0)" /> <path d="M292 184Q257 184 218.5 189.5Q180 195 135 213Q144 152 185.5 121.0Q227 90 305 90Q333 90 355.5 93.5Q378 97 395.0 101.5Q412 106 425.0 109.5Q438 113 449 113Q463 113 476.0 104.5Q489 96 489 76Q489 51 468.5 35.0Q448 19 418.5 9.5Q389 0 356.0 -3.5Q323 -7 298 -7Q239 -7 189.5 9.0Q140 25 104.0 57.5Q68 90 48.0 138.0Q28 186 28 250Q28 312 47.5 360.0Q67 408 101.0 441.0Q135 474 181.5 491.0Q228 508 282 508Q324 508 363.5 497.0Q403 486 433.5 464.0Q464 442 482.5 408.5Q501 375 501 330Q501 290 486.0 262.0Q471 234 443.5 217.0Q416 200 377.5 192.0Q339 184 292 184ZM285 416Q258 416 233.0 409.5Q208 403 187.5 388.5Q167 374 153.0 350.5Q139 327 134 292Q172 275 208.0 268.5Q244 262 284 262Q343 262 371.5 276.5Q400 291 400 329Q400 364 373.5 390.0Q347 416 285 416Z" transform="translate(4548, 0)" /> <path d="M296 426Q259 426 229.5 414.0Q200 402 163 378Q163 357 163.0 316.5Q163 276 162.0 228.5Q161 181 160.0 135.0Q159 89 156 58Q154 38 151.5 26.5Q149 15 144.5 9.0Q140 3 132.5 1.5Q125 0 113 0Q101 0 93.5 1.5Q86 3 81.0 8.5Q76 14 73.0 25.0Q70 36 68 55Q66 73 64.5 103.0Q63 133 62.0 168.5Q61 204 60.5 240.5Q60 277 60 308Q60 359 61.5 391.0Q63 423 67 448Q73 490 83.0 501.0Q93 512 110 512Q135 512 147.5 498.0Q160 484 163 452Q200 484 242.5 503.0Q285 522 330 522Q373 522 408.5 502.0Q444 482 467 437Q481 410 488.0 377.5Q495 345 498 309Q499 293 500.0 277.5Q501 262 501.5 244.5Q502 227 502.0 205.0Q502 183 502 153Q502 121 501.0 93.0Q500 65 495.5 44.5Q491 24 480.0 12.5Q469 1 450 1Q404 1 402 45Q402 48 402.0 70.5Q402 93 401.5 123.0Q401 153 400.5 184.0Q400 215 399 235Q398 251 396.5 269.5Q395 288 392.5 307.0Q390 326 386.0 343.5Q382 361 376 375Q362 408 341.0 417.0Q320 426 296 426Z" transform="translate(5083, 0)" />
  </g>
</svg>
