<?xml version="1.0" standalone="no"?>
<svg xmlns="http://www.w3.org/2000/svg" width="4183" height="1245" viewBox="0 -289 4183 1245">
  <g transform="translate(0, 956) scale(1, -1)">
    <path d="M479 51Q469 75 457.5 106.5Q446 138 433 173Q403 172 370.0 171.5Q337 171 303 171Q260 171 225.0 171.0Q190 171 161 172Q149 137 138.0 106.0Q127 75 117 51Q97 0 59 0Q45 0 32.5 9.0Q20 18 20 35Q20 52 26.0 79.5Q32 107 41.5 138.5Q51 170 62.0 203.5Q73 237 83 266Q93 298 111.5 347.5Q130 397 151.0 451.0Q172 505 193.0 557.5Q214 610 231 649Q235 659 241.0 671.5Q247 684 255.5 695.0Q264 706 274.5 714.0Q285 722 298 722Q311 722 322.0 713.5Q333 705 341.5 693.0Q350 681 356.5 668.0Q363 655 367 645Q383 605 403.5 553.0Q424 501 444.5 448.0Q465 395 483.0 347.0Q501 299 512 266Q521 237 532.5 204.0Q544 171 554.0 139.0Q564 107 570.5 79.5Q577 52 577 35Q577 18 564.5 9.0Q552 0 538 0Q520 0 505.0 12.5Q490 25 479 51ZM302 271Q326 271 350.0 270.5Q374 270 398 269Q386 304 374.0 339.0Q362 374 351.5 406.0Q341 438 332.5 465.5Q324 493 318 514Q314 527 309.0 535.0Q304 543 296 543Q288 543 283.0 534.5Q278 526 274 513Q262 472 240.5 406.5Q219 341 195 269Q222 270 249.0 270.5Q276 271 302 271Z" transform="translate(0, 0)" /> <path d="M67 58Q66 94 65.0 142.0Q64 190 63.5 246.0Q63 302 62.5 364.0Q62 426 62 491Q62 562 63.0 613.0Q64 664 68.5 697.0Q73 730 83.0 745.5Q93 761 111 761Q128 761 141.0 750.0Q154 739 156 699Q160 627 161.0 549.5Q162 472 162 397Q162 352 162.0 310.5Q162 269 161.0 228.5Q160 188 159.0 146.0Q158 104 156 59Q155 35 151.5 22.0Q148 9 142.0 2.0Q136 -5 128.5 -6.5Q121 -8 111 -8Q93 -8 81.0 4.5Q69 17 67 58Z" transform="translate(597, 0)" /> <path d="M171 654Q171 594 167.5 528.5Q164 463 159 401Q172 428 193.0 447.5Q214 467 239.5 479.0Q265 491 293.0 497.0Q321 503 347 503Q392 503 431.5 486.5Q471 470 500.5 438.5Q530 407 546.5 360.5Q563 314 563 254Q563 196 546.0 148.0Q529 100 495.5 65.5Q462 31 412.5 12.0Q363 -7 299 -7Q212 -7 162.5 28.0Q113 63 89.0 121.5Q65 180 59.5 256.0Q54 332 54 415Q54 499 57.0 567.0Q60 635 66 677Q72 715 86.0 731.0Q100 747 123 747Q140 747 150.0 739.5Q160 732 164.5 719.0Q169 706 170.0 689.5Q171 673 171 654ZM319 404Q290 404 263.5 394.5Q237 385 216.5 365.0Q196 345 184.0 314.5Q172 284 172 241Q172 165 209.5 125.5Q247 86 310 86Q336 86 363.0 93.5Q390 101 412.0 119.5Q434 138 448.0 169.0Q462 200 462 246Q462 287 450.5 317.0Q439 347 419.0 366.5Q399 386 373.0 395.0Q347 404 319 404Z" transform="translate(821, 0)" /> <path d="M471 -4Q455 -4 445.5 1.5Q436 7 431.0 16.0Q426 25 424.0 37.5Q422 50 421 64Q396 33 356.5 12.0Q317 -9 256 -9Q217 -9 176.5 2.5Q136 14 103.0 42.5Q70 71 49.0 119.0Q28 167 28 240Q28 297 42.0 347.0Q56 397 84.5 434.5Q113 472 156.0 494.0Q199 516 257 516Q308 516 348.0 497.5Q388 479 420 437Q420 449 421.0 461.5Q422 474 426.5 484.5Q431 495 441.0 501.5Q451 508 468 508Q483 508 496.0 496.0Q509 484 511 444Q514 391 515.5 349.0Q517 307 517 262Q517 207 516.0 161.0Q515 115 511 63Q509 40 505.5 26.5Q502 13 497.0 6.5Q492 0 485.0 -2.0Q478 -4 471 -4ZM417 250Q417 302 401.5 335.0Q386 368 362.5 386.5Q339 405 312.0 412.0Q285 419 262 419Q226 419 200.5 406.0Q175 393 159.0 370.5Q143 348 135.5 317.5Q128 287 128 251Q128 163 166.5 121.0Q205 79 271 79Q310 79 337.5 92.5Q365 106 382.5 129.0Q400 152 408.5 183.5Q417 215 417 250Z" transform="translate(1412, 0)" /> <path d="M295 411Q258 411 228.5 400.0Q199 389 162 370Q162 369 162.0 351.0Q162 333 161.5 305.0Q161 277 160.5 242.5Q160 208 159.5 173.5Q159 139 157.5 108.0Q156 77 155 56Q153 35 150.5 23.0Q148 11 144.5 5.5Q141 0 135.0 -1.0Q129 -2 122 -2Q105 -2 95.5 -0.5Q86 1 80.0 6.5Q74 12 71.5 23.0Q69 34 67 53Q65 72 63.5 105.5Q62 139 61.0 180.5Q60 222 59.5 269.0Q59 316 59 362Q59 408 59.5 459.5Q60 511 61.0 558.5Q62 606 63.0 643.5Q64 681 66 699Q68 725 75.5 744.0Q83 763 109 763Q129 763 141.5 749.0Q154 735 156 696Q158 661 159.5 598.5Q161 536 162 458Q176 469 196.0 478.5Q216 488 238.0 494.5Q260 501 283.0 505.0Q306 509 326 509Q374 509 409.5 486.5Q445 464 466 422Q480 395 487.0 362.5Q494 330 497 294Q498 278 499.0 262.5Q500 247 500.5 229.5Q501 212 501.0 190.0Q501 168 501 138Q501 108 500.0 82.5Q499 57 494.5 38.5Q490 20 480.0 9.5Q470 -1 452 -1Q426 -1 413.5 15.5Q401 32 401 55Q401 56 401.0 76.0Q401 96 400.5 122.5Q400 149 399.5 176.0Q399 203 398 220Q397 236 395.5 254.5Q394 273 391.5 292.0Q389 311 385.0 328.5Q381 346 375 360Q361 393 340.0 402.0Q319 411 295 411Z" transform="translate(1985, 0)" /> <path d="M471 -4Q455 -4 445.5 1.5Q436 7 431.0 16.0Q426 25 424.0 37.5Q422 50 421 64Q396 33 356.5 12.0Q317 -9 256 -9Q217 -9 176.5 2.5Q136 14 103.0 42.5Q70 71 49.0 119.0Q28 167 28 240Q28 297 42.0 347.0Q56 397 84.5 434.5Q113 472 156.0 494.0Q199 516 257 516Q308 516 348.0 497.5Q388 479 420 437Q420 449 421.0 461.5Q422 474 426.5 484.5Q431 495 441.0 501.5Q451 508 468 508Q483 508 496.0 496.0Q509 484 511 444Q514 391 515.5 349.0Q517 307 517 262Q517 207 516.0 161.0Q515 115 511 63Q509 40 505.5 26.5Q502 13 497.0 6.5Q492 0 485.0 -2.0Q478 -4 471 -4ZM417 250Q417 302 401.5 335.0Q386 368 362.5 386.5Q339 405 312.0 412.0Q285 419 262 419Q226 419 200.5 406.0Q175 393 159.0 370.5Q143 348 135.5 317.5Q128 287 128 251Q128 163 166.5 121.0Q205 79 271 79Q310 79 337.5 92.5Q365 106 382.5 129.0Q400 152 408.5 183.5Q417 215 417 250Z" transform="translate(2540, 0)" /> <path d="M289 510Q318 510 347.5 505.0Q377 500 401.0 491.0Q425 482 440.0 469.0Q455 456 455 439Q455 395 405 395Q393 395 382.5 398.5Q372 402 358.0 405.5Q344 409 323.0 412.5Q302 416 271 416Q205 416 169.0 371.0Q133 326 133 254Q133 175 169.5 127.0Q206 79 273 79Q315 79 341.0 86.0Q367 93 383.5 102.0Q400 111 410.5 118.0Q421 125 434 125Q452 125 462.5 117.5Q473 110 473 87Q473 63 454.5 45.0Q436 27 408.0 15.0Q380 3 347.5 -3.0Q315 -9 288 -9Q167 -9 98.0 58.0Q29 125 29 248Q29 301 45.5 348.5Q62 396 95.0 432.0Q128 468 176.5 489.0Q225 510 289 510Z" transform="translate(3113, 0)" /> <path d="M471 -4Q455 -4 445.5 1.5Q436 7 431.0 16.0Q426 25 424.0 37.5Q422 50 421 64Q396 33 356.5 12.0Q317 -9 256 -9Q217 -9 176.5 2.5Q136 14 103.0 42.5Q70 71 49.0 119.0Q28 167 28 240Q28 297 42.0 347.0Q56 397 84.5 434.5Q113 472 156.0 494.0Q199 516 257 516Q308 516 348.0 497.5Q388 479 420 437Q420 449 421.0 461.5Q422 474 426.5 484.5Q431 495 441.0 501.5Q451 508 468 508Q483 508 496.0 496.0Q509 484 511 444Q514 391 515.5 349.0Q517 307 517 262Q517 207 516.0 161.0Q515 115 511 63Q509 40 505.5 26.5Q502 13 497.0 6.5Q492 0 485.0 -2.0Q478 -4 471 -4ZM417 250Q417 302 401.5 335.0Q386 368 362.5 386.5Q339 405 312.0 412.0Q285 419 262 419Q226 419 200.5 406.0Q175 393 159.0 370.5Q143 348 135.5 317.5Q128 287 128 251Q128 163 166.5 121.0Q205 79 271 79Q310 79 337.5 92.5Q365 106 382.5 129.0Q400 152 408.5 183.5Q417 215 417 250Z" transform="translate(3610, 0)" />
  </g>
</svg>
