<?xml version="1.0" standalone="no"?>
<svg xmlns="http://www.w3.org/2000/svg" width="3436" height="1245" viewBox="0 -289 3436 1245">
  <g transform="translate(0, 956) scale(1, -1)">
    <path d="M479 51Q469 75 457.5 106.5Q446 138 433 173Q403 172 370.0 171.5Q337 171 303 171Q260 171 225.0 171.0Q190 171 161 172Q149 137 138.0 106.0Q127 75 117 51Q97 0 59 0Q45 0 32.5 9.0Q20 18 20 35Q20 52 26.0 79.5Q32 107 41.5 138.5Q51 170 62.0 203.5Q73 237 83 266Q93 298 111.5 347.5Q130 397 151.0 451.0Q172 505 193.0 557.5Q214 610 231 649Q235 659 241.0 671.5Q247 684 255.5 695.0Q264 706 274.5 714.0Q285 722 298 722Q311 722 322.0 713.5Q333 705 341.5 693.0Q350 681 356.5 668.0Q363 655 367 645Q383 605 403.5 553.0Q424 501 444.5 448.0Q465 395 483.0 347.0Q501 299 512 266Q521 237 532.5 204.0Q544 171 554.0 139.0Q564 107 570.5 79.5Q577 52 577 35Q577 18 564.5 9.0Q552 0 538 0Q520 0 505.0 12.5Q490 25 479 51ZM302 271Q326 271 350.0 270.5Q374 270 398 269Q386 304 374.0 339.0Q362 374 351.5 406.0Q341 438 332.5 465.5Q324 493 318 514Q314 527 309.0 535.0Q304 543 296 543Q288 543 283.0 534.5Q278 526 274 513Q262 472 240.5 406.5Q219 341 195 269Q222 270 249.0 270.5Q276 271 302 271Z" transform="translate(0, 0)" /> <path d="M373 1Q339 -1 297.5 -2.5Q256 -4 205 -4Q144 -4 108.0 -3.0Q72 -2 53.5 1.5Q35 5 29.5 12.0Q24 19 24 32Q24 56 39.5 87.5Q55 119 76.5 150.5Q98 182 119.5 209.0Q141 236 153 252Q187 297 220.0 332.0Q253 367 293 405Q270 403 240.5 403.0Q211 403 184 403Q142 403 113.5 404.0Q85 405 67.5 409.5Q50 414 43.0 424.0Q36 434 36 452Q36 469 47.0 481.5Q58 494 99 497Q117 498 126.0 499.5Q135 501 142.0 501.5Q149 502 157.5 502.5Q166 503 183 503Q224 503 263.0 501.5Q302 500 345 498Q355 498 367.5 496.0Q380 494 391.0 489.0Q402 484 409.5 475.0Q417 466 417 452Q417 428 391.0 388.0Q365 348 325.5 299.5Q286 251 239.5 197.5Q193 144 152 94Q163 95 178.0 95.5Q193 96 204 96Q249 96 287.0 94.5Q325 93 372 91Q396 90 409.0 86.5Q422 83 429.0 77.0Q436 71 437.5 63.0Q439 55 439 45Q439 27 426.5 15.0Q414 3 373 1Z" transform="translate(597, 0)" /> <path d="M471 -4Q455 -4 445.5 1.5Q436 7 431.0 16.0Q426 25 424.0 37.5Q422 50 421 64Q396 33 356.5 12.0Q317 -9 256 -9Q217 -9 176.5 2.5Q136 14 103.0 42.5Q70 71 49.0 119.0Q28 167 28 240Q28 297 42.0 347.0Q56 397 84.5 434.5Q113 472 156.0 494.0Q199 516 257 516Q308 516 348.0 497.5Q388 479 420 437Q420 449 421.0 461.5Q422 474 426.5 484.5Q431 495 441.0 501.5Q451 508 468 508Q483 508 496.0 496.0Q509 484 511 444Q514 391 515.5 349.0Q517 307 517 262Q517 207 516.0 161.0Q515 115 511 63Q509 40 505.5 26.5Q502 13 497.0 6.5Q492 0 485.0 -2.0Q478 -4 471 -4ZM417 250Q417 302 401.5 335.0Q386 368 362.5 386.5Q339 405 312.0 412.0Q285 419 262 419Q226 419 200.5 406.0Q175 393 159.0 370.5Q143 348 135.5 317.5Q128 287 128 251Q128 163 166.5 121.0Q205 79 271 79Q310 79 337.5 92.5Q365 106 382.5 129.0Q400 152 408.5 183.5Q417 215 417 250Z" transform="translate(1061, 0)" /> <path d="M85 406Q74 405 63.5 404.5Q53 404 43 404Q10 404 -6.5 414.5Q-23 425 -23 455Q-23 478 -10.5 491.5Q2 505 39 505Q62 505 86 502V560Q86 600 95.0 636.0Q104 672 123.0 699.5Q142 727 172.5 743.5Q203 760 247 760Q287 760 303.0 748.5Q319 737 319 711Q319 685 298.0 679.0Q277 673 250 673Q217 673 200.5 644.0Q184 615 184 573V503Q197 506 209.5 506.5Q222 507 236 507Q273 507 288.5 495.0Q304 483 304 457Q304 424 283.0 414.5Q262 405 227 405Q218 405 206.5 405.0Q195 405 184 407V63Q184 39 180.0 26.0Q176 13 169.0 6.0Q162 -1 153.0 -2.5Q144 -4 134 -4Q125 -4 116.0 -1.5Q107 1 100.5 8.5Q94 16 89.5 29.0Q85 42 85 62Z" transform="translate(1634, 0)" /> <path d="M66 61Q62 96 61.0 146.0Q60 196 60 267Q60 337 60.5 380.0Q61 423 66 456Q71 497 81.5 509.0Q92 521 109 521Q121 521 130.5 519.0Q140 517 147.5 510.5Q155 504 159.0 492.0Q163 480 163 459Q163 455 164 451Q164 447 164.5 442.5Q165 438 165 432Q192 466 226.5 490.0Q261 514 305 514Q364 514 364 465Q364 447 356.5 435.0Q349 423 335.5 415.5Q322 408 304.5 404.0Q287 400 266 396Q234 390 206.0 373.5Q178 357 168 332Q168 313 168.5 304.0Q169 295 169.5 289.0Q170 283 170.0 276.0Q170 269 170 254Q170 203 168.0 158.5Q166 114 164 62Q163 38 158.5 25.0Q154 12 147.5 5.0Q141 -2 133.0 -3.5Q125 -5 117 -5Q89 -5 79.5 7.5Q70 20 66 61Z" transform="translate(1929, 0)" /> <path d="M471 -4Q455 -4 445.5 1.5Q436 7 431.0 16.0Q426 25 424.0 37.5Q422 50 421 64Q396 33 356.5 12.0Q317 -9 256 -9Q217 -9 176.5 2.5Q136 14 103.0 42.5Q70 71 49.0 119.0Q28 167 28 240Q28 297 42.0 347.0Q56 397 84.5 434.5Q113 472 156.0 494.0Q199 516 257 516Q308 516 348.0 497.5Q388 479 420 437Q420 449 421.0 461.5Q422 474 426.5 484.5Q431 495 441.0 501.5Q451 508 468 508Q483 508 496.0 496.0Q509 484 511 444Q514 391 515.5 349.0Q517 307 517 262Q517 207 516.0 161.0Q515 115 511 63Q509 40 505.5 26.5Q502 13 497.0 6.5Q492 0 485.0 -2.0Q478 -4 471 -4ZM417 250Q417 302 401.5 335.0Q386 368 362.5 386.5Q339 405 312.0 412.0Q285 419 262 419Q226 419 200.5 406.0Q175 393 159.0 370.5Q143 348 135.5 317.5Q128 287 128 251Q128 163 166.5 121.0Q205 79 271 79Q310 79 337.5 92.5Q365 106 382.5 129.0Q400 152 408.5 183.5Q417 215 417 250ZM194 585Q183 587 172.5 592.5Q162 598 162 613Q163 625 176.5 641.0Q190 657 210.0 673.5Q230 690 255.0 705.5Q280 721 304.5 733.0Q329 745 350.0 752.5Q371 760 384 760Q401 760 413.5 750.0Q426 740 426 721Q426 709 413.0 694.5Q400 680 379.0 665.0Q358 650 332.0 635.5Q306 621 280.5 610.0Q255 599 232.0 592.0Q209 585 194 585Z" transform="translate(2306, 0)" /> <path d="M296 426Q259 426 229.5 414.0Q200 402 163 378Q163 357 163.0 316.5Q163 276 162.0 228.5Q161 181 160.0 135.0Q159 89 156 58Q154 38 151.5 26.5Q149 15 144.5 9.0Q140 3 132.5 1.5Q125 0 113 0Q101 0 93.5 1.5Q86 3 81.0 8.5Q76 14 73.0 25.0Q70 36 68 55Q66 73 64.5 103.0Q63 133 62.0 168.5Q61 204 60.5 240.5Q60 277 60 308Q60 359 61.5 391.0Q63 423 67 448Q73 490 83.0 501.0Q93 512 110 512Q135 512 147.5 498.0Q160 484 163 452Q200 484 242.5 503.0Q285 522 330 522Q373 522 408.5 502.0Q444 482 467 437Q481 410 488.0 377.5Q495 345 498 309Q499 293 500.0 277.5Q501 262 501.5 244.5Q502 227 502.0 205.0Q502 183 502 153Q502 121 501.0 93.0Q500 65 495.5 44.5Q491 24 480.0 12.5Q469 1 450 1Q404 1 402 45Q402 48 402.0 70.5Q402 93 401.5 123.0Q401 153 400.5 184.0Q400 215 399 235Q398 251 396.5 269.5Q395 288 392.5 307.0Q390 326 386.0 343.5Q382 361 376 375Q362 408 341.0 417.0Q320 426 296 426Z" transform="translate(2879, 0)" />
  </g>
</svg>
