<?xml version="1.0" standalone="no"?>
<svg xmlns="http://www.w3.org/2000/svg" width="3310" height="1245" viewBox="0 -289 3310 1245">
  <g transform="translate(0, 956) scale(1, -1)">
    <path d="M351 708Q384 708 417.5 702.5Q451 697 478.0 685.5Q505 674 522.5 657.5Q540 641 540 619Q540 596 528.0 584.0Q516 572 498 572Q481 572 468.0 577.5Q455 583 438.5 590.0Q422 597 399.0 602.5Q376 608 338 608Q300 608 265.5 588.5Q231 569 205.5 534.5Q180 500 165.0 453.0Q150 406 150 351Q150 283 167.5 234.0Q185 185 213.0 153.5Q241 122 276.5 106.5Q312 91 348 91Q391 91 420.0 100.0Q449 109 469.5 120.0Q490 131 505.0 140.0Q520 149 534 149Q551 149 561.0 139.5Q571 130 571 106Q571 86 555.5 65.5Q540 45 510.5 28.5Q481 12 440.0 1.5Q399 -9 348 -9Q292 -9 236.5 13.0Q181 35 137.5 78.5Q94 122 67.0 187.5Q40 253 40 340Q40 427 64.5 495.0Q89 563 131.5 610.5Q174 658 230.5 683.0Q287 708 351 708Z" transform="translate(0, 0)" /> <path d="M292 184Q257 184 218.5 189.5Q180 195 135 213Q144 152 185.5 121.0Q227 90 305 90Q333 90 355.5 93.5Q378 97 395.0 101.5Q412 106 425.0 109.5Q438 113 449 113Q463 113 476.0 104.5Q489 96 489 76Q489 51 468.5 35.0Q448 19 418.5 9.5Q389 0 356.0 -3.5Q323 -7 298 -7Q239 -7 189.5 9.0Q140 25 104.0 57.5Q68 90 48.0 138.0Q28 186 28 250Q28 312 47.5 360.0Q67 408 101.0 441.0Q135 474 181.5 491.0Q228 508 282 508Q324 508 363.5 497.0Q403 486 433.5 464.0Q464 442 482.5 408.5Q501 375 501 330Q501 290 486.0 262.0Q471 234 443.5 217.0Q416 200 377.5 192.0Q339 184 292 184ZM285 416Q258 416 233.0 409.5Q208 403 187.5 388.5Q167 374 153.0 350.5Q139 327 134 292Q172 275 208.0 268.5Q244 262 284 262Q343 262 371.5 276.5Q400 291 400 329Q400 364 373.5 390.0Q347 416 285 416Z" transform="translate(599, 0)" /> <path d="M171 654Q171 594 167.5 528.5Q164 463 159 401Q172 428 193.0 447.5Q214 467 239.5 479.0Q265 491 293.0 497.0Q321 503 347 503Q392 503 431.5 486.5Q471 470 500.5 438.5Q530 407 546.5 360.5Q563 314 563 254Q563 196 546.0 148.0Q529 100 495.5 65.5Q462 31 412.5 12.0Q363 -7 299 -7Q212 -7 162.5 28.0Q113 63 89.0 121.5Q65 180 59.5 256.0Q54 332 54 415Q54 499 57.0 567.0Q60 635 66 677Q72 715 86.0 731.0Q100 747 123 747Q140 747 150.0 739.5Q160 732 164.5 719.0Q169 706 170.0 689.5Q171 673 171 654ZM319 404Q290 404 263.5 394.5Q237 385 216.5 365.0Q196 345 184.0 314.5Q172 284 172 241Q172 165 209.5 125.5Q247 86 310 86Q336 86 363.0 93.5Q390 101 412.0 119.5Q434 138 448.0 169.0Q462 200 462 246Q462 287 450.5 317.0Q439 347 419.0 366.5Q399 386 373.0 395.0Q347 404 319 404Z" transform="translate(1134, 0)" /> <path d="M292 507Q349 507 394.0 489.5Q439 472 470.5 440.0Q502 408 519.0 362.0Q536 316 536 259Q536 196 516.5 146.0Q497 96 462.5 61.0Q428 26 380.5 7.0Q333 -12 277 -12Q216 -12 169.5 9.0Q123 30 91.5 66.0Q60 102 44.0 149.0Q28 196 28 248Q28 305 46.5 352.5Q65 400 99.5 434.5Q134 469 183.0 488.0Q232 507 292 507ZM281 80Q322 80 351.0 94.5Q380 109 398.5 133.0Q417 157 425.5 187.5Q434 218 434 251Q434 285 425.5 314.5Q417 344 399.5 366.0Q382 388 354.5 400.5Q327 413 289 413Q250 413 221.0 400.0Q192 387 172.5 364.5Q153 342 143.0 311.0Q133 280 133 244Q133 171 170.5 125.5Q208 80 281 80Z" transform="translate(1725, 0)" /> <path d="M67 58Q66 94 65.0 142.0Q64 190 63.5 246.0Q63 302 62.5 364.0Q62 426 62 491Q62 562 63.0 613.0Q64 664 68.5 697.0Q73 730 83.0 745.5Q93 761 111 761Q128 761 141.0 750.0Q154 739 156 699Q160 627 161.0 549.5Q162 472 162 397Q162 352 162.0 310.5Q162 269 161.0 228.5Q160 188 159.0 146.0Q158 104 156 59Q155 35 151.5 22.0Q148 9 142.0 2.0Q136 -5 128.5 -6.5Q121 -8 111 -8Q93 -8 81.0 4.5Q69 17 67 58Z" transform="translate(2289, 0)" /> <path d="M67 58Q66 94 65.0 142.0Q64 190 63.5 246.0Q63 302 62.5 364.0Q62 426 62 491Q62 562 63.0 613.0Q64 664 68.5 697.0Q73 730 83.0 745.5Q93 761 111 761Q128 761 141.0 750.0Q154 739 156 699Q160 627 161.0 549.5Q162 472 162 397Q162 352 162.0 310.5Q162 269 161.0 228.5Q160 188 159.0 146.0Q158 104 156 59Q155 35 151.5 22.0Q148 9 142.0 2.0Q136 -5 128.5 -6.5Q121 -8 111 -8Q93 -8 81.0 4.5Q69 17 67 58Z" transform="translate(2513, 0)" /> <path d="M471 -4Q455 -4 445.5 1.5Q436 7 431.0 16.0Q426 25 424.0 37.5Q422 50 421 64Q396 33 356.5 12.0Q317 -9 256 -9Q217 -9 176.5 2.5Q136 14 103.0 42.5Q70 71 49.0 119.0Q28 167 28 240Q28 297 42.0 347.0Q56 397 84.5 434.5Q113 472 156.0 494.0Q199 516 257 516Q308 516 348.0 497.5Q388 479 420 437Q420 449 421.0 461.5Q422 474 426.5 484.5Q431 495 441.0 501.5Q451 508 468 508Q483 508 496.0 496.0Q509 484 511 444Q514 391 515.5 349.0Q517 307 517 262Q517 207 516.0 161.0Q515 115 511 63Q509 40 505.5 26.5Q502 13 497.0 6.5Q492 0 485.0 -2.0Q478 -4 471 -4ZM417 250Q417 302 401.5 335.0Q386 368 362.5 386.5Q339 405 312.0 412.0Q285 419 262 419Q226 419 200.5 406.0Q175 393 159.0 370.5Q143 348 135.5 317.5Q128 287 128 251Q128 163 166.5 121.0Q205 79 271 79Q310 79 337.5 92.5Q365 106 382.5 129.0Q400 152 408.5 183.5Q417 215 417 250Z" transform="translate(2737, 0)" />
  </g>
</svg>
