<?xml version="1.0" standalone="no"?>
<svg xmlns="http://www.w3.org/2000/svg" width="3393" height="1245" viewBox="0 -289 3393 1245">
  <g transform="translate(0, 956) scale(1, -1)">
    <path d="M351 708Q384 708 417.5 702.5Q451 697 478.0 685.5Q505 674 522.5 657.5Q540 641 540 619Q540 596 528.0 584.0Q516 572 498 572Q481 572 468.0 577.5Q455 583 438.5 590.0Q422 597 399.0 602.5Q376 608 338 608Q300 608 265.5 588.5Q231 569 205.5 534.5Q180 500 165.0 453.0Q150 406 150 351Q150 283 167.5 234.0Q185 185 213.0 153.5Q241 122 276.5 106.5Q312 91 348 91Q391 91 420.0 100.0Q449 109 469.5 120.0Q490 131 505.0 140.0Q520 149 534 149Q551 149 561.0 139.5Q571 130 571 106Q571 86 555.5 65.5Q540 45 510.5 28.5Q481 12 440.0 1.5Q399 -9 348 -9Q292 -9 236.5 13.0Q181 35 137.5 78.5Q94 122 67.0 187.5Q40 253 40 340Q40 427 64.5 495.0Q89 563 131.5 610.5Q174 658 230.5 683.0Q287 708 351 708Z" transform="translate(0, 0)" /> <path d="M292 507Q349 507 394.0 489.5Q439 472 470.5 440.0Q502 408 519.0 362.0Q536 316 536 259Q536 196 516.5 146.0Q497 96 462.5 61.0Q428 26 380.5 7.0Q333 -12 277 -12Q216 -12 169.5 9.0Q123 30 91.5 66.0Q60 102 44.0 149.0Q28 196 28 248Q28 305 46.5 352.5Q65 400 99.5 434.5Q134 469 183.0 488.0Q232 507 292 507ZM281 80Q322 80 351.0 94.5Q380 109 398.5 133.0Q417 157 425.5 187.5Q434 218 434 251Q434 285 425.5 314.5Q417 344 399.5 366.0Q382 388 354.5 400.5Q327 413 289 413Q250 413 221.0 400.0Q192 387 172.5 364.5Q153 342 143.0 311.0Q133 280 133 244Q133 171 170.5 125.5Q208 80 281 80Z" transform="translate(599, 0)" /> <path d="M735 30Q729 47 727.5 68.0Q726 89 726 120Q726 142 726.5 154.5Q727 167 727.0 176.5Q727 186 727.5 195.5Q728 205 728 222Q728 257 726.5 292.5Q725 328 716.0 356.5Q707 385 688.0 403.0Q669 421 633 421Q572 421 538.0 363.0Q504 305 497 178Q495 138 495.0 105.0Q495 72 491.0 48.5Q487 25 476.5 12.0Q466 -1 442 -1Q420 -1 410.0 10.5Q400 22 395.5 45.0Q391 68 390.5 101.0Q390 134 387 178Q384 226 377.5 270.0Q371 314 356.5 347.5Q342 381 317.5 401.0Q293 421 255 421Q219 421 199.5 403.5Q180 386 171.0 357.5Q162 329 160.5 293.5Q159 258 159 222Q159 204 159.5 195.5Q160 187 160.0 180.0Q160 173 160.5 162.0Q161 151 161 128Q161 95 159.5 71.0Q158 47 152 30Q145 10 133.0 5.5Q121 1 111 1Q80 1 71.0 23.0Q62 45 61 87Q61 110 60.5 138.5Q60 167 60 208Q60 228 60.0 243.0Q60 258 60.5 272.0Q61 286 61.5 300.5Q62 315 63 334Q66 395 85.0 431.5Q104 468 130.0 487.0Q156 506 186.0 511.5Q216 517 241 517Q295 517 332.0 501.0Q369 485 392.5 459.0Q416 433 427.5 400.0Q439 367 443 333Q447 366 459.5 398.5Q472 431 496.5 456.5Q521 482 560.0 498.0Q599 514 656 514Q683 514 711.5 508.5Q740 503 764.0 484.0Q788 465 804.5 429.5Q821 394 824 334Q825 315 825.5 300.5Q826 286 826.5 272.0Q827 258 827.0 243.0Q827 228 827 208Q827 167 826.5 138.5Q826 110 826 87Q826 68 824.5 52.0Q823 36 818.0 25.0Q813 14 803.5 7.5Q794 1 776 1Q759 1 750.0 7.5Q741 14 735 30Z" transform="translate(1163, 0)" /> <path d="M68 62Q66 99 64.5 146.5Q63 194 63 251Q63 322 64.0 372.5Q65 423 69.5 455.5Q74 488 84.0 503.5Q94 519 112 519Q129 519 142.0 507.0Q155 495 157 455Q163 350 163 252Q163 202 161.0 158.5Q159 115 157 63Q156 39 152.5 26.0Q149 13 143.0 6.0Q137 -1 129.5 -2.5Q122 -4 112 -4Q94 -4 82.0 8.5Q70 21 68 62ZM113 700Q136 700 155.5 682.0Q175 664 175 639Q175 615 155.0 597.5Q135 580 110 580Q89 580 70.5 597.5Q52 615 52 641Q52 665 70.5 682.5Q89 700 113 700Z" transform="translate(2046, 0)" /> <path d="M296 426Q259 426 229.5 414.0Q200 402 163 378Q163 357 163.0 316.5Q163 276 162.0 228.5Q161 181 160.0 135.0Q159 89 156 58Q154 38 151.5 26.5Q149 15 144.5 9.0Q140 3 132.5 1.5Q125 0 113 0Q101 0 93.5 1.5Q86 3 81.0 8.5Q76 14 73.0 25.0Q70 36 68 55Q66 73 64.5 103.0Q63 133 62.0 168.5Q61 204 60.5 240.5Q60 277 60 308Q60 359 61.5 391.0Q63 423 67 448Q73 490 83.0 501.0Q93 512 110 512Q135 512 147.5 498.0Q160 484 163 452Q200 484 242.5 503.0Q285 522 330 522Q373 522 408.5 502.0Q444 482 467 437Q481 410 488.0 377.5Q495 345 498 309Q499 293 500.0 277.5Q501 262 501.5 244.5Q502 227 502.0 205.0Q502 183 502 153Q502 121 501.0 93.0Q500 65 495.5 44.5Q491 24 480.0 12.5Q469 1 450 1Q404 1 402 45Q402 48 402.0 70.5Q402 93 401.5 123.0Q401 153 400.5 184.0Q400 215 399 235Q398 251 396.5 269.5Q395 288 392.5 307.0Q390 326 386.0 343.5Q382 361 376 375Q362 408 341.0 417.0Q320 426 296 426Z" transform="translate(2272, 0)" /> <path d="M292 507Q349 507 394.0 489.5Q439 472 470.5 440.0Q502 408 519.0 362.0Q536 316 536 259Q536 196 516.5 146.0Q497 96 462.5 61.0Q428 26 380.5 7.0Q333 -12 277 -12Q216 -12 169.5 9.0Q123 30 91.5 66.0Q60 102 44.0 149.0Q28 196 28 248Q28 305 46.5 352.5Q65 400 99.5 434.5Q134 469 183.0 488.0Q232 507 292 507ZM281 80Q322 80 351.0 94.5Q380 109 398.5 133.0Q417 157 425.5 187.5Q434 218 434 251Q434 285 425.5 314.5Q417 344 399.5 366.0Q382 388 354.5 400.5Q327 413 289 413Q250 413 221.0 400.0Q192 387 172.5 364.5Q153 342 143.0 311.0Q133 280 133 244Q133 171 170.5 125.5Q208 80 281 80Z" transform="translate(2829, 0)" />
  </g>
</svg>
