<?xml version="1.0" standalone="no"?>
<svg xmlns="http://www.w3.org/2000/svg" width="4045" height="1245" viewBox="0 -289 4045 1245">
  <g transform="translate(0, 956) scale(1, -1)">
    <path d="M66 152Q64 184 62.0 239.0Q60 294 60 352Q60 385 60.5 420.5Q61 456 62 493Q64 567 71.5 609.0Q79 651 101.5 672.0Q124 693 165.0 698.0Q206 703 274 703Q275 703 295.5 703.0Q316 703 345.0 702.5Q374 702 405.5 701.0Q437 700 458 699Q480 697 493.5 693.5Q507 690 514.0 684.5Q521 679 523.0 671.5Q525 664 525 655Q525 632 512.0 621.5Q499 611 459 608Q439 606 400.5 605.5Q362 605 322.0 605.0Q282 605 250.0 604.5Q218 604 210 604Q184 603 173.5 592.5Q163 582 163 543Q163 534 164.5 499.5Q166 465 166 403H249Q302 403 335.5 401.5Q369 400 387.5 395.0Q406 390 413.0 379.0Q420 368 420 350Q420 341 418.5 333.5Q417 326 410.0 320.5Q403 315 390.0 311.5Q377 308 353 306Q324 304 298.5 303.5Q273 303 248 303H164Q164 288 164.0 267.0Q164 246 164.0 224.0Q164 202 164.5 181.0Q165 160 166 147Q167 131 170.5 120.0Q174 109 183.5 102.0Q193 95 211.5 92.0Q230 89 261 89H476Q511 89 520.0 76.0Q529 63 529 41Q529 23 521.0 13.5Q513 4 482.5 -0.5Q452 -5 391.5 -6.0Q331 -7 225 -7Q180 -7 151.0 1.0Q122 9 104.0 28.0Q86 47 77.5 77.5Q69 108 66 152Z" transform="translate(0, 0)" /> <path d="M237 522Q258 522 290.0 518.5Q322 515 351.0 505.5Q380 496 401.0 479.0Q422 462 422 436Q422 421 413.5 410.0Q405 399 387 399Q374 399 357.5 403.0Q341 407 321.5 412.5Q302 418 279.5 422.0Q257 426 232 426Q190 426 163.5 413.0Q137 400 137 372Q137 356 146.5 345.0Q156 334 172.5 325.5Q189 317 211.5 311.0Q234 305 259 299Q290 291 320.5 281.0Q351 271 375.0 253.5Q399 236 414.0 209.5Q429 183 429 144Q429 70 373.0 26.5Q317 -17 208 -17Q184 -17 151.0 -13.5Q118 -10 89.0 -0.5Q60 9 39.5 26.5Q19 44 19 73Q19 93 28.5 103.5Q38 114 52 114Q63 114 75.0 107.0Q87 100 104.0 92.0Q121 84 145.0 77.0Q169 70 204 70Q217 70 238.0 71.5Q259 73 279.5 80.0Q300 87 314.5 99.5Q329 112 329 135Q329 153 319.0 165.5Q309 178 292.0 187.0Q275 196 252.5 202.5Q230 209 205 216Q176 224 146.5 234.0Q117 244 93.0 260.0Q69 276 54.0 300.5Q39 325 39 361Q39 395 53.0 424.5Q67 454 93.0 476.0Q119 498 155.5 510.0Q192 522 237 522Z" transform="translate(559, 0)" /> <path d="M147 65Q144 128 143.5 214.5Q143 301 143 411Q133 410 119.5 410.0Q106 410 98 410Q80 410 65.5 411.0Q51 412 40.0 417.0Q29 422 23.0 431.5Q17 441 17 458Q17 506 89 506Q100 506 116.0 506.0Q132 506 143 504Q143 557 145.0 589.0Q147 621 152.5 638.5Q158 656 167.5 661.5Q177 667 192 667Q208 667 218.0 656.0Q228 645 233.5 628.0Q239 611 240.5 590.0Q242 569 242 549Q242 535 241.5 523.5Q241 512 241 503Q255 507 270.0 507.5Q285 508 299 508Q336 508 356.0 496.5Q376 485 376 459Q376 443 369.0 433.5Q362 424 350.5 419.0Q339 414 323.5 412.5Q308 411 290 411Q280 411 267.0 411.0Q254 411 243 413Q243 360 243.0 316.0Q243 272 242.0 231.5Q241 191 240.0 151.0Q239 111 237 66Q236 42 232.5 29.0Q229 16 223.0 9.0Q217 2 209.5 0.5Q202 -1 192 -1Q174 -1 161.5 11.5Q149 24 147 65Z" transform="translate(1019, 0)" /> <path d="M66 61Q62 96 61.0 146.0Q60 196 60 267Q60 337 60.5 380.0Q61 423 66 456Q71 497 81.5 509.0Q92 521 109 521Q121 521 130.5 519.0Q140 517 147.5 510.5Q155 504 159.0 492.0Q163 480 163 459Q163 455 164 451Q164 447 164.5 442.5Q165 438 165 432Q192 466 226.5 490.0Q261 514 305 514Q364 514 364 465Q364 447 356.5 435.0Q349 423 335.5 415.5Q322 408 304.5 404.0Q287 400 266 396Q234 390 206.0 373.5Q178 357 168 332Q168 313 168.5 304.0Q169 295 169.5 289.0Q170 283 170.0 276.0Q170 269 170 254Q170 203 168.0 158.5Q166 114 164 62Q163 38 158.5 25.0Q154 12 147.5 5.0Q141 -2 133.0 -3.5Q125 -5 117 -5Q89 -5 79.5 7.5Q70 20 66 61Z" transform="translate(1416, 0)" /> <path d="M471 -4Q455 -4 445.5 1.5Q436 7 431.0 16.0Q426 25 424.0 37.5Q422 50 421 64Q396 33 356.5 12.0Q317 -9 256 -9Q217 -9 176.5 2.5Q136 14 103.0 42.5Q70 71 49.0 119.0Q28 167 28 240Q28 297 42.0 347.0Q56 397 84.5 434.5Q113 472 156.0 494.0Q199 516 257 516Q308 516 348.0 497.5Q388 479 420 437Q420 449 421.0 461.5Q422 474 426.5 484.5Q431 495 441.0 501.5Q451 508 468 508Q483 508 496.0 496.0Q509 484 511 444Q514 391 515.5 349.0Q517 307 517 262Q517 207 516.0 161.0Q515 115 511 63Q509 40 505.5 26.5Q502 13 497.0 6.5Q492 0 485.0 -2.0Q478 -4 471 -4ZM417 250Q417 302 401.5 335.0Q386 368 362.5 386.5Q339 405 312.0 412.0Q285 419 262 419Q226 419 200.5 406.0Q175 393 159.0 370.5Q143 348 135.5 317.5Q128 287 128 251Q128 163 166.5 121.0Q205 79 271 79Q310 79 337.5 92.5Q365 106 382.5 129.0Q400 152 408.5 183.5Q417 215 417 250Z" transform="translate(1793, 0)" /> <path d="M258 -137Q305 -137 337.5 -118.5Q370 -100 390.0 -65.5Q410 -31 418.5 17.5Q427 66 427 127Q418 95 401.0 73.0Q384 51 361.5 37.5Q339 24 311.0 18.0Q283 12 253 12Q207 12 166.0 25.0Q125 38 94.5 66.0Q64 94 46.0 137.5Q28 181 28 242Q28 301 45.5 350.5Q63 400 96.5 436.0Q130 472 178.0 492.0Q226 512 288 512Q321 512 346.5 506.0Q372 500 392.0 490.0Q412 480 427.5 466.0Q443 452 456 436Q494 388 511.0 322.5Q528 257 528 165Q528 97 516.5 26.0Q505 -45 475.0 -102.5Q445 -160 392.0 -196.5Q339 -233 256 -233Q241 -233 222.5 -231.5Q204 -230 184.5 -227.0Q165 -224 146.0 -218.5Q127 -213 111 -204Q91 -193 79.0 -183.0Q67 -173 67 -150Q67 -131 75.5 -115.5Q84 -100 105 -100Q115 -100 127.0 -106.0Q139 -112 156.5 -118.5Q174 -125 198.5 -131.0Q223 -137 258 -137ZM263 103Q302 103 329.5 117.5Q357 132 374.5 156.0Q392 180 400.5 210.0Q409 240 409 270Q409 295 402.5 320.5Q396 346 381.0 367.0Q366 388 340.0 401.0Q314 414 275 414Q209 414 168.5 374.0Q128 334 128 256Q128 183 164.0 143.0Q200 103 263 103Z" transform="translate(2366, 0)" /> <path d="M292 507Q349 507 394.0 489.5Q439 472 470.5 440.0Q502 408 519.0 362.0Q536 316 536 259Q536 196 516.5 146.0Q497 96 462.5 61.0Q428 26 380.5 7.0Q333 -12 277 -12Q216 -12 169.5 9.0Q123 30 91.5 66.0Q60 102 44.0 149.0Q28 196 28 248Q28 305 46.5 352.5Q65 400 99.5 434.5Q134 469 183.0 488.0Q232 507 292 507ZM281 80Q322 80 351.0 94.5Q380 109 398.5 133.0Q417 157 425.5 187.5Q434 218 434 251Q434 285 425.5 314.5Q417 344 399.5 366.0Q382 388 354.5 400.5Q327 413 289 413Q250 413 221.0 400.0Q192 387 172.5 364.5Q153 342 143.0 311.0Q133 280 133 244Q133 171 170.5 125.5Q208 80 281 80ZM212 588Q201 590 190.5 595.5Q180 601 180 616Q181 628 194.5 644.0Q208 660 228.0 676.5Q248 693 273.0 708.5Q298 724 322.5 736.0Q347 748 368.0 755.5Q389 763 402 763Q419 763 431.5 753.0Q444 743 444 724Q444 712 431.0 697.5Q418 683 397.0 668.0Q376 653 350.0 638.5Q324 624 298.5 613.0Q273 602 250.0 595.0Q227 588 212 588Z" transform="translate(2924, 0)" /> <path d="M296 426Q259 426 229.5 414.0Q200 402 163 378Q163 357 163.0 316.5Q163 276 162.0 228.5Q161 181 160.0 135.0Q159 89 156 58Q154 38 151.5 26.5Q149 15 144.5 9.0Q140 3 132.5 1.5Q125 0 113 0Q101 0 93.5 1.5Q86 3 81.0 8.5Q76 14 73.0 25.0Q70 36 68 55Q66 73 64.5 103.0Q63 133 62.0 168.5Q61 204 60.5 240.5Q60 277 60 308Q60 359 61.5 391.0Q63 423 67 448Q73 490 83.0 501.0Q93 512 110 512Q135 512 147.5 498.0Q160 484 163 452Q200 484 242.5 503.0Q285 522 330 522Q373 522 408.5 502.0Q444 482 467 437Q481 410 488.0 377.5Q495 345 498 309Q499 293 500.0 277.5Q501 262 501.5 244.5Q502 227 502.0 205.0Q502 183 502 153Q502 121 501.0 93.0Q500 65 495.5 44.5Q491 24 480.0 12.5Q469 1 450 1Q404 1 402 45Q402 48 402.0 70.5Q402 93 401.5 123.0Q401 153 400.5 184.0Q400 215 399 235Q398 251 396.5 269.5Q395 288 392.5 307.0Q390 326 386.0 343.5Q382 361 376 375Q362 408 341.0 417.0Q320 426 296 426Z" transform="translate(3488, 0)" />
  </g>
</svg>
