<?xml version="1.0" standalone="no"?>
<svg xmlns="http://www.w3.org/2000/svg" width="3577" height="1245" viewBox="0 -289 3577 1245">
  <g transform="translate(0, 956) scale(1, -1)">
    <path d="M160 63Q160 39 155.5 26.0Q151 13 144.5 6.0Q138 -1 129.5 -2.5Q121 -4 113 -4Q86 -4 77.5 8.0Q69 20 66 62Q64 84 63.0 126.0Q62 168 61.5 226.0Q61 284 60.5 354.0Q60 424 60 502Q60 539 69.0 577.0Q78 615 103.5 646.0Q129 677 174.5 696.0Q220 715 293 715Q344 715 390.0 704.0Q436 693 471.0 666.0Q506 639 527.0 594.0Q548 549 548 482Q548 412 525.0 366.0Q502 320 460.0 293.0Q418 266 360.0 255.0Q302 244 233 244Q216 244 199.0 244.0Q182 244 161 246ZM448 484Q448 551 410.5 585.0Q373 619 286 619Q253 619 229.5 613.5Q206 608 191.0 594.5Q176 581 168.5 558.0Q161 535 161 500Q161 466 161.0 422.5Q161 379 162 341Q185 340 213.5 340.0Q242 340 267 340Q297 340 329.5 344.0Q362 348 388.0 362.5Q414 377 431.0 405.5Q448 434 448 484Z" transform="translate(0, 0)" /> <path d="M292 184Q257 184 218.5 189.5Q180 195 135 213Q144 152 185.5 121.0Q227 90 305 90Q333 90 355.5 93.5Q378 97 395.0 101.5Q412 106 425.0 109.5Q438 113 449 113Q463 113 476.0 104.5Q489 96 489 76Q489 51 468.5 35.0Q448 19 418.5 9.5Q389 0 356.0 -3.5Q323 -7 298 -7Q239 -7 189.5 9.0Q140 25 104.0 57.5Q68 90 48.0 138.0Q28 186 28 250Q28 312 47.5 360.0Q67 408 101.0 441.0Q135 474 181.5 491.0Q228 508 282 508Q324 508 363.5 497.0Q403 486 433.5 464.0Q464 442 482.5 408.5Q501 375 501 330Q501 290 486.0 262.0Q471 234 443.5 217.0Q416 200 377.5 192.0Q339 184 292 184ZM285 416Q258 416 233.0 409.5Q208 403 187.5 388.5Q167 374 153.0 350.5Q139 327 134 292Q172 275 208.0 268.5Q244 262 284 262Q343 262 371.5 276.5Q400 291 400 329Q400 364 373.5 390.0Q347 416 285 416Z" transform="translate(568, 0)" /> <path d="M66 61Q62 96 61.0 146.0Q60 196 60 267Q60 337 60.5 380.0Q61 423 66 456Q71 497 81.5 509.0Q92 521 109 521Q121 521 130.5 519.0Q140 517 147.5 510.5Q155 504 159.0 492.0Q163 480 163 459Q163 455 164 451Q164 447 164.5 442.5Q165 438 165 432Q192 466 226.5 490.0Q261 514 305 514Q364 514 364 465Q364 447 356.5 435.0Q349 423 335.5 415.5Q322 408 304.5 404.0Q287 400 266 396Q234 390 206.0 373.5Q178 357 168 332Q168 313 168.5 304.0Q169 295 169.5 289.0Q170 283 170.0 276.0Q170 269 170 254Q170 203 168.0 158.5Q166 114 164 62Q163 38 158.5 25.0Q154 12 147.5 5.0Q141 -2 133.0 -3.5Q125 -5 117 -5Q89 -5 79.5 7.5Q70 20 66 61Z" transform="translate(1103, 0)" /> <path d="M68 62Q66 99 64.5 146.5Q63 194 63 251Q63 322 64.0 372.5Q65 423 69.5 455.5Q74 488 84.0 503.5Q94 519 112 519Q129 519 142.0 507.0Q155 495 157 455Q163 350 163 252Q163 202 161.0 158.5Q159 115 157 63Q156 39 152.5 26.0Q149 13 143.0 6.0Q137 -1 129.5 -2.5Q122 -4 112 -4Q94 -4 82.0 8.5Q70 21 68 62ZM113 700Q136 700 155.5 682.0Q175 664 175 639Q175 615 155.0 597.5Q135 580 110 580Q89 580 70.5 597.5Q52 615 52 641Q52 665 70.5 682.5Q89 700 113 700Z" transform="translate(1480, 0)" /> <path d="M85 406Q74 405 63.5 404.5Q53 404 43 404Q10 404 -6.5 414.5Q-23 425 -23 455Q-23 478 -10.5 491.5Q2 505 39 505Q62 505 86 502V560Q86 600 95.0 636.0Q104 672 123.0 699.5Q142 727 172.5 743.5Q203 760 247 760Q287 760 303.0 748.5Q319 737 319 711Q319 685 298.0 679.0Q277 673 250 673Q217 673 200.5 644.0Q184 615 184 573V503Q197 506 209.5 506.5Q222 507 236 507Q273 507 288.5 495.0Q304 483 304 457Q304 424 283.0 414.5Q262 405 227 405Q218 405 206.5 405.0Q195 405 184 407V63Q184 39 180.0 26.0Q176 13 169.0 6.0Q162 -1 153.0 -2.5Q144 -4 134 -4Q125 -4 116.0 -1.5Q107 1 100.5 8.5Q94 16 89.5 29.0Q85 42 85 62Z" transform="translate(1706, 0)" /> <path d="M292 507Q349 507 394.0 489.5Q439 472 470.5 440.0Q502 408 519.0 362.0Q536 316 536 259Q536 196 516.5 146.0Q497 96 462.5 61.0Q428 26 380.5 7.0Q333 -12 277 -12Q216 -12 169.5 9.0Q123 30 91.5 66.0Q60 102 44.0 149.0Q28 196 28 248Q28 305 46.5 352.5Q65 400 99.5 434.5Q134 469 183.0 488.0Q232 507 292 507ZM281 80Q322 80 351.0 94.5Q380 109 398.5 133.0Q417 157 425.5 187.5Q434 218 434 251Q434 285 425.5 314.5Q417 344 399.5 366.0Q382 388 354.5 400.5Q327 413 289 413Q250 413 221.0 400.0Q192 387 172.5 364.5Q153 342 143.0 311.0Q133 280 133 244Q133 171 170.5 125.5Q208 80 281 80Z" transform="translate(2001, 0)" /> <path d="M67 58Q66 94 65.0 142.0Q64 190 63.5 246.0Q63 302 62.5 364.0Q62 426 62 491Q62 562 63.0 613.0Q64 664 68.5 697.0Q73 730 83.0 745.5Q93 761 111 761Q128 761 141.0 750.0Q154 739 156 699Q160 627 161.0 549.5Q162 472 162 397Q162 352 162.0 310.5Q162 269 161.0 228.5Q160 188 159.0 146.0Q158 104 156 59Q155 35 151.5 22.0Q148 9 142.0 2.0Q136 -5 128.5 -6.5Q121 -8 111 -8Q93 -8 81.0 4.5Q69 17 67 58Z" transform="translate(2565, 0)" /> <path d="M67 58Q66 94 65.0 142.0Q64 190 63.5 246.0Q63 302 62.5 364.0Q62 426 62 491Q62 562 63.0 613.0Q64 664 68.5 697.0Q73 730 83.0 745.5Q93 761 111 761Q128 761 141.0 750.0Q154 739 156 699Q160 627 161.0 549.5Q162 472 162 397Q162 352 162.0 310.5Q162 269 161.0 228.5Q160 188 159.0 146.0Q158 104 156 59Q155 35 151.5 22.0Q148 9 142.0 2.0Q136 -5 128.5 -6.5Q121 -8 111 -8Q93 -8 81.0 4.5Q69 17 67 58Z" transform="translate(2789, 0)" /> <path d="M292 507Q349 507 394.0 489.5Q439 472 470.5 440.0Q502 408 519.0 362.0Q536 316 536 259Q536 196 516.5 146.0Q497 96 462.5 61.0Q428 26 380.5 7.0Q333 -12 277 -12Q216 -12 169.5 9.0Q123 30 91.5 66.0Q60 102 44.0 149.0Q28 196 28 248Q28 305 46.5 352.5Q65 400 99.5 434.5Q134 469 183.0 488.0Q232 507 292 507ZM281 80Q322 80 351.0 94.5Q380 109 398.5 133.0Q417 157 425.5 187.5Q434 218 434 251Q434 285 425.5 314.5Q417 344 399.5 366.0Q382 388 354.5 400.5Q327 413 289 413Q250 413 221.0 400.0Q192 387 172.5 364.5Q153 342 143.0 311.0Q133 280 133 244Q133 171 170.5 125.5Q208 80 281 80Z" transform="translate(3013, 0)" />
  </g>
</svg>
