<?xml version="1.0" standalone="no"?>
<svg xmlns="http://www.w3.org/2000/svg" width="7870" height="1245" viewBox="0 -289 7870 1245">
  <g transform="translate(0, 956) scale(1, -1)">
    <path d="M160 63Q160 39 155.5 26.0Q151 13 144.5 6.0Q138 -1 129.5 -2.5Q121 -4 113 -4Q86 -4 77.5 8.0Q69 20 66 62Q64 84 63.0 126.0Q62 168 61.5 226.0Q61 284 60.5 354.0Q60 424 60 502Q60 539 69.0 577.0Q78 615 103.5 646.0Q129 677 174.5 696.0Q220 715 293 715Q344 715 390.0 704.0Q436 693 471.0 666.0Q506 639 527.0 594.0Q548 549 548 482Q548 412 525.0 366.0Q502 320 460.0 293.0Q418 266 360.0 255.0Q302 244 233 244Q216 244 199.0 244.0Q182 244 161 246ZM448 484Q448 551 410.5 585.0Q373 619 286 619Q253 619 229.5 613.5Q206 608 191.0 594.5Q176 581 168.5 558.0Q161 535 161 500Q161 466 161.0 422.5Q161 379 162 341Q185 340 213.5 340.0Q242 340 267 340Q297 340 329.5 344.0Q362 348 388.0 362.5Q414 377 431.0 405.5Q448 434 448 484Z" transform="translate(0, 0)" /> <path d="M68 62Q66 99 64.5 146.5Q63 194 63 251Q63 322 64.0 372.5Q65 423 69.5 455.5Q74 488 84.0 503.5Q94 519 112 519Q129 519 142.0 507.0Q155 495 157 455Q163 350 163 252Q163 202 161.0 158.5Q159 115 157 63Q156 39 152.5 26.0Q149 13 143.0 6.0Q137 -1 129.5 -2.5Q122 -4 112 -4Q94 -4 82.0 8.5Q70 21 68 62ZM113 700Q136 700 155.5 682.0Q175 664 175 639Q175 615 155.0 597.5Q135 580 110 580Q89 580 70.5 597.5Q52 615 52 641Q52 665 70.5 682.5Q89 700 113 700Z" transform="translate(568, 0)" /> <path d="M735 30Q729 47 727.5 68.0Q726 89 726 120Q726 142 726.5 154.5Q727 167 727.0 176.5Q727 186 727.5 195.5Q728 205 728 222Q728 257 726.5 292.5Q725 328 716.0 356.5Q707 385 688.0 403.0Q669 421 633 421Q572 421 538.0 363.0Q504 305 497 178Q495 138 495.0 105.0Q495 72 491.0 48.5Q487 25 476.5 12.0Q466 -1 442 -1Q420 -1 410.0 10.5Q400 22 395.5 45.0Q391 68 390.5 101.0Q390 134 387 178Q384 226 377.5 270.0Q371 314 356.5 347.5Q342 381 317.5 401.0Q293 421 255 421Q219 421 199.5 403.5Q180 386 171.0 357.5Q162 329 160.5 293.5Q159 258 159 222Q159 204 159.5 195.5Q160 187 160.0 180.0Q160 173 160.5 162.0Q161 151 161 128Q161 95 159.5 71.0Q158 47 152 30Q145 10 133.0 5.5Q121 1 111 1Q80 1 71.0 23.0Q62 45 61 87Q61 110 60.5 138.5Q60 167 60 208Q60 228 60.0 243.0Q60 258 60.5 272.0Q61 286 61.5 300.5Q62 315 63 334Q66 395 85.0 431.5Q104 468 130.0 487.0Q156 506 186.0 511.5Q216 517 241 517Q295 517 332.0 501.0Q369 485 392.5 459.0Q416 433 427.5 400.0Q439 367 443 333Q447 366 459.5 398.5Q472 431 496.5 456.5Q521 482 560.0 498.0Q599 514 656 514Q683 514 711.5 508.5Q740 503 764.0 484.0Q788 465 804.5 429.5Q821 394 824 334Q825 315 825.5 300.5Q826 286 826.5 272.0Q827 258 827.0 243.0Q827 228 827 208Q827 167 826.5 138.5Q826 110 826 87Q826 68 824.5 52.0Q823 36 818.0 25.0Q813 14 803.5 7.5Q794 1 776 1Q759 1 750.0 7.5Q741 14 735 30Z" transform="translate(794, 0)" /> <path d="M292 184Q257 184 218.5 189.5Q180 195 135 213Q144 152 185.5 121.0Q227 90 305 90Q333 90 355.5 93.5Q378 97 395.0 101.5Q412 106 425.0 109.5Q438 113 449 113Q463 113 476.0 104.5Q489 96 489 76Q489 51 468.5 35.0Q448 19 418.5 9.5Q389 0 356.0 -3.5Q323 -7 298 -7Q239 -7 189.5 9.0Q140 25 104.0 57.5Q68 90 48.0 138.0Q28 186 28 250Q28 312 47.5 360.0Q67 408 101.0 441.0Q135 474 181.5 491.0Q228 508 282 508Q324 508 363.5 497.0Q403 486 433.5 464.0Q464 442 482.5 408.5Q501 375 501 330Q501 290 486.0 262.0Q471 234 443.5 217.0Q416 200 377.5 192.0Q339 184 292 184ZM285 416Q258 416 233.0 409.5Q208 403 187.5 388.5Q167 374 153.0 350.5Q139 327 134 292Q172 275 208.0 268.5Q244 262 284 262Q343 262 371.5 276.5Q400 291 400 329Q400 364 373.5 390.0Q347 416 285 416Z" transform="translate(1677, 0)" /> <path d="M296 426Q259 426 229.5 414.0Q200 402 163 378Q163 357 163.0 316.5Q163 276 162.0 228.5Q161 181 160.0 135.0Q159 89 156 58Q154 38 151.5 26.5Q149 15 144.5 9.0Q140 3 132.5 1.5Q125 0 113 0Q101 0 93.5 1.5Q86 3 81.0 8.5Q76 14 73.0 25.0Q70 36 68 55Q66 73 64.5 103.0Q63 133 62.0 168.5Q61 204 60.5 240.5Q60 277 60 308Q60 359 61.5 391.0Q63 423 67 448Q73 490 83.0 501.0Q93 512 110 512Q135 512 147.5 498.0Q160 484 163 452Q200 484 242.5 503.0Q285 522 330 522Q373 522 408.5 502.0Q444 482 467 437Q481 410 488.0 377.5Q495 345 498 309Q499 293 500.0 277.5Q501 262 501.5 244.5Q502 227 502.0 205.0Q502 183 502 153Q502 121 501.0 93.0Q500 65 495.5 44.5Q491 24 480.0 12.5Q469 1 450 1Q404 1 402 45Q402 48 402.0 70.5Q402 93 401.5 123.0Q401 153 400.5 184.0Q400 215 399 235Q398 251 396.5 269.5Q395 288 392.5 307.0Q390 326 386.0 343.5Q382 361 376 375Q362 408 341.0 417.0Q320 426 296 426Z" transform="translate(2212, 0)" /> <path d="M147 65Q144 128 143.5 214.5Q143 301 143 411Q133 410 119.5 410.0Q106 410 98 410Q80 410 65.5 411.0Q51 412 40.0 417.0Q29 422 23.0 431.5Q17 441 17 458Q17 506 89 506Q100 506 116.0 506.0Q132 506 143 504Q143 557 145.0 589.0Q147 621 152.5 638.5Q158 656 167.5 661.5Q177 667 192 667Q208 667 218.0 656.0Q228 645 233.5 628.0Q239 611 240.5 590.0Q242 569 242 549Q242 535 241.5 523.5Q241 512 241 503Q255 507 270.0 507.5Q285 508 299 508Q336 508 356.0 496.5Q376 485 376 459Q376 443 369.0 433.5Q362 424 350.5 419.0Q339 414 323.5 412.5Q308 411 290 411Q280 411 267.0 411.0Q254 411 243 413Q243 360 243.0 316.0Q243 272 242.0 231.5Q241 191 240.0 151.0Q239 111 237 66Q236 42 232.5 29.0Q229 16 223.0 9.0Q217 2 209.5 0.5Q202 -1 192 -1Q174 -1 161.5 11.5Q149 24 147 65Z" transform="translate(2769, 0)" /> <path d="M292 507Q349 507 394.0 489.5Q439 472 470.5 440.0Q502 408 519.0 362.0Q536 316 536 259Q536 196 516.5 146.0Q497 96 462.5 61.0Q428 26 380.5 7.0Q333 -12 277 -12Q216 -12 169.5 9.0Q123 30 91.5 66.0Q60 102 44.0 149.0Q28 196 28 248Q28 305 46.5 352.5Q65 400 99.5 434.5Q134 469 183.0 488.0Q232 507 292 507ZM281 80Q322 80 351.0 94.5Q380 109 398.5 133.0Q417 157 425.5 187.5Q434 218 434 251Q434 285 425.5 314.5Q417 344 399.5 366.0Q382 388 354.5 400.5Q327 413 289 413Q250 413 221.0 400.0Q192 387 172.5 364.5Q153 342 143.0 311.0Q133 280 133 244Q133 171 170.5 125.5Q208 80 281 80ZM212 588Q201 590 190.5 595.5Q180 601 180 616Q181 628 194.5 644.0Q208 660 228.0 676.5Q248 693 273.0 708.5Q298 724 322.5 736.0Q347 748 368.0 755.5Q389 763 402 763Q419 763 431.5 753.0Q444 743 444 724Q444 712 431.0 697.5Q418 683 397.0 668.0Q376 653 350.0 638.5Q324 624 298.5 613.0Q273 602 250.0 595.0Q227 588 212 588Z" transform="translate(3166, 0)" /> <path d="M296 426Q259 426 229.5 414.0Q200 402 163 378Q163 357 163.0 316.5Q163 276 162.0 228.5Q161 181 160.0 135.0Q159 89 156 58Q154 38 151.5 26.5Q149 15 144.5 9.0Q140 3 132.5 1.5Q125 0 113 0Q101 0 93.5 1.5Q86 3 81.0 8.5Q76 14 73.0 25.0Q70 36 68 55Q66 73 64.5 103.0Q63 133 62.0 168.5Q61 204 60.5 240.5Q60 277 60 308Q60 359 61.5 391.0Q63 423 67 448Q73 490 83.0 501.0Q93 512 110 512Q135 512 147.5 498.0Q160 484 163 452Q200 484 242.5 503.0Q285 522 330 522Q373 522 408.5 502.0Q444 482 467 437Q481 410 488.0 377.5Q495 345 498 309Q499 293 500.0 277.5Q501 262 501.5 244.5Q502 227 502.0 205.0Q502 183 502 153Q502 121 501.0 93.0Q500 65 495.5 44.5Q491 24 480.0 12.5Q469 1 450 1Q404 1 402 45Q402 48 402.0 70.5Q402 93 401.5 123.0Q401 153 400.5 184.0Q400 215 399 235Q398 251 396.5 269.5Q395 288 392.5 307.0Q390 326 386.0 343.5Q382 361 376 375Q362 408 341.0 417.0Q320 426 296 426Z" transform="translate(3730, 0)" /> <path d="" transform="translate(4287, 0)" /> <path d="M170 -144Q170 -163 169.0 -180.5Q168 -198 162.5 -212.0Q157 -226 146.5 -234.5Q136 -243 117 -243Q95 -243 80.5 -227.5Q66 -212 64 -173Q63 -148 61.0 -112.0Q59 -76 57.5 -36.0Q56 4 54.5 44.0Q53 84 53 118Q53 235 69.5 311.0Q86 387 119.0 432.0Q152 477 200.5 495.0Q249 513 313 513Q364 513 409.0 497.5Q454 482 487.5 449.5Q521 417 541.0 365.5Q561 314 561 242Q561 182 540.5 136.0Q520 90 484.0 58.5Q448 27 399.5 10.5Q351 -6 296 -6Q249 -6 211.5 13.5Q174 33 158 56Q163 0 166.5 -48.0Q170 -96 170 -144ZM308 413Q273 413 247.5 401.0Q222 389 206.0 368.0Q190 347 182.5 318.0Q175 289 175 255Q175 222 181.5 192.5Q188 163 203.0 141.0Q218 119 243.0 106.0Q268 93 304 93Q332 93 358.0 100.5Q384 108 404.5 126.0Q425 144 437.5 174.0Q450 204 450 249Q450 295 437.5 326.5Q425 358 404.5 377.5Q384 397 358.5 405.0Q333 413 308 413Z" transform="translate(4496, 0)" /> <path d="M68 62Q66 99 64.5 146.5Q63 194 63 251Q63 322 64.0 372.5Q65 423 69.5 455.5Q74 488 84.0 503.5Q94 519 112 519Q129 519 142.0 507.0Q155 495 157 455Q163 350 163 252Q163 202 161.0 158.5Q159 115 157 63Q156 39 152.5 26.0Q149 13 143.0 6.0Q137 -1 129.5 -2.5Q122 -4 112 -4Q94 -4 82.0 8.5Q70 21 68 62ZM113 700Q136 700 155.5 682.0Q175 664 175 639Q175 615 155.0 597.5Q135 580 110 580Q89 580 70.5 597.5Q52 615 52 641Q52 665 70.5 682.5Q89 700 113 700Z" transform="translate(5085, 0)" /> <path d="M289 510Q318 510 347.5 505.0Q377 500 401.0 491.0Q425 482 440.0 469.0Q455 456 455 439Q455 395 405 395Q393 395 382.5 398.5Q372 402 358.0 405.5Q344 409 323.0 412.5Q302 416 271 416Q205 416 169.0 371.0Q133 326 133 254Q133 175 169.5 127.0Q206 79 273 79Q315 79 341.0 86.0Q367 93 383.5 102.0Q400 111 410.5 118.0Q421 125 434 125Q452 125 462.5 117.5Q473 110 473 87Q473 63 454.5 45.0Q436 27 408.0 15.0Q380 3 347.5 -3.0Q315 -9 288 -9Q167 -9 98.0 58.0Q29 125 29 248Q29 301 45.5 348.5Q62 396 95.0 432.0Q128 468 176.5 489.0Q225 510 289 510Z" transform="translate(5311, 0)" /> <path d="M471 -4Q455 -4 445.5 1.5Q436 7 431.0 16.0Q426 25 424.0 37.5Q422 50 421 64Q396 33 356.5 12.0Q317 -9 256 -9Q217 -9 176.5 2.5Q136 14 103.0 42.5Q70 71 49.0 119.0Q28 167 28 240Q28 297 42.0 347.0Q56 397 84.5 434.5Q113 472 156.0 494.0Q199 516 257 516Q308 516 348.0 497.5Q388 479 420 437Q420 449 421.0 461.5Q422 474 426.5 484.5Q431 495 441.0 501.5Q451 508 468 508Q483 508 496.0 496.0Q509 484 511 444Q514 391 515.5 349.0Q517 307 517 262Q517 207 516.0 161.0Q515 115 511 63Q509 40 505.5 26.5Q502 13 497.0 6.5Q492 0 485.0 -2.0Q478 -4 471 -4ZM417 250Q417 302 401.5 335.0Q386 368 362.5 386.5Q339 405 312.0 412.0Q285 419 262 419Q226 419 200.5 406.0Q175 393 159.0 370.5Q143 348 135.5 317.5Q128 287 128 251Q128 163 166.5 121.0Q205 79 271 79Q310 79 337.5 92.5Q365 106 382.5 129.0Q400 152 408.5 183.5Q417 215 417 250Z" transform="translate(5808, 0)" /> <path d="M296 426Q259 426 229.5 414.0Q200 402 163 378Q163 357 163.0 316.5Q163 276 162.0 228.5Q161 181 160.0 135.0Q159 89 156 58Q154 38 151.5 26.5Q149 15 144.5 9.0Q140 3 132.5 1.5Q125 0 113 0Q101 0 93.5 1.5Q86 3 81.0 8.5Q76 14 73.0 25.0Q70 36 68 55Q66 73 64.5 103.0Q63 133 62.0 168.5Q61 204 60.5 240.5Q60 277 60 308Q60 359 61.5 391.0Q63 423 67 448Q73 490 83.0 501.0Q93 512 110 512Q135 512 147.5 498.0Q160 484 163 452Q200 484 242.5 503.0Q285 522 330 522Q373 522 408.5 502.0Q444 482 467 437Q481 410 488.0 377.5Q495 345 498 309Q499 293 500.0 277.5Q501 262 501.5 244.5Q502 227 502.0 205.0Q502 183 502 153Q502 121 501.0 93.0Q500 65 495.5 44.5Q491 24 480.0 12.5Q469 1 450 1Q404 1 402 45Q402 48 402.0 70.5Q402 93 401.5 123.0Q401 153 400.5 184.0Q400 215 399 235Q398 251 396.5 269.5Q395 288 392.5 307.0Q390 326 386.0 343.5Q382 361 376 375Q362 408 341.0 417.0Q320 426 296 426Z" transform="translate(6381, 0)" /> <path d="M147 65Q144 128 143.5 214.5Q143 301 143 411Q133 410 119.5 410.0Q106 410 98 410Q80 410 65.5 411.0Q51 412 40.0 417.0Q29 422 23.0 431.5Q17 441 17 458Q17 506 89 506Q100 506 116.0 506.0Q132 506 143 504Q143 557 145.0 589.0Q147 621 152.5 638.5Q158 656 167.5 661.5Q177 667 192 667Q208 667 218.0 656.0Q228 645 233.5 628.0Q239 611 240.5 590.0Q242 569 242 549Q242 535 241.5 523.5Q241 512 241 503Q255 507 270.0 507.5Q285 508 299 508Q336 508 356.0 496.5Q376 485 376 459Q376 443 369.0 433.5Q362 424 350.5 419.0Q339 414 323.5 412.5Q308 411 290 411Q280 411 267.0 411.0Q254 411 243 413Q243 360 243.0 316.0Q243 272 242.0 231.5Q241 191 240.0 151.0Q239 111 237 66Q236 42 232.5 29.0Q229 16 223.0 9.0Q217 2 209.5 0.5Q202 -1 192 -1Q174 -1 161.5 11.5Q149 24 147 65Z" transform="translate(6938, 0)" /> <path d="M292 184Q257 184 218.5 189.5Q180 195 135 213Q144 152 185.5 121.0Q227 90 305 90Q333 90 355.5 93.5Q378 97 395.0 101.5Q412 106 425.0 109.5Q438 113 449 113Q463 113 476.0 104.5Q489 96 489 76Q489 51 468.5 35.0Q448 19 418.5 9.5Q389 0 356.0 -3.5Q323 -7 298 -7Q239 -7 189.5 9.0Q140 25 104.0 57.5Q68 90 48.0 138.0Q28 186 28 250Q28 312 47.5 360.0Q67 408 101.0 441.0Q135 474 181.5 491.0Q228 508 282 508Q324 508 363.5 497.0Q403 486 433.5 464.0Q464 442 482.5 408.5Q501 375 501 330Q501 290 486.0 262.0Q471 234 443.5 217.0Q416 200 377.5 192.0Q339 184 292 184ZM285 416Q258 416 233.0 409.5Q208 403 187.5 388.5Q167 374 153.0 350.5Q139 327 134 292Q172 275 208.0 268.5Q244 262 284 262Q343 262 371.5 276.5Q400 291 400 329Q400 364 373.5 390.0Q347 416 285 416Z" transform="translate(7335, 0)" />
  </g>
</svg>
