<?xml version="1.0" standalone="no"?>
<svg xmlns="http://www.w3.org/2000/svg" width="5958" height="1245" viewBox="0 -289 5958 1245">
  <g transform="translate(0, 956) scale(1, -1)">
    <path d="M160 63Q160 39 155.5 26.0Q151 13 144.5 6.0Q138 -1 129.5 -2.5Q121 -4 113 -4Q86 -4 77.5 8.0Q69 20 66 62Q64 84 63.0 126.0Q62 168 61.5 226.0Q61 284 60.5 354.0Q60 424 60 502Q60 539 69.0 577.0Q78 615 103.5 646.0Q129 677 174.5 696.0Q220 715 293 715Q344 715 390.0 704.0Q436 693 471.0 666.0Q506 639 527.0 594.0Q548 549 548 482Q548 412 525.0 366.0Q502 320 460.0 293.0Q418 266 360.0 255.0Q302 244 233 244Q216 244 199.0 244.0Q182 244 161 246ZM448 484Q448 551 410.5 585.0Q373 619 286 619Q253 619 229.5 613.5Q206 608 191.0 594.5Q176 581 168.5 558.0Q161 535 161 500Q161 466 161.0 422.5Q161 379 162 341Q185 340 213.5 340.0Q242 340 267 340Q297 340 329.5 344.0Q362 348 388.0 362.5Q414 377 431.0 405.5Q448 434 448 484Z" transform="translate(0, 0)" /> <path d="M292 507Q349 507 394.0 489.5Q439 472 470.5 440.0Q502 408 519.0 362.0Q536 316 536 259Q536 196 516.5 146.0Q497 96 462.5 61.0Q428 26 380.5 7.0Q333 -12 277 -12Q216 -12 169.5 9.0Q123 30 91.5 66.0Q60 102 44.0 149.0Q28 196 28 248Q28 305 46.5 352.5Q65 400 99.5 434.5Q134 469 183.0 488.0Q232 507 292 507ZM281 80Q322 80 351.0 94.5Q380 109 398.5 133.0Q417 157 425.5 187.5Q434 218 434 251Q434 285 425.5 314.5Q417 344 399.5 366.0Q382 388 354.5 400.5Q327 413 289 413Q250 413 221.0 400.0Q192 387 172.5 364.5Q153 342 143.0 311.0Q133 280 133 244Q133 171 170.5 125.5Q208 80 281 80Z" transform="translate(568, 0)" /> <path d="M67 58Q66 94 65.0 142.0Q64 190 63.5 246.0Q63 302 62.5 364.0Q62 426 62 491Q62 562 63.0 613.0Q64 664 68.5 697.0Q73 730 83.0 745.5Q93 761 111 761Q128 761 141.0 750.0Q154 739 156 699Q160 627 161.0 549.5Q162 472 162 397Q162 352 162.0 310.5Q162 269 161.0 228.5Q160 188 159.0 146.0Q158 104 156 59Q155 35 151.5 22.0Q148 9 142.0 2.0Q136 -5 128.5 -6.5Q121 -8 111 -8Q93 -8 81.0 4.5Q69 17 67 58Z" transform="translate(1132, 0)" /> <path d="M288 40Q266 -6 235 -6Q206 -6 184 40Q176 56 166.0 80.5Q156 105 145.0 133.5Q134 162 122.0 192.0Q110 222 98 248Q58 336 36.0 386.0Q14 436 14 466Q14 483 24.5 494.0Q35 505 53 505Q64 505 76.5 496.0Q89 487 102 462Q140 386 172.5 307.5Q205 229 236 148Q267 229 299.5 307.5Q332 386 370 462Q383 487 395.5 496.0Q408 505 419 505Q437 505 447.5 494.0Q458 483 458 466Q458 436 436.0 386.0Q414 336 374 248Q362 222 350.0 192.0Q338 162 327.0 133.5Q316 105 306.0 80.5Q296 56 288 40Z" transform="translate(1356, 0)" /> <path d="M292 507Q349 507 394.0 489.5Q439 472 470.5 440.0Q502 408 519.0 362.0Q536 316 536 259Q536 196 516.5 146.0Q497 96 462.5 61.0Q428 26 380.5 7.0Q333 -12 277 -12Q216 -12 169.5 9.0Q123 30 91.5 66.0Q60 102 44.0 149.0Q28 196 28 248Q28 305 46.5 352.5Q65 400 99.5 434.5Q134 469 183.0 488.0Q232 507 292 507ZM281 80Q322 80 351.0 94.5Q380 109 398.5 133.0Q417 157 425.5 187.5Q434 218 434 251Q434 285 425.5 314.5Q417 344 399.5 366.0Q382 388 354.5 400.5Q327 413 289 413Q250 413 221.0 400.0Q192 387 172.5 364.5Q153 342 143.0 311.0Q133 280 133 244Q133 171 170.5 125.5Q208 80 281 80Z" transform="translate(1840, 0)" /> <path d="" transform="translate(2404, 0)" /> <path d="M478 2Q458 2 444.5 18.0Q431 34 426 55Q414 44 398.5 33.0Q383 22 363.0 12.5Q343 3 319.0 -3.0Q295 -9 267 -9Q233 -9 191.5 2.5Q150 14 113.5 42.5Q77 71 52.5 120.0Q28 169 28 243Q28 306 47.0 355.0Q66 404 100.5 437.5Q135 471 182.5 488.5Q230 506 286 506Q334 506 362.0 495.0Q390 484 406 469Q406 496 406.0 530.5Q406 565 406.5 597.5Q407 630 407.5 657.0Q408 684 409 698Q411 732 421.0 744.5Q431 757 456 757Q482 757 491.5 744.5Q501 732 503 701Q504 688 504.5 666.0Q505 644 505.0 618.0Q505 592 505.5 565.5Q506 539 506.0 517.5Q506 496 506.0 482.0Q506 468 506 468Q506 366 504.5 280.0Q503 194 503 143Q505 132 511.5 122.0Q518 112 525.5 102.0Q533 92 539.0 81.0Q545 70 545 58Q545 44 538.0 33.5Q531 23 520.5 16.0Q510 9 498.5 5.5Q487 2 478 2ZM285 90Q347 90 380.0 127.0Q413 164 413 249Q413 412 284 412Q254 412 226.0 403.0Q198 394 176.5 375.0Q155 356 141.5 327.0Q128 298 128 258Q128 225 137.5 195.0Q147 165 166.5 141.5Q186 118 215.5 104.0Q245 90 285 90Z" transform="translate(2613, 0)" /> <path d="M292 184Q257 184 218.5 189.5Q180 195 135 213Q144 152 185.5 121.0Q227 90 305 90Q333 90 355.5 93.5Q378 97 395.0 101.5Q412 106 425.0 109.5Q438 113 449 113Q463 113 476.0 104.5Q489 96 489 76Q489 51 468.5 35.0Q448 19 418.5 9.5Q389 0 356.0 -3.5Q323 -7 298 -7Q239 -7 189.5 9.0Q140 25 104.0 57.5Q68 90 48.0 138.0Q28 186 28 250Q28 312 47.5 360.0Q67 408 101.0 441.0Q135 474 181.5 491.0Q228 508 282 508Q324 508 363.5 497.0Q403 486 433.5 464.0Q464 442 482.5 408.5Q501 375 501 330Q501 290 486.0 262.0Q471 234 443.5 217.0Q416 200 377.5 192.0Q339 184 292 184ZM285 416Q258 416 233.0 409.5Q208 403 187.5 388.5Q167 374 153.0 350.5Q139 327 134 292Q172 275 208.0 268.5Q244 262 284 262Q343 262 371.5 276.5Q400 291 400 329Q400 364 373.5 390.0Q347 416 285 416Z" transform="translate(3177, 0)" /> <path d="" transform="translate(3712, 0)" /> <path d="M289 510Q318 510 347.5 505.0Q377 500 401.0 491.0Q425 482 440.0 469.0Q455 456 455 439Q455 395 405 395Q393 395 382.5 398.5Q372 402 358.0 405.5Q344 409 323.0 412.5Q302 416 271 416Q205 416 169.0 371.0Q133 326 133 254Q133 175 169.5 127.0Q206 79 273 79Q315 79 341.0 86.0Q367 93 383.5 102.0Q400 111 410.5 118.0Q421 125 434 125Q452 125 462.5 117.5Q473 110 473 87Q473 63 454.5 45.0Q436 27 408.0 15.0Q380 3 347.5 -3.0Q315 -9 288 -9Q167 -9 98.0 58.0Q29 125 29 248Q29 301 45.5 348.5Q62 396 95.0 432.0Q128 468 176.5 489.0Q225 510 289 510Z" transform="translate(3921, 0)" /> <path d="M295 411Q258 411 228.5 400.0Q199 389 162 370Q162 369 162.0 351.0Q162 333 161.5 305.0Q161 277 160.5 242.5Q160 208 159.5 173.5Q159 139 157.5 108.0Q156 77 155 56Q153 35 150.5 23.0Q148 11 144.5 5.5Q141 0 135.0 -1.0Q129 -2 122 -2Q105 -2 95.5 -0.5Q86 1 80.0 6.5Q74 12 71.5 23.0Q69 34 67 53Q65 72 63.5 105.5Q62 139 61.0 180.5Q60 222 59.5 269.0Q59 316 59 362Q59 408 59.5 459.5Q60 511 61.0 558.5Q62 606 63.0 643.5Q64 681 66 699Q68 725 75.5 744.0Q83 763 109 763Q129 763 141.5 749.0Q154 735 156 696Q158 661 159.5 598.5Q161 536 162 458Q176 469 196.0 478.5Q216 488 238.0 494.5Q260 501 283.0 505.0Q306 509 326 509Q374 509 409.5 486.5Q445 464 466 422Q480 395 487.0 362.5Q494 330 497 294Q498 278 499.0 262.5Q500 247 500.5 229.5Q501 212 501.0 190.0Q501 168 501 138Q501 108 500.0 82.5Q499 57 494.5 38.5Q490 20 480.0 9.5Q470 -1 452 -1Q426 -1 413.5 15.5Q401 32 401 55Q401 56 401.0 76.0Q401 96 400.5 122.5Q400 149 399.5 176.0Q399 203 398 220Q397 236 395.5 254.5Q394 273 391.5 292.0Q389 311 385.0 328.5Q381 346 375 360Q361 393 340.0 402.0Q319 411 295 411Z" transform="translate(4418, 0)" /> <path d="M68 62Q66 99 64.5 146.5Q63 194 63 251Q63 322 64.0 372.5Q65 423 69.5 455.5Q74 488 84.0 503.5Q94 519 112 519Q129 519 142.0 507.0Q155 495 157 455Q163 350 163 252Q163 202 161.0 158.5Q159 115 157 63Q156 39 152.5 26.0Q149 13 143.0 6.0Q137 -1 129.5 -2.5Q122 -4 112 -4Q94 -4 82.0 8.5Q70 21 68 62ZM113 700Q136 700 155.5 682.0Q175 664 175 639Q175 615 155.0 597.5Q135 580 110 580Q89 580 70.5 597.5Q52 615 52 641Q52 665 70.5 682.5Q89 700 113 700Z" transform="translate(4973, 0)" /> <path d="M67 58Q66 94 65.0 142.0Q64 190 63.5 246.0Q63 302 62.5 364.0Q62 426 62 491Q62 562 63.0 613.0Q64 664 68.5 697.0Q73 730 83.0 745.5Q93 761 111 761Q128 761 141.0 750.0Q154 739 156 699Q160 627 161.0 549.5Q162 472 162 397Q162 352 162.0 310.5Q162 269 161.0 228.5Q160 188 159.0 146.0Q158 104 156 59Q155 35 151.5 22.0Q148 9 142.0 2.0Q136 -5 128.5 -6.5Q121 -8 111 -8Q93 -8 81.0 4.5Q69 17 67 58Z" transform="translate(5199, 0)" /> <path d="M292 184Q257 184 218.5 189.5Q180 195 135 213Q144 152 185.5 121.0Q227 90 305 90Q333 90 355.5 93.5Q378 97 395.0 101.5Q412 106 425.0 109.5Q438 113 449 113Q463 113 476.0 104.5Q489 96 489 76Q489 51 468.5 35.0Q448 19 418.5 9.5Q389 0 356.0 -3.5Q323 -7 298 -7Q239 -7 189.5 9.0Q140 25 104.0 57.5Q68 90 48.0 138.0Q28 186 28 250Q28 312 47.5 360.0Q67 408 101.0 441.0Q135 474 181.5 491.0Q228 508 282 508Q324 508 363.5 497.0Q403 486 433.5 464.0Q464 442 482.5 408.5Q501 375 501 330Q501 290 486.0 262.0Q471 234 443.5 217.0Q416 200 377.5 192.0Q339 184 292 184ZM285 416Q258 416 233.0 409.5Q208 403 187.5 388.5Q167 374 153.0 350.5Q139 327 134 292Q172 275 208.0 268.5Q244 262 284 262Q343 262 371.5 276.5Q400 291 400 329Q400 364 373.5 390.0Q347 416 285 416Z" transform="translate(5423, 0)" />
  </g>
</svg>
