<?xml version="1.0" standalone="no"?>
<svg xmlns="http://www.w3.org/2000/svg" width="2457" height="1510" viewBox="0 -340 2457 1510">
  <g transform="translate(0, 1170) scale(1, -1)">
    <path d="M135 26Q129 5 113.5 -5.0Q98 -15 71 -15Q45 -15 30.5 -2.0Q16 11 16 29Q16 38 19.5 49.5Q23 61 30 80Q64 167 101.0 251.5Q138 336 177.0 419.5Q216 503 256.5 585.0Q297 667 336 749Q346 770 362.0 779.5Q378 789 398 789Q423 789 442.0 777.5Q461 766 467 747Q472 736 488.0 693.5Q504 651 527.0 588.5Q550 526 577.0 453.5Q604 381 632.0 309.0Q660 237 684.5 176.0Q709 115 726 76Q732 66 736.5 53.0Q741 40 741 32Q741 10 724.5 -4.5Q708 -19 684 -19Q668 -19 652.0 -14.0Q636 -9 628 9Q595 84 563.0 170.0Q531 256 501.0 342.5Q471 429 444.0 504.5Q417 580 396 635Q347 528 300.5 424.5Q254 321 212.5 221.5Q171 122 135 26ZM152 280Q152 297 162.5 307.5Q173 318 187.0 323.5Q201 329 212 331Q234 336 270.5 340.0Q307 344 356.0 345.0Q405 346 466 341Q482 340 503.0 341.0Q524 342 546.5 343.5Q569 345 587.5 347.0Q606 349 617 351Q640 354 654.5 339.5Q669 325 669 302Q669 281 655.5 268.0Q642 255 620.5 248.0Q599 241 576.0 238.5Q553 236 534 236Q477 236 421.5 236.0Q366 236 311.5 233.0Q257 230 201 223Q186 222 169.0 240.0Q152 258 152 280Z" transform="translate(0, 0)" /> <path d="M93 520Q96 540 111.5 548.5Q127 557 149 557Q174 557 188.5 544.0Q203 531 203 515Q203 509 201.0 494.0Q199 479 197.0 461.0Q195 443 194 426Q212 459 235.0 487.0Q258 515 290.5 532.0Q323 549 366 549Q454 549 498.0 485.5Q542 422 542 318Q542 267 535.0 219.0Q528 171 521.0 125.5Q514 80 514 34Q514 15 498.0 2.0Q482 -11 455 -11Q428 -11 413.5 2.0Q399 15 399 37Q399 84 406.5 127.0Q414 170 421.0 214.0Q428 258 428 308Q428 362 417.5 391.0Q407 420 388.0 431.5Q369 443 345 443Q315 443 291.0 422.5Q267 402 248.0 370.0Q229 338 216.5 302.5Q204 267 196 238Q197 183 196.5 130.0Q196 77 193 32Q192 14 177.0 1.0Q162 -12 134 -12Q108 -12 94.5 -0.5Q81 11 76.5 30.0Q72 49 72 71Q72 106 75.0 145.0Q78 184 86 221Q84 277 83.5 322.0Q83 367 83.5 402.5Q84 438 86.0 466.5Q88 495 93 520Z" transform="translate(773, 0)" /> <path d="M89 506Q93 527 106.0 534.5Q119 542 142 542Q151 542 161.0 539.0Q171 536 180.5 530.0Q190 524 195.5 514.5Q201 505 201 492Q201 476 194.5 449.5Q188 423 182.0 382.0Q176 341 176 280Q176 228 184.0 185.5Q192 143 209.0 117.5Q226 92 253 92Q278 92 301.5 111.0Q325 130 345.0 159.5Q365 189 377 218V263Q377 310 379.0 355.0Q381 400 387.0 438.5Q393 477 403 503Q411 525 425.0 537.0Q439 549 459 549Q483 549 495.0 539.5Q507 530 511.0 513.0Q515 496 515 473Q515 412 508.5 345.5Q502 279 484 217Q485 196 485.5 174.0Q486 152 487.0 130.0Q488 108 488 86Q488 15 478.5 -52.0Q469 -119 445.0 -173.0Q421 -227 378.0 -258.5Q335 -290 267 -290Q201 -290 147.0 -261.5Q93 -233 66 -186Q62 -178 60.5 -171.5Q59 -165 59 -160Q59 -145 68.0 -133.5Q77 -122 90.0 -114.5Q103 -107 114 -107Q128 -107 138.0 -114.0Q148 -121 158 -135Q177 -164 207.0 -177.0Q237 -190 265 -190Q306 -190 329.0 -161.5Q352 -133 363.0 -74.0Q374 -15 379 77Q355 40 321.0 13.0Q287 -14 243 -14Q192 -14 157.0 10.5Q122 35 101.0 76.5Q80 118 71.5 169.5Q63 221 63 275Q63 314 66.5 355.0Q70 396 76.0 435.5Q82 475 89 506Z" transform="translate(1379, 0)" /> <path d="M84 441Q59 441 47.5 455.5Q36 470 36 493Q37 514 50.5 526.5Q64 539 86 539Q172 539 229.0 539.0Q286 539 322.5 539.5Q359 540 382.0 540.5Q405 541 422 542Q445 543 457.5 529.5Q470 516 470 497Q470 486 465.0 475.0Q460 464 453 455Q412 396 371.0 336.5Q330 277 289.5 221.0Q249 165 211 116Q250 113 285.5 111.0Q321 109 356.0 107.5Q391 106 428 105Q448 105 459.5 92.0Q471 79 471 58Q471 33 457.5 19.0Q444 5 420 5Q378 5 332.0 8.0Q286 11 237.5 15.5Q189 20 136 22Q122 3 105.0 -5.5Q88 -14 71 -12Q52 -11 38.0 2.0Q24 15 24 34Q24 53 35.0 68.0Q46 83 62 98Q80 121 100.5 148.5Q121 176 143.0 206.5Q165 237 187.5 268.5Q210 300 231.0 330.5Q252 361 271.5 389.0Q291 417 307 440ZM275 633Q243 633 220.5 652.5Q198 672 198 703Q198 736 222.5 758.0Q247 780 277 780Q300 780 316.5 770.5Q333 761 342.5 745.0Q352 729 352 709Q352 676 329.5 654.5Q307 633 275 633Z" transform="translate(1955, 0)" />
  </g>
</svg>
