<?xml version="1.0" standalone="no"?>
<svg xmlns="http://www.w3.org/2000/svg" width="3409" height="1510" viewBox="0 -340 3409 1510">
  <g transform="translate(0, 1170) scale(1, -1)">
    <path d="M680 687Q686 683 692.0 674.0Q698 665 698 654Q698 637 690.0 623.5Q682 610 670.0 601.5Q658 593 648 593Q636 593 627.0 599.0Q618 605 610 610Q573 635 543.0 649.5Q513 664 482.5 670.0Q452 676 414 676Q344 676 291.0 640.0Q238 604 208.5 534.5Q179 465 179 366Q179 285 205.5 221.0Q232 157 281.0 121.0Q330 85 397 85Q439 85 478.5 98.0Q518 111 554.0 134.0Q590 157 619 189Q627 198 635.5 202.0Q644 206 654 206Q666 206 678.0 199.0Q690 192 699.0 179.0Q708 166 708 151Q708 137 699.0 122.0Q690 107 673 90Q621 36 547.0 7.0Q473 -22 394 -22Q291 -22 216.5 24.0Q142 70 102.0 157.0Q62 244 62 367Q62 462 88.0 538.0Q114 614 161.5 668.0Q209 722 274.5 751.0Q340 780 419 780Q465 780 511.0 769.5Q557 759 600.0 738.5Q643 718 680 687Z" transform="translate(0, 0)" /> <path d="M284 -1Q225 -1 180.0 21.0Q135 43 104.5 81.0Q74 119 58.5 165.5Q43 212 43 260Q43 312 63.5 362.5Q84 413 121.0 455.0Q158 497 207.0 522.5Q256 548 314 548Q361 548 395.0 530.5Q429 513 448.0 482.0Q467 451 467 410Q467 366 446.5 329.0Q426 292 388 269Q339 235 281.5 221.5Q224 208 163 205Q171 179 187.5 154.5Q204 130 230.0 113.5Q256 97 292 97Q328 97 360.5 117.5Q393 138 417 164Q424 174 432.0 177.0Q440 180 447 180Q460 180 471.5 173.0Q483 166 490.5 154.5Q498 143 499 130Q501 120 496.5 110.5Q492 101 485 94Q448 54 397.0 26.5Q346 -1 284 -1ZM158 296Q193 298 222.0 302.0Q251 306 284 320Q314 331 336.5 354.0Q359 377 359 409Q359 422 353.0 432.0Q347 442 335.5 449.0Q324 456 306 456Q278 456 252.5 441.0Q227 426 207.0 402.5Q187 379 174.5 350.5Q162 322 158 296Z" transform="translate(765, 0)" /> <path d="M109 784Q111 810 125.5 822.5Q140 835 170 835Q197 835 212.5 823.0Q228 811 226 784Q223 748 220.0 710.0Q217 672 215.0 632.5Q213 593 211.5 550.0Q210 507 208 461Q224 485 245.0 503.0Q266 521 291.5 531.5Q317 542 346 542Q409 542 450.5 509.0Q492 476 513.5 418.5Q535 361 535 289Q535 207 506.5 139.5Q478 72 425.5 31.5Q373 -9 301 -9Q266 -9 233.5 0.5Q201 10 176 26Q171 9 157.0 2.5Q143 -4 124 -4Q102 -4 87.0 6.0Q72 16 72 35Q72 42 72.5 55.0Q73 68 74 74Q64 82 60.0 91.5Q56 101 56 114Q56 124 61.5 134.0Q67 144 78 151Q84 262 88.0 365.0Q92 468 96.5 571.5Q101 675 109 784ZM190 121Q211 104 233.5 96.0Q256 88 282 88Q318 88 349.0 107.5Q380 127 398.5 169.5Q417 212 417 282Q417 324 407.5 359.5Q398 395 377.5 416.5Q357 438 322 438Q297 438 274.5 420.5Q252 403 235.0 376.5Q218 350 208.0 321.0Q198 292 197 268Q196 243 195.0 217.0Q194 191 193.0 167.0Q192 143 190 121Z" transform="translate(1300, 0)" /> <path d="M239 -12Q191 -12 157.5 11.0Q124 34 102.5 72.0Q81 110 71.5 158.5Q62 207 62 256Q62 323 70.5 385.5Q79 448 90 507Q92 523 107.5 534.5Q123 546 149 546Q176 546 190.5 530.5Q205 515 203 492Q201 468 194.0 438.0Q187 408 181.5 367.0Q176 326 176 266Q177 223 184.5 183.5Q192 144 209.0 118.5Q226 93 254 93Q283 93 307.0 113.5Q331 134 350.0 166.0Q369 198 382.5 233.5Q396 269 404 298Q405 355 405.5 407.0Q406 459 408 502Q409 523 424.5 535.0Q440 547 466 547Q487 547 499.5 540.5Q512 534 518.0 522.0Q524 510 524 494Q525 482 525.0 461.0Q525 440 524.0 415.0Q523 390 520.0 363.0Q517 336 513 311Q511 229 510.0 160.5Q509 92 503 30Q503 11 487.0 -0.5Q471 -12 444 -12Q414 -12 403.5 2.0Q393 16 393 31Q393 40 394.5 50.5Q396 61 397.5 74.0Q399 87 399 103Q386 81 370.5 60.5Q355 40 336.0 23.5Q317 7 293.0 -2.5Q269 -12 239 -12Z" transform="translate(1884, 0)" /> <path d="M119 775Q122 799 136.5 810.5Q151 822 179 822Q203 822 214.5 814.5Q226 807 230.0 794.0Q234 781 233 765Q231 737 225.0 676.5Q219 616 211.5 509.5Q204 403 199 236Q198 183 196.0 133.5Q194 84 192 38Q192 12 177.0 1.0Q162 -10 134 -10Q107 -10 91.5 1.0Q76 12 77 39Q80 130 84.0 223.5Q88 317 93.0 410.0Q98 503 104.5 595.0Q111 687 119 775Z" transform="translate(2476, 0)" /> <path d="M46 234Q46 294 64.0 350.0Q82 406 115.0 450.0Q148 494 194.0 520.0Q240 546 296 546Q329 546 359.0 535.5Q389 525 416 502Q421 524 431.5 535.0Q442 546 462 546Q488 546 506.0 532.0Q524 518 523 494Q522 464 515.5 418.0Q509 372 503 327Q501 313 497.0 288.5Q493 264 490.5 240.5Q488 217 488 202Q487 184 489.5 157.5Q492 131 499.5 110.5Q507 90 521 90Q531 90 539.0 96.5Q547 103 554 116Q561 126 570.0 130.5Q579 135 589 135Q601 135 611.5 128.5Q622 122 628.0 110.0Q634 98 631 83Q630 64 613.0 42.5Q596 21 568.5 6.0Q541 -9 509 -9Q481 -9 458.5 3.0Q436 15 421.0 37.5Q406 60 401 91Q372 48 334.0 23.5Q296 -1 245 -1Q180 -1 136.0 29.5Q92 60 69.0 113.0Q46 166 46 234ZM163 239Q163 196 173.0 164.0Q183 132 203.5 115.0Q224 98 256 98Q281 98 299.5 109.5Q318 121 332.0 141.0Q346 161 356 188Q365 212 372.0 240.5Q379 269 383.5 299.5Q388 330 391.0 359.0Q394 388 396 413Q375 431 351.0 440.5Q327 450 305 450Q272 450 246.0 433.0Q220 416 201.5 386.0Q183 356 173.0 318.5Q163 281 163 239Z" transform="translate(2769, 0)" />
  </g>
</svg>
