<?xml version="1.0" standalone="no"?>
<svg xmlns="http://www.w3.org/2000/svg" width="2229" height="1510" viewBox="0 -340 2229 1510">
  <g transform="translate(0, 1170) scale(1, -1)">
    <path d="M680 687Q686 683 692.0 674.0Q698 665 698 654Q698 637 690.0 623.5Q682 610 670.0 601.5Q658 593 648 593Q636 593 627.0 599.0Q618 605 610 610Q573 635 543.0 649.5Q513 664 482.5 670.0Q452 676 414 676Q344 676 291.0 640.0Q238 604 208.5 534.5Q179 465 179 366Q179 285 205.5 221.0Q232 157 281.0 121.0Q330 85 397 85Q439 85 478.5 98.0Q518 111 554.0 134.0Q590 157 619 189Q627 198 635.5 202.0Q644 206 654 206Q666 206 678.0 199.0Q690 192 699.0 179.0Q708 166 708 151Q708 137 699.0 122.0Q690 107 673 90Q621 36 547.0 7.0Q473 -22 394 -22Q291 -22 216.5 24.0Q142 70 102.0 157.0Q62 244 62 367Q62 462 88.0 538.0Q114 614 161.5 668.0Q209 722 274.5 751.0Q340 780 419 780Q465 780 511.0 769.5Q557 759 600.0 738.5Q643 718 680 687Z" transform="translate(0, 0)" /> <path d="M94 776Q94 801 110.0 811.5Q126 822 150 822Q176 822 190.5 809.5Q205 797 205 777Q204 757 203.5 735.0Q203 713 202.5 679.0Q202 645 201.5 590.5Q201 536 200 451Q222 480 247.0 500.5Q272 521 301.5 532.0Q331 543 363 543Q417 543 448.0 520.5Q479 498 494.0 463.0Q509 428 513.5 389.0Q518 350 519 316Q521 237 517.0 188.0Q513 139 513 101Q513 81 514.5 64.0Q516 47 517 31Q518 12 502.5 0.0Q487 -12 459 -12Q434 -12 420.0 -1.0Q406 10 405 34Q403 55 403.0 87.5Q403 120 404.5 156.0Q406 192 407.0 226.0Q408 260 408 285Q408 371 395.5 404.0Q383 437 346 437Q319 437 291.5 420.5Q264 404 241.0 372.0Q218 340 204 290Q200 226 198.0 163.5Q196 101 194 45Q193 21 176.5 9.0Q160 -3 134 -3Q109 -3 95.0 9.5Q81 22 79 40Q78 64 76.0 89.5Q74 115 75 140Q76 180 80.0 219.0Q84 258 92 297Q92 400 91.5 473.0Q91 546 91.0 595.5Q91 645 91.5 678.5Q92 712 92.5 734.5Q93 757 94 776Z" transform="translate(765, 0)" /> <path d="M98 498Q98 514 106.0 524.5Q114 535 127.5 540.0Q141 545 154 545Q181 545 197.0 533.5Q213 522 213 498Q213 428 210.0 372.5Q207 317 203.5 266.5Q200 216 197.0 160.5Q194 105 193 32Q193 10 177.0 -2.5Q161 -15 136 -15Q111 -15 98.5 -5.5Q86 4 81.5 18.0Q77 32 77 47Q77 56 79.0 91.0Q81 126 84.0 177.5Q87 229 90.5 287.0Q94 345 96.0 400.0Q98 455 98 498ZM87 712Q87 732 96.0 751.0Q105 770 120.5 781.5Q136 793 155 793Q191 793 209.0 780.0Q227 767 233.0 750.0Q239 733 239 721Q239 690 215.5 667.0Q192 644 159 644Q129 644 108.0 663.0Q87 682 87 712Z" transform="translate(1358, 0)" /> <path d="M119 775Q122 799 136.5 810.5Q151 822 179 822Q203 822 214.5 814.5Q226 807 230.0 794.0Q234 781 233 765Q231 737 225.0 676.5Q219 616 211.5 509.5Q204 403 199 236Q198 183 196.0 133.5Q194 84 192 38Q192 12 177.0 1.0Q162 -10 134 -10Q107 -10 91.5 1.0Q76 12 77 39Q80 130 84.0 223.5Q88 317 93.0 410.0Q98 503 104.5 595.0Q111 687 119 775Z" transform="translate(1647, 0)" /> <path d="M98 498Q98 514 106.0 524.5Q114 535 127.5 540.0Q141 545 154 545Q181 545 197.0 533.5Q213 522 213 498Q213 428 210.0 372.5Q207 317 203.5 266.5Q200 216 197.0 160.5Q194 105 193 32Q193 10 177.0 -2.5Q161 -15 136 -15Q111 -15 98.5 -5.5Q86 4 81.5 18.0Q77 32 77 47Q77 56 79.0 91.0Q81 126 84.0 177.5Q87 229 90.5 287.0Q94 345 96.0 400.0Q98 455 98 498ZM87 712Q87 732 96.0 751.0Q105 770 120.5 781.5Q136 793 155 793Q191 793 209.0 780.0Q227 767 233.0 750.0Q239 733 239 721Q239 690 215.5 667.0Q192 644 159 644Q129 644 108.0 663.0Q87 682 87 712Z" transform="translate(1940, 0)" />
  </g>
</svg>
