<?xml version="1.0" standalone="no"?>
<svg xmlns="http://www.w3.org/2000/svg" width="4677" height="1510" viewBox="0 -340 4677 1510">
  <g transform="translate(0, 1170) scale(1, -1)">
    <path d="M680 687Q686 683 692.0 674.0Q698 665 698 654Q698 637 690.0 623.5Q682 610 670.0 601.5Q658 593 648 593Q636 593 627.0 599.0Q618 605 610 610Q573 635 543.0 649.5Q513 664 482.5 670.0Q452 676 414 676Q344 676 291.0 640.0Q238 604 208.5 534.5Q179 465 179 366Q179 285 205.5 221.0Q232 157 281.0 121.0Q330 85 397 85Q439 85 478.5 98.0Q518 111 554.0 134.0Q590 157 619 189Q627 198 635.5 202.0Q644 206 654 206Q666 206 678.0 199.0Q690 192 699.0 179.0Q708 166 708 151Q708 137 699.0 122.0Q690 107 673 90Q621 36 547.0 7.0Q473 -22 394 -22Q291 -22 216.5 24.0Q142 70 102.0 157.0Q62 244 62 367Q62 462 88.0 538.0Q114 614 161.5 668.0Q209 722 274.5 751.0Q340 780 419 780Q465 780 511.0 769.5Q557 759 600.0 738.5Q643 718 680 687Z" transform="translate(0, 0)" /> <path d="M89 506Q93 527 106.0 534.5Q119 542 142 542Q151 542 161.0 539.0Q171 536 180.5 530.0Q190 524 195.5 514.5Q201 505 201 492Q201 476 194.5 449.5Q188 423 182.0 382.0Q176 341 176 280Q176 228 184.0 185.5Q192 143 209.0 117.5Q226 92 253 92Q278 92 301.5 111.0Q325 130 345.0 159.5Q365 189 377 218V263Q377 310 379.0 355.0Q381 400 387.0 438.5Q393 477 403 503Q411 525 425.0 537.0Q439 549 459 549Q483 549 495.0 539.5Q507 530 511.0 513.0Q515 496 515 473Q515 412 508.5 345.5Q502 279 484 217Q485 196 485.5 174.0Q486 152 487.0 130.0Q488 108 488 86Q488 15 478.5 -52.0Q469 -119 445.0 -173.0Q421 -227 378.0 -258.5Q335 -290 267 -290Q201 -290 147.0 -261.5Q93 -233 66 -186Q62 -178 60.5 -171.5Q59 -165 59 -160Q59 -145 68.0 -133.5Q77 -122 90.0 -114.5Q103 -107 114 -107Q128 -107 138.0 -114.0Q148 -121 158 -135Q177 -164 207.0 -177.0Q237 -190 265 -190Q306 -190 329.0 -161.5Q352 -133 363.0 -74.0Q374 -15 379 77Q355 40 321.0 13.0Q287 -14 243 -14Q192 -14 157.0 10.5Q122 35 101.0 76.5Q80 118 71.5 169.5Q63 221 63 275Q63 314 66.5 355.0Q70 396 76.0 435.5Q82 475 89 506Z" transform="translate(765, 0)" /> <path d="M93 520Q96 540 111.5 548.5Q127 557 149 557Q174 557 188.5 544.0Q203 531 203 515Q203 509 201.0 494.0Q199 479 197.0 461.0Q195 443 194 426Q212 459 235.0 487.0Q258 515 290.5 532.0Q323 549 366 549Q454 549 498.0 485.5Q542 422 542 318Q542 267 535.0 219.0Q528 171 521.0 125.5Q514 80 514 34Q514 15 498.0 2.0Q482 -11 455 -11Q428 -11 413.5 2.0Q399 15 399 37Q399 84 406.5 127.0Q414 170 421.0 214.0Q428 258 428 308Q428 362 417.5 391.0Q407 420 388.0 431.5Q369 443 345 443Q315 443 291.0 422.5Q267 402 248.0 370.0Q229 338 216.5 302.5Q204 267 196 238Q197 183 196.5 130.0Q196 77 193 32Q192 14 177.0 1.0Q162 -12 134 -12Q108 -12 94.5 -0.5Q81 11 76.5 30.0Q72 49 72 71Q72 106 75.0 145.0Q78 184 86 221Q84 277 83.5 322.0Q83 367 83.5 402.5Q84 438 86.0 466.5Q88 495 93 520Z" transform="translate(1341, 0)" /> <path d="M46 234Q46 294 64.0 350.0Q82 406 115.0 450.0Q148 494 194.0 520.0Q240 546 296 546Q329 546 359.0 535.5Q389 525 416 502Q421 524 431.5 535.0Q442 546 462 546Q488 546 506.0 532.0Q524 518 523 494Q522 464 515.5 418.0Q509 372 503 327Q501 313 497.0 288.5Q493 264 490.5 240.5Q488 217 488 202Q487 184 489.5 157.5Q492 131 499.5 110.5Q507 90 521 90Q531 90 539.0 96.5Q547 103 554 116Q561 126 570.0 130.5Q579 135 589 135Q601 135 611.5 128.5Q622 122 628.0 110.0Q634 98 631 83Q630 64 613.0 42.5Q596 21 568.5 6.0Q541 -9 509 -9Q481 -9 458.5 3.0Q436 15 421.0 37.5Q406 60 401 91Q372 48 334.0 23.5Q296 -1 245 -1Q180 -1 136.0 29.5Q92 60 69.0 113.0Q46 166 46 234ZM163 239Q163 196 173.0 164.0Q183 132 203.5 115.0Q224 98 256 98Q281 98 299.5 109.5Q318 121 332.0 141.0Q346 161 356 188Q365 212 372.0 240.5Q379 269 383.5 299.5Q388 330 391.0 359.0Q394 388 396 413Q375 431 351.0 440.5Q327 450 305 450Q272 450 246.0 433.0Q220 416 201.5 386.0Q183 356 173.0 318.5Q163 281 163 239Z" transform="translate(1947, 0)" /> <path d="M104 514Q107 531 123.0 540.0Q139 549 157 549Q180 549 194.0 537.0Q208 525 208 506Q208 496 205.5 483.0Q203 470 200 447Q223 481 248.5 503.5Q274 526 303.0 537.5Q332 549 363 549Q391 549 418.0 538.5Q445 528 467.0 505.0Q489 482 501 442Q523 475 551.0 500.0Q579 525 611.5 539.0Q644 553 679 553Q731 553 763.5 531.5Q796 510 815.0 473.0Q834 436 841.0 388.5Q848 341 848 290Q848 257 846.5 230.5Q845 204 842.0 176.5Q839 149 835.5 117.5Q832 86 828 44Q824 20 807.5 7.5Q791 -5 771 -5Q739 -5 726.5 8.5Q714 22 714 44Q714 55 717.0 77.5Q720 100 724.5 132.0Q729 164 732.0 203.0Q735 242 735 285Q735 372 717.0 409.5Q699 447 660 447Q640 447 617.5 433.5Q595 420 574.5 397.5Q554 375 539.5 346.5Q525 318 519 288Q519 269 518.0 255.0Q517 241 516.5 228.5Q516 216 515 202Q514 173 512.0 145.0Q510 117 508.0 90.0Q506 63 505 37Q505 12 490.0 0.5Q475 -11 447 -11Q421 -11 406.0 0.5Q391 12 391 39Q392 81 395.5 122.5Q399 164 402.0 207.0Q405 250 405 296Q405 377 390.0 411.5Q375 446 345 446Q321 446 294.5 428.0Q268 410 244.0 379.0Q220 348 201 308Q199 258 197.0 208.0Q195 158 193.5 114.0Q192 70 190 37Q188 12 173.5 0.5Q159 -11 134 -11Q107 -11 90.5 0.5Q74 12 75 39Q78 104 80.0 172.0Q82 240 85 309Q87 361 91.0 412.5Q95 464 104 514Z" transform="translate(2587, 0)" /> <path d="M297 548Q320 548 346.0 543.5Q372 539 395.0 530.5Q418 522 432 509Q478 472 500.0 412.5Q522 353 522 287Q522 232 507.5 180.5Q493 129 465.0 87.0Q437 45 395.0 20.5Q353 -4 299 -4Q241 -4 194.5 18.0Q148 40 114.5 78.0Q81 116 63.5 166.0Q46 216 46 271Q46 324 61.5 373.5Q77 423 109.0 462.5Q141 502 188.0 525.0Q235 548 297 548ZM162 278Q162 232 177.0 190.0Q192 148 222.0 122.0Q252 96 295 96Q324 96 345.5 112.5Q367 129 380.5 157.0Q394 185 400.0 217.5Q406 250 406 281Q406 341 388.5 380.5Q371 420 340 441Q328 445 317.0 446.0Q306 447 294 447Q261 447 236.0 433.5Q211 420 194.5 395.5Q178 371 170.0 341.0Q162 311 162 278Z" transform="translate(3505, 0)" /> <path d="M93 520Q96 540 111.5 548.5Q127 557 149 557Q174 557 188.5 544.0Q203 531 203 515Q203 509 201.0 494.0Q199 479 197.0 461.0Q195 443 194 426Q212 459 235.0 487.0Q258 515 290.5 532.0Q323 549 366 549Q454 549 498.0 485.5Q542 422 542 318Q542 267 535.0 219.0Q528 171 521.0 125.5Q514 80 514 34Q514 15 498.0 2.0Q482 -11 455 -11Q428 -11 413.5 2.0Q399 15 399 37Q399 84 406.5 127.0Q414 170 421.0 214.0Q428 258 428 308Q428 362 417.5 391.0Q407 420 388.0 431.5Q369 443 345 443Q315 443 291.0 422.5Q267 402 248.0 370.0Q229 338 216.5 302.5Q204 267 196 238Q197 183 196.5 130.0Q196 77 193 32Q192 14 177.0 1.0Q162 -12 134 -12Q108 -12 94.5 -0.5Q81 11 76.5 30.0Q72 49 72 71Q72 106 75.0 145.0Q78 184 86 221Q84 277 83.5 322.0Q83 367 83.5 402.5Q84 438 86.0 466.5Q88 495 93 520Z" transform="translate(4071, 0)" />
  </g>
</svg>
