<?xml version="1.0" standalone="no"?>
<svg xmlns="http://www.w3.org/2000/svg" width="4403" height="1510" viewBox="0 -340 4403 1510">
  <g transform="translate(0, 1170) scale(1, -1)">
    <path d="M139 -15Q128 -15 113.0 -13.0Q98 -11 87.5 -1.0Q77 9 78 30Q86 141 94.0 255.5Q102 370 108.5 485.0Q115 600 120 711Q122 737 133.0 750.5Q144 764 172 765Q222 769 279.0 771.5Q336 774 399.0 775.5Q462 777 530 777Q557 777 568.5 765.0Q580 753 580 731Q580 701 568.5 687.0Q557 673 531 673Q484 673 444.5 672.5Q405 672 370.0 670.5Q335 669 302.0 667.5Q269 666 233 663Q231 626 229.5 589.0Q228 552 226.0 516.0Q224 480 221 443Q265 449 312.0 452.0Q359 455 403.0 456.0Q447 457 478 455Q495 455 508.0 442.5Q521 430 521 406Q522 378 507.5 364.5Q493 351 477 351Q452 353 410.0 352.5Q368 352 317.5 348.5Q267 345 215 338Q211 276 207.0 214.5Q203 153 198 93Q233 95 273.5 98.0Q314 101 357.0 103.5Q400 106 440.5 108.0Q481 110 515 110Q536 110 547.0 97.0Q558 84 557 62Q557 35 546.0 20.5Q535 6 515 6Q495 6 474.5 6.0Q454 6 434 5Q387 4 336.5 1.0Q286 -2 236.0 -6.0Q186 -10 139 -15Z" transform="translate(0, 0)" /> <path d="M417 478Q424 470 427.0 461.0Q430 452 430 443Q430 431 422.5 419.0Q415 407 403.5 399.5Q392 392 379 392Q368 392 359.5 397.0Q351 402 344 409Q332 424 309.0 438.5Q286 453 254 453Q226 453 205.5 439.5Q185 426 185 403Q185 375 205.5 360.0Q226 345 272 322Q309 303 340.5 280.5Q372 258 392.5 226.0Q413 194 413 147Q413 105 391.5 70.0Q370 35 331.5 13.5Q293 -8 241 -8Q186 -8 132.0 13.5Q78 35 40 68Q32 74 28.0 82.5Q24 91 24 100Q24 121 38.5 138.0Q53 155 71 155Q77 155 83.0 153.0Q89 151 96 146Q128 123 162.5 105.0Q197 87 231 87Q265 87 281.0 101.5Q297 116 297 135Q297 166 271.5 189.0Q246 212 205 230Q155 253 124.5 277.5Q94 302 80.5 331.0Q67 360 67 395Q67 439 92.5 473.0Q118 507 160.5 526.0Q203 545 254 545Q301 545 346.0 528.0Q391 511 417 478Z" transform="translate(627, 0)" /> <path d="M126 643Q128 664 141.5 675.0Q155 686 180 686Q196 686 211.0 681.5Q226 677 235.0 666.5Q244 656 242 639Q234 579 228.5 521.0Q223 463 220.0 405.0Q217 347 217 285Q219 213 224.5 171.5Q230 130 238.0 113.0Q246 96 252 96Q261 96 274.5 107.0Q288 118 300.5 131.5Q313 145 319 152Q325 159 332.5 162.5Q340 166 349 166Q361 166 373.0 159.0Q385 152 393.0 140.5Q401 129 401 115Q401 108 397.5 97.5Q394 87 380 72Q358 46 331.5 28.0Q305 10 279.0 1.0Q253 -8 230 -8Q183 -8 154.5 22.0Q126 52 114 112Q107 156 103.5 199.5Q100 243 100 288Q100 349 103.0 405.5Q106 462 112.0 520.0Q118 578 126 643ZM75 436Q56 435 44.5 448.5Q33 462 33 484Q33 504 44.5 517.0Q56 530 75 531Q101 533 133.0 534.5Q165 536 200.0 536.5Q235 537 274.5 537.5Q314 538 355 538Q372 538 385.0 525.0Q398 512 398 489Q398 467 384.5 455.0Q371 443 355 443Q313 443 279.5 442.5Q246 442 215.0 441.5Q184 441 150.5 439.5Q117 438 75 436Z" transform="translate(1090, 0)" /> <path d="M91 498Q92 523 108.0 535.0Q124 547 153 547Q178 547 192.0 536.0Q206 525 206 505Q206 499 206.0 489.5Q206 480 205.5 469.0Q205 458 203 444Q231 494 268.5 520.0Q306 546 353 546Q373 546 399.5 540.0Q426 534 454 517Q466 510 473.0 498.0Q480 486 477 465Q475 439 461.0 425.5Q447 412 427 412Q417 412 408.5 416.0Q400 420 392 424Q381 430 369.5 435.0Q358 440 341 440Q285 440 251.5 386.0Q218 332 197 248Q196 214 195.5 184.5Q195 155 194.5 128.5Q194 102 193.5 78.5Q193 55 193 33Q193 17 184.0 7.0Q175 -3 162.0 -8.0Q149 -13 137 -13Q109 -13 95.0 0.0Q81 13 76.5 34.5Q72 56 72 81Q72 101 73.5 131.0Q75 161 77.5 191.0Q80 221 83 241Z" transform="translate(1522, 0)" /> <path d="M46 234Q46 294 64.0 350.0Q82 406 115.0 450.0Q148 494 194.0 520.0Q240 546 296 546Q329 546 359.0 535.5Q389 525 416 502Q421 524 431.5 535.0Q442 546 462 546Q488 546 506.0 532.0Q524 518 523 494Q522 464 515.5 418.0Q509 372 503 327Q501 313 497.0 288.5Q493 264 490.5 240.5Q488 217 488 202Q487 184 489.5 157.5Q492 131 499.5 110.5Q507 90 521 90Q531 90 539.0 96.5Q547 103 554 116Q561 126 570.0 130.5Q579 135 589 135Q601 135 611.5 128.5Q622 122 628.0 110.0Q634 98 631 83Q630 64 613.0 42.5Q596 21 568.5 6.0Q541 -9 509 -9Q481 -9 458.5 3.0Q436 15 421.0 37.5Q406 60 401 91Q372 48 334.0 23.5Q296 -1 245 -1Q180 -1 136.0 29.5Q92 60 69.0 113.0Q46 166 46 234ZM163 239Q163 196 173.0 164.0Q183 132 203.5 115.0Q224 98 256 98Q281 98 299.5 109.5Q318 121 332.0 141.0Q346 161 356 188Q365 212 372.0 240.5Q379 269 383.5 299.5Q388 330 391.0 359.0Q394 388 396 413Q375 431 351.0 440.5Q327 450 305 450Q272 450 246.0 433.0Q220 416 201.5 386.0Q183 356 173.0 318.5Q163 281 163 239Z" transform="translate(2004, 0)" /> <path d="M43 242Q43 304 64.5 359.5Q86 415 123.5 458.0Q161 501 210.5 526.0Q260 551 315 551Q342 551 367.0 545.0Q392 539 415 526Q420 540 432.0 545.0Q444 550 459 550Q487 550 501.0 541.5Q515 533 515 513V477Q521 470 523.5 462.0Q526 454 526 442Q526 419 514 404V379Q514 346 514.5 311.5Q515 277 515 236Q515 182 512.0 125.0Q509 68 504 14Q496 -74 468.0 -140.0Q440 -206 393.0 -242.5Q346 -279 283 -279Q255 -279 222.5 -270.0Q190 -261 155.0 -243.5Q120 -226 85 -199Q75 -190 69.0 -180.5Q63 -171 63 -160Q63 -148 69.5 -136.0Q76 -124 87.0 -114.5Q98 -105 111 -105Q121 -105 132.5 -109.5Q144 -114 154 -122Q173 -135 193.5 -148.0Q214 -161 236.0 -169.0Q258 -177 279 -177Q310 -177 330.5 -156.5Q351 -136 364.0 -104.0Q377 -72 384 -37Q389 -7 392.5 12.5Q396 32 398.0 48.0Q400 64 402 84Q376 38 338.5 17.0Q301 -4 255 -4Q193 -4 145.0 29.5Q97 63 70.0 119.0Q43 175 43 242ZM270 94Q304 94 326.0 115.0Q348 136 362.0 174.0Q376 212 385 265Q387 279 389.0 303.0Q391 327 392.5 353.5Q394 380 394.5 400.0Q395 420 395 426Q378 440 357.5 446.5Q337 453 321 453Q288 453 258.5 436.0Q229 419 207.0 389.5Q185 360 172.5 321.5Q160 283 160 240Q160 197 175.0 164.0Q190 131 215.0 112.5Q240 94 270 94Z" transform="translate(2644, 0)" /> <path d="M297 548Q320 548 346.0 543.5Q372 539 395.0 530.5Q418 522 432 509Q478 472 500.0 412.5Q522 353 522 287Q522 232 507.5 180.5Q493 129 465.0 87.0Q437 45 395.0 20.5Q353 -4 299 -4Q241 -4 194.5 18.0Q148 40 114.5 78.0Q81 116 63.5 166.0Q46 216 46 271Q46 324 61.5 373.5Q77 423 109.0 462.5Q141 502 188.0 525.0Q235 548 297 548ZM162 278Q162 232 177.0 190.0Q192 148 222.0 122.0Q252 96 295 96Q324 96 345.5 112.5Q367 129 380.5 157.0Q394 185 400.0 217.5Q406 250 406 281Q406 341 388.5 380.5Q371 420 340 441Q328 445 317.0 446.0Q306 447 294 447Q261 447 236.0 433.5Q211 420 194.5 395.5Q178 371 170.0 341.0Q162 311 162 278Z" transform="translate(3231, 0)" /> <path d="M93 520Q96 540 111.5 548.5Q127 557 149 557Q174 557 188.5 544.0Q203 531 203 515Q203 509 201.0 494.0Q199 479 197.0 461.0Q195 443 194 426Q212 459 235.0 487.0Q258 515 290.5 532.0Q323 549 366 549Q454 549 498.0 485.5Q542 422 542 318Q542 267 535.0 219.0Q528 171 521.0 125.5Q514 80 514 34Q514 15 498.0 2.0Q482 -11 455 -11Q428 -11 413.5 2.0Q399 15 399 37Q399 84 406.5 127.0Q414 170 421.0 214.0Q428 258 428 308Q428 362 417.5 391.0Q407 420 388.0 431.5Q369 443 345 443Q315 443 291.0 422.5Q267 402 248.0 370.0Q229 338 216.5 302.5Q204 267 196 238Q197 183 196.5 130.0Q196 77 193 32Q192 14 177.0 1.0Q162 -12 134 -12Q108 -12 94.5 -0.5Q81 11 76.5 30.0Q72 49 72 71Q72 106 75.0 145.0Q78 184 86 221Q84 277 83.5 322.0Q83 367 83.5 402.5Q84 438 86.0 466.5Q88 495 93 520Z" transform="translate(3797, 0)" />
  </g>
</svg>
