<?xml version="1.0" standalone="no"?>
<svg xmlns="http://www.w3.org/2000/svg" width="10566" height="1510" viewBox="0 -340 10566 1510">
  <g transform="translate(0, 1170) scale(1, -1)">
    <path d="M733 676Q739 671 743.5 661.5Q748 652 748 642Q748 627 740.0 614.0Q732 601 720.5 592.5Q709 584 697 584Q681 584 670.5 593.5Q660 603 651 610Q606 642 562.0 658.0Q518 674 471 674Q408 674 360.0 650.5Q312 627 277.5 589.0Q243 551 221.0 507.5Q199 464 188.5 421.0Q178 378 178 346Q178 309 191.5 264.5Q205 220 234.0 179.0Q263 138 306.0 112.0Q349 86 407 86Q457 86 499.5 105.0Q542 124 574.5 156.0Q607 188 627.0 227.5Q647 267 653 308Q625 308 596.5 308.5Q568 309 539.0 309.0Q510 309 480 309Q459 309 446.5 323.0Q434 337 433 362Q432 384 446.0 398.5Q460 413 482 413Q540 413 602.0 412.5Q664 412 723 412Q751 411 760.5 393.0Q770 375 770 351Q770 282 742.0 216.0Q714 150 663.5 97.0Q613 44 547.0 12.5Q481 -19 405 -19Q332 -19 269.0 10.0Q206 39 159.5 90.0Q113 141 87.5 207.5Q62 274 62 348Q62 435 94.5 512.5Q127 590 184.5 650.5Q242 711 317.5 745.5Q393 780 477 780Q541 780 607.0 756.0Q673 732 733 676Z" transform="translate(0, 0)" /> <path d="M46 234Q46 294 64.0 350.0Q82 406 115.0 450.0Q148 494 194.0 520.0Q240 546 296 546Q329 546 359.0 535.5Q389 525 416 502Q421 524 431.5 535.0Q442 546 462 546Q488 546 506.0 532.0Q524 518 523 494Q522 464 515.5 418.0Q509 372 503 327Q501 313 497.0 288.5Q493 264 490.5 240.5Q488 217 488 202Q487 184 489.5 157.5Q492 131 499.5 110.5Q507 90 521 90Q531 90 539.0 96.5Q547 103 554 116Q561 126 570.0 130.5Q579 135 589 135Q601 135 611.5 128.5Q622 122 628.0 110.0Q634 98 631 83Q630 64 613.0 42.5Q596 21 568.5 6.0Q541 -9 509 -9Q481 -9 458.5 3.0Q436 15 421.0 37.5Q406 60 401 91Q372 48 334.0 23.5Q296 -1 245 -1Q180 -1 136.0 29.5Q92 60 69.0 113.0Q46 166 46 234ZM163 239Q163 196 173.0 164.0Q183 132 203.5 115.0Q224 98 256 98Q281 98 299.5 109.5Q318 121 332.0 141.0Q346 161 356 188Q365 212 372.0 240.5Q379 269 383.5 299.5Q388 330 391.0 359.0Q394 388 396 413Q375 431 351.0 440.5Q327 450 305 450Q272 450 246.0 433.0Q220 416 201.5 386.0Q183 356 173.0 318.5Q163 281 163 239Z" transform="translate(833, 0)" /> <path d="M145 775Q148 799 162.5 810.5Q177 822 205 822Q229 822 240.5 814.5Q252 807 256.0 794.0Q260 781 259 765Q257 737 251.0 676.5Q245 616 237.5 509.5Q230 403 225 236Q224 183 222.0 133.5Q220 84 218 38Q218 12 203.0 1.0Q188 -10 160 -10Q133 -10 117.5 1.0Q102 12 103 39Q106 130 110.0 223.5Q114 317 119.0 410.0Q124 503 130.5 595.0Q137 687 145 775ZM87 322Q70 314 52.5 320.5Q35 327 25 350Q18 366 20.0 379.5Q22 393 30.0 402.5Q38 412 48 416Q75 430 108.0 445.0Q141 460 172.5 474.0Q204 488 230.5 498.5Q257 509 274 515Q295 523 310.0 513.5Q325 504 333 485Q342 466 335.0 447.0Q328 428 306 419Q256 400 201.5 376.0Q147 352 87 322Z" transform="translate(1473, 0)" /> <path d="M115 778Q117 799 131.5 810.5Q146 822 176 822Q207 822 217.0 806.0Q227 790 227 766Q227 742 220.5 688.5Q214 635 206.5 548.5Q199 462 195 339Q197 340 215.5 354.5Q234 369 261.5 391.0Q289 413 320.5 438.5Q352 464 383.0 488.5Q414 513 437 532Q448 540 457.5 544.5Q467 549 478 549Q492 549 502.0 544.0Q512 539 518.5 530.5Q525 522 528.0 512.5Q531 503 531 494Q531 484 528.0 474.5Q525 465 515 458Q501 447 479.0 430.0Q457 413 431.0 393.5Q405 374 378.5 353.5Q352 333 328.5 315.5Q305 298 288 285Q303 265 323.0 235.0Q343 205 363 177Q378 155 394.5 137.0Q411 119 426.5 109.0Q442 99 457 99Q473 99 488.5 114.0Q504 129 517 143Q525 153 534.0 159.0Q543 165 553 165Q566 165 578.0 158.5Q590 152 598.0 140.5Q606 129 606 115Q606 101 598.0 87.5Q590 74 577 61Q561 44 539.0 28.0Q517 12 492.0 2.0Q467 -8 441 -8Q405 -8 374.5 9.5Q344 27 318.5 55.5Q293 84 269 117Q245 154 227.0 184.0Q209 214 192 236Q191 183 189.0 133.0Q187 83 185 35Q185 11 170.0 0.5Q155 -10 131 -10Q103 -10 87.0 0.5Q71 11 71 35Q78 221 88.0 410.5Q98 600 115 778Z" transform="translate(1808, 0)" /> <path d="M46 234Q46 294 64.0 350.0Q82 406 115.0 450.0Q148 494 194.0 520.0Q240 546 296 546Q329 546 359.0 535.5Q389 525 416 502Q421 524 431.5 535.0Q442 546 462 546Q488 546 506.0 532.0Q524 518 523 494Q522 464 515.5 418.0Q509 372 503 327Q501 313 497.0 288.5Q493 264 490.5 240.5Q488 217 488 202Q487 184 489.5 157.5Q492 131 499.5 110.5Q507 90 521 90Q531 90 539.0 96.5Q547 103 554 116Q561 126 570.0 130.5Q579 135 589 135Q601 135 611.5 128.5Q622 122 628.0 110.0Q634 98 631 83Q630 64 613.0 42.5Q596 21 568.5 6.0Q541 -9 509 -9Q481 -9 458.5 3.0Q436 15 421.0 37.5Q406 60 401 91Q372 48 334.0 23.5Q296 -1 245 -1Q180 -1 136.0 29.5Q92 60 69.0 113.0Q46 166 46 234ZM163 239Q163 196 173.0 164.0Q183 132 203.5 115.0Q224 98 256 98Q281 98 299.5 109.5Q318 121 332.0 141.0Q346 161 356 188Q365 212 372.0 240.5Q379 269 383.5 299.5Q388 330 391.0 359.0Q394 388 396 413Q375 431 351.0 440.5Q327 450 305 450Q272 450 246.0 433.0Q220 416 201.5 386.0Q183 356 173.0 318.5Q163 281 163 239Z" transform="translate(2437, 0)" /> <path d="" transform="translate(3077, 0)" /> <path d="M104 514Q107 531 123.0 540.0Q139 549 157 549Q180 549 194.0 537.0Q208 525 208 506Q208 496 205.5 483.0Q203 470 200 447Q223 481 248.5 503.5Q274 526 303.0 537.5Q332 549 363 549Q391 549 418.0 538.5Q445 528 467.0 505.0Q489 482 501 442Q523 475 551.0 500.0Q579 525 611.5 539.0Q644 553 679 553Q731 553 763.5 531.5Q796 510 815.0 473.0Q834 436 841.0 388.5Q848 341 848 290Q848 257 846.5 230.5Q845 204 842.0 176.5Q839 149 835.5 117.5Q832 86 828 44Q824 20 807.5 7.5Q791 -5 771 -5Q739 -5 726.5 8.5Q714 22 714 44Q714 55 717.0 77.5Q720 100 724.5 132.0Q729 164 732.0 203.0Q735 242 735 285Q735 372 717.0 409.5Q699 447 660 447Q640 447 617.5 433.5Q595 420 574.5 397.5Q554 375 539.5 346.5Q525 318 519 288Q519 269 518.0 255.0Q517 241 516.5 228.5Q516 216 515 202Q514 173 512.0 145.0Q510 117 508.0 90.0Q506 63 505 37Q505 12 490.0 0.5Q475 -11 447 -11Q421 -11 406.0 0.5Q391 12 391 39Q392 81 395.5 122.5Q399 164 402.0 207.0Q405 250 405 296Q405 377 390.0 411.5Q375 446 345 446Q321 446 294.5 428.0Q268 410 244.0 379.0Q220 348 201 308Q199 258 197.0 208.0Q195 158 193.5 114.0Q192 70 190 37Q188 12 173.5 0.5Q159 -11 134 -11Q107 -11 90.5 0.5Q74 12 75 39Q78 104 80.0 172.0Q82 240 85 309Q87 361 91.0 412.5Q95 464 104 514Z" transform="translate(3488, 0)" /> <path d="M239 -12Q191 -12 157.5 11.0Q124 34 102.5 72.0Q81 110 71.5 158.5Q62 207 62 256Q62 323 70.5 385.5Q79 448 90 507Q92 523 107.5 534.5Q123 546 149 546Q176 546 190.5 530.5Q205 515 203 492Q201 468 194.0 438.0Q187 408 181.5 367.0Q176 326 176 266Q177 223 184.5 183.5Q192 144 209.0 118.5Q226 93 254 93Q283 93 307.0 113.5Q331 134 350.0 166.0Q369 198 382.5 233.5Q396 269 404 298Q405 355 405.5 407.0Q406 459 408 502Q409 523 424.5 535.0Q440 547 466 547Q487 547 499.5 540.5Q512 534 518.0 522.0Q524 510 524 494Q525 482 525.0 461.0Q525 440 524.0 415.0Q523 390 520.0 363.0Q517 336 513 311Q511 229 510.0 160.5Q509 92 503 30Q503 11 487.0 -0.5Q471 -12 444 -12Q414 -12 403.5 2.0Q393 16 393 31Q393 40 394.5 50.5Q396 61 397.5 74.0Q399 87 399 103Q386 81 370.5 60.5Q355 40 336.0 23.5Q317 7 293.0 -2.5Q269 -12 239 -12Z" transform="translate(4406, 0)" /> <path d="M417 478Q424 470 427.0 461.0Q430 452 430 443Q430 431 422.5 419.0Q415 407 403.5 399.5Q392 392 379 392Q368 392 359.5 397.0Q351 402 344 409Q332 424 309.0 438.5Q286 453 254 453Q226 453 205.5 439.5Q185 426 185 403Q185 375 205.5 360.0Q226 345 272 322Q309 303 340.5 280.5Q372 258 392.5 226.0Q413 194 413 147Q413 105 391.5 70.0Q370 35 331.5 13.5Q293 -8 241 -8Q186 -8 132.0 13.5Q78 35 40 68Q32 74 28.0 82.5Q24 91 24 100Q24 121 38.5 138.0Q53 155 71 155Q77 155 83.0 153.0Q89 151 96 146Q128 123 162.5 105.0Q197 87 231 87Q265 87 281.0 101.5Q297 116 297 135Q297 166 271.5 189.0Q246 212 205 230Q155 253 124.5 277.5Q94 302 80.5 331.0Q67 360 67 395Q67 439 92.5 473.0Q118 507 160.5 526.0Q203 545 254 545Q301 545 346.0 528.0Q391 511 417 478Z" transform="translate(4998, 0)" /> <path d="M84 441Q59 441 47.5 455.5Q36 470 36 493Q37 514 50.5 526.5Q64 539 86 539Q172 539 229.0 539.0Q286 539 322.5 539.5Q359 540 382.0 540.5Q405 541 422 542Q445 543 457.5 529.5Q470 516 470 497Q470 486 465.0 475.0Q460 464 453 455Q412 396 371.0 336.5Q330 277 289.5 221.0Q249 165 211 116Q250 113 285.5 111.0Q321 109 356.0 107.5Q391 106 428 105Q448 105 459.5 92.0Q471 79 471 58Q471 33 457.5 19.0Q444 5 420 5Q378 5 332.0 8.0Q286 11 237.5 15.5Q189 20 136 22Q122 3 105.0 -5.5Q88 -14 71 -12Q52 -11 38.0 2.0Q24 15 24 34Q24 53 35.0 68.0Q46 83 62 98Q80 121 100.5 148.5Q121 176 143.0 206.5Q165 237 187.5 268.5Q210 300 231.0 330.5Q252 361 271.5 389.0Q291 417 307 440Z" transform="translate(5461, 0)" /> <path d="M115 778Q117 799 131.5 810.5Q146 822 176 822Q207 822 217.0 806.0Q227 790 227 766Q227 742 220.5 688.5Q214 635 206.5 548.5Q199 462 195 339Q197 340 215.5 354.5Q234 369 261.5 391.0Q289 413 320.5 438.5Q352 464 383.0 488.5Q414 513 437 532Q448 540 457.5 544.5Q467 549 478 549Q492 549 502.0 544.0Q512 539 518.5 530.5Q525 522 528.0 512.5Q531 503 531 494Q531 484 528.0 474.5Q525 465 515 458Q501 447 479.0 430.0Q457 413 431.0 393.5Q405 374 378.5 353.5Q352 333 328.5 315.5Q305 298 288 285Q303 265 323.0 235.0Q343 205 363 177Q378 155 394.5 137.0Q411 119 426.5 109.0Q442 99 457 99Q473 99 488.5 114.0Q504 129 517 143Q525 153 534.0 159.0Q543 165 553 165Q566 165 578.0 158.5Q590 152 598.0 140.5Q606 129 606 115Q606 101 598.0 87.5Q590 74 577 61Q561 44 539.0 28.0Q517 12 492.0 2.0Q467 -8 441 -8Q405 -8 374.5 9.5Q344 27 318.5 55.5Q293 84 269 117Q245 154 227.0 184.0Q209 214 192 236Q191 183 189.0 133.0Q187 83 185 35Q185 11 170.0 0.5Q155 -10 131 -10Q103 -10 87.0 0.5Q71 11 71 35Q78 221 88.0 410.5Q98 600 115 778Z" transform="translate(5963, 0)" /> <path d="M46 234Q46 294 64.0 350.0Q82 406 115.0 450.0Q148 494 194.0 520.0Q240 546 296 546Q329 546 359.0 535.5Q389 525 416 502Q421 524 431.5 535.0Q442 546 462 546Q488 546 506.0 532.0Q524 518 523 494Q522 464 515.5 418.0Q509 372 503 327Q501 313 497.0 288.5Q493 264 490.5 240.5Q488 217 488 202Q487 184 489.5 157.5Q492 131 499.5 110.5Q507 90 521 90Q531 90 539.0 96.5Q547 103 554 116Q561 126 570.0 130.5Q579 135 589 135Q601 135 611.5 128.5Q622 122 628.0 110.0Q634 98 631 83Q630 64 613.0 42.5Q596 21 568.5 6.0Q541 -9 509 -9Q481 -9 458.5 3.0Q436 15 421.0 37.5Q406 60 401 91Q372 48 334.0 23.5Q296 -1 245 -1Q180 -1 136.0 29.5Q92 60 69.0 113.0Q46 166 46 234ZM163 239Q163 196 173.0 164.0Q183 132 203.5 115.0Q224 98 256 98Q281 98 299.5 109.5Q318 121 332.0 141.0Q346 161 356 188Q365 212 372.0 240.5Q379 269 383.5 299.5Q388 330 391.0 359.0Q394 388 396 413Q375 431 351.0 440.5Q327 450 305 450Q272 450 246.0 433.0Q220 416 201.5 386.0Q183 356 173.0 318.5Q163 281 163 239Z" transform="translate(6592, 0)" /> <path d="M126 643Q128 664 141.5 675.0Q155 686 180 686Q196 686 211.0 681.5Q226 677 235.0 666.5Q244 656 242 639Q234 579 228.5 521.0Q223 463 220.0 405.0Q217 347 217 285Q219 213 224.5 171.5Q230 130 238.0 113.0Q246 96 252 96Q261 96 274.5 107.0Q288 118 300.5 131.5Q313 145 319 152Q325 159 332.5 162.5Q340 166 349 166Q361 166 373.0 159.0Q385 152 393.0 140.5Q401 129 401 115Q401 108 397.5 97.5Q394 87 380 72Q358 46 331.5 28.0Q305 10 279.0 1.0Q253 -8 230 -8Q183 -8 154.5 22.0Q126 52 114 112Q107 156 103.5 199.5Q100 243 100 288Q100 349 103.0 405.5Q106 462 112.0 520.0Q118 578 126 643ZM75 436Q56 435 44.5 448.5Q33 462 33 484Q33 504 44.5 517.0Q56 530 75 531Q101 533 133.0 534.5Q165 536 200.0 536.5Q235 537 274.5 537.5Q314 538 355 538Q372 538 385.0 525.0Q398 512 398 489Q398 467 384.5 455.0Q371 443 355 443Q313 443 279.5 442.5Q246 442 215.0 441.5Q184 441 150.5 439.5Q117 438 75 436Z" transform="translate(7232, 0)" /> <path d="M297 548Q320 548 346.0 543.5Q372 539 395.0 530.5Q418 522 432 509Q478 472 500.0 412.5Q522 353 522 287Q522 232 507.5 180.5Q493 129 465.0 87.0Q437 45 395.0 20.5Q353 -4 299 -4Q241 -4 194.5 18.0Q148 40 114.5 78.0Q81 116 63.5 166.0Q46 216 46 271Q46 324 61.5 373.5Q77 423 109.0 462.5Q141 502 188.0 525.0Q235 548 297 548ZM162 278Q162 232 177.0 190.0Q192 148 222.0 122.0Q252 96 295 96Q324 96 345.5 112.5Q367 129 380.5 157.0Q394 185 400.0 217.5Q406 250 406 281Q406 341 388.5 380.5Q371 420 340 441Q328 445 317.0 446.0Q306 447 294 447Q261 447 236.0 433.5Q211 420 194.5 395.5Q178 371 170.0 341.0Q162 311 162 278Z" transform="translate(7664, 0)" /> <path d="M145 775Q148 799 162.5 810.5Q177 822 205 822Q229 822 240.5 814.5Q252 807 256.0 794.0Q260 781 259 765Q257 737 251.0 676.5Q245 616 237.5 509.5Q230 403 225 236Q224 183 222.0 133.5Q220 84 218 38Q218 12 203.0 1.0Q188 -10 160 -10Q133 -10 117.5 1.0Q102 12 103 39Q106 130 110.0 223.5Q114 317 119.0 410.0Q124 503 130.5 595.0Q137 687 145 775ZM87 322Q70 314 52.5 320.5Q35 327 25 350Q18 366 20.0 379.5Q22 393 30.0 402.5Q38 412 48 416Q75 430 108.0 445.0Q141 460 172.5 474.0Q204 488 230.5 498.5Q257 509 274 515Q295 523 310.0 513.5Q325 504 333 485Q342 466 335.0 447.0Q328 428 306 419Q256 400 201.5 376.0Q147 352 87 322Z" transform="translate(8230, 0)" /> <path d="M297 548Q320 548 346.0 543.5Q372 539 395.0 530.5Q418 522 432 509Q478 472 500.0 412.5Q522 353 522 287Q522 232 507.5 180.5Q493 129 465.0 87.0Q437 45 395.0 20.5Q353 -4 299 -4Q241 -4 194.5 18.0Q148 40 114.5 78.0Q81 116 63.5 166.0Q46 216 46 271Q46 324 61.5 373.5Q77 423 109.0 462.5Q141 502 188.0 525.0Q235 548 297 548ZM162 278Q162 232 177.0 190.0Q192 148 222.0 122.0Q252 96 295 96Q324 96 345.5 112.5Q367 129 380.5 157.0Q394 185 400.0 217.5Q406 250 406 281Q406 341 388.5 380.5Q371 420 340 441Q328 445 317.0 446.0Q306 447 294 447Q261 447 236.0 433.5Q211 420 194.5 395.5Q178 371 170.0 341.0Q162 311 162 278Z" transform="translate(8565, 0)" /> <path d="M569 -15Q551 -15 536.5 -7.0Q522 1 516 20Q503 62 489.0 103.0Q475 144 461.0 184.5Q447 225 432.5 268.0Q418 311 404 356Q366 267 341.5 204.0Q317 141 301.0 97.5Q285 54 273 21Q268 8 257.5 0.5Q247 -7 235.0 -9.5Q223 -12 213 -12Q194 -12 179.5 -2.5Q165 7 161 26Q148 105 124.5 181.0Q101 257 76.5 333.0Q52 409 35 486Q34 494 33.0 498.5Q32 503 32 510Q32 524 48.0 536.5Q64 549 90 548Q110 548 123.0 540.0Q136 532 140 515Q151 472 161.5 432.0Q172 392 183.0 352.5Q194 313 206.0 270.0Q218 227 230 178Q255 239 275.5 292.5Q296 346 316.0 396.0Q336 446 356 497Q356 516 365.0 528.5Q374 541 388.5 547.0Q403 553 420 553Q438 553 452.0 545.0Q466 537 470 520Q478 493 483.5 467.0Q489 441 497 413Q505 383 513.0 355.0Q521 327 530.0 299.5Q539 272 548.5 243.0Q558 214 567 182Q584 245 602.5 300.5Q621 356 640.5 409.5Q660 463 680 520Q686 538 698.5 545.0Q711 552 727 552Q753 552 768.0 540.0Q783 528 783 507Q783 502 781.5 497.5Q780 493 778 487Q751 410 723.0 335.5Q695 261 670.5 186.0Q646 111 630 31Q626 11 611.0 -2.0Q596 -15 569 -15Z" transform="translate(9131, 0)" /> <path d="M46 234Q46 294 64.0 350.0Q82 406 115.0 450.0Q148 494 194.0 520.0Q240 546 296 546Q329 546 359.0 535.5Q389 525 416 502Q421 524 431.5 535.0Q442 546 462 546Q488 546 506.0 532.0Q524 518 523 494Q522 464 515.5 418.0Q509 372 503 327Q501 313 497.0 288.5Q493 264 490.5 240.5Q488 217 488 202Q487 184 489.5 157.5Q492 131 499.5 110.5Q507 90 521 90Q531 90 539.0 96.5Q547 103 554 116Q561 126 570.0 130.5Q579 135 589 135Q601 135 611.5 128.5Q622 122 628.0 110.0Q634 98 631 83Q630 64 613.0 42.5Q596 21 568.5 6.0Q541 -9 509 -9Q481 -9 458.5 3.0Q436 15 421.0 37.5Q406 60 401 91Q372 48 334.0 23.5Q296 -1 245 -1Q180 -1 136.0 29.5Q92 60 69.0 113.0Q46 166 46 234ZM163 239Q163 196 173.0 164.0Q183 132 203.5 115.0Q224 98 256 98Q281 98 299.5 109.5Q318 121 332.0 141.0Q346 161 356 188Q365 212 372.0 240.5Q379 269 383.5 299.5Q388 330 391.0 359.0Q394 388 396 413Q375 431 351.0 440.5Q327 450 305 450Q272 450 246.0 433.0Q220 416 201.5 386.0Q183 356 173.0 318.5Q163 281 163 239Z" transform="translate(9926, 0)" />
  </g>
</svg>
