<?xml version="1.0" standalone="no"?>
<svg xmlns="http://www.w3.org/2000/svg" width="4210" height="1510" viewBox="0 -340 4210 1510">
  <g transform="translate(0, 1170) scale(1, -1)">
    <path d="M733 676Q739 671 743.5 661.5Q748 652 748 642Q748 627 740.0 614.0Q732 601 720.5 592.5Q709 584 697 584Q681 584 670.5 593.5Q660 603 651 610Q606 642 562.0 658.0Q518 674 471 674Q408 674 360.0 650.5Q312 627 277.5 589.0Q243 551 221.0 507.5Q199 464 188.5 421.0Q178 378 178 346Q178 309 191.5 264.5Q205 220 234.0 179.0Q263 138 306.0 112.0Q349 86 407 86Q457 86 499.5 105.0Q542 124 574.5 156.0Q607 188 627.0 227.5Q647 267 653 308Q625 308 596.5 308.5Q568 309 539.0 309.0Q510 309 480 309Q459 309 446.5 323.0Q434 337 433 362Q432 384 446.0 398.5Q460 413 482 413Q540 413 602.0 412.5Q664 412 723 412Q751 411 760.5 393.0Q770 375 770 351Q770 282 742.0 216.0Q714 150 663.5 97.0Q613 44 547.0 12.5Q481 -19 405 -19Q332 -19 269.0 10.0Q206 39 159.5 90.0Q113 141 87.5 207.5Q62 274 62 348Q62 435 94.5 512.5Q127 590 184.5 650.5Q242 711 317.5 745.5Q393 780 477 780Q541 780 607.0 756.0Q673 732 733 676Z" transform="translate(0, 0)" /> <path d="M297 548Q320 548 346.0 543.5Q372 539 395.0 530.5Q418 522 432 509Q478 472 500.0 412.5Q522 353 522 287Q522 232 507.5 180.5Q493 129 465.0 87.0Q437 45 395.0 20.5Q353 -4 299 -4Q241 -4 194.5 18.0Q148 40 114.5 78.0Q81 116 63.5 166.0Q46 216 46 271Q46 324 61.5 373.5Q77 423 109.0 462.5Q141 502 188.0 525.0Q235 548 297 548ZM162 278Q162 232 177.0 190.0Q192 148 222.0 122.0Q252 96 295 96Q324 96 345.5 112.5Q367 129 380.5 157.0Q394 185 400.0 217.5Q406 250 406 281Q406 341 388.5 380.5Q371 420 340 441Q328 445 317.0 446.0Q306 447 294 447Q261 447 236.0 433.5Q211 420 194.5 395.5Q178 371 170.0 341.0Q162 311 162 278Z" transform="translate(833, 0)" /> <path d="M84 441Q59 441 47.5 455.5Q36 470 36 493Q37 514 50.5 526.5Q64 539 86 539Q172 539 229.0 539.0Q286 539 322.5 539.5Q359 540 382.0 540.5Q405 541 422 542Q445 543 457.5 529.5Q470 516 470 497Q470 486 465.0 475.0Q460 464 453 455Q412 396 371.0 336.5Q330 277 289.5 221.0Q249 165 211 116Q250 113 285.5 111.0Q321 109 356.0 107.5Q391 106 428 105Q448 105 459.5 92.0Q471 79 471 58Q471 33 457.5 19.0Q444 5 420 5Q378 5 332.0 8.0Q286 11 237.5 15.5Q189 20 136 22Q122 3 105.0 -5.5Q88 -14 71 -12Q52 -11 38.0 2.0Q24 15 24 34Q24 53 35.0 68.0Q46 83 62 98Q80 121 100.5 148.5Q121 176 143.0 206.5Q165 237 187.5 268.5Q210 300 231.0 330.5Q252 361 271.5 389.0Q291 417 307 440ZM289 636Q280 621 262.0 617.5Q244 614 225 626Q209 635 209.5 651.5Q210 668 217 682Q229 706 245.0 733.5Q261 761 277.5 785.5Q294 810 305 824Q322 843 340.0 846.0Q358 849 377 835Q397 822 402.0 800.5Q407 779 390 761Q374 744 343.5 709.5Q313 675 289 636Z" transform="translate(1399, 0)" /> <path d="M430 786Q432 811 447.5 822.0Q463 833 485 833Q512 833 529.5 821.5Q547 810 545 784Q532 600 523.5 410.5Q515 221 507 35Q506 10 487.5 -0.5Q469 -11 447 -11Q424 -11 408.5 0.5Q393 12 394 31Q395 43 395.5 53.5Q396 64 397.0 77.0Q398 90 399 108Q378 70 350.0 44.0Q322 18 289.5 4.5Q257 -9 223 -9Q177 -9 144.0 13.5Q111 36 89.5 72.0Q68 108 57.5 150.5Q47 193 47 233Q47 292 66.0 348.5Q85 405 118.5 450.0Q152 495 198.5 521.5Q245 548 301 548Q328 548 356.5 540.5Q385 533 413 517Q416 563 418.5 609.0Q421 655 424.0 700.0Q427 745 430 786ZM165 234Q165 199 174.5 166.5Q184 134 201.5 113.5Q219 93 241 93Q271 93 297.0 113.5Q323 134 343.0 166.0Q363 198 376.0 232.0Q389 266 391 293Q392 299 394.0 303.0Q396 307 401 311L407 414Q384 433 359.0 441.5Q334 450 312 450Q278 450 244.0 425.0Q210 400 187.5 352.0Q165 304 165 234Z" transform="translate(1901, 0)" /> <path d="M84 441Q59 441 47.5 455.5Q36 470 36 493Q37 514 50.5 526.5Q64 539 86 539Q172 539 229.0 539.0Q286 539 322.5 539.5Q359 540 382.0 540.5Q405 541 422 542Q445 543 457.5 529.5Q470 516 470 497Q470 486 465.0 475.0Q460 464 453 455Q412 396 371.0 336.5Q330 277 289.5 221.0Q249 165 211 116Q250 113 285.5 111.0Q321 109 356.0 107.5Q391 106 428 105Q448 105 459.5 92.0Q471 79 471 58Q471 33 457.5 19.0Q444 5 420 5Q378 5 332.0 8.0Q286 11 237.5 15.5Q189 20 136 22Q122 3 105.0 -5.5Q88 -14 71 -12Q52 -11 38.0 2.0Q24 15 24 34Q24 53 35.0 68.0Q46 83 62 98Q80 121 100.5 148.5Q121 176 143.0 206.5Q165 237 187.5 268.5Q210 300 231.0 330.5Q252 361 271.5 389.0Q291 417 307 440Z" transform="translate(2501, 0)" /> <path d="M98 498Q98 514 106.0 524.5Q114 535 127.5 540.0Q141 545 154 545Q181 545 197.0 533.5Q213 522 213 498Q213 428 210.0 372.5Q207 317 203.5 266.5Q200 216 197.0 160.5Q194 105 193 32Q193 10 177.0 -2.5Q161 -15 136 -15Q111 -15 98.5 -5.5Q86 4 81.5 18.0Q77 32 77 47Q77 56 79.0 91.0Q81 126 84.0 177.5Q87 229 90.5 287.0Q94 345 96.0 400.0Q98 455 98 498ZM87 712Q87 732 96.0 751.0Q105 770 120.5 781.5Q136 793 155 793Q191 793 209.0 780.0Q227 767 233.0 750.0Q239 733 239 721Q239 690 215.5 667.0Q192 644 159 644Q129 644 108.0 663.0Q87 682 87 712Z" transform="translate(3003, 0)" /> <path d="M115 778Q117 799 131.5 810.5Q146 822 176 822Q207 822 217.0 806.0Q227 790 227 766Q227 742 220.5 688.5Q214 635 206.5 548.5Q199 462 195 339Q197 340 215.5 354.5Q234 369 261.5 391.0Q289 413 320.5 438.5Q352 464 383.0 488.5Q414 513 437 532Q448 540 457.5 544.5Q467 549 478 549Q492 549 502.0 544.0Q512 539 518.5 530.5Q525 522 528.0 512.5Q531 503 531 494Q531 484 528.0 474.5Q525 465 515 458Q501 447 479.0 430.0Q457 413 431.0 393.5Q405 374 378.5 353.5Q352 333 328.5 315.5Q305 298 288 285Q303 265 323.0 235.0Q343 205 363 177Q378 155 394.5 137.0Q411 119 426.5 109.0Q442 99 457 99Q473 99 488.5 114.0Q504 129 517 143Q525 153 534.0 159.0Q543 165 553 165Q566 165 578.0 158.5Q590 152 598.0 140.5Q606 129 606 115Q606 101 598.0 87.5Q590 74 577 61Q561 44 539.0 28.0Q517 12 492.0 2.0Q467 -8 441 -8Q405 -8 374.5 9.5Q344 27 318.5 55.5Q293 84 269 117Q245 154 227.0 184.0Q209 214 192 236Q191 183 189.0 133.0Q187 83 185 35Q185 11 170.0 0.5Q155 -10 131 -10Q103 -10 87.0 0.5Q71 11 71 35Q78 221 88.0 410.5Q98 600 115 778Z" transform="translate(3292, 0)" /> <path d="M98 498Q98 514 106.0 524.5Q114 535 127.5 540.0Q141 545 154 545Q181 545 197.0 533.5Q213 522 213 498Q213 428 210.0 372.5Q207 317 203.5 266.5Q200 216 197.0 160.5Q194 105 193 32Q193 10 177.0 -2.5Q161 -15 136 -15Q111 -15 98.5 -5.5Q86 4 81.5 18.0Q77 32 77 47Q77 56 79.0 91.0Q81 126 84.0 177.5Q87 229 90.5 287.0Q94 345 96.0 400.0Q98 455 98 498ZM87 712Q87 732 96.0 751.0Q105 770 120.5 781.5Q136 793 155 793Q191 793 209.0 780.0Q227 767 233.0 750.0Q239 733 239 721Q239 690 215.5 667.0Q192 644 159 644Q129 644 108.0 663.0Q87 682 87 712Z" transform="translate(3921, 0)" />
  </g>
</svg>
