<?xml version="1.0" standalone="no"?>
<svg xmlns="http://www.w3.org/2000/svg" width="3323" height="1510" viewBox="0 -340 3323 1510">
  <g transform="translate(0, 1170) scale(1, -1)">
    <path d="M733 676Q739 671 743.5 661.5Q748 652 748 642Q748 627 740.0 614.0Q732 601 720.5 592.5Q709 584 697 584Q681 584 670.5 593.5Q660 603 651 610Q606 642 562.0 658.0Q518 674 471 674Q408 674 360.0 650.5Q312 627 277.5 589.0Q243 551 221.0 507.5Q199 464 188.5 421.0Q178 378 178 346Q178 309 191.5 264.5Q205 220 234.0 179.0Q263 138 306.0 112.0Q349 86 407 86Q457 86 499.5 105.0Q542 124 574.5 156.0Q607 188 627.0 227.5Q647 267 653 308Q625 308 596.5 308.5Q568 309 539.0 309.0Q510 309 480 309Q459 309 446.5 323.0Q434 337 433 362Q432 384 446.0 398.5Q460 413 482 413Q540 413 602.0 412.5Q664 412 723 412Q751 411 760.5 393.0Q770 375 770 351Q770 282 742.0 216.0Q714 150 663.5 97.0Q613 44 547.0 12.5Q481 -19 405 -19Q332 -19 269.0 10.0Q206 39 159.5 90.0Q113 141 87.5 207.5Q62 274 62 348Q62 435 94.5 512.5Q127 590 184.5 650.5Q242 711 317.5 745.5Q393 780 477 780Q541 780 607.0 756.0Q673 732 733 676Z" transform="translate(0, 0)" /> <path d="M239 -12Q191 -12 157.5 11.0Q124 34 102.5 72.0Q81 110 71.5 158.5Q62 207 62 256Q62 323 70.5 385.5Q79 448 90 507Q92 523 107.5 534.5Q123 546 149 546Q176 546 190.5 530.5Q205 515 203 492Q201 468 194.0 438.0Q187 408 181.5 367.0Q176 326 176 266Q177 223 184.5 183.5Q192 144 209.0 118.5Q226 93 254 93Q283 93 307.0 113.5Q331 134 350.0 166.0Q369 198 382.5 233.5Q396 269 404 298Q405 355 405.5 407.0Q406 459 408 502Q409 523 424.5 535.0Q440 547 466 547Q487 547 499.5 540.5Q512 534 518.0 522.0Q524 510 524 494Q525 482 525.0 461.0Q525 440 524.0 415.0Q523 390 520.0 363.0Q517 336 513 311Q511 229 510.0 160.5Q509 92 503 30Q503 11 487.0 -0.5Q471 -12 444 -12Q414 -12 403.5 2.0Q393 16 393 31Q393 40 394.5 50.5Q396 61 397.5 74.0Q399 87 399 103Q386 81 370.5 60.5Q355 40 336.0 23.5Q317 7 293.0 -2.5Q269 -12 239 -12Z" transform="translate(833, 0)" /> <path d="M119 775Q122 799 136.5 810.5Q151 822 179 822Q203 822 214.5 814.5Q226 807 230.0 794.0Q234 781 233 765Q231 737 225.0 676.5Q219 616 211.5 509.5Q204 403 199 236Q198 183 196.0 133.5Q194 84 192 38Q192 12 177.0 1.0Q162 -10 134 -10Q107 -10 91.5 1.0Q76 12 77 39Q80 130 84.0 223.5Q88 317 93.0 410.0Q98 503 104.5 595.0Q111 687 119 775Z" transform="translate(1425, 0)" /> <path d="M46 234Q46 294 64.0 350.0Q82 406 115.0 450.0Q148 494 194.0 520.0Q240 546 296 546Q329 546 359.0 535.5Q389 525 416 502Q421 524 431.5 535.0Q442 546 462 546Q488 546 506.0 532.0Q524 518 523 494Q522 464 515.5 418.0Q509 372 503 327Q501 313 497.0 288.5Q493 264 490.5 240.5Q488 217 488 202Q487 184 489.5 157.5Q492 131 499.5 110.5Q507 90 521 90Q531 90 539.0 96.5Q547 103 554 116Q561 126 570.0 130.5Q579 135 589 135Q601 135 611.5 128.5Q622 122 628.0 110.0Q634 98 631 83Q630 64 613.0 42.5Q596 21 568.5 6.0Q541 -9 509 -9Q481 -9 458.5 3.0Q436 15 421.0 37.5Q406 60 401 91Q372 48 334.0 23.5Q296 -1 245 -1Q180 -1 136.0 29.5Q92 60 69.0 113.0Q46 166 46 234ZM163 239Q163 196 173.0 164.0Q183 132 203.5 115.0Q224 98 256 98Q281 98 299.5 109.5Q318 121 332.0 141.0Q346 161 356 188Q365 212 372.0 240.5Q379 269 383.5 299.5Q388 330 391.0 359.0Q394 388 396 413Q375 431 351.0 440.5Q327 450 305 450Q272 450 246.0 433.0Q220 416 201.5 386.0Q183 356 173.0 318.5Q163 281 163 239Z" transform="translate(1718, 0)" /> <path d="M417 478Q424 470 427.0 461.0Q430 452 430 443Q430 431 422.5 419.0Q415 407 403.5 399.5Q392 392 379 392Q368 392 359.5 397.0Q351 402 344 409Q332 424 309.0 438.5Q286 453 254 453Q226 453 205.5 439.5Q185 426 185 403Q185 375 205.5 360.0Q226 345 272 322Q309 303 340.5 280.5Q372 258 392.5 226.0Q413 194 413 147Q413 105 391.5 70.0Q370 35 331.5 13.5Q293 -8 241 -8Q186 -8 132.0 13.5Q78 35 40 68Q32 74 28.0 82.5Q24 91 24 100Q24 121 38.5 138.0Q53 155 71 155Q77 155 83.0 153.0Q89 151 96 146Q128 123 162.5 105.0Q197 87 231 87Q265 87 281.0 101.5Q297 116 297 135Q297 166 271.5 189.0Q246 212 205 230Q155 253 124.5 277.5Q94 302 80.5 331.0Q67 360 67 395Q67 439 92.5 473.0Q118 507 160.5 526.0Q203 545 254 545Q301 545 346.0 528.0Q391 511 417 478Z" transform="translate(2358, 0)" /> <path d="M84 441Q59 441 47.5 455.5Q36 470 36 493Q37 514 50.5 526.5Q64 539 86 539Q172 539 229.0 539.0Q286 539 322.5 539.5Q359 540 382.0 540.5Q405 541 422 542Q445 543 457.5 529.5Q470 516 470 497Q470 486 465.0 475.0Q460 464 453 455Q412 396 371.0 336.5Q330 277 289.5 221.0Q249 165 211 116Q250 113 285.5 111.0Q321 109 356.0 107.5Q391 106 428 105Q448 105 459.5 92.0Q471 79 471 58Q471 33 457.5 19.0Q444 5 420 5Q378 5 332.0 8.0Q286 11 237.5 15.5Q189 20 136 22Q122 3 105.0 -5.5Q88 -14 71 -12Q52 -11 38.0 2.0Q24 15 24 34Q24 53 35.0 68.0Q46 83 62 98Q80 121 100.5 148.5Q121 176 143.0 206.5Q165 237 187.5 268.5Q210 300 231.0 330.5Q252 361 271.5 389.0Q291 417 307 440Z" transform="translate(2821, 0)" />
  </g>
</svg>
