<?xml version="1.0" standalone="no"?>
<svg xmlns="http://www.w3.org/2000/svg" width="2587" height="1510" viewBox="0 -340 2587 1510">
  <g transform="translate(0, 1170) scale(1, -1)">
    <path d="M117 724Q119 747 136.0 758.0Q153 769 175 769Q201 769 218.0 758.0Q235 747 234 722Q219 550 210.0 375.5Q201 201 197 28Q197 4 178.5 -6.5Q160 -17 137 -17Q114 -17 97.0 -6.0Q80 5 80 32Q84 202 93.0 376.5Q102 551 117 724Z" transform="translate(0, 0)" /> <path d="M104 514Q107 531 123.0 540.0Q139 549 157 549Q180 549 194.0 537.0Q208 525 208 506Q208 496 205.5 483.0Q203 470 200 447Q223 481 248.5 503.5Q274 526 303.0 537.5Q332 549 363 549Q391 549 418.0 538.5Q445 528 467.0 505.0Q489 482 501 442Q523 475 551.0 500.0Q579 525 611.5 539.0Q644 553 679 553Q731 553 763.5 531.5Q796 510 815.0 473.0Q834 436 841.0 388.5Q848 341 848 290Q848 257 846.5 230.5Q845 204 842.0 176.5Q839 149 835.5 117.5Q832 86 828 44Q824 20 807.5 7.5Q791 -5 771 -5Q739 -5 726.5 8.5Q714 22 714 44Q714 55 717.0 77.5Q720 100 724.5 132.0Q729 164 732.0 203.0Q735 242 735 285Q735 372 717.0 409.5Q699 447 660 447Q640 447 617.5 433.5Q595 420 574.5 397.5Q554 375 539.5 346.5Q525 318 519 288Q519 269 518.0 255.0Q517 241 516.5 228.5Q516 216 515 202Q514 173 512.0 145.0Q510 117 508.0 90.0Q506 63 505 37Q505 12 490.0 0.5Q475 -11 447 -11Q421 -11 406.0 0.5Q391 12 391 39Q392 81 395.5 122.5Q399 164 402.0 207.0Q405 250 405 296Q405 377 390.0 411.5Q375 446 345 446Q321 446 294.5 428.0Q268 410 244.0 379.0Q220 348 201 308Q199 258 197.0 208.0Q195 158 193.5 114.0Q192 70 190 37Q188 12 173.5 0.5Q159 -11 134 -11Q107 -11 90.5 0.5Q74 12 75 39Q78 104 80.0 172.0Q82 240 85 309Q87 361 91.0 412.5Q95 464 104 514Z" transform="translate(314, 0)" /> <path d="M109 784Q111 810 125.5 822.5Q140 835 170 835Q197 835 212.5 823.0Q228 811 226 784Q223 748 220.0 710.0Q217 672 215.0 632.5Q213 593 211.5 550.0Q210 507 208 461Q224 485 245.0 503.0Q266 521 291.5 531.5Q317 542 346 542Q409 542 450.5 509.0Q492 476 513.5 418.5Q535 361 535 289Q535 207 506.5 139.5Q478 72 425.5 31.5Q373 -9 301 -9Q266 -9 233.5 0.5Q201 10 176 26Q171 9 157.0 2.5Q143 -4 124 -4Q102 -4 87.0 6.0Q72 16 72 35Q72 42 72.5 55.0Q73 68 74 74Q64 82 60.0 91.5Q56 101 56 114Q56 124 61.5 134.0Q67 144 78 151Q84 262 88.0 365.0Q92 468 96.5 571.5Q101 675 109 784ZM190 121Q211 104 233.5 96.0Q256 88 282 88Q318 88 349.0 107.5Q380 127 398.5 169.5Q417 212 417 282Q417 324 407.5 359.5Q398 395 377.5 416.5Q357 438 322 438Q297 438 274.5 420.5Q252 403 235.0 376.5Q218 350 208.0 321.0Q198 292 197 268Q196 243 195.0 217.0Q194 191 193.0 167.0Q192 143 190 121Z" transform="translate(1232, 0)" /> <path d="M98 498Q98 514 106.0 524.5Q114 535 127.5 540.0Q141 545 154 545Q181 545 197.0 533.5Q213 522 213 498Q213 428 210.0 372.5Q207 317 203.5 266.5Q200 216 197.0 160.5Q194 105 193 32Q193 10 177.0 -2.5Q161 -15 136 -15Q111 -15 98.5 -5.5Q86 4 81.5 18.0Q77 32 77 47Q77 56 79.0 91.0Q81 126 84.0 177.5Q87 229 90.5 287.0Q94 345 96.0 400.0Q98 455 98 498ZM87 712Q87 732 96.0 751.0Q105 770 120.5 781.5Q136 793 155 793Q191 793 209.0 780.0Q227 767 233.0 750.0Q239 733 239 721Q239 690 215.5 667.0Q192 644 159 644Q129 644 108.0 663.0Q87 682 87 712Z" transform="translate(1816, 0)" /> <path d="M91 498Q92 523 108.0 535.0Q124 547 153 547Q178 547 192.0 536.0Q206 525 206 505Q206 499 206.0 489.5Q206 480 205.5 469.0Q205 458 203 444Q231 494 268.5 520.0Q306 546 353 546Q373 546 399.5 540.0Q426 534 454 517Q466 510 473.0 498.0Q480 486 477 465Q475 439 461.0 425.5Q447 412 427 412Q417 412 408.5 416.0Q400 420 392 424Q381 430 369.5 435.0Q358 440 341 440Q285 440 251.5 386.0Q218 332 197 248Q196 214 195.5 184.5Q195 155 194.5 128.5Q194 102 193.5 78.5Q193 55 193 33Q193 17 184.0 7.0Q175 -3 162.0 -8.0Q149 -13 137 -13Q109 -13 95.0 0.0Q81 13 76.5 34.5Q72 56 72 81Q72 101 73.5 131.0Q75 161 77.5 191.0Q80 221 83 241Z" transform="translate(2105, 0)" />
  </g>
</svg>
