<?xml version="1.0" standalone="no"?>
<svg xmlns="http://www.w3.org/2000/svg" width="5152" height="1510" viewBox="0 -340 5152 1510">
  <g transform="translate(0, 1170) scale(1, -1)">
    <path d="M199 29Q199 7 184.0 -5.0Q169 -17 142 -17Q113 -17 98.0 -4.5Q83 8 83 34Q89 207 93.5 383.0Q98 559 99 732Q99 759 115.5 769.5Q132 780 160 780Q185 780 201.0 769.5Q217 759 216 735Q215 560 210.5 383.0Q206 206 199 29ZM532 757Q543 768 552.0 771.5Q561 775 569 775Q583 775 596.5 765.5Q610 756 618.5 742.0Q627 728 627 714Q627 704 624.0 696.0Q621 688 611 679Q572 644 535.0 612.0Q498 580 460.5 549.0Q423 518 383.0 486.5Q343 455 299 421Q345 376 384.0 328.5Q423 281 461.0 235.5Q499 190 542.5 151.0Q586 112 639 84Q655 75 660.5 65.0Q666 55 666 42Q666 25 657.0 9.5Q648 -6 634.5 -16.0Q621 -26 608 -26Q597 -26 586 -20Q531 8 484.0 46.5Q437 85 396.5 130.0Q356 175 319 222Q282 269 245.5 314.5Q209 360 165 402L182 458Q244 506 303.0 556.0Q362 606 419.5 657.0Q477 708 532 757Z" transform="translate(0, 0)" /> <path d="M46 234Q46 294 64.0 350.0Q82 406 115.0 450.0Q148 494 194.0 520.0Q240 546 296 546Q329 546 359.0 535.5Q389 525 416 502Q421 524 431.5 535.0Q442 546 462 546Q488 546 506.0 532.0Q524 518 523 494Q522 464 515.5 418.0Q509 372 503 327Q501 313 497.0 288.5Q493 264 490.5 240.5Q488 217 488 202Q487 184 489.5 157.5Q492 131 499.5 110.5Q507 90 521 90Q531 90 539.0 96.5Q547 103 554 116Q561 126 570.0 130.5Q579 135 589 135Q601 135 611.5 128.5Q622 122 628.0 110.0Q634 98 631 83Q630 64 613.0 42.5Q596 21 568.5 6.0Q541 -9 509 -9Q481 -9 458.5 3.0Q436 15 421.0 37.5Q406 60 401 91Q372 48 334.0 23.5Q296 -1 245 -1Q180 -1 136.0 29.5Q92 60 69.0 113.0Q46 166 46 234ZM163 239Q163 196 173.0 164.0Q183 132 203.5 115.0Q224 98 256 98Q281 98 299.5 109.5Q318 121 332.0 141.0Q346 161 356 188Q365 212 372.0 240.5Q379 269 383.5 299.5Q388 330 391.0 359.0Q394 388 396 413Q375 431 351.0 440.5Q327 450 305 450Q272 450 246.0 433.0Q220 416 201.5 386.0Q183 356 173.0 318.5Q163 281 163 239Z" transform="translate(700, 0)" /> <path d="M91 498Q92 523 108.0 535.0Q124 547 153 547Q178 547 192.0 536.0Q206 525 206 505Q206 499 206.0 489.5Q206 480 205.5 469.0Q205 458 203 444Q231 494 268.5 520.0Q306 546 353 546Q373 546 399.5 540.0Q426 534 454 517Q466 510 473.0 498.0Q480 486 477 465Q475 439 461.0 425.5Q447 412 427 412Q417 412 408.5 416.0Q400 420 392 424Q381 430 369.5 435.0Q358 440 341 440Q285 440 251.5 386.0Q218 332 197 248Q196 214 195.5 184.5Q195 155 194.5 128.5Q194 102 193.5 78.5Q193 55 193 33Q193 17 184.0 7.0Q175 -3 162.0 -8.0Q149 -13 137 -13Q109 -13 95.0 0.0Q81 13 76.5 34.5Q72 56 72 81Q72 101 73.5 131.0Q75 161 77.5 191.0Q80 221 83 241Z" transform="translate(1340, 0)" /> <path d="M430 786Q432 811 447.5 822.0Q463 833 485 833Q512 833 529.5 821.5Q547 810 545 784Q532 600 523.5 410.5Q515 221 507 35Q506 10 487.5 -0.5Q469 -11 447 -11Q424 -11 408.5 0.5Q393 12 394 31Q395 43 395.5 53.5Q396 64 397.0 77.0Q398 90 399 108Q378 70 350.0 44.0Q322 18 289.5 4.5Q257 -9 223 -9Q177 -9 144.0 13.5Q111 36 89.5 72.0Q68 108 57.5 150.5Q47 193 47 233Q47 292 66.0 348.5Q85 405 118.5 450.0Q152 495 198.5 521.5Q245 548 301 548Q328 548 356.5 540.5Q385 533 413 517Q416 563 418.5 609.0Q421 655 424.0 700.0Q427 745 430 786ZM165 234Q165 199 174.5 166.5Q184 134 201.5 113.5Q219 93 241 93Q271 93 297.0 113.5Q323 134 343.0 166.0Q363 198 376.0 232.0Q389 266 391 293Q392 299 394.0 303.0Q396 307 401 311L407 414Q384 433 359.0 441.5Q334 450 312 450Q278 450 244.0 425.0Q210 400 187.5 352.0Q165 304 165 234Z" transform="translate(1822, 0)" /> <path d="M46 234Q46 294 64.0 350.0Q82 406 115.0 450.0Q148 494 194.0 520.0Q240 546 296 546Q329 546 359.0 535.5Q389 525 416 502Q421 524 431.5 535.0Q442 546 462 546Q488 546 506.0 532.0Q524 518 523 494Q522 464 515.5 418.0Q509 372 503 327Q501 313 497.0 288.5Q493 264 490.5 240.5Q488 217 488 202Q487 184 489.5 157.5Q492 131 499.5 110.5Q507 90 521 90Q531 90 539.0 96.5Q547 103 554 116Q561 126 570.0 130.5Q579 135 589 135Q601 135 611.5 128.5Q622 122 628.0 110.0Q634 98 631 83Q630 64 613.0 42.5Q596 21 568.5 6.0Q541 -9 509 -9Q481 -9 458.5 3.0Q436 15 421.0 37.5Q406 60 401 91Q372 48 334.0 23.5Q296 -1 245 -1Q180 -1 136.0 29.5Q92 60 69.0 113.0Q46 166 46 234ZM163 239Q163 196 173.0 164.0Q183 132 203.5 115.0Q224 98 256 98Q281 98 299.5 109.5Q318 121 332.0 141.0Q346 161 356 188Q365 212 372.0 240.5Q379 269 383.5 299.5Q388 330 391.0 359.0Q394 388 396 413Q375 431 351.0 440.5Q327 450 305 450Q272 450 246.0 433.0Q220 416 201.5 386.0Q183 356 173.0 318.5Q163 281 163 239Z" transform="translate(2422, 0)" /> <path d="M104 514Q107 531 123.0 540.0Q139 549 157 549Q180 549 194.0 537.0Q208 525 208 506Q208 496 205.5 483.0Q203 470 200 447Q223 481 248.5 503.5Q274 526 303.0 537.5Q332 549 363 549Q391 549 418.0 538.5Q445 528 467.0 505.0Q489 482 501 442Q523 475 551.0 500.0Q579 525 611.5 539.0Q644 553 679 553Q731 553 763.5 531.5Q796 510 815.0 473.0Q834 436 841.0 388.5Q848 341 848 290Q848 257 846.5 230.5Q845 204 842.0 176.5Q839 149 835.5 117.5Q832 86 828 44Q824 20 807.5 7.5Q791 -5 771 -5Q739 -5 726.5 8.5Q714 22 714 44Q714 55 717.0 77.5Q720 100 724.5 132.0Q729 164 732.0 203.0Q735 242 735 285Q735 372 717.0 409.5Q699 447 660 447Q640 447 617.5 433.5Q595 420 574.5 397.5Q554 375 539.5 346.5Q525 318 519 288Q519 269 518.0 255.0Q517 241 516.5 228.5Q516 216 515 202Q514 173 512.0 145.0Q510 117 508.0 90.0Q506 63 505 37Q505 12 490.0 0.5Q475 -11 447 -11Q421 -11 406.0 0.5Q391 12 391 39Q392 81 395.5 122.5Q399 164 402.0 207.0Q405 250 405 296Q405 377 390.0 411.5Q375 446 345 446Q321 446 294.5 428.0Q268 410 244.0 379.0Q220 348 201 308Q199 258 197.0 208.0Q195 158 193.5 114.0Q192 70 190 37Q188 12 173.5 0.5Q159 -11 134 -11Q107 -11 90.5 0.5Q74 12 75 39Q78 104 80.0 172.0Q82 240 85 309Q87 361 91.0 412.5Q95 464 104 514Z" transform="translate(3062, 0)" /> <path d="M297 548Q320 548 346.0 543.5Q372 539 395.0 530.5Q418 522 432 509Q478 472 500.0 412.5Q522 353 522 287Q522 232 507.5 180.5Q493 129 465.0 87.0Q437 45 395.0 20.5Q353 -4 299 -4Q241 -4 194.5 18.0Q148 40 114.5 78.0Q81 116 63.5 166.0Q46 216 46 271Q46 324 61.5 373.5Q77 423 109.0 462.5Q141 502 188.0 525.0Q235 548 297 548ZM162 278Q162 232 177.0 190.0Q192 148 222.0 122.0Q252 96 295 96Q324 96 345.5 112.5Q367 129 380.5 157.0Q394 185 400.0 217.5Q406 250 406 281Q406 341 388.5 380.5Q371 420 340 441Q328 445 317.0 446.0Q306 447 294 447Q261 447 236.0 433.5Q211 420 194.5 395.5Q178 371 170.0 341.0Q162 311 162 278Z" transform="translate(3980, 0)" /> <path d="M93 520Q96 540 111.5 548.5Q127 557 149 557Q174 557 188.5 544.0Q203 531 203 515Q203 509 201.0 494.0Q199 479 197.0 461.0Q195 443 194 426Q212 459 235.0 487.0Q258 515 290.5 532.0Q323 549 366 549Q454 549 498.0 485.5Q542 422 542 318Q542 267 535.0 219.0Q528 171 521.0 125.5Q514 80 514 34Q514 15 498.0 2.0Q482 -11 455 -11Q428 -11 413.5 2.0Q399 15 399 37Q399 84 406.5 127.0Q414 170 421.0 214.0Q428 258 428 308Q428 362 417.5 391.0Q407 420 388.0 431.5Q369 443 345 443Q315 443 291.0 422.5Q267 402 248.0 370.0Q229 338 216.5 302.5Q204 267 196 238Q197 183 196.5 130.0Q196 77 193 32Q192 14 177.0 1.0Q162 -12 134 -12Q108 -12 94.5 -0.5Q81 11 76.5 30.0Q72 49 72 71Q72 106 75.0 145.0Q78 184 86 221Q84 277 83.5 322.0Q83 367 83.5 402.5Q84 438 86.0 466.5Q88 495 93 520Z" transform="translate(4546, 0)" />
  </g>
</svg>
