<?xml version="1.0" standalone="no"?>
<svg xmlns="http://www.w3.org/2000/svg" width="2513" height="1510" viewBox="0 -340 2513 1510">
  <g transform="translate(0, 1170) scale(1, -1)">
    <path d="M199 29Q199 7 184.0 -5.0Q169 -17 142 -17Q113 -17 98.0 -4.5Q83 8 83 34Q89 207 93.5 383.0Q98 559 99 732Q99 759 115.5 769.5Q132 780 160 780Q185 780 201.0 769.5Q217 759 216 735Q215 560 210.5 383.0Q206 206 199 29ZM532 757Q543 768 552.0 771.5Q561 775 569 775Q583 775 596.5 765.5Q610 756 618.5 742.0Q627 728 627 714Q627 704 624.0 696.0Q621 688 611 679Q572 644 535.0 612.0Q498 580 460.5 549.0Q423 518 383.0 486.5Q343 455 299 421Q345 376 384.0 328.5Q423 281 461.0 235.5Q499 190 542.5 151.0Q586 112 639 84Q655 75 660.5 65.0Q666 55 666 42Q666 25 657.0 9.5Q648 -6 634.5 -16.0Q621 -26 608 -26Q597 -26 586 -20Q531 8 484.0 46.5Q437 85 396.5 130.0Q356 175 319 222Q282 269 245.5 314.5Q209 360 165 402L182 458Q244 506 303.0 556.0Q362 606 419.5 657.0Q477 708 532 757Z" transform="translate(0, 0)" /> <path d="M104 514Q107 531 123.0 540.0Q139 549 157 549Q180 549 194.0 537.0Q208 525 208 506Q208 496 205.5 483.0Q203 470 200 447Q223 481 248.5 503.5Q274 526 303.0 537.5Q332 549 363 549Q391 549 418.0 538.5Q445 528 467.0 505.0Q489 482 501 442Q523 475 551.0 500.0Q579 525 611.5 539.0Q644 553 679 553Q731 553 763.5 531.5Q796 510 815.0 473.0Q834 436 841.0 388.5Q848 341 848 290Q848 257 846.5 230.5Q845 204 842.0 176.5Q839 149 835.5 117.5Q832 86 828 44Q824 20 807.5 7.5Q791 -5 771 -5Q739 -5 726.5 8.5Q714 22 714 44Q714 55 717.0 77.5Q720 100 724.5 132.0Q729 164 732.0 203.0Q735 242 735 285Q735 372 717.0 409.5Q699 447 660 447Q640 447 617.5 433.5Q595 420 574.5 397.5Q554 375 539.5 346.5Q525 318 519 288Q519 269 518.0 255.0Q517 241 516.5 228.5Q516 216 515 202Q514 173 512.0 145.0Q510 117 508.0 90.0Q506 63 505 37Q505 12 490.0 0.5Q475 -11 447 -11Q421 -11 406.0 0.5Q391 12 391 39Q392 81 395.5 122.5Q399 164 402.0 207.0Q405 250 405 296Q405 377 390.0 411.5Q375 446 345 446Q321 446 294.5 428.0Q268 410 244.0 379.0Q220 348 201 308Q199 258 197.0 208.0Q195 158 193.5 114.0Q192 70 190 37Q188 12 173.5 0.5Q159 -11 134 -11Q107 -11 90.5 0.5Q74 12 75 39Q78 104 80.0 172.0Q82 240 85 309Q87 361 91.0 412.5Q95 464 104 514Z" transform="translate(700, 0)" /> <path d="M98 498Q98 514 106.0 524.5Q114 535 127.5 540.0Q141 545 154 545Q181 545 197.0 533.5Q213 522 213 498Q213 428 210.0 372.5Q207 317 203.5 266.5Q200 216 197.0 160.5Q194 105 193 32Q193 10 177.0 -2.5Q161 -15 136 -15Q111 -15 98.5 -5.5Q86 4 81.5 18.0Q77 32 77 47Q77 56 79.0 91.0Q81 126 84.0 177.5Q87 229 90.5 287.0Q94 345 96.0 400.0Q98 455 98 498ZM87 712Q87 732 96.0 751.0Q105 770 120.5 781.5Q136 793 155 793Q191 793 209.0 780.0Q227 767 233.0 750.0Q239 733 239 721Q239 690 215.5 667.0Q192 644 159 644Q129 644 108.0 663.0Q87 682 87 712Z" transform="translate(1618, 0)" /> <path d="M93 520Q96 540 111.5 548.5Q127 557 149 557Q174 557 188.5 544.0Q203 531 203 515Q203 509 201.0 494.0Q199 479 197.0 461.0Q195 443 194 426Q212 459 235.0 487.0Q258 515 290.5 532.0Q323 549 366 549Q454 549 498.0 485.5Q542 422 542 318Q542 267 535.0 219.0Q528 171 521.0 125.5Q514 80 514 34Q514 15 498.0 2.0Q482 -11 455 -11Q428 -11 413.5 2.0Q399 15 399 37Q399 84 406.5 127.0Q414 170 421.0 214.0Q428 258 428 308Q428 362 417.5 391.0Q407 420 388.0 431.5Q369 443 345 443Q315 443 291.0 422.5Q267 402 248.0 370.0Q229 338 216.5 302.5Q204 267 196 238Q197 183 196.5 130.0Q196 77 193 32Q192 14 177.0 1.0Q162 -12 134 -12Q108 -12 94.5 -0.5Q81 11 76.5 30.0Q72 49 72 71Q72 106 75.0 145.0Q78 184 86 221Q84 277 83.5 322.0Q83 367 83.5 402.5Q84 438 86.0 466.5Q88 495 93 520Z" transform="translate(1907, 0)" />
  </g>
</svg>
