<?xml version="1.0" standalone="no"?>
<svg xmlns="http://www.w3.org/2000/svg" width="2893" height="1510" viewBox="0 -340 2893 1510">
  <g transform="translate(0, 1170) scale(1, -1)">
    <path d="M199 29Q199 7 184.0 -5.0Q169 -17 142 -17Q113 -17 98.0 -4.5Q83 8 83 34Q89 207 93.5 383.0Q98 559 99 732Q99 759 115.5 769.5Q132 780 160 780Q185 780 201.0 769.5Q217 759 216 735Q215 560 210.5 383.0Q206 206 199 29ZM532 757Q543 768 552.0 771.5Q561 775 569 775Q583 775 596.5 765.5Q610 756 618.5 742.0Q627 728 627 714Q627 704 624.0 696.0Q621 688 611 679Q572 644 535.0 612.0Q498 580 460.5 549.0Q423 518 383.0 486.5Q343 455 299 421Q345 376 384.0 328.5Q423 281 461.0 235.5Q499 190 542.5 151.0Q586 112 639 84Q655 75 660.5 65.0Q666 55 666 42Q666 25 657.0 9.5Q648 -6 634.5 -16.0Q621 -26 608 -26Q597 -26 586 -20Q531 8 484.0 46.5Q437 85 396.5 130.0Q356 175 319 222Q282 269 245.5 314.5Q209 360 165 402L182 458Q244 506 303.0 556.0Q362 606 419.5 657.0Q477 708 532 757Z" transform="translate(0, 0)" /> <path d="M297 548Q320 548 346.0 543.5Q372 539 395.0 530.5Q418 522 432 509Q478 472 500.0 412.5Q522 353 522 287Q522 232 507.5 180.5Q493 129 465.0 87.0Q437 45 395.0 20.5Q353 -4 299 -4Q241 -4 194.5 18.0Q148 40 114.5 78.0Q81 116 63.5 166.0Q46 216 46 271Q46 324 61.5 373.5Q77 423 109.0 462.5Q141 502 188.0 525.0Q235 548 297 548ZM162 278Q162 232 177.0 190.0Q192 148 222.0 122.0Q252 96 295 96Q324 96 345.5 112.5Q367 129 380.5 157.0Q394 185 400.0 217.5Q406 250 406 281Q406 341 388.5 380.5Q371 420 340 441Q328 445 317.0 446.0Q306 447 294 447Q261 447 236.0 433.5Q211 420 194.5 395.5Q178 371 170.0 341.0Q162 311 162 278Z" transform="translate(700, 0)" /> <path d="M121 -284Q92 -284 75.5 -272.5Q59 -261 60 -234Q63 -176 66.0 -126.0Q69 -76 71.0 -27.5Q73 21 75.5 73.5Q78 126 81.5 188.5Q85 251 88.5 329.0Q92 407 97 506Q99 534 119.0 545.0Q139 556 162 556Q184 556 196.0 542.5Q208 529 208 512Q208 496 207.5 480.5Q207 465 205 439Q241 493 285.5 520.0Q330 547 378 547Q421 547 455.0 526.0Q489 505 513.5 470.0Q538 435 551.0 391.0Q564 347 564 299Q564 237 546.5 180.5Q529 124 497.0 80.5Q465 37 421.5 11.5Q378 -14 326 -14Q290 -14 255.0 -1.5Q220 11 190 34Q187 -38 184.0 -103.5Q181 -169 177 -237Q176 -260 161.5 -272.0Q147 -284 121 -284ZM317 83Q343 83 366.0 99.0Q389 115 407.0 143.0Q425 171 435.0 209.0Q445 247 445 290Q445 323 439.0 351.0Q433 379 421.0 399.5Q409 420 393.0 431.0Q377 442 356 442Q335 442 312.0 427.0Q289 412 267.5 386.5Q246 361 228.5 329.0Q211 297 200 263Q199 230 197.5 201.0Q196 172 195 138Q222 112 255.0 97.5Q288 83 317 83Z" transform="translate(1266, 0)" /> <path d="M284 -1Q225 -1 180.0 21.0Q135 43 104.5 81.0Q74 119 58.5 165.5Q43 212 43 260Q43 312 63.5 362.5Q84 413 121.0 455.0Q158 497 207.0 522.5Q256 548 314 548Q361 548 395.0 530.5Q429 513 448.0 482.0Q467 451 467 410Q467 366 446.5 329.0Q426 292 388 269Q339 235 281.5 221.5Q224 208 163 205Q171 179 187.5 154.5Q204 130 230.0 113.5Q256 97 292 97Q328 97 360.5 117.5Q393 138 417 164Q424 174 432.0 177.0Q440 180 447 180Q460 180 471.5 173.0Q483 166 490.5 154.5Q498 143 499 130Q501 120 496.5 110.5Q492 101 485 94Q448 54 397.0 26.5Q346 -1 284 -1ZM158 296Q193 298 222.0 302.0Q251 306 284 320Q314 331 336.5 354.0Q359 377 359 409Q359 422 353.0 432.0Q347 442 335.5 449.0Q324 456 306 456Q278 456 252.5 441.0Q227 426 207.0 402.5Q187 379 174.5 350.5Q162 322 158 296Z" transform="translate(1876, 0)" /> <path d="M91 498Q92 523 108.0 535.0Q124 547 153 547Q178 547 192.0 536.0Q206 525 206 505Q206 499 206.0 489.5Q206 480 205.5 469.0Q205 458 203 444Q231 494 268.5 520.0Q306 546 353 546Q373 546 399.5 540.0Q426 534 454 517Q466 510 473.0 498.0Q480 486 477 465Q475 439 461.0 425.5Q447 412 427 412Q417 412 408.5 416.0Q400 420 392 424Q381 430 369.5 435.0Q358 440 341 440Q285 440 251.5 386.0Q218 332 197 248Q196 214 195.5 184.5Q195 155 194.5 128.5Q194 102 193.5 78.5Q193 55 193 33Q193 17 184.0 7.0Q175 -3 162.0 -8.0Q149 -13 137 -13Q109 -13 95.0 0.0Q81 13 76.5 34.5Q72 56 72 81Q72 101 73.5 131.0Q75 161 77.5 191.0Q80 221 83 241Z" transform="translate(2411, 0)" />
  </g>
</svg>
