<?xml version="1.0" standalone="no"?>
<svg xmlns="http://www.w3.org/2000/svg" width="6381" height="1510" viewBox="0 -340 6381 1510">
  <g transform="translate(0, 1170) scale(1, -1)">
    <path d="M199 29Q199 7 184.0 -5.0Q169 -17 142 -17Q113 -17 98.0 -4.5Q83 8 83 34Q89 207 93.5 383.0Q98 559 99 732Q99 759 115.5 769.5Q132 780 160 780Q185 780 201.0 769.5Q217 759 216 735Q215 560 210.5 383.0Q206 206 199 29ZM532 757Q543 768 552.0 771.5Q561 775 569 775Q583 775 596.5 765.5Q610 756 618.5 742.0Q627 728 627 714Q627 704 624.0 696.0Q621 688 611 679Q572 644 535.0 612.0Q498 580 460.5 549.0Q423 518 383.0 486.5Q343 455 299 421Q345 376 384.0 328.5Q423 281 461.0 235.5Q499 190 542.5 151.0Q586 112 639 84Q655 75 660.5 65.0Q666 55 666 42Q666 25 657.0 9.5Q648 -6 634.5 -16.0Q621 -26 608 -26Q597 -26 586 -20Q531 8 484.0 46.5Q437 85 396.5 130.0Q356 175 319 222Q282 269 245.5 314.5Q209 360 165 402L182 458Q244 506 303.0 556.0Q362 606 419.5 657.0Q477 708 532 757Z" transform="translate(0, 0)" /> <path d="M297 548Q320 548 346.0 543.5Q372 539 395.0 530.5Q418 522 432 509Q478 472 500.0 412.5Q522 353 522 287Q522 232 507.5 180.5Q493 129 465.0 87.0Q437 45 395.0 20.5Q353 -4 299 -4Q241 -4 194.5 18.0Q148 40 114.5 78.0Q81 116 63.5 166.0Q46 216 46 271Q46 324 61.5 373.5Q77 423 109.0 462.5Q141 502 188.0 525.0Q235 548 297 548ZM162 278Q162 232 177.0 190.0Q192 148 222.0 122.0Q252 96 295 96Q324 96 345.5 112.5Q367 129 380.5 157.0Q394 185 400.0 217.5Q406 250 406 281Q406 341 388.5 380.5Q371 420 340 441Q328 445 317.0 446.0Q306 447 294 447Q261 447 236.0 433.5Q211 420 194.5 395.5Q178 371 170.0 341.0Q162 311 162 278Z" transform="translate(700, 0)" /> <path d="M121 -284Q92 -284 75.5 -272.5Q59 -261 60 -234Q63 -176 66.0 -126.0Q69 -76 71.0 -27.5Q73 21 75.5 73.5Q78 126 81.5 188.5Q85 251 88.5 329.0Q92 407 97 506Q99 534 119.0 545.0Q139 556 162 556Q184 556 196.0 542.5Q208 529 208 512Q208 496 207.5 480.5Q207 465 205 439Q241 493 285.5 520.0Q330 547 378 547Q421 547 455.0 526.0Q489 505 513.5 470.0Q538 435 551.0 391.0Q564 347 564 299Q564 237 546.5 180.5Q529 124 497.0 80.5Q465 37 421.5 11.5Q378 -14 326 -14Q290 -14 255.0 -1.5Q220 11 190 34Q187 -38 184.0 -103.5Q181 -169 177 -237Q176 -260 161.5 -272.0Q147 -284 121 -284ZM317 83Q343 83 366.0 99.0Q389 115 407.0 143.0Q425 171 435.0 209.0Q445 247 445 290Q445 323 439.0 351.0Q433 379 421.0 399.5Q409 420 393.0 431.0Q377 442 356 442Q335 442 312.0 427.0Q289 412 267.5 386.5Q246 361 228.5 329.0Q211 297 200 263Q199 230 197.5 201.0Q196 172 195 138Q222 112 255.0 97.5Q288 83 317 83Z" transform="translate(1266, 0)" /> <path d="M284 -1Q225 -1 180.0 21.0Q135 43 104.5 81.0Q74 119 58.5 165.5Q43 212 43 260Q43 312 63.5 362.5Q84 413 121.0 455.0Q158 497 207.0 522.5Q256 548 314 548Q361 548 395.0 530.5Q429 513 448.0 482.0Q467 451 467 410Q467 366 446.5 329.0Q426 292 388 269Q339 235 281.5 221.5Q224 208 163 205Q171 179 187.5 154.5Q204 130 230.0 113.5Q256 97 292 97Q328 97 360.5 117.5Q393 138 417 164Q424 174 432.0 177.0Q440 180 447 180Q460 180 471.5 173.0Q483 166 490.5 154.5Q498 143 499 130Q501 120 496.5 110.5Q492 101 485 94Q448 54 397.0 26.5Q346 -1 284 -1ZM158 296Q193 298 222.0 302.0Q251 306 284 320Q314 331 336.5 354.0Q359 377 359 409Q359 422 353.0 432.0Q347 442 335.5 449.0Q324 456 306 456Q278 456 252.5 441.0Q227 426 207.0 402.5Q187 379 174.5 350.5Q162 322 158 296Z" transform="translate(1876, 0)" /> <path d="M91 498Q92 523 108.0 535.0Q124 547 153 547Q178 547 192.0 536.0Q206 525 206 505Q206 499 206.0 489.5Q206 480 205.5 469.0Q205 458 203 444Q231 494 268.5 520.0Q306 546 353 546Q373 546 399.5 540.0Q426 534 454 517Q466 510 473.0 498.0Q480 486 477 465Q475 439 461.0 425.5Q447 412 427 412Q417 412 408.5 416.0Q400 420 392 424Q381 430 369.5 435.0Q358 440 341 440Q285 440 251.5 386.0Q218 332 197 248Q196 214 195.5 184.5Q195 155 194.5 128.5Q194 102 193.5 78.5Q193 55 193 33Q193 17 184.0 7.0Q175 -3 162.0 -8.0Q149 -13 137 -13Q109 -13 95.0 0.0Q81 13 76.5 34.5Q72 56 72 81Q72 101 73.5 131.0Q75 161 77.5 191.0Q80 221 83 241Z" transform="translate(2411, 0)" /> <path d="" transform="translate(2893, 0)" /> <path d="M569 -15Q551 -15 536.5 -7.0Q522 1 516 20Q503 62 489.0 103.0Q475 144 461.0 184.5Q447 225 432.5 268.0Q418 311 404 356Q366 267 341.5 204.0Q317 141 301.0 97.5Q285 54 273 21Q268 8 257.5 0.5Q247 -7 235.0 -9.5Q223 -12 213 -12Q194 -12 179.5 -2.5Q165 7 161 26Q148 105 124.5 181.0Q101 257 76.5 333.0Q52 409 35 486Q34 494 33.0 498.5Q32 503 32 510Q32 524 48.0 536.5Q64 549 90 548Q110 548 123.0 540.0Q136 532 140 515Q151 472 161.5 432.0Q172 392 183.0 352.5Q194 313 206.0 270.0Q218 227 230 178Q255 239 275.5 292.5Q296 346 316.0 396.0Q336 446 356 497Q356 516 365.0 528.5Q374 541 388.5 547.0Q403 553 420 553Q438 553 452.0 545.0Q466 537 470 520Q478 493 483.5 467.0Q489 441 497 413Q505 383 513.0 355.0Q521 327 530.0 299.5Q539 272 548.5 243.0Q558 214 567 182Q584 245 602.5 300.5Q621 356 640.5 409.5Q660 463 680 520Q686 538 698.5 545.0Q711 552 727 552Q753 552 768.0 540.0Q783 528 783 507Q783 502 781.5 497.5Q780 493 778 487Q751 410 723.0 335.5Q695 261 670.5 186.0Q646 111 630 31Q626 11 611.0 -2.0Q596 -15 569 -15Z" transform="translate(3304, 0)" /> <path d="M145 775Q148 799 162.5 810.5Q177 822 205 822Q229 822 240.5 814.5Q252 807 256.0 794.0Q260 781 259 765Q257 737 251.0 676.5Q245 616 237.5 509.5Q230 403 225 236Q224 183 222.0 133.5Q220 84 218 38Q218 12 203.0 1.0Q188 -10 160 -10Q133 -10 117.5 1.0Q102 12 103 39Q106 130 110.0 223.5Q114 317 119.0 410.0Q124 503 130.5 595.0Q137 687 145 775ZM87 322Q70 314 52.5 320.5Q35 327 25 350Q18 366 20.0 379.5Q22 393 30.0 402.5Q38 412 48 416Q75 430 108.0 445.0Q141 460 172.5 474.0Q204 488 230.5 498.5Q257 509 274 515Q295 523 310.0 513.5Q325 504 333 485Q342 466 335.0 447.0Q328 428 306 419Q256 400 201.5 376.0Q147 352 87 322Z" transform="translate(4099, 0)" /> <path d="M297 548Q320 548 346.0 543.5Q372 539 395.0 530.5Q418 522 432 509Q478 472 500.0 412.5Q522 353 522 287Q522 232 507.5 180.5Q493 129 465.0 87.0Q437 45 395.0 20.5Q353 -4 299 -4Q241 -4 194.5 18.0Q148 40 114.5 78.0Q81 116 63.5 166.0Q46 216 46 271Q46 324 61.5 373.5Q77 423 109.0 462.5Q141 502 188.0 525.0Q235 548 297 548ZM162 278Q162 232 177.0 190.0Q192 148 222.0 122.0Q252 96 295 96Q324 96 345.5 112.5Q367 129 380.5 157.0Q394 185 400.0 217.5Q406 250 406 281Q406 341 388.5 380.5Q371 420 340 441Q328 445 317.0 446.0Q306 447 294 447Q261 447 236.0 433.5Q211 420 194.5 395.5Q178 371 170.0 341.0Q162 311 162 278Z" transform="translate(4434, 0)" /> <path d="M417 478Q424 470 427.0 461.0Q430 452 430 443Q430 431 422.5 419.0Q415 407 403.5 399.5Q392 392 379 392Q368 392 359.5 397.0Q351 402 344 409Q332 424 309.0 438.5Q286 453 254 453Q226 453 205.5 439.5Q185 426 185 403Q185 375 205.5 360.0Q226 345 272 322Q309 303 340.5 280.5Q372 258 392.5 226.0Q413 194 413 147Q413 105 391.5 70.0Q370 35 331.5 13.5Q293 -8 241 -8Q186 -8 132.0 13.5Q78 35 40 68Q32 74 28.0 82.5Q24 91 24 100Q24 121 38.5 138.0Q53 155 71 155Q77 155 83.0 153.0Q89 151 96 146Q128 123 162.5 105.0Q197 87 231 87Q265 87 281.0 101.5Q297 116 297 135Q297 166 271.5 189.0Q246 212 205 230Q155 253 124.5 277.5Q94 302 80.5 331.0Q67 360 67 395Q67 439 92.5 473.0Q118 507 160.5 526.0Q203 545 254 545Q301 545 346.0 528.0Q391 511 417 478Z" transform="translate(5000, 0)" /> <path d="M115 778Q117 799 131.5 810.5Q146 822 176 822Q207 822 217.0 806.0Q227 790 227 766Q227 742 220.5 688.5Q214 635 206.5 548.5Q199 462 195 339Q197 340 215.5 354.5Q234 369 261.5 391.0Q289 413 320.5 438.5Q352 464 383.0 488.5Q414 513 437 532Q448 540 457.5 544.5Q467 549 478 549Q492 549 502.0 544.0Q512 539 518.5 530.5Q525 522 528.0 512.5Q531 503 531 494Q531 484 528.0 474.5Q525 465 515 458Q501 447 479.0 430.0Q457 413 431.0 393.5Q405 374 378.5 353.5Q352 333 328.5 315.5Q305 298 288 285Q303 265 323.0 235.0Q343 205 363 177Q378 155 394.5 137.0Q411 119 426.5 109.0Q442 99 457 99Q473 99 488.5 114.0Q504 129 517 143Q525 153 534.0 159.0Q543 165 553 165Q566 165 578.0 158.5Q590 152 598.0 140.5Q606 129 606 115Q606 101 598.0 87.5Q590 74 577 61Q561 44 539.0 28.0Q517 12 492.0 2.0Q467 -8 441 -8Q405 -8 374.5 9.5Q344 27 318.5 55.5Q293 84 269 117Q245 154 227.0 184.0Q209 214 192 236Q191 183 189.0 133.0Q187 83 185 35Q185 11 170.0 0.5Q155 -10 131 -10Q103 -10 87.0 0.5Q71 11 71 35Q78 221 88.0 410.5Q98 600 115 778Z" transform="translate(5463, 0)" /> <path d="M98 498Q98 514 106.0 524.5Q114 535 127.5 540.0Q141 545 154 545Q181 545 197.0 533.5Q213 522 213 498Q213 428 210.0 372.5Q207 317 203.5 266.5Q200 216 197.0 160.5Q194 105 193 32Q193 10 177.0 -2.5Q161 -15 136 -15Q111 -15 98.5 -5.5Q86 4 81.5 18.0Q77 32 77 47Q77 56 79.0 91.0Q81 126 84.0 177.5Q87 229 90.5 287.0Q94 345 96.0 400.0Q98 455 98 498ZM87 712Q87 732 96.0 751.0Q105 770 120.5 781.5Q136 793 155 793Q191 793 209.0 780.0Q227 767 233.0 750.0Q239 733 239 721Q239 690 215.5 667.0Q192 644 159 644Q129 644 108.0 663.0Q87 682 87 712Z" transform="translate(6092, 0)" />
  </g>
</svg>
