<?xml version="1.0" standalone="no"?>
<svg xmlns="http://www.w3.org/2000/svg" width="5309" height="1510" viewBox="0 -340 5309 1510">
  <g transform="translate(0, 1170) scale(1, -1)">
    <path d="M189 31Q185 10 169.0 0.5Q153 -9 128 -9Q101 -9 88.0 5.0Q75 19 77 43Q90 155 97.0 246.0Q104 337 106.5 416.0Q109 495 108.5 570.0Q108 645 106 724Q105 747 122.5 759.0Q140 771 168 771Q190 771 202.5 763.0Q215 755 223 738Q255 680 285.5 625.5Q316 571 346.0 516.5Q376 462 408.0 404.5Q440 347 475 283Q516 342 551.5 396.5Q587 451 618.5 504.5Q650 558 680.0 614.0Q710 670 742 732Q750 747 762.5 754.5Q775 762 797 762Q823 762 836.5 749.5Q850 737 850 716Q852 641 852.0 574.5Q852 508 851.0 440.5Q850 373 848 295Q846 228 842.5 161.0Q839 94 834 31Q833 7 818.0 -3.5Q803 -14 779 -14Q753 -14 738.0 -3.5Q723 7 724 31L733 178Q736 221 737.0 261.0Q738 301 739.5 340.5Q741 380 741.5 422.5Q742 465 743 513Q706 445 670.0 387.5Q634 330 597.0 276.5Q560 223 519 170Q511 158 498.0 150.5Q485 143 467 143Q451 143 438.0 149.5Q425 156 417 171Q391 216 366.5 258.0Q342 300 318.5 342.0Q295 384 270.0 429.0Q245 474 217 526Q217 452 216.0 387.5Q215 323 211.5 264.5Q208 206 202.5 148.5Q197 91 189 31Z" transform="translate(0, 0)" /> <path d="M46 234Q46 294 64.0 350.0Q82 406 115.0 450.0Q148 494 194.0 520.0Q240 546 296 546Q329 546 359.0 535.5Q389 525 416 502Q421 524 431.5 535.0Q442 546 462 546Q488 546 506.0 532.0Q524 518 523 494Q522 464 515.5 418.0Q509 372 503 327Q501 313 497.0 288.5Q493 264 490.5 240.5Q488 217 488 202Q487 184 489.5 157.5Q492 131 499.5 110.5Q507 90 521 90Q531 90 539.0 96.5Q547 103 554 116Q561 126 570.0 130.5Q579 135 589 135Q601 135 611.5 128.5Q622 122 628.0 110.0Q634 98 631 83Q630 64 613.0 42.5Q596 21 568.5 6.0Q541 -9 509 -9Q481 -9 458.5 3.0Q436 15 421.0 37.5Q406 60 401 91Q372 48 334.0 23.5Q296 -1 245 -1Q180 -1 136.0 29.5Q92 60 69.0 113.0Q46 166 46 234ZM163 239Q163 196 173.0 164.0Q183 132 203.5 115.0Q224 98 256 98Q281 98 299.5 109.5Q318 121 332.0 141.0Q346 161 356 188Q365 212 372.0 240.5Q379 269 383.5 299.5Q388 330 391.0 359.0Q394 388 396 413Q375 431 351.0 440.5Q327 450 305 450Q272 450 246.0 433.0Q220 416 201.5 386.0Q183 356 173.0 318.5Q163 281 163 239Z" transform="translate(940, 0)" /> <path d="M113 505Q116 531 132.5 541.0Q149 551 172 551Q195 551 208.0 544.0Q221 537 226.0 527.5Q231 518 230 509Q229 499 227.5 483.5Q226 468 224.5 441.0Q223 414 221.5 369.0Q220 324 219 254Q218 190 216.5 129.0Q215 68 210.0 8.0Q205 -52 193 -112Q184 -159 165.0 -193.0Q146 -227 119.5 -245.5Q93 -264 60 -264Q27 -264 -9.5 -242.5Q-46 -221 -75 -183Q-83 -172 -85.0 -164.5Q-87 -157 -87 -150Q-87 -136 -78.0 -124.0Q-69 -112 -56.5 -104.0Q-44 -96 -32 -96Q-21 -96 -12.0 -102.0Q-3 -108 5 -120Q19 -139 30.5 -149.5Q42 -160 49 -160Q55 -160 63.5 -140.5Q72 -121 81.0 -75.5Q90 -30 95.5 46.0Q101 122 101 236Q101 307 103.0 376.5Q105 446 113 505ZM104 724Q104 763 127.0 781.0Q150 799 182 799Q212 799 230.0 778.0Q248 757 248 731Q248 705 234.5 687.5Q221 670 201.0 662.0Q181 654 162 654Q136 654 120.0 676.0Q104 698 104 724Z" transform="translate(1580, 0)" /> <path d="M284 -1Q225 -1 180.0 21.0Q135 43 104.5 81.0Q74 119 58.5 165.5Q43 212 43 260Q43 312 63.5 362.5Q84 413 121.0 455.0Q158 497 207.0 522.5Q256 548 314 548Q361 548 395.0 530.5Q429 513 448.0 482.0Q467 451 467 410Q467 366 446.5 329.0Q426 292 388 269Q339 235 281.5 221.5Q224 208 163 205Q171 179 187.5 154.5Q204 130 230.0 113.5Q256 97 292 97Q328 97 360.5 117.5Q393 138 417 164Q424 174 432.0 177.0Q440 180 447 180Q460 180 471.5 173.0Q483 166 490.5 154.5Q498 143 499 130Q501 120 496.5 110.5Q492 101 485 94Q448 54 397.0 26.5Q346 -1 284 -1ZM158 296Q193 298 222.0 302.0Q251 306 284 320Q314 331 336.5 354.0Q359 377 359 409Q359 422 353.0 432.0Q347 442 335.5 449.0Q324 456 306 456Q278 456 252.5 441.0Q227 426 207.0 402.5Q187 379 174.5 350.5Q162 322 158 296Z" transform="translate(1882, 0)" /> <path d="M91 498Q92 523 108.0 535.0Q124 547 153 547Q178 547 192.0 536.0Q206 525 206 505Q206 499 206.0 489.5Q206 480 205.5 469.0Q205 458 203 444Q231 494 268.5 520.0Q306 546 353 546Q373 546 399.5 540.0Q426 534 454 517Q466 510 473.0 498.0Q480 486 477 465Q475 439 461.0 425.5Q447 412 427 412Q417 412 408.5 416.0Q400 420 392 424Q381 430 369.5 435.0Q358 440 341 440Q285 440 251.5 386.0Q218 332 197 248Q196 214 195.5 184.5Q195 155 194.5 128.5Q194 102 193.5 78.5Q193 55 193 33Q193 17 184.0 7.0Q175 -3 162.0 -8.0Q149 -13 137 -13Q109 -13 95.0 0.0Q81 13 76.5 34.5Q72 56 72 81Q72 101 73.5 131.0Q75 161 77.5 191.0Q80 221 83 241Z" transform="translate(2417, 0)" /> <path d="M46 234Q46 294 64.0 350.0Q82 406 115.0 450.0Q148 494 194.0 520.0Q240 546 296 546Q329 546 359.0 535.5Q389 525 416 502Q421 524 431.5 535.0Q442 546 462 546Q488 546 506.0 532.0Q524 518 523 494Q522 464 515.5 418.0Q509 372 503 327Q501 313 497.0 288.5Q493 264 490.5 240.5Q488 217 488 202Q487 184 489.5 157.5Q492 131 499.5 110.5Q507 90 521 90Q531 90 539.0 96.5Q547 103 554 116Q561 126 570.0 130.5Q579 135 589 135Q601 135 611.5 128.5Q622 122 628.0 110.0Q634 98 631 83Q630 64 613.0 42.5Q596 21 568.5 6.0Q541 -9 509 -9Q481 -9 458.5 3.0Q436 15 421.0 37.5Q406 60 401 91Q372 48 334.0 23.5Q296 -1 245 -1Q180 -1 136.0 29.5Q92 60 69.0 113.0Q46 166 46 234ZM163 239Q163 196 173.0 164.0Q183 132 203.5 115.0Q224 98 256 98Q281 98 299.5 109.5Q318 121 332.0 141.0Q346 161 356 188Q365 212 372.0 240.5Q379 269 383.5 299.5Q388 330 391.0 359.0Q394 388 396 413Q375 431 351.0 440.5Q327 450 305 450Q272 450 246.0 433.0Q220 416 201.5 386.0Q183 356 173.0 318.5Q163 281 163 239Z" transform="translate(2899, 0)" /> <path d="M93 520Q96 540 111.5 548.5Q127 557 149 557Q174 557 188.5 544.0Q203 531 203 515Q203 509 201.0 494.0Q199 479 197.0 461.0Q195 443 194 426Q212 459 235.0 487.0Q258 515 290.5 532.0Q323 549 366 549Q454 549 498.0 485.5Q542 422 542 318Q542 267 535.0 219.0Q528 171 521.0 125.5Q514 80 514 34Q514 15 498.0 2.0Q482 -11 455 -11Q428 -11 413.5 2.0Q399 15 399 37Q399 84 406.5 127.0Q414 170 421.0 214.0Q428 258 428 308Q428 362 417.5 391.0Q407 420 388.0 431.5Q369 443 345 443Q315 443 291.0 422.5Q267 402 248.0 370.0Q229 338 216.5 302.5Q204 267 196 238Q197 183 196.5 130.0Q196 77 193 32Q192 14 177.0 1.0Q162 -12 134 -12Q108 -12 94.5 -0.5Q81 11 76.5 30.0Q72 49 72 71Q72 106 75.0 145.0Q78 184 86 221Q84 277 83.5 322.0Q83 367 83.5 402.5Q84 438 86.0 466.5Q88 495 93 520Z" transform="translate(3539, 0)" /> <path d="M284 -1Q225 -1 180.0 21.0Q135 43 104.5 81.0Q74 119 58.5 165.5Q43 212 43 260Q43 312 63.5 362.5Q84 413 121.0 455.0Q158 497 207.0 522.5Q256 548 314 548Q361 548 395.0 530.5Q429 513 448.0 482.0Q467 451 467 410Q467 366 446.5 329.0Q426 292 388 269Q339 235 281.5 221.5Q224 208 163 205Q171 179 187.5 154.5Q204 130 230.0 113.5Q256 97 292 97Q328 97 360.5 117.5Q393 138 417 164Q424 174 432.0 177.0Q440 180 447 180Q460 180 471.5 173.0Q483 166 490.5 154.5Q498 143 499 130Q501 120 496.5 110.5Q492 101 485 94Q448 54 397.0 26.5Q346 -1 284 -1ZM158 296Q193 298 222.0 302.0Q251 306 284 320Q314 331 336.5 354.0Q359 377 359 409Q359 422 353.0 432.0Q347 442 335.5 449.0Q324 456 306 456Q278 456 252.5 441.0Q227 426 207.0 402.5Q187 379 174.5 350.5Q162 322 158 296Z" transform="translate(4145, 0)" /> <path d="M115 778Q117 799 131.5 810.5Q146 822 176 822Q207 822 217.0 806.0Q227 790 227 766Q227 742 220.5 688.5Q214 635 206.5 548.5Q199 462 195 339Q197 340 215.5 354.5Q234 369 261.5 391.0Q289 413 320.5 438.5Q352 464 383.0 488.5Q414 513 437 532Q448 540 457.5 544.5Q467 549 478 549Q492 549 502.0 544.0Q512 539 518.5 530.5Q525 522 528.0 512.5Q531 503 531 494Q531 484 528.0 474.5Q525 465 515 458Q501 447 479.0 430.0Q457 413 431.0 393.5Q405 374 378.5 353.5Q352 333 328.5 315.5Q305 298 288 285Q303 265 323.0 235.0Q343 205 363 177Q378 155 394.5 137.0Q411 119 426.5 109.0Q442 99 457 99Q473 99 488.5 114.0Q504 129 517 143Q525 153 534.0 159.0Q543 165 553 165Q566 165 578.0 158.5Q590 152 598.0 140.5Q606 129 606 115Q606 101 598.0 87.5Q590 74 577 61Q561 44 539.0 28.0Q517 12 492.0 2.0Q467 -8 441 -8Q405 -8 374.5 9.5Q344 27 318.5 55.5Q293 84 269 117Q245 154 227.0 184.0Q209 214 192 236Q191 183 189.0 133.0Q187 83 185 35Q185 11 170.0 0.5Q155 -10 131 -10Q103 -10 87.0 0.5Q71 11 71 35Q78 221 88.0 410.5Q98 600 115 778Z" transform="translate(4680, 0)" />
  </g>
</svg>
