<?xml version="1.0" standalone="no"?>
<svg xmlns="http://www.w3.org/2000/svg" width="7198" height="1510" viewBox="0 -340 7198 1510">
  <g transform="translate(0, 1170) scale(1, -1)">
    <path d="M113 732Q115 749 124.5 760.0Q134 771 162 775Q176 777 196.5 778.5Q217 780 239.0 780.5Q261 781 279 781Q371 781 442.5 753.0Q514 725 555.0 671.5Q596 618 596 541Q596 482 568.5 438.0Q541 394 494.5 364.5Q448 335 392.5 320.5Q337 306 280 306Q260 306 242.0 307.5Q224 309 207 312Q204 241 201.5 171.0Q199 101 195 30Q194 6 176.5 -4.5Q159 -15 135 -15Q107 -15 92.5 -3.0Q78 9 79 33Q90 207 93.5 383.0Q97 559 113 732ZM212 409Q229 407 246.0 404.5Q263 402 286 402Q318 402 351.5 410.5Q385 419 413.5 437.0Q442 455 459.5 482.5Q477 510 477 547Q477 570 467.0 594.5Q457 619 434.0 639.0Q411 659 375.0 671.5Q339 684 286 684Q267 684 252.5 682.5Q238 681 226 679Q223 636 220.5 592.5Q218 549 216.0 504.0Q214 459 212 409Z" transform="translate(0, 0)" /> <path d="M46 234Q46 294 64.0 350.0Q82 406 115.0 450.0Q148 494 194.0 520.0Q240 546 296 546Q329 546 359.0 535.5Q389 525 416 502Q421 524 431.5 535.0Q442 546 462 546Q488 546 506.0 532.0Q524 518 523 494Q522 464 515.5 418.0Q509 372 503 327Q501 313 497.0 288.5Q493 264 490.5 240.5Q488 217 488 202Q487 184 489.5 157.5Q492 131 499.5 110.5Q507 90 521 90Q531 90 539.0 96.5Q547 103 554 116Q561 126 570.0 130.5Q579 135 589 135Q601 135 611.5 128.5Q622 122 628.0 110.0Q634 98 631 83Q630 64 613.0 42.5Q596 21 568.5 6.0Q541 -9 509 -9Q481 -9 458.5 3.0Q436 15 421.0 37.5Q406 60 401 91Q372 48 334.0 23.5Q296 -1 245 -1Q180 -1 136.0 29.5Q92 60 69.0 113.0Q46 166 46 234ZM163 239Q163 196 173.0 164.0Q183 132 203.5 115.0Q224 98 256 98Q281 98 299.5 109.5Q318 121 332.0 141.0Q346 161 356 188Q365 212 372.0 240.5Q379 269 383.5 299.5Q388 330 391.0 359.0Q394 388 396 413Q375 431 351.0 440.5Q327 450 305 450Q272 450 246.0 433.0Q220 416 201.5 386.0Q183 356 173.0 318.5Q163 281 163 239Z" transform="translate(627, 0)" /> <path d="M121 -284Q92 -284 75.5 -272.5Q59 -261 60 -234Q63 -176 66.0 -126.0Q69 -76 71.0 -27.5Q73 21 75.5 73.5Q78 126 81.5 188.5Q85 251 88.5 329.0Q92 407 97 506Q99 534 119.0 545.0Q139 556 162 556Q184 556 196.0 542.5Q208 529 208 512Q208 496 207.5 480.5Q207 465 205 439Q241 493 285.5 520.0Q330 547 378 547Q421 547 455.0 526.0Q489 505 513.5 470.0Q538 435 551.0 391.0Q564 347 564 299Q564 237 546.5 180.5Q529 124 497.0 80.5Q465 37 421.5 11.5Q378 -14 326 -14Q290 -14 255.0 -1.5Q220 11 190 34Q187 -38 184.0 -103.5Q181 -169 177 -237Q176 -260 161.5 -272.0Q147 -284 121 -284ZM317 83Q343 83 366.0 99.0Q389 115 407.0 143.0Q425 171 435.0 209.0Q445 247 445 290Q445 323 439.0 351.0Q433 379 421.0 399.5Q409 420 393.0 431.0Q377 442 356 442Q335 442 312.0 427.0Q289 412 267.5 386.5Q246 361 228.5 329.0Q211 297 200 263Q199 230 197.5 201.0Q196 172 195 138Q222 112 255.0 97.5Q288 83 317 83Z" transform="translate(1267, 0)" /> <path d="M91 498Q92 523 108.0 535.0Q124 547 153 547Q178 547 192.0 536.0Q206 525 206 505Q206 499 206.0 489.5Q206 480 205.5 469.0Q205 458 203 444Q231 494 268.5 520.0Q306 546 353 546Q373 546 399.5 540.0Q426 534 454 517Q466 510 473.0 498.0Q480 486 477 465Q475 439 461.0 425.5Q447 412 427 412Q417 412 408.5 416.0Q400 420 392 424Q381 430 369.5 435.0Q358 440 341 440Q285 440 251.5 386.0Q218 332 197 248Q196 214 195.5 184.5Q195 155 194.5 128.5Q194 102 193.5 78.5Q193 55 193 33Q193 17 184.0 7.0Q175 -3 162.0 -8.0Q149 -13 137 -13Q109 -13 95.0 0.0Q81 13 76.5 34.5Q72 56 72 81Q72 101 73.5 131.0Q75 161 77.5 191.0Q80 221 83 241Z" transform="translate(1877, 0)" /> <path d="M89 506Q93 527 106.0 534.5Q119 542 142 542Q151 542 161.0 539.0Q171 536 180.5 530.0Q190 524 195.5 514.5Q201 505 201 492Q201 476 194.5 449.5Q188 423 182.0 382.0Q176 341 176 280Q176 228 184.0 185.5Q192 143 209.0 117.5Q226 92 253 92Q278 92 301.5 111.0Q325 130 345.0 159.5Q365 189 377 218V263Q377 310 379.0 355.0Q381 400 387.0 438.5Q393 477 403 503Q411 525 425.0 537.0Q439 549 459 549Q483 549 495.0 539.5Q507 530 511.0 513.0Q515 496 515 473Q515 412 508.5 345.5Q502 279 484 217Q485 196 485.5 174.0Q486 152 487.0 130.0Q488 108 488 86Q488 15 478.5 -52.0Q469 -119 445.0 -173.0Q421 -227 378.0 -258.5Q335 -290 267 -290Q201 -290 147.0 -261.5Q93 -233 66 -186Q62 -178 60.5 -171.5Q59 -165 59 -160Q59 -145 68.0 -133.5Q77 -122 90.0 -114.5Q103 -107 114 -107Q128 -107 138.0 -114.0Q148 -121 158 -135Q177 -164 207.0 -177.0Q237 -190 265 -190Q306 -190 329.0 -161.5Q352 -133 363.0 -74.0Q374 -15 379 77Q355 40 321.0 13.0Q287 -14 243 -14Q192 -14 157.0 10.5Q122 35 101.0 76.5Q80 118 71.5 169.5Q63 221 63 275Q63 314 66.5 355.0Q70 396 76.0 435.5Q82 475 89 506Z" transform="translate(2359, 0)" /> <path d="M115 778Q117 799 131.5 810.5Q146 822 176 822Q207 822 217.0 806.0Q227 790 227 766Q227 742 220.5 688.5Q214 635 206.5 548.5Q199 462 195 339Q197 340 215.5 354.5Q234 369 261.5 391.0Q289 413 320.5 438.5Q352 464 383.0 488.5Q414 513 437 532Q448 540 457.5 544.5Q467 549 478 549Q492 549 502.0 544.0Q512 539 518.5 530.5Q525 522 528.0 512.5Q531 503 531 494Q531 484 528.0 474.5Q525 465 515 458Q501 447 479.0 430.0Q457 413 431.0 393.5Q405 374 378.5 353.5Q352 333 328.5 315.5Q305 298 288 285Q303 265 323.0 235.0Q343 205 363 177Q378 155 394.5 137.0Q411 119 426.5 109.0Q442 99 457 99Q473 99 488.5 114.0Q504 129 517 143Q525 153 534.0 159.0Q543 165 553 165Q566 165 578.0 158.5Q590 152 598.0 140.5Q606 129 606 115Q606 101 598.0 87.5Q590 74 577 61Q561 44 539.0 28.0Q517 12 492.0 2.0Q467 -8 441 -8Q405 -8 374.5 9.5Q344 27 318.5 55.5Q293 84 269 117Q245 154 227.0 184.0Q209 214 192 236Q191 183 189.0 133.0Q187 83 185 35Q185 11 170.0 0.5Q155 -10 131 -10Q103 -10 87.0 0.5Q71 11 71 35Q78 221 88.0 410.5Q98 600 115 778Z" transform="translate(2935, 0)" /> <path d="M46 234Q46 294 64.0 350.0Q82 406 115.0 450.0Q148 494 194.0 520.0Q240 546 296 546Q329 546 359.0 535.5Q389 525 416 502Q421 524 431.5 535.0Q442 546 462 546Q488 546 506.0 532.0Q524 518 523 494Q522 464 515.5 418.0Q509 372 503 327Q501 313 497.0 288.5Q493 264 490.5 240.5Q488 217 488 202Q487 184 489.5 157.5Q492 131 499.5 110.5Q507 90 521 90Q531 90 539.0 96.5Q547 103 554 116Q561 126 570.0 130.5Q579 135 589 135Q601 135 611.5 128.5Q622 122 628.0 110.0Q634 98 631 83Q630 64 613.0 42.5Q596 21 568.5 6.0Q541 -9 509 -9Q481 -9 458.5 3.0Q436 15 421.0 37.5Q406 60 401 91Q372 48 334.0 23.5Q296 -1 245 -1Q180 -1 136.0 29.5Q92 60 69.0 113.0Q46 166 46 234ZM163 239Q163 196 173.0 164.0Q183 132 203.5 115.0Q224 98 256 98Q281 98 299.5 109.5Q318 121 332.0 141.0Q346 161 356 188Q365 212 372.0 240.5Q379 269 383.5 299.5Q388 330 391.0 359.0Q394 388 396 413Q375 431 351.0 440.5Q327 450 305 450Q272 450 246.0 433.0Q220 416 201.5 386.0Q183 356 173.0 318.5Q163 281 163 239Z" transform="translate(3564, 0)" /> <path d="" transform="translate(4204, 0)" /> <path d="M297 548Q320 548 346.0 543.5Q372 539 395.0 530.5Q418 522 432 509Q478 472 500.0 412.5Q522 353 522 287Q522 232 507.5 180.5Q493 129 465.0 87.0Q437 45 395.0 20.5Q353 -4 299 -4Q241 -4 194.5 18.0Q148 40 114.5 78.0Q81 116 63.5 166.0Q46 216 46 271Q46 324 61.5 373.5Q77 423 109.0 462.5Q141 502 188.0 525.0Q235 548 297 548ZM162 278Q162 232 177.0 190.0Q192 148 222.0 122.0Q252 96 295 96Q324 96 345.5 112.5Q367 129 380.5 157.0Q394 185 400.0 217.5Q406 250 406 281Q406 341 388.5 380.5Q371 420 340 441Q328 445 317.0 446.0Q306 447 294 447Q261 447 236.0 433.5Q211 420 194.5 395.5Q178 371 170.0 341.0Q162 311 162 278Z" transform="translate(4615, 0)" /> <path d="M417 478Q424 470 427.0 461.0Q430 452 430 443Q430 431 422.5 419.0Q415 407 403.5 399.5Q392 392 379 392Q368 392 359.5 397.0Q351 402 344 409Q332 424 309.0 438.5Q286 453 254 453Q226 453 205.5 439.5Q185 426 185 403Q185 375 205.5 360.0Q226 345 272 322Q309 303 340.5 280.5Q372 258 392.5 226.0Q413 194 413 147Q413 105 391.5 70.0Q370 35 331.5 13.5Q293 -8 241 -8Q186 -8 132.0 13.5Q78 35 40 68Q32 74 28.0 82.5Q24 91 24 100Q24 121 38.5 138.0Q53 155 71 155Q77 155 83.0 153.0Q89 151 96 146Q128 123 162.5 105.0Q197 87 231 87Q265 87 281.0 101.5Q297 116 297 135Q297 166 271.5 189.0Q246 212 205 230Q155 253 124.5 277.5Q94 302 80.5 331.0Q67 360 67 395Q67 439 92.5 473.0Q118 507 160.5 526.0Q203 545 254 545Q301 545 346.0 528.0Q391 511 417 478Z" transform="translate(5181, 0)" /> <path d="M126 643Q128 664 141.5 675.0Q155 686 180 686Q196 686 211.0 681.5Q226 677 235.0 666.5Q244 656 242 639Q234 579 228.5 521.0Q223 463 220.0 405.0Q217 347 217 285Q219 213 224.5 171.5Q230 130 238.0 113.0Q246 96 252 96Q261 96 274.5 107.0Q288 118 300.5 131.5Q313 145 319 152Q325 159 332.5 162.5Q340 166 349 166Q361 166 373.0 159.0Q385 152 393.0 140.5Q401 129 401 115Q401 108 397.5 97.5Q394 87 380 72Q358 46 331.5 28.0Q305 10 279.0 1.0Q253 -8 230 -8Q183 -8 154.5 22.0Q126 52 114 112Q107 156 103.5 199.5Q100 243 100 288Q100 349 103.0 405.5Q106 462 112.0 520.0Q118 578 126 643ZM75 436Q56 435 44.5 448.5Q33 462 33 484Q33 504 44.5 517.0Q56 530 75 531Q101 533 133.0 534.5Q165 536 200.0 536.5Q235 537 274.5 537.5Q314 538 355 538Q372 538 385.0 525.0Q398 512 398 489Q398 467 384.5 455.0Q371 443 355 443Q313 443 279.5 442.5Q246 442 215.0 441.5Q184 441 150.5 439.5Q117 438 75 436Z" transform="translate(5644, 0)" /> <path d="M91 498Q92 523 108.0 535.0Q124 547 153 547Q178 547 192.0 536.0Q206 525 206 505Q206 499 206.0 489.5Q206 480 205.5 469.0Q205 458 203 444Q231 494 268.5 520.0Q306 546 353 546Q373 546 399.5 540.0Q426 534 454 517Q466 510 473.0 498.0Q480 486 477 465Q475 439 461.0 425.5Q447 412 427 412Q417 412 408.5 416.0Q400 420 392 424Q381 430 369.5 435.0Q358 440 341 440Q285 440 251.5 386.0Q218 332 197 248Q196 214 195.5 184.5Q195 155 194.5 128.5Q194 102 193.5 78.5Q193 55 193 33Q193 17 184.0 7.0Q175 -3 162.0 -8.0Q149 -13 137 -13Q109 -13 95.0 0.0Q81 13 76.5 34.5Q72 56 72 81Q72 101 73.5 131.0Q75 161 77.5 191.0Q80 221 83 241Z" transform="translate(6076, 0)" /> <path d="M46 234Q46 294 64.0 350.0Q82 406 115.0 450.0Q148 494 194.0 520.0Q240 546 296 546Q329 546 359.0 535.5Q389 525 416 502Q421 524 431.5 535.0Q442 546 462 546Q488 546 506.0 532.0Q524 518 523 494Q522 464 515.5 418.0Q509 372 503 327Q501 313 497.0 288.5Q493 264 490.5 240.5Q488 217 488 202Q487 184 489.5 157.5Q492 131 499.5 110.5Q507 90 521 90Q531 90 539.0 96.5Q547 103 554 116Q561 126 570.0 130.5Q579 135 589 135Q601 135 611.5 128.5Q622 122 628.0 110.0Q634 98 631 83Q630 64 613.0 42.5Q596 21 568.5 6.0Q541 -9 509 -9Q481 -9 458.5 3.0Q436 15 421.0 37.5Q406 60 401 91Q372 48 334.0 23.5Q296 -1 245 -1Q180 -1 136.0 29.5Q92 60 69.0 113.0Q46 166 46 234ZM163 239Q163 196 173.0 164.0Q183 132 203.5 115.0Q224 98 256 98Q281 98 299.5 109.5Q318 121 332.0 141.0Q346 161 356 188Q365 212 372.0 240.5Q379 269 383.5 299.5Q388 330 391.0 359.0Q394 388 396 413Q375 431 351.0 440.5Q327 450 305 450Q272 450 246.0 433.0Q220 416 201.5 386.0Q183 356 173.0 318.5Q163 281 163 239Z" transform="translate(6558, 0)" />
  </g>
</svg>
