<?xml version="1.0" standalone="no"?>
<svg xmlns="http://www.w3.org/2000/svg" width="12893" height="1510" viewBox="0 -340 12893 1510">
  <g transform="translate(0, 1170) scale(1, -1)">
    <path d="M113 732Q115 749 124.5 760.0Q134 771 162 775Q176 777 196.5 778.5Q217 780 239.0 780.5Q261 781 279 781Q371 781 442.5 753.0Q514 725 555.0 671.5Q596 618 596 541Q596 482 568.5 438.0Q541 394 494.5 364.5Q448 335 392.5 320.5Q337 306 280 306Q260 306 242.0 307.5Q224 309 207 312Q204 241 201.5 171.0Q199 101 195 30Q194 6 176.5 -4.5Q159 -15 135 -15Q107 -15 92.5 -3.0Q78 9 79 33Q90 207 93.5 383.0Q97 559 113 732ZM212 409Q229 407 246.0 404.5Q263 402 286 402Q318 402 351.5 410.5Q385 419 413.5 437.0Q442 455 459.5 482.5Q477 510 477 547Q477 570 467.0 594.5Q457 619 434.0 639.0Q411 659 375.0 671.5Q339 684 286 684Q267 684 252.5 682.5Q238 681 226 679Q223 636 220.5 592.5Q218 549 216.0 504.0Q214 459 212 409Z" transform="translate(0, 0)" /> <path d="M91 498Q92 523 108.0 535.0Q124 547 153 547Q178 547 192.0 536.0Q206 525 206 505Q206 499 206.0 489.5Q206 480 205.5 469.0Q205 458 203 444Q231 494 268.5 520.0Q306 546 353 546Q373 546 399.5 540.0Q426 534 454 517Q466 510 473.0 498.0Q480 486 477 465Q475 439 461.0 425.5Q447 412 427 412Q417 412 408.5 416.0Q400 420 392 424Q381 430 369.5 435.0Q358 440 341 440Q285 440 251.5 386.0Q218 332 197 248Q196 214 195.5 184.5Q195 155 194.5 128.5Q194 102 193.5 78.5Q193 55 193 33Q193 17 184.0 7.0Q175 -3 162.0 -8.0Q149 -13 137 -13Q109 -13 95.0 0.0Q81 13 76.5 34.5Q72 56 72 81Q72 101 73.5 131.0Q75 161 77.5 191.0Q80 221 83 241Z" transform="translate(627, 0)" /> <path d="M84 441Q59 441 47.5 455.5Q36 470 36 493Q37 514 50.5 526.5Q64 539 86 539Q172 539 229.0 539.0Q286 539 322.5 539.5Q359 540 382.0 540.5Q405 541 422 542Q445 543 457.5 529.5Q470 516 470 497Q470 486 465.0 475.0Q460 464 453 455Q412 396 371.0 336.5Q330 277 289.5 221.0Q249 165 211 116Q250 113 285.5 111.0Q321 109 356.0 107.5Q391 106 428 105Q448 105 459.5 92.0Q471 79 471 58Q471 33 457.5 19.0Q444 5 420 5Q378 5 332.0 8.0Q286 11 237.5 15.5Q189 20 136 22Q122 3 105.0 -5.5Q88 -14 71 -12Q52 -11 38.0 2.0Q24 15 24 34Q24 53 35.0 68.0Q46 83 62 98Q80 121 100.5 148.5Q121 176 143.0 206.5Q165 237 187.5 268.5Q210 300 231.0 330.5Q252 361 271.5 389.0Q291 417 307 440Z" transform="translate(1109, 0)" /> <path d="M89 506Q93 527 106.0 534.5Q119 542 142 542Q151 542 161.0 539.0Q171 536 180.5 530.0Q190 524 195.5 514.5Q201 505 201 492Q201 476 194.5 449.5Q188 423 182.0 382.0Q176 341 176 280Q176 228 184.0 185.5Q192 143 209.0 117.5Q226 92 253 92Q278 92 301.5 111.0Q325 130 345.0 159.5Q365 189 377 218V263Q377 310 379.0 355.0Q381 400 387.0 438.5Q393 477 403 503Q411 525 425.0 537.0Q439 549 459 549Q483 549 495.0 539.5Q507 530 511.0 513.0Q515 496 515 473Q515 412 508.5 345.5Q502 279 484 217Q485 196 485.5 174.0Q486 152 487.0 130.0Q488 108 488 86Q488 15 478.5 -52.0Q469 -119 445.0 -173.0Q421 -227 378.0 -258.5Q335 -290 267 -290Q201 -290 147.0 -261.5Q93 -233 66 -186Q62 -178 60.5 -171.5Q59 -165 59 -160Q59 -145 68.0 -133.5Q77 -122 90.0 -114.5Q103 -107 114 -107Q128 -107 138.0 -114.0Q148 -121 158 -135Q177 -164 207.0 -177.0Q237 -190 265 -190Q306 -190 329.0 -161.5Q352 -133 363.0 -74.0Q374 -15 379 77Q355 40 321.0 13.0Q287 -14 243 -14Q192 -14 157.0 10.5Q122 35 101.0 76.5Q80 118 71.5 169.5Q63 221 63 275Q63 314 66.5 355.0Q70 396 76.0 435.5Q82 475 89 506Z" transform="translate(1611, 0)" /> <path d="M121 -284Q92 -284 75.5 -272.5Q59 -261 60 -234Q63 -176 66.0 -126.0Q69 -76 71.0 -27.5Q73 21 75.5 73.5Q78 126 81.5 188.5Q85 251 88.5 329.0Q92 407 97 506Q99 534 119.0 545.0Q139 556 162 556Q184 556 196.0 542.5Q208 529 208 512Q208 496 207.5 480.5Q207 465 205 439Q241 493 285.5 520.0Q330 547 378 547Q421 547 455.0 526.0Q489 505 513.5 470.0Q538 435 551.0 391.0Q564 347 564 299Q564 237 546.5 180.5Q529 124 497.0 80.5Q465 37 421.5 11.5Q378 -14 326 -14Q290 -14 255.0 -1.5Q220 11 190 34Q187 -38 184.0 -103.5Q181 -169 177 -237Q176 -260 161.5 -272.0Q147 -284 121 -284ZM317 83Q343 83 366.0 99.0Q389 115 407.0 143.0Q425 171 435.0 209.0Q445 247 445 290Q445 323 439.0 351.0Q433 379 421.0 399.5Q409 420 393.0 431.0Q377 442 356 442Q335 442 312.0 427.0Q289 412 267.5 386.5Q246 361 228.5 329.0Q211 297 200 263Q199 230 197.5 201.0Q196 172 195 138Q222 112 255.0 97.5Q288 83 317 83Z" transform="translate(2187, 0)" /> <path d="M91 498Q92 523 108.0 535.0Q124 547 153 547Q178 547 192.0 536.0Q206 525 206 505Q206 499 206.0 489.5Q206 480 205.5 469.0Q205 458 203 444Q231 494 268.5 520.0Q306 546 353 546Q373 546 399.5 540.0Q426 534 454 517Q466 510 473.0 498.0Q480 486 477 465Q475 439 461.0 425.5Q447 412 427 412Q417 412 408.5 416.0Q400 420 392 424Q381 430 369.5 435.0Q358 440 341 440Q285 440 251.5 386.0Q218 332 197 248Q196 214 195.5 184.5Q195 155 194.5 128.5Q194 102 193.5 78.5Q193 55 193 33Q193 17 184.0 7.0Q175 -3 162.0 -8.0Q149 -13 137 -13Q109 -13 95.0 0.0Q81 13 76.5 34.5Q72 56 72 81Q72 101 73.5 131.0Q75 161 77.5 191.0Q80 221 83 241Z" transform="translate(2797, 0)" /> <path d="M46 234Q46 294 64.0 350.0Q82 406 115.0 450.0Q148 494 194.0 520.0Q240 546 296 546Q329 546 359.0 535.5Q389 525 416 502Q421 524 431.5 535.0Q442 546 462 546Q488 546 506.0 532.0Q524 518 523 494Q522 464 515.5 418.0Q509 372 503 327Q501 313 497.0 288.5Q493 264 490.5 240.5Q488 217 488 202Q487 184 489.5 157.5Q492 131 499.5 110.5Q507 90 521 90Q531 90 539.0 96.5Q547 103 554 116Q561 126 570.0 130.5Q579 135 589 135Q601 135 611.5 128.5Q622 122 628.0 110.0Q634 98 631 83Q630 64 613.0 42.5Q596 21 568.5 6.0Q541 -9 509 -9Q481 -9 458.5 3.0Q436 15 421.0 37.5Q406 60 401 91Q372 48 334.0 23.5Q296 -1 245 -1Q180 -1 136.0 29.5Q92 60 69.0 113.0Q46 166 46 234ZM163 239Q163 196 173.0 164.0Q183 132 203.5 115.0Q224 98 256 98Q281 98 299.5 109.5Q318 121 332.0 141.0Q346 161 356 188Q365 212 372.0 240.5Q379 269 383.5 299.5Q388 330 391.0 359.0Q394 388 396 413Q375 431 351.0 440.5Q327 450 305 450Q272 450 246.0 433.0Q220 416 201.5 386.0Q183 356 173.0 318.5Q163 281 163 239Z" transform="translate(3279, 0)" /> <path d="M569 -15Q551 -15 536.5 -7.0Q522 1 516 20Q503 62 489.0 103.0Q475 144 461.0 184.5Q447 225 432.5 268.0Q418 311 404 356Q366 267 341.5 204.0Q317 141 301.0 97.5Q285 54 273 21Q268 8 257.5 0.5Q247 -7 235.0 -9.5Q223 -12 213 -12Q194 -12 179.5 -2.5Q165 7 161 26Q148 105 124.5 181.0Q101 257 76.5 333.0Q52 409 35 486Q34 494 33.0 498.5Q32 503 32 510Q32 524 48.0 536.5Q64 549 90 548Q110 548 123.0 540.0Q136 532 140 515Q151 472 161.5 432.0Q172 392 183.0 352.5Q194 313 206.0 270.0Q218 227 230 178Q255 239 275.5 292.5Q296 346 316.0 396.0Q336 446 356 497Q356 516 365.0 528.5Q374 541 388.5 547.0Q403 553 420 553Q438 553 452.0 545.0Q466 537 470 520Q478 493 483.5 467.0Q489 441 497 413Q505 383 513.0 355.0Q521 327 530.0 299.5Q539 272 548.5 243.0Q558 214 567 182Q584 245 602.5 300.5Q621 356 640.5 409.5Q660 463 680 520Q686 538 698.5 545.0Q711 552 727 552Q753 552 768.0 540.0Q783 528 783 507Q783 502 781.5 497.5Q780 493 778 487Q751 410 723.0 335.5Q695 261 670.5 186.0Q646 111 630 31Q626 11 611.0 -2.0Q596 -15 569 -15Z" transform="translate(3919, 0)" /> <path d="M89 506Q93 527 106.0 534.5Q119 542 142 542Q151 542 161.0 539.0Q171 536 180.5 530.0Q190 524 195.5 514.5Q201 505 201 492Q201 476 194.5 449.5Q188 423 182.0 382.0Q176 341 176 280Q176 228 184.0 185.5Q192 143 209.0 117.5Q226 92 253 92Q278 92 301.5 111.0Q325 130 345.0 159.5Q365 189 377 218V263Q377 310 379.0 355.0Q381 400 387.0 438.5Q393 477 403 503Q411 525 425.0 537.0Q439 549 459 549Q483 549 495.0 539.5Q507 530 511.0 513.0Q515 496 515 473Q515 412 508.5 345.5Q502 279 484 217Q485 196 485.5 174.0Q486 152 487.0 130.0Q488 108 488 86Q488 15 478.5 -52.0Q469 -119 445.0 -173.0Q421 -227 378.0 -258.5Q335 -290 267 -290Q201 -290 147.0 -261.5Q93 -233 66 -186Q62 -178 60.5 -171.5Q59 -165 59 -160Q59 -145 68.0 -133.5Q77 -122 90.0 -114.5Q103 -107 114 -107Q128 -107 138.0 -114.0Q148 -121 158 -135Q177 -164 207.0 -177.0Q237 -190 265 -190Q306 -190 329.0 -161.5Q352 -133 363.0 -74.0Q374 -15 379 77Q355 40 321.0 13.0Q287 -14 243 -14Q192 -14 157.0 10.5Q122 35 101.0 76.5Q80 118 71.5 169.5Q63 221 63 275Q63 314 66.5 355.0Q70 396 76.0 435.5Q82 475 89 506Z" transform="translate(4714, 0)" /> <path d="" transform="translate(5290, 0)" /> <path d="M430 786Q432 811 447.5 822.0Q463 833 485 833Q512 833 529.5 821.5Q547 810 545 784Q532 600 523.5 410.5Q515 221 507 35Q506 10 487.5 -0.5Q469 -11 447 -11Q424 -11 408.5 0.5Q393 12 394 31Q395 43 395.5 53.5Q396 64 397.0 77.0Q398 90 399 108Q378 70 350.0 44.0Q322 18 289.5 4.5Q257 -9 223 -9Q177 -9 144.0 13.5Q111 36 89.5 72.0Q68 108 57.5 150.5Q47 193 47 233Q47 292 66.0 348.5Q85 405 118.5 450.0Q152 495 198.5 521.5Q245 548 301 548Q328 548 356.5 540.5Q385 533 413 517Q416 563 418.5 609.0Q421 655 424.0 700.0Q427 745 430 786ZM165 234Q165 199 174.5 166.5Q184 134 201.5 113.5Q219 93 241 93Q271 93 297.0 113.5Q323 134 343.0 166.0Q363 198 376.0 232.0Q389 266 391 293Q392 299 394.0 303.0Q396 307 401 311L407 414Q384 433 359.0 441.5Q334 450 312 450Q278 450 244.0 425.0Q210 400 187.5 352.0Q165 304 165 234Z" transform="translate(5701, 0)" /> <path d="M297 548Q320 548 346.0 543.5Q372 539 395.0 530.5Q418 522 432 509Q478 472 500.0 412.5Q522 353 522 287Q522 232 507.5 180.5Q493 129 465.0 87.0Q437 45 395.0 20.5Q353 -4 299 -4Q241 -4 194.5 18.0Q148 40 114.5 78.0Q81 116 63.5 166.0Q46 216 46 271Q46 324 61.5 373.5Q77 423 109.0 462.5Q141 502 188.0 525.0Q235 548 297 548ZM162 278Q162 232 177.0 190.0Q192 148 222.0 122.0Q252 96 295 96Q324 96 345.5 112.5Q367 129 380.5 157.0Q394 185 400.0 217.5Q406 250 406 281Q406 341 388.5 380.5Q371 420 340 441Q328 445 317.0 446.0Q306 447 294 447Q261 447 236.0 433.5Q211 420 194.5 395.5Q178 371 170.0 341.0Q162 311 162 278Z" transform="translate(6301, 0)" /> <path d="" transform="translate(6867, 0)" /> <path d="M84 441Q59 441 47.5 455.5Q36 470 36 493Q37 514 50.5 526.5Q64 539 86 539Q172 539 229.0 539.0Q286 539 322.5 539.5Q359 540 382.0 540.5Q405 541 422 542Q445 543 457.5 529.5Q470 516 470 497Q470 486 465.0 475.0Q460 464 453 455Q412 396 371.0 336.5Q330 277 289.5 221.0Q249 165 211 116Q250 113 285.5 111.0Q321 109 356.0 107.5Q391 106 428 105Q448 105 459.5 92.0Q471 79 471 58Q471 33 457.5 19.0Q444 5 420 5Q378 5 332.0 8.0Q286 11 237.5 15.5Q189 20 136 22Q122 3 105.0 -5.5Q88 -14 71 -12Q52 -11 38.0 2.0Q24 15 24 34Q24 53 35.0 68.0Q46 83 62 98Q80 121 100.5 148.5Q121 176 143.0 206.5Q165 237 187.5 268.5Q210 300 231.0 330.5Q252 361 271.5 389.0Q291 417 307 440Z" transform="translate(7278, 0)" /> <path d="M46 234Q46 294 64.0 350.0Q82 406 115.0 450.0Q148 494 194.0 520.0Q240 546 296 546Q329 546 359.0 535.5Q389 525 416 502Q421 524 431.5 535.0Q442 546 462 546Q488 546 506.0 532.0Q524 518 523 494Q522 464 515.5 418.0Q509 372 503 327Q501 313 497.0 288.5Q493 264 490.5 240.5Q488 217 488 202Q487 184 489.5 157.5Q492 131 499.5 110.5Q507 90 521 90Q531 90 539.0 96.5Q547 103 554 116Q561 126 570.0 130.5Q579 135 589 135Q601 135 611.5 128.5Q622 122 628.0 110.0Q634 98 631 83Q630 64 613.0 42.5Q596 21 568.5 6.0Q541 -9 509 -9Q481 -9 458.5 3.0Q436 15 421.0 37.5Q406 60 401 91Q372 48 334.0 23.5Q296 -1 245 -1Q180 -1 136.0 29.5Q92 60 69.0 113.0Q46 166 46 234ZM163 239Q163 196 173.0 164.0Q183 132 203.5 115.0Q224 98 256 98Q281 98 299.5 109.5Q318 121 332.0 141.0Q346 161 356 188Q365 212 372.0 240.5Q379 269 383.5 299.5Q388 330 391.0 359.0Q394 388 396 413Q375 431 351.0 440.5Q327 450 305 450Q272 450 246.0 433.0Q220 416 201.5 386.0Q183 356 173.0 318.5Q163 281 163 239Z" transform="translate(7780, 0)" /> <path d="M121 -284Q92 -284 75.5 -272.5Q59 -261 60 -234Q63 -176 66.0 -126.0Q69 -76 71.0 -27.5Q73 21 75.5 73.5Q78 126 81.5 188.5Q85 251 88.5 329.0Q92 407 97 506Q99 534 119.0 545.0Q139 556 162 556Q184 556 196.0 542.5Q208 529 208 512Q208 496 207.5 480.5Q207 465 205 439Q241 493 285.5 520.0Q330 547 378 547Q421 547 455.0 526.0Q489 505 513.5 470.0Q538 435 551.0 391.0Q564 347 564 299Q564 237 546.5 180.5Q529 124 497.0 80.5Q465 37 421.5 11.5Q378 -14 326 -14Q290 -14 255.0 -1.5Q220 11 190 34Q187 -38 184.0 -103.5Q181 -169 177 -237Q176 -260 161.5 -272.0Q147 -284 121 -284ZM317 83Q343 83 366.0 99.0Q389 115 407.0 143.0Q425 171 435.0 209.0Q445 247 445 290Q445 323 439.0 351.0Q433 379 421.0 399.5Q409 420 393.0 431.0Q377 442 356 442Q335 442 312.0 427.0Q289 412 267.5 386.5Q246 361 228.5 329.0Q211 297 200 263Q199 230 197.5 201.0Q196 172 195 138Q222 112 255.0 97.5Q288 83 317 83Z" transform="translate(8420, 0)" /> <path d="M98 498Q98 514 106.0 524.5Q114 535 127.5 540.0Q141 545 154 545Q181 545 197.0 533.5Q213 522 213 498Q213 428 210.0 372.5Q207 317 203.5 266.5Q200 216 197.0 160.5Q194 105 193 32Q193 10 177.0 -2.5Q161 -15 136 -15Q111 -15 98.5 -5.5Q86 4 81.5 18.0Q77 32 77 47Q77 56 79.0 91.0Q81 126 84.0 177.5Q87 229 90.5 287.0Q94 345 96.0 400.0Q98 455 98 498ZM87 712Q87 732 96.0 751.0Q105 770 120.5 781.5Q136 793 155 793Q191 793 209.0 780.0Q227 767 233.0 750.0Q239 733 239 721Q239 690 215.5 667.0Q192 644 159 644Q129 644 108.0 663.0Q87 682 87 712Z" transform="translate(9030, 0)" /> <path d="M284 -1Q225 -1 180.0 21.0Q135 43 104.5 81.0Q74 119 58.5 165.5Q43 212 43 260Q43 312 63.5 362.5Q84 413 121.0 455.0Q158 497 207.0 522.5Q256 548 314 548Q361 548 395.0 530.5Q429 513 448.0 482.0Q467 451 467 410Q467 366 446.5 329.0Q426 292 388 269Q339 235 281.5 221.5Q224 208 163 205Q171 179 187.5 154.5Q204 130 230.0 113.5Q256 97 292 97Q328 97 360.5 117.5Q393 138 417 164Q424 174 432.0 177.0Q440 180 447 180Q460 180 471.5 173.0Q483 166 490.5 154.5Q498 143 499 130Q501 120 496.5 110.5Q492 101 485 94Q448 54 397.0 26.5Q346 -1 284 -1ZM158 296Q193 298 222.0 302.0Q251 306 284 320Q314 331 336.5 354.0Q359 377 359 409Q359 422 353.0 432.0Q347 442 335.5 449.0Q324 456 306 456Q278 456 252.5 441.0Q227 426 207.0 402.5Q187 379 174.5 350.5Q162 322 158 296Z" transform="translate(9319, 0)" /> <path d="M115 778Q117 799 131.5 810.5Q146 822 176 822Q207 822 217.0 806.0Q227 790 227 766Q227 742 220.5 688.5Q214 635 206.5 548.5Q199 462 195 339Q197 340 215.5 354.5Q234 369 261.5 391.0Q289 413 320.5 438.5Q352 464 383.0 488.5Q414 513 437 532Q448 540 457.5 544.5Q467 549 478 549Q492 549 502.0 544.0Q512 539 518.5 530.5Q525 522 528.0 512.5Q531 503 531 494Q531 484 528.0 474.5Q525 465 515 458Q501 447 479.0 430.0Q457 413 431.0 393.5Q405 374 378.5 353.5Q352 333 328.5 315.5Q305 298 288 285Q303 265 323.0 235.0Q343 205 363 177Q378 155 394.5 137.0Q411 119 426.5 109.0Q442 99 457 99Q473 99 488.5 114.0Q504 129 517 143Q525 153 534.0 159.0Q543 165 553 165Q566 165 578.0 158.5Q590 152 598.0 140.5Q606 129 606 115Q606 101 598.0 87.5Q590 74 577 61Q561 44 539.0 28.0Q517 12 492.0 2.0Q467 -8 441 -8Q405 -8 374.5 9.5Q344 27 318.5 55.5Q293 84 269 117Q245 154 227.0 184.0Q209 214 192 236Q191 183 189.0 133.0Q187 83 185 35Q185 11 170.0 0.5Q155 -10 131 -10Q103 -10 87.0 0.5Q71 11 71 35Q78 221 88.0 410.5Q98 600 115 778Z" transform="translate(9854, 0)" /> <path d="M46 234Q46 294 64.0 350.0Q82 406 115.0 450.0Q148 494 194.0 520.0Q240 546 296 546Q329 546 359.0 535.5Q389 525 416 502Q421 524 431.5 535.0Q442 546 462 546Q488 546 506.0 532.0Q524 518 523 494Q522 464 515.5 418.0Q509 372 503 327Q501 313 497.0 288.5Q493 264 490.5 240.5Q488 217 488 202Q487 184 489.5 157.5Q492 131 499.5 110.5Q507 90 521 90Q531 90 539.0 96.5Q547 103 554 116Q561 126 570.0 130.5Q579 135 589 135Q601 135 611.5 128.5Q622 122 628.0 110.0Q634 98 631 83Q630 64 613.0 42.5Q596 21 568.5 6.0Q541 -9 509 -9Q481 -9 458.5 3.0Q436 15 421.0 37.5Q406 60 401 91Q372 48 334.0 23.5Q296 -1 245 -1Q180 -1 136.0 29.5Q92 60 69.0 113.0Q46 166 46 234ZM163 239Q163 196 173.0 164.0Q183 132 203.5 115.0Q224 98 256 98Q281 98 299.5 109.5Q318 121 332.0 141.0Q346 161 356 188Q365 212 372.0 240.5Q379 269 383.5 299.5Q388 330 391.0 359.0Q394 388 396 413Q375 431 351.0 440.5Q327 450 305 450Q272 450 246.0 433.0Q220 416 201.5 386.0Q183 356 173.0 318.5Q163 281 163 239Z" transform="translate(10483, 0)" /> <path d="M93 520Q96 540 111.5 548.5Q127 557 149 557Q174 557 188.5 544.0Q203 531 203 515Q203 509 201.0 494.0Q199 479 197.0 461.0Q195 443 194 426Q212 459 235.0 487.0Q258 515 290.5 532.0Q323 549 366 549Q454 549 498.0 485.5Q542 422 542 318Q542 267 535.0 219.0Q528 171 521.0 125.5Q514 80 514 34Q514 15 498.0 2.0Q482 -11 455 -11Q428 -11 413.5 2.0Q399 15 399 37Q399 84 406.5 127.0Q414 170 421.0 214.0Q428 258 428 308Q428 362 417.5 391.0Q407 420 388.0 431.5Q369 443 345 443Q315 443 291.0 422.5Q267 402 248.0 370.0Q229 338 216.5 302.5Q204 267 196 238Q197 183 196.5 130.0Q196 77 193 32Q192 14 177.0 1.0Q162 -12 134 -12Q108 -12 94.5 -0.5Q81 11 76.5 30.0Q72 49 72 71Q72 106 75.0 145.0Q78 184 86 221Q84 277 83.5 322.0Q83 367 83.5 402.5Q84 438 86.0 466.5Q88 495 93 520Z" transform="translate(11123, 0)" /> <path d="M284 -1Q225 -1 180.0 21.0Q135 43 104.5 81.0Q74 119 58.5 165.5Q43 212 43 260Q43 312 63.5 362.5Q84 413 121.0 455.0Q158 497 207.0 522.5Q256 548 314 548Q361 548 395.0 530.5Q429 513 448.0 482.0Q467 451 467 410Q467 366 446.5 329.0Q426 292 388 269Q339 235 281.5 221.5Q224 208 163 205Q171 179 187.5 154.5Q204 130 230.0 113.5Q256 97 292 97Q328 97 360.5 117.5Q393 138 417 164Q424 174 432.0 177.0Q440 180 447 180Q460 180 471.5 173.0Q483 166 490.5 154.5Q498 143 499 130Q501 120 496.5 110.5Q492 101 485 94Q448 54 397.0 26.5Q346 -1 284 -1ZM158 296Q193 298 222.0 302.0Q251 306 284 320Q314 331 336.5 354.0Q359 377 359 409Q359 422 353.0 432.0Q347 442 335.5 449.0Q324 456 306 456Q278 456 252.5 441.0Q227 426 207.0 402.5Q187 379 174.5 350.5Q162 322 158 296Z" transform="translate(11729, 0)" /> <path d="M115 778Q117 799 131.5 810.5Q146 822 176 822Q207 822 217.0 806.0Q227 790 227 766Q227 742 220.5 688.5Q214 635 206.5 548.5Q199 462 195 339Q197 340 215.5 354.5Q234 369 261.5 391.0Q289 413 320.5 438.5Q352 464 383.0 488.5Q414 513 437 532Q448 540 457.5 544.5Q467 549 478 549Q492 549 502.0 544.0Q512 539 518.5 530.5Q525 522 528.0 512.5Q531 503 531 494Q531 484 528.0 474.5Q525 465 515 458Q501 447 479.0 430.0Q457 413 431.0 393.5Q405 374 378.5 353.5Q352 333 328.5 315.5Q305 298 288 285Q303 265 323.0 235.0Q343 205 363 177Q378 155 394.5 137.0Q411 119 426.5 109.0Q442 99 457 99Q473 99 488.5 114.0Q504 129 517 143Q525 153 534.0 159.0Q543 165 553 165Q566 165 578.0 158.5Q590 152 598.0 140.5Q606 129 606 115Q606 101 598.0 87.5Q590 74 577 61Q561 44 539.0 28.0Q517 12 492.0 2.0Q467 -8 441 -8Q405 -8 374.5 9.5Q344 27 318.5 55.5Q293 84 269 117Q245 154 227.0 184.0Q209 214 192 236Q191 183 189.0 133.0Q187 83 185 35Q185 11 170.0 0.5Q155 -10 131 -10Q103 -10 87.0 0.5Q71 11 71 35Q78 221 88.0 410.5Q98 600 115 778Z" transform="translate(12264, 0)" />
  </g>
</svg>
