<?xml version="1.0" standalone="no"?>
<svg xmlns="http://www.w3.org/2000/svg" width="3929" height="1510" viewBox="0 -340 3929 1510">
  <g transform="translate(0, 1170) scale(1, -1)">
    <path d="M544 710Q551 704 555.5 695.5Q560 687 560 674Q560 658 553.0 644.5Q546 631 534.0 622.5Q522 614 508 614Q498 614 486.5 620.0Q475 626 457 636Q427 652 395.5 660.5Q364 669 319 669Q275 669 245.0 657.0Q215 645 199.5 625.0Q184 605 184 581Q184 551 205.5 528.5Q227 506 263.0 487.5Q299 469 341 448Q419 411 468.5 374.0Q518 337 541.5 294.0Q565 251 565 194Q565 151 547.0 112.5Q529 74 495.0 44.5Q461 15 414.5 -2.0Q368 -19 311 -19Q271 -19 226.5 -9.5Q182 0 145.5 15.0Q109 30 87 46Q58 69 58 94Q58 109 65.0 122.0Q72 135 83.5 144.0Q95 153 106 153Q114 153 124.5 148.5Q135 144 148 136Q177 120 216.0 104.0Q255 88 310 88Q350 88 381.0 101.5Q412 115 430.0 137.5Q448 160 448 188Q448 220 429.5 247.5Q411 275 375.0 300.0Q339 325 283 348Q245 365 206.5 384.0Q168 403 136.0 429.5Q104 456 85.0 492.5Q66 529 66 579Q66 637 99.0 680.5Q132 724 190.0 749.0Q248 774 326 774Q388 774 446.0 756.5Q504 739 544 710Z" transform="translate(0, 0)" /> <path d="M84 441Q59 441 47.5 455.5Q36 470 36 493Q37 514 50.5 526.5Q64 539 86 539Q172 539 229.0 539.0Q286 539 322.5 539.5Q359 540 382.0 540.5Q405 541 422 542Q445 543 457.5 529.5Q470 516 470 497Q470 486 465.0 475.0Q460 464 453 455Q412 396 371.0 336.5Q330 277 289.5 221.0Q249 165 211 116Q250 113 285.5 111.0Q321 109 356.0 107.5Q391 106 428 105Q448 105 459.5 92.0Q471 79 471 58Q471 33 457.5 19.0Q444 5 420 5Q378 5 332.0 8.0Q286 11 237.5 15.5Q189 20 136 22Q122 3 105.0 -5.5Q88 -14 71 -12Q52 -11 38.0 2.0Q24 15 24 34Q24 53 35.0 68.0Q46 83 62 98Q80 121 100.5 148.5Q121 176 143.0 206.5Q165 237 187.5 268.5Q210 300 231.0 330.5Q252 361 271.5 389.0Q291 417 307 440Z" transform="translate(624, 0)" /> <path d="M46 234Q46 294 64.0 350.0Q82 406 115.0 450.0Q148 494 194.0 520.0Q240 546 296 546Q329 546 359.0 535.5Q389 525 416 502Q421 524 431.5 535.0Q442 546 462 546Q488 546 506.0 532.0Q524 518 523 494Q522 464 515.5 418.0Q509 372 503 327Q501 313 497.0 288.5Q493 264 490.5 240.5Q488 217 488 202Q487 184 489.5 157.5Q492 131 499.5 110.5Q507 90 521 90Q531 90 539.0 96.5Q547 103 554 116Q561 126 570.0 130.5Q579 135 589 135Q601 135 611.5 128.5Q622 122 628.0 110.0Q634 98 631 83Q630 64 613.0 42.5Q596 21 568.5 6.0Q541 -9 509 -9Q481 -9 458.5 3.0Q436 15 421.0 37.5Q406 60 401 91Q372 48 334.0 23.5Q296 -1 245 -1Q180 -1 136.0 29.5Q92 60 69.0 113.0Q46 166 46 234ZM163 239Q163 196 173.0 164.0Q183 132 203.5 115.0Q224 98 256 98Q281 98 299.5 109.5Q318 121 332.0 141.0Q346 161 356 188Q365 212 372.0 240.5Q379 269 383.5 299.5Q388 330 391.0 359.0Q394 388 396 413Q375 431 351.0 440.5Q327 450 305 450Q272 450 246.0 433.0Q220 416 201.5 386.0Q183 356 173.0 318.5Q163 281 163 239Z" transform="translate(1126, 0)" /> <path d="M176 -20Q148 -20 134.0 -6.5Q120 7 120 30Q120 74 120.5 107.5Q121 141 122.0 176.5Q123 212 125 261Q126 287 127.0 326.0Q128 365 131.5 424.5Q135 484 144 571Q149 619 157.5 659.5Q166 700 179.0 731.0Q192 762 210 782Q230 804 260.5 815.5Q291 827 329 827Q358 827 387.0 819.0Q416 811 440.5 796.0Q465 781 480 761Q491 745 491 733Q491 721 485.0 708.5Q479 696 469.0 687.5Q459 679 446 679Q430 679 405 702Q388 717 369.5 724.5Q351 732 333 732Q316 732 302.0 721.0Q288 710 278.0 680.0Q268 650 262 592Q256 534 252.5 490.5Q249 447 247.0 413.5Q245 380 244.0 353.0Q243 326 242 300Q240 245 238.5 203.5Q237 162 236.5 122.0Q236 82 235 31Q234 8 219.5 -6.0Q205 -20 176 -20ZM56 431Q45 431 35.5 439.0Q26 447 20.0 459.0Q14 471 14 482Q14 501 22.5 508.5Q31 516 43 522Q64 531 92.5 536.0Q121 541 156.5 543.0Q192 545 232 543Q254 542 285.0 542.0Q316 542 344.5 542.0Q373 542 389 542Q409 542 421.5 529.5Q434 517 434 495Q434 469 420.5 456.0Q407 443 389 443Q379 443 357.5 443.5Q336 444 314.5 444.5Q293 445 282 445Q251 445 219.5 444.0Q188 443 157.5 441.0Q127 439 98 436Q91 435 77.5 433.0Q64 431 56 431Z" transform="translate(1766, 0)" /> <path d="M91 498Q92 523 108.0 535.0Q124 547 153 547Q178 547 192.0 536.0Q206 525 206 505Q206 499 206.0 489.5Q206 480 205.5 469.0Q205 458 203 444Q231 494 268.5 520.0Q306 546 353 546Q373 546 399.5 540.0Q426 534 454 517Q466 510 473.0 498.0Q480 486 477 465Q475 439 461.0 425.5Q447 412 427 412Q417 412 408.5 416.0Q400 420 392 424Q381 430 369.5 435.0Q358 440 341 440Q285 440 251.5 386.0Q218 332 197 248Q196 214 195.5 184.5Q195 155 194.5 128.5Q194 102 193.5 78.5Q193 55 193 33Q193 17 184.0 7.0Q175 -3 162.0 -8.0Q149 -13 137 -13Q109 -13 95.0 0.0Q81 13 76.5 34.5Q72 56 72 81Q72 101 73.5 131.0Q75 161 77.5 191.0Q80 221 83 241Z" transform="translate(2201, 0)" /> <path d="M46 234Q46 294 64.0 350.0Q82 406 115.0 450.0Q148 494 194.0 520.0Q240 546 296 546Q329 546 359.0 535.5Q389 525 416 502Q421 524 431.5 535.0Q442 546 462 546Q488 546 506.0 532.0Q524 518 523 494Q522 464 515.5 418.0Q509 372 503 327Q501 313 497.0 288.5Q493 264 490.5 240.5Q488 217 488 202Q487 184 489.5 157.5Q492 131 499.5 110.5Q507 90 521 90Q531 90 539.0 96.5Q547 103 554 116Q561 126 570.0 130.5Q579 135 589 135Q601 135 611.5 128.5Q622 122 628.0 110.0Q634 98 631 83Q630 64 613.0 42.5Q596 21 568.5 6.0Q541 -9 509 -9Q481 -9 458.5 3.0Q436 15 421.0 37.5Q406 60 401 91Q372 48 334.0 23.5Q296 -1 245 -1Q180 -1 136.0 29.5Q92 60 69.0 113.0Q46 166 46 234ZM163 239Q163 196 173.0 164.0Q183 132 203.5 115.0Q224 98 256 98Q281 98 299.5 109.5Q318 121 332.0 141.0Q346 161 356 188Q365 212 372.0 240.5Q379 269 383.5 299.5Q388 330 391.0 359.0Q394 388 396 413Q375 431 351.0 440.5Q327 450 305 450Q272 450 246.0 433.0Q220 416 201.5 386.0Q183 356 173.0 318.5Q163 281 163 239Z" transform="translate(2683, 0)" /> <path d="M93 520Q96 540 111.5 548.5Q127 557 149 557Q174 557 188.5 544.0Q203 531 203 515Q203 509 201.0 494.0Q199 479 197.0 461.0Q195 443 194 426Q212 459 235.0 487.0Q258 515 290.5 532.0Q323 549 366 549Q454 549 498.0 485.5Q542 422 542 318Q542 267 535.0 219.0Q528 171 521.0 125.5Q514 80 514 34Q514 15 498.0 2.0Q482 -11 455 -11Q428 -11 413.5 2.0Q399 15 399 37Q399 84 406.5 127.0Q414 170 421.0 214.0Q428 258 428 308Q428 362 417.5 391.0Q407 420 388.0 431.5Q369 443 345 443Q315 443 291.0 422.5Q267 402 248.0 370.0Q229 338 216.5 302.5Q204 267 196 238Q197 183 196.5 130.0Q196 77 193 32Q192 14 177.0 1.0Q162 -12 134 -12Q108 -12 94.5 -0.5Q81 11 76.5 30.0Q72 49 72 71Q72 106 75.0 145.0Q78 184 86 221Q84 277 83.5 322.0Q83 367 83.5 402.5Q84 438 86.0 466.5Q88 495 93 520Z" transform="translate(3323, 0)" />
  </g>
</svg>
