<?xml version="1.0" standalone="no"?>
<svg xmlns="http://www.w3.org/2000/svg" width="3825" height="1510" viewBox="0 -340 3825 1510">
  <g transform="translate(0, 1170) scale(1, -1)">
    <path d="M544 710Q551 704 555.5 695.5Q560 687 560 674Q560 658 553.0 644.5Q546 631 534.0 622.5Q522 614 508 614Q498 614 486.5 620.0Q475 626 457 636Q427 652 395.5 660.5Q364 669 319 669Q275 669 245.0 657.0Q215 645 199.5 625.0Q184 605 184 581Q184 551 205.5 528.5Q227 506 263.0 487.5Q299 469 341 448Q419 411 468.5 374.0Q518 337 541.5 294.0Q565 251 565 194Q565 151 547.0 112.5Q529 74 495.0 44.5Q461 15 414.5 -2.0Q368 -19 311 -19Q271 -19 226.5 -9.5Q182 0 145.5 15.0Q109 30 87 46Q58 69 58 94Q58 109 65.0 122.0Q72 135 83.5 144.0Q95 153 106 153Q114 153 124.5 148.5Q135 144 148 136Q177 120 216.0 104.0Q255 88 310 88Q350 88 381.0 101.5Q412 115 430.0 137.5Q448 160 448 188Q448 220 429.5 247.5Q411 275 375.0 300.0Q339 325 283 348Q245 365 206.5 384.0Q168 403 136.0 429.5Q104 456 85.0 492.5Q66 529 66 579Q66 637 99.0 680.5Q132 724 190.0 749.0Q248 774 326 774Q388 774 446.0 756.5Q504 739 544 710Z" transform="translate(0, 0)" /> <path d="M84 441Q59 441 47.5 455.5Q36 470 36 493Q37 514 50.5 526.5Q64 539 86 539Q172 539 229.0 539.0Q286 539 322.5 539.5Q359 540 382.0 540.5Q405 541 422 542Q445 543 457.5 529.5Q470 516 470 497Q470 486 465.0 475.0Q460 464 453 455Q412 396 371.0 336.5Q330 277 289.5 221.0Q249 165 211 116Q250 113 285.5 111.0Q321 109 356.0 107.5Q391 106 428 105Q448 105 459.5 92.0Q471 79 471 58Q471 33 457.5 19.0Q444 5 420 5Q378 5 332.0 8.0Q286 11 237.5 15.5Q189 20 136 22Q122 3 105.0 -5.5Q88 -14 71 -12Q52 -11 38.0 2.0Q24 15 24 34Q24 53 35.0 68.0Q46 83 62 98Q80 121 100.5 148.5Q121 176 143.0 206.5Q165 237 187.5 268.5Q210 300 231.0 330.5Q252 361 271.5 389.0Q291 417 307 440Z" transform="translate(624, 0)" /> <path d="M46 234Q46 294 64.0 350.0Q82 406 115.0 450.0Q148 494 194.0 520.0Q240 546 296 546Q329 546 359.0 535.5Q389 525 416 502Q421 524 431.5 535.0Q442 546 462 546Q488 546 506.0 532.0Q524 518 523 494Q522 464 515.5 418.0Q509 372 503 327Q501 313 497.0 288.5Q493 264 490.5 240.5Q488 217 488 202Q487 184 489.5 157.5Q492 131 499.5 110.5Q507 90 521 90Q531 90 539.0 96.5Q547 103 554 116Q561 126 570.0 130.5Q579 135 589 135Q601 135 611.5 128.5Q622 122 628.0 110.0Q634 98 631 83Q630 64 613.0 42.5Q596 21 568.5 6.0Q541 -9 509 -9Q481 -9 458.5 3.0Q436 15 421.0 37.5Q406 60 401 91Q372 48 334.0 23.5Q296 -1 245 -1Q180 -1 136.0 29.5Q92 60 69.0 113.0Q46 166 46 234ZM163 239Q163 196 173.0 164.0Q183 132 203.5 115.0Q224 98 256 98Q281 98 299.5 109.5Q318 121 332.0 141.0Q346 161 356 188Q365 212 372.0 240.5Q379 269 383.5 299.5Q388 330 391.0 359.0Q394 388 396 413Q375 431 351.0 440.5Q327 450 305 450Q272 450 246.0 433.0Q220 416 201.5 386.0Q183 356 173.0 318.5Q163 281 163 239Z" transform="translate(1126, 0)" /> <path d="M145 775Q148 799 162.5 810.5Q177 822 205 822Q229 822 240.5 814.5Q252 807 256.0 794.0Q260 781 259 765Q257 737 251.0 676.5Q245 616 237.5 509.5Q230 403 225 236Q224 183 222.0 133.5Q220 84 218 38Q218 12 203.0 1.0Q188 -10 160 -10Q133 -10 117.5 1.0Q102 12 103 39Q106 130 110.0 223.5Q114 317 119.0 410.0Q124 503 130.5 595.0Q137 687 145 775ZM87 322Q70 314 52.5 320.5Q35 327 25 350Q18 366 20.0 379.5Q22 393 30.0 402.5Q38 412 48 416Q75 430 108.0 445.0Q141 460 172.5 474.0Q204 488 230.5 498.5Q257 509 274 515Q295 523 310.0 513.5Q325 504 333 485Q342 466 335.0 447.0Q328 428 306 419Q256 400 201.5 376.0Q147 352 87 322Z" transform="translate(1766, 0)" /> <path d="M569 -15Q551 -15 536.5 -7.0Q522 1 516 20Q503 62 489.0 103.0Q475 144 461.0 184.5Q447 225 432.5 268.0Q418 311 404 356Q366 267 341.5 204.0Q317 141 301.0 97.5Q285 54 273 21Q268 8 257.5 0.5Q247 -7 235.0 -9.5Q223 -12 213 -12Q194 -12 179.5 -2.5Q165 7 161 26Q148 105 124.5 181.0Q101 257 76.5 333.0Q52 409 35 486Q34 494 33.0 498.5Q32 503 32 510Q32 524 48.0 536.5Q64 549 90 548Q110 548 123.0 540.0Q136 532 140 515Q151 472 161.5 432.0Q172 392 183.0 352.5Q194 313 206.0 270.0Q218 227 230 178Q255 239 275.5 292.5Q296 346 316.0 396.0Q336 446 356 497Q356 516 365.0 528.5Q374 541 388.5 547.0Q403 553 420 553Q438 553 452.0 545.0Q466 537 470 520Q478 493 483.5 467.0Q489 441 497 413Q505 383 513.0 355.0Q521 327 530.0 299.5Q539 272 548.5 243.0Q558 214 567 182Q584 245 602.5 300.5Q621 356 640.5 409.5Q660 463 680 520Q686 538 698.5 545.0Q711 552 727 552Q753 552 768.0 540.0Q783 528 783 507Q783 502 781.5 497.5Q780 493 778 487Q751 410 723.0 335.5Q695 261 670.5 186.0Q646 111 630 31Q626 11 611.0 -2.0Q596 -15 569 -15Z" transform="translate(2101, 0)" /> <path d="M98 498Q98 514 106.0 524.5Q114 535 127.5 540.0Q141 545 154 545Q181 545 197.0 533.5Q213 522 213 498Q213 428 210.0 372.5Q207 317 203.5 266.5Q200 216 197.0 160.5Q194 105 193 32Q193 10 177.0 -2.5Q161 -15 136 -15Q111 -15 98.5 -5.5Q86 4 81.5 18.0Q77 32 77 47Q77 56 79.0 91.0Q81 126 84.0 177.5Q87 229 90.5 287.0Q94 345 96.0 400.0Q98 455 98 498ZM87 712Q87 732 96.0 751.0Q105 770 120.5 781.5Q136 793 155 793Q191 793 209.0 780.0Q227 767 233.0 750.0Q239 733 239 721Q239 690 215.5 667.0Q192 644 159 644Q129 644 108.0 663.0Q87 682 87 712Z" transform="translate(2896, 0)" /> <path d="M46 234Q46 294 64.0 350.0Q82 406 115.0 450.0Q148 494 194.0 520.0Q240 546 296 546Q329 546 359.0 535.5Q389 525 416 502Q421 524 431.5 535.0Q442 546 462 546Q488 546 506.0 532.0Q524 518 523 494Q522 464 515.5 418.0Q509 372 503 327Q501 313 497.0 288.5Q493 264 490.5 240.5Q488 217 488 202Q487 184 489.5 157.5Q492 131 499.5 110.5Q507 90 521 90Q531 90 539.0 96.5Q547 103 554 116Q561 126 570.0 130.5Q579 135 589 135Q601 135 611.5 128.5Q622 122 628.0 110.0Q634 98 631 83Q630 64 613.0 42.5Q596 21 568.5 6.0Q541 -9 509 -9Q481 -9 458.5 3.0Q436 15 421.0 37.5Q406 60 401 91Q372 48 334.0 23.5Q296 -1 245 -1Q180 -1 136.0 29.5Q92 60 69.0 113.0Q46 166 46 234ZM163 239Q163 196 173.0 164.0Q183 132 203.5 115.0Q224 98 256 98Q281 98 299.5 109.5Q318 121 332.0 141.0Q346 161 356 188Q365 212 372.0 240.5Q379 269 383.5 299.5Q388 330 391.0 359.0Q394 388 396 413Q375 431 351.0 440.5Q327 450 305 450Q272 450 246.0 433.0Q220 416 201.5 386.0Q183 356 173.0 318.5Q163 281 163 239Z" transform="translate(3185, 0)" />
  </g>
</svg>
