<?xml version="1.0" standalone="no"?>
<svg xmlns="http://www.w3.org/2000/svg" width="5847" height="1510" viewBox="0 -340 5847 1510">
  <g transform="translate(0, 1170) scale(1, -1)">
    <path d="M544 710Q551 704 555.5 695.5Q560 687 560 674Q560 658 553.0 644.5Q546 631 534.0 622.5Q522 614 508 614Q498 614 486.5 620.0Q475 626 457 636Q427 652 395.5 660.5Q364 669 319 669Q275 669 245.0 657.0Q215 645 199.5 625.0Q184 605 184 581Q184 551 205.5 528.5Q227 506 263.0 487.5Q299 469 341 448Q419 411 468.5 374.0Q518 337 541.5 294.0Q565 251 565 194Q565 151 547.0 112.5Q529 74 495.0 44.5Q461 15 414.5 -2.0Q368 -19 311 -19Q271 -19 226.5 -9.5Q182 0 145.5 15.0Q109 30 87 46Q58 69 58 94Q58 109 65.0 122.0Q72 135 83.5 144.0Q95 153 106 153Q114 153 124.5 148.5Q135 144 148 136Q177 120 216.0 104.0Q255 88 310 88Q350 88 381.0 101.5Q412 115 430.0 137.5Q448 160 448 188Q448 220 429.5 247.5Q411 275 375.0 300.0Q339 325 283 348Q245 365 206.5 384.0Q168 403 136.0 429.5Q104 456 85.0 492.5Q66 529 66 579Q66 637 99.0 680.5Q132 724 190.0 749.0Q248 774 326 774Q388 774 446.0 756.5Q504 739 544 710Z" transform="translate(0, 0)" /> <path d="M84 441Q59 441 47.5 455.5Q36 470 36 493Q37 514 50.5 526.5Q64 539 86 539Q172 539 229.0 539.0Q286 539 322.5 539.5Q359 540 382.0 540.5Q405 541 422 542Q445 543 457.5 529.5Q470 516 470 497Q470 486 465.0 475.0Q460 464 453 455Q412 396 371.0 336.5Q330 277 289.5 221.0Q249 165 211 116Q250 113 285.5 111.0Q321 109 356.0 107.5Q391 106 428 105Q448 105 459.5 92.0Q471 79 471 58Q471 33 457.5 19.0Q444 5 420 5Q378 5 332.0 8.0Q286 11 237.5 15.5Q189 20 136 22Q122 3 105.0 -5.5Q88 -14 71 -12Q52 -11 38.0 2.0Q24 15 24 34Q24 53 35.0 68.0Q46 83 62 98Q80 121 100.5 148.5Q121 176 143.0 206.5Q165 237 187.5 268.5Q210 300 231.0 330.5Q252 361 271.5 389.0Q291 417 307 440Z" transform="translate(624, 0)" /> <path d="M269 -4Q213 -4 171.0 20.5Q129 45 101.0 85.0Q73 125 59.0 173.5Q45 222 45 269Q45 324 64.0 374.5Q83 425 117.5 464.0Q152 503 199.0 525.5Q246 548 302 548Q340 548 375.5 538.0Q411 528 440.5 505.5Q470 483 488 444Q491 439 492.5 434.0Q494 429 494 423Q494 409 485.5 398.0Q477 387 464.5 381.0Q452 375 439 375Q426 375 417.0 381.5Q408 388 399 404Q382 431 356.0 441.0Q330 451 306 451Q282 451 256.5 439.0Q231 427 209.5 404.0Q188 381 175.0 346.5Q162 312 162 267Q162 230 174.5 190.5Q187 151 212.0 124.0Q237 97 276 96Q317 96 351.0 121.5Q385 147 412 177Q419 185 426.0 188.5Q433 192 441 192Q454 192 466.5 184.0Q479 176 487.0 164.5Q495 153 495 139Q495 132 493.0 124.5Q491 117 482 108Q441 60 384.5 28.0Q328 -4 269 -4Z" transform="translate(1126, 0)" /> <path d="M84 441Q59 441 47.5 455.5Q36 470 36 493Q37 514 50.5 526.5Q64 539 86 539Q172 539 229.0 539.0Q286 539 322.5 539.5Q359 540 382.0 540.5Q405 541 422 542Q445 543 457.5 529.5Q470 516 470 497Q470 486 465.0 475.0Q460 464 453 455Q412 396 371.0 336.5Q330 277 289.5 221.0Q249 165 211 116Q250 113 285.5 111.0Q321 109 356.0 107.5Q391 106 428 105Q448 105 459.5 92.0Q471 79 471 58Q471 33 457.5 19.0Q444 5 420 5Q378 5 332.0 8.0Q286 11 237.5 15.5Q189 20 136 22Q122 3 105.0 -5.5Q88 -14 71 -12Q52 -11 38.0 2.0Q24 15 24 34Q24 53 35.0 68.0Q46 83 62 98Q80 121 100.5 148.5Q121 176 143.0 206.5Q165 237 187.5 268.5Q210 300 231.0 330.5Q252 361 271.5 389.0Q291 417 307 440Z" transform="translate(1658, 0)" /> <path d="M89 506Q93 527 106.0 534.5Q119 542 142 542Q151 542 161.0 539.0Q171 536 180.5 530.0Q190 524 195.5 514.5Q201 505 201 492Q201 476 194.5 449.5Q188 423 182.0 382.0Q176 341 176 280Q176 228 184.0 185.5Q192 143 209.0 117.5Q226 92 253 92Q278 92 301.5 111.0Q325 130 345.0 159.5Q365 189 377 218V263Q377 310 379.0 355.0Q381 400 387.0 438.5Q393 477 403 503Q411 525 425.0 537.0Q439 549 459 549Q483 549 495.0 539.5Q507 530 511.0 513.0Q515 496 515 473Q515 412 508.5 345.5Q502 279 484 217Q485 196 485.5 174.0Q486 152 487.0 130.0Q488 108 488 86Q488 15 478.5 -52.0Q469 -119 445.0 -173.0Q421 -227 378.0 -258.5Q335 -290 267 -290Q201 -290 147.0 -261.5Q93 -233 66 -186Q62 -178 60.5 -171.5Q59 -165 59 -160Q59 -145 68.0 -133.5Q77 -122 90.0 -114.5Q103 -107 114 -107Q128 -107 138.0 -114.0Q148 -121 158 -135Q177 -164 207.0 -177.0Q237 -190 265 -190Q306 -190 329.0 -161.5Q352 -133 363.0 -74.0Q374 -15 379 77Q355 40 321.0 13.0Q287 -14 243 -14Q192 -14 157.0 10.5Q122 35 101.0 76.5Q80 118 71.5 169.5Q63 221 63 275Q63 314 66.5 355.0Q70 396 76.0 435.5Q82 475 89 506Z" transform="translate(2160, 0)" /> <path d="M121 -284Q92 -284 75.5 -272.5Q59 -261 60 -234Q63 -176 66.0 -126.0Q69 -76 71.0 -27.5Q73 21 75.5 73.5Q78 126 81.5 188.5Q85 251 88.5 329.0Q92 407 97 506Q99 534 119.0 545.0Q139 556 162 556Q184 556 196.0 542.5Q208 529 208 512Q208 496 207.5 480.5Q207 465 205 439Q241 493 285.5 520.0Q330 547 378 547Q421 547 455.0 526.0Q489 505 513.5 470.0Q538 435 551.0 391.0Q564 347 564 299Q564 237 546.5 180.5Q529 124 497.0 80.5Q465 37 421.5 11.5Q378 -14 326 -14Q290 -14 255.0 -1.5Q220 11 190 34Q187 -38 184.0 -103.5Q181 -169 177 -237Q176 -260 161.5 -272.0Q147 -284 121 -284ZM317 83Q343 83 366.0 99.0Q389 115 407.0 143.0Q425 171 435.0 209.0Q445 247 445 290Q445 323 439.0 351.0Q433 379 421.0 399.5Q409 420 393.0 431.0Q377 442 356 442Q335 442 312.0 427.0Q289 412 267.5 386.5Q246 361 228.5 329.0Q211 297 200 263Q199 230 197.5 201.0Q196 172 195 138Q222 112 255.0 97.5Q288 83 317 83Z" transform="translate(2736, 0)" /> <path d="M98 498Q98 514 106.0 524.5Q114 535 127.5 540.0Q141 545 154 545Q181 545 197.0 533.5Q213 522 213 498Q213 428 210.0 372.5Q207 317 203.5 266.5Q200 216 197.0 160.5Q194 105 193 32Q193 10 177.0 -2.5Q161 -15 136 -15Q111 -15 98.5 -5.5Q86 4 81.5 18.0Q77 32 77 47Q77 56 79.0 91.0Q81 126 84.0 177.5Q87 229 90.5 287.0Q94 345 96.0 400.0Q98 455 98 498ZM87 712Q87 732 96.0 751.0Q105 770 120.5 781.5Q136 793 155 793Q191 793 209.0 780.0Q227 767 233.0 750.0Q239 733 239 721Q239 690 215.5 667.0Q192 644 159 644Q129 644 108.0 663.0Q87 682 87 712Z" transform="translate(3346, 0)" /> <path d="M297 548Q320 548 346.0 543.5Q372 539 395.0 530.5Q418 522 432 509Q478 472 500.0 412.5Q522 353 522 287Q522 232 507.5 180.5Q493 129 465.0 87.0Q437 45 395.0 20.5Q353 -4 299 -4Q241 -4 194.5 18.0Q148 40 114.5 78.0Q81 116 63.5 166.0Q46 216 46 271Q46 324 61.5 373.5Q77 423 109.0 462.5Q141 502 188.0 525.0Q235 548 297 548ZM162 278Q162 232 177.0 190.0Q192 148 222.0 122.0Q252 96 295 96Q324 96 345.5 112.5Q367 129 380.5 157.0Q394 185 400.0 217.5Q406 250 406 281Q406 341 388.5 380.5Q371 420 340 441Q328 445 317.0 446.0Q306 447 294 447Q261 447 236.0 433.5Q211 420 194.5 395.5Q178 371 170.0 341.0Q162 311 162 278Z" transform="translate(3635, 0)" /> <path d="M91 498Q92 523 108.0 535.0Q124 547 153 547Q178 547 192.0 536.0Q206 525 206 505Q206 499 206.0 489.5Q206 480 205.5 469.0Q205 458 203 444Q231 494 268.5 520.0Q306 546 353 546Q373 546 399.5 540.0Q426 534 454 517Q466 510 473.0 498.0Q480 486 477 465Q475 439 461.0 425.5Q447 412 427 412Q417 412 408.5 416.0Q400 420 392 424Q381 430 369.5 435.0Q358 440 341 440Q285 440 251.5 386.0Q218 332 197 248Q196 214 195.5 184.5Q195 155 194.5 128.5Q194 102 193.5 78.5Q193 55 193 33Q193 17 184.0 7.0Q175 -3 162.0 -8.0Q149 -13 137 -13Q109 -13 95.0 0.0Q81 13 76.5 34.5Q72 56 72 81Q72 101 73.5 131.0Q75 161 77.5 191.0Q80 221 83 241Z" transform="translate(4201, 0)" /> <path d="M284 -1Q225 -1 180.0 21.0Q135 43 104.5 81.0Q74 119 58.5 165.5Q43 212 43 260Q43 312 63.5 362.5Q84 413 121.0 455.0Q158 497 207.0 522.5Q256 548 314 548Q361 548 395.0 530.5Q429 513 448.0 482.0Q467 451 467 410Q467 366 446.5 329.0Q426 292 388 269Q339 235 281.5 221.5Q224 208 163 205Q171 179 187.5 154.5Q204 130 230.0 113.5Q256 97 292 97Q328 97 360.5 117.5Q393 138 417 164Q424 174 432.0 177.0Q440 180 447 180Q460 180 471.5 173.0Q483 166 490.5 154.5Q498 143 499 130Q501 120 496.5 110.5Q492 101 485 94Q448 54 397.0 26.5Q346 -1 284 -1ZM158 296Q193 298 222.0 302.0Q251 306 284 320Q314 331 336.5 354.0Q359 377 359 409Q359 422 353.0 432.0Q347 442 335.5 449.0Q324 456 306 456Q278 456 252.5 441.0Q227 426 207.0 402.5Q187 379 174.5 350.5Q162 322 158 296Z" transform="translate(4683, 0)" /> <path d="M115 778Q117 799 131.5 810.5Q146 822 176 822Q207 822 217.0 806.0Q227 790 227 766Q227 742 220.5 688.5Q214 635 206.5 548.5Q199 462 195 339Q197 340 215.5 354.5Q234 369 261.5 391.0Q289 413 320.5 438.5Q352 464 383.0 488.5Q414 513 437 532Q448 540 457.5 544.5Q467 549 478 549Q492 549 502.0 544.0Q512 539 518.5 530.5Q525 522 528.0 512.5Q531 503 531 494Q531 484 528.0 474.5Q525 465 515 458Q501 447 479.0 430.0Q457 413 431.0 393.5Q405 374 378.5 353.5Q352 333 328.5 315.5Q305 298 288 285Q303 265 323.0 235.0Q343 205 363 177Q378 155 394.5 137.0Q411 119 426.5 109.0Q442 99 457 99Q473 99 488.5 114.0Q504 129 517 143Q525 153 534.0 159.0Q543 165 553 165Q566 165 578.0 158.5Q590 152 598.0 140.5Q606 129 606 115Q606 101 598.0 87.5Q590 74 577 61Q561 44 539.0 28.0Q517 12 492.0 2.0Q467 -8 441 -8Q405 -8 374.5 9.5Q344 27 318.5 55.5Q293 84 269 117Q245 154 227.0 184.0Q209 214 192 236Q191 183 189.0 133.0Q187 83 185 35Q185 11 170.0 0.5Q155 -10 131 -10Q103 -10 87.0 0.5Q71 11 71 35Q78 221 88.0 410.5Q98 600 115 778Z" transform="translate(5218, 0)" />
  </g>
</svg>
