<?xml version="1.0" standalone="no"?>
<svg xmlns="http://www.w3.org/2000/svg" width="1483" height="1510" viewBox="0 -340 1483 1510">
  <g transform="translate(0, 1170) scale(1, -1)">
    <path d="M544 710Q551 704 555.5 695.5Q560 687 560 674Q560 658 553.0 644.5Q546 631 534.0 622.5Q522 614 508 614Q498 614 486.5 620.0Q475 626 457 636Q427 652 395.5 660.5Q364 669 319 669Q275 669 245.0 657.0Q215 645 199.5 625.0Q184 605 184 581Q184 551 205.5 528.5Q227 506 263.0 487.5Q299 469 341 448Q419 411 468.5 374.0Q518 337 541.5 294.0Q565 251 565 194Q565 151 547.0 112.5Q529 74 495.0 44.5Q461 15 414.5 -2.0Q368 -19 311 -19Q271 -19 226.5 -9.5Q182 0 145.5 15.0Q109 30 87 46Q58 69 58 94Q58 109 65.0 122.0Q72 135 83.5 144.0Q95 153 106 153Q114 153 124.5 148.5Q135 144 148 136Q177 120 216.0 104.0Q255 88 310 88Q350 88 381.0 101.5Q412 115 430.0 137.5Q448 160 448 188Q448 220 429.5 247.5Q411 275 375.0 300.0Q339 325 283 348Q245 365 206.5 384.0Q168 403 136.0 429.5Q104 456 85.0 492.5Q66 529 66 579Q66 637 99.0 680.5Q132 724 190.0 749.0Q248 774 326 774Q388 774 446.0 756.5Q504 739 544 710Z" transform="translate(0, 0)" /> <path d="M297 548Q320 548 346.0 543.5Q372 539 395.0 530.5Q418 522 432 509Q478 472 500.0 412.5Q522 353 522 287Q522 232 507.5 180.5Q493 129 465.0 87.0Q437 45 395.0 20.5Q353 -4 299 -4Q241 -4 194.5 18.0Q148 40 114.5 78.0Q81 116 63.5 166.0Q46 216 46 271Q46 324 61.5 373.5Q77 423 109.0 462.5Q141 502 188.0 525.0Q235 548 297 548ZM162 278Q162 232 177.0 190.0Q192 148 222.0 122.0Q252 96 295 96Q324 96 345.5 112.5Q367 129 380.5 157.0Q394 185 400.0 217.5Q406 250 406 281Q406 341 388.5 380.5Q371 420 340 441Q328 445 317.0 446.0Q306 447 294 447Q261 447 236.0 433.5Q211 420 194.5 395.5Q178 371 170.0 341.0Q162 311 162 278ZM312 646Q303 631 285.0 627.5Q267 624 248 636Q232 645 232.5 661.5Q233 678 240 692Q252 716 268.0 743.5Q284 771 300.5 795.5Q317 820 328 834Q345 853 363.0 856.0Q381 859 400 845Q420 832 425.0 810.5Q430 789 413 771Q397 754 366.5 719.5Q336 685 312 646Z" transform="translate(624, 0)" /> <path d="M119 775Q122 799 136.5 810.5Q151 822 179 822Q203 822 214.5 814.5Q226 807 230.0 794.0Q234 781 233 765Q231 737 225.0 676.5Q219 616 211.5 509.5Q204 403 199 236Q198 183 196.0 133.5Q194 84 192 38Q192 12 177.0 1.0Q162 -10 134 -10Q107 -10 91.5 1.0Q76 12 77 39Q80 130 84.0 223.5Q88 317 93.0 410.0Q98 503 104.5 595.0Q111 687 119 775Z" transform="translate(1190, 0)" />
  </g>
</svg>
