<?xml version="1.0" standalone="no"?>
<svg xmlns="http://www.w3.org/2000/svg" width="2641" height="1245" viewBox="0 -289 2641 1245">
  <g transform="translate(0, 956) scale(1, -1)">
    <path d="M479 51Q469 75 457.5 106.5Q446 138 433 173Q403 172 370.0 171.5Q337 171 303 171Q260 171 225.0 171.0Q190 171 161 172Q149 137 138.0 106.0Q127 75 117 51Q97 0 59 0Q45 0 32.5 9.0Q20 18 20 35Q20 52 26.0 79.5Q32 107 41.5 138.5Q51 170 62.0 203.5Q73 237 83 266Q93 298 111.5 347.5Q130 397 151.0 451.0Q172 505 193.0 557.5Q214 610 231 649Q235 659 241.0 671.5Q247 684 255.5 695.0Q264 706 274.5 714.0Q285 722 298 722Q311 722 322.0 713.5Q333 705 341.5 693.0Q350 681 356.5 668.0Q363 655 367 645Q383 605 403.5 553.0Q424 501 444.5 448.0Q465 395 483.0 347.0Q501 299 512 266Q521 237 532.5 204.0Q544 171 554.0 139.0Q564 107 570.5 79.5Q577 52 577 35Q577 18 564.5 9.0Q552 0 538 0Q520 0 505.0 12.5Q490 25 479 51ZM302 271Q326 271 350.0 270.5Q374 270 398 269Q386 304 374.0 339.0Q362 374 351.5 406.0Q341 438 332.5 465.5Q324 493 318 514Q314 527 309.0 535.0Q304 543 296 543Q288 543 283.0 534.5Q278 526 274 513Q262 472 240.5 406.5Q219 341 195 269Q222 270 249.0 270.5Q276 271 302 271Z" transform="translate(0, 0)" /> <path d="M296 426Q259 426 229.5 414.0Q200 402 163 378Q163 357 163.0 316.5Q163 276 162.0 228.5Q161 181 160.0 135.0Q159 89 156 58Q154 38 151.5 26.5Q149 15 144.5 9.0Q140 3 132.5 1.5Q125 0 113 0Q101 0 93.5 1.5Q86 3 81.0 8.5Q76 14 73.0 25.0Q70 36 68 55Q66 73 64.5 103.0Q63 133 62.0 168.5Q61 204 60.5 240.5Q60 277 60 308Q60 359 61.5 391.0Q63 423 67 448Q73 490 83.0 501.0Q93 512 110 512Q135 512 147.5 498.0Q160 484 163 452Q200 484 242.5 503.0Q285 522 330 522Q373 522 408.5 502.0Q444 482 467 437Q481 410 488.0 377.5Q495 345 498 309Q499 293 500.0 277.5Q501 262 501.5 244.5Q502 227 502.0 205.0Q502 183 502 153Q502 121 501.0 93.0Q500 65 495.5 44.5Q491 24 480.0 12.5Q469 1 450 1Q404 1 402 45Q402 48 402.0 70.5Q402 93 401.5 123.0Q401 153 400.5 184.0Q400 215 399 235Q398 251 396.5 269.5Q395 288 392.5 307.0Q390 326 386.0 343.5Q382 361 376 375Q362 408 341.0 417.0Q320 426 296 426Z" transform="translate(597, 0)" /> <path d="M292 184Q257 184 218.5 189.5Q180 195 135 213Q144 152 185.5 121.0Q227 90 305 90Q333 90 355.5 93.5Q378 97 395.0 101.5Q412 106 425.0 109.5Q438 113 449 113Q463 113 476.0 104.5Q489 96 489 76Q489 51 468.5 35.0Q448 19 418.5 9.5Q389 0 356.0 -3.5Q323 -7 298 -7Q239 -7 189.5 9.0Q140 25 104.0 57.5Q68 90 48.0 138.0Q28 186 28 250Q28 312 47.5 360.0Q67 408 101.0 441.0Q135 474 181.5 491.0Q228 508 282 508Q324 508 363.5 497.0Q403 486 433.5 464.0Q464 442 482.5 408.5Q501 375 501 330Q501 290 486.0 262.0Q471 234 443.5 217.0Q416 200 377.5 192.0Q339 184 292 184ZM285 416Q258 416 233.0 409.5Q208 403 187.5 388.5Q167 374 153.0 350.5Q139 327 134 292Q172 275 208.0 268.5Q244 262 284 262Q343 262 371.5 276.5Q400 291 400 329Q400 364 373.5 390.0Q347 416 285 416Z" transform="translate(1154, 0)" /> <path d="M147 65Q144 128 143.5 214.5Q143 301 143 411Q133 410 119.5 410.0Q106 410 98 410Q80 410 65.5 411.0Q51 412 40.0 417.0Q29 422 23.0 431.5Q17 441 17 458Q17 506 89 506Q100 506 116.0 506.0Q132 506 143 504Q143 557 145.0 589.0Q147 621 152.5 638.5Q158 656 167.5 661.5Q177 667 192 667Q208 667 218.0 656.0Q228 645 233.5 628.0Q239 611 240.5 590.0Q242 569 242 549Q242 535 241.5 523.5Q241 512 241 503Q255 507 270.0 507.5Q285 508 299 508Q336 508 356.0 496.5Q376 485 376 459Q376 443 369.0 433.5Q362 424 350.5 419.0Q339 414 323.5 412.5Q308 411 290 411Q280 411 267.0 411.0Q254 411 243 413Q243 360 243.0 316.0Q243 272 242.0 231.5Q241 191 240.0 151.0Q239 111 237 66Q236 42 232.5 29.0Q229 16 223.0 9.0Q217 2 209.5 0.5Q202 -1 192 -1Q174 -1 161.5 11.5Q149 24 147 65Z" transform="translate(1689, 0)" /> <path d="M295 411Q258 411 228.5 400.0Q199 389 162 370Q162 369 162.0 351.0Q162 333 161.5 305.0Q161 277 160.5 242.5Q160 208 159.5 173.5Q159 139 157.5 108.0Q156 77 155 56Q153 35 150.5 23.0Q148 11 144.5 5.5Q141 0 135.0 -1.0Q129 -2 122 -2Q105 -2 95.5 -0.5Q86 1 80.0 6.5Q74 12 71.5 23.0Q69 34 67 53Q65 72 63.5 105.5Q62 139 61.0 180.5Q60 222 59.5 269.0Q59 316 59 362Q59 408 59.5 459.5Q60 511 61.0 558.5Q62 606 63.0 643.5Q64 681 66 699Q68 725 75.5 744.0Q83 763 109 763Q129 763 141.5 749.0Q154 735 156 696Q158 661 159.5 598.5Q161 536 162 458Q176 469 196.0 478.5Q216 488 238.0 494.5Q260 501 283.0 505.0Q306 509 326 509Q374 509 409.5 486.5Q445 464 466 422Q480 395 487.0 362.5Q494 330 497 294Q498 278 499.0 262.5Q500 247 500.5 229.5Q501 212 501.0 190.0Q501 168 501 138Q501 108 500.0 82.5Q499 57 494.5 38.5Q490 20 480.0 9.5Q470 -1 452 -1Q426 -1 413.5 15.5Q401 32 401 55Q401 56 401.0 76.0Q401 96 400.5 122.5Q400 149 399.5 176.0Q399 203 398 220Q397 236 395.5 254.5Q394 273 391.5 292.0Q389 311 385.0 328.5Q381 346 375 360Q361 393 340.0 402.0Q319 411 295 411Z" transform="translate(2086, 0)" />
  </g>
</svg>
