<?xml version="1.0" standalone="no"?>
<svg xmlns="http://www.w3.org/2000/svg" width="5551" height="1245" viewBox="0 -289 5551 1245">
  <g transform="translate(0, 956) scale(1, -1)">
    <path d="M351 708Q384 708 417.5 702.5Q451 697 478.0 685.5Q505 674 522.5 657.5Q540 641 540 619Q540 596 528.0 584.0Q516 572 498 572Q481 572 468.0 577.5Q455 583 438.5 590.0Q422 597 399.0 602.5Q376 608 338 608Q300 608 265.5 588.5Q231 569 205.5 534.5Q180 500 165.0 453.0Q150 406 150 351Q150 283 167.5 234.0Q185 185 213.0 153.5Q241 122 276.5 106.5Q312 91 348 91Q391 91 420.0 100.0Q449 109 469.5 120.0Q490 131 505.0 140.0Q520 149 534 149Q551 149 561.0 139.5Q571 130 571 106Q571 86 555.5 65.5Q540 45 510.5 28.5Q481 12 440.0 1.5Q399 -9 348 -9Q292 -9 236.5 13.0Q181 35 137.5 78.5Q94 122 67.0 187.5Q40 253 40 340Q40 427 64.5 495.0Q89 563 131.5 610.5Q174 658 230.5 683.0Q287 708 351 708Z" transform="translate(0, 0)" /> <path d="M471 -4Q455 -4 445.5 1.5Q436 7 431.0 16.0Q426 25 424.0 37.5Q422 50 421 64Q396 33 356.5 12.0Q317 -9 256 -9Q217 -9 176.5 2.5Q136 14 103.0 42.5Q70 71 49.0 119.0Q28 167 28 240Q28 297 42.0 347.0Q56 397 84.5 434.5Q113 472 156.0 494.0Q199 516 257 516Q308 516 348.0 497.5Q388 479 420 437Q420 449 421.0 461.5Q422 474 426.5 484.5Q431 495 441.0 501.5Q451 508 468 508Q483 508 496.0 496.0Q509 484 511 444Q514 391 515.5 349.0Q517 307 517 262Q517 207 516.0 161.0Q515 115 511 63Q509 40 505.5 26.5Q502 13 497.0 6.5Q492 0 485.0 -2.0Q478 -4 471 -4ZM417 250Q417 302 401.5 335.0Q386 368 362.5 386.5Q339 405 312.0 412.0Q285 419 262 419Q226 419 200.5 406.0Q175 393 159.0 370.5Q143 348 135.5 317.5Q128 287 128 251Q128 163 166.5 121.0Q205 79 271 79Q310 79 337.5 92.5Q365 106 382.5 129.0Q400 152 408.5 183.5Q417 215 417 250Z" transform="translate(599, 0)" /> <path d="M66 61Q62 96 61.0 146.0Q60 196 60 267Q60 337 60.5 380.0Q61 423 66 456Q71 497 81.5 509.0Q92 521 109 521Q121 521 130.5 519.0Q140 517 147.5 510.5Q155 504 159.0 492.0Q163 480 163 459Q163 455 164 451Q164 447 164.5 442.5Q165 438 165 432Q192 466 226.5 490.0Q261 514 305 514Q364 514 364 465Q364 447 356.5 435.0Q349 423 335.5 415.5Q322 408 304.5 404.0Q287 400 266 396Q234 390 206.0 373.5Q178 357 168 332Q168 313 168.5 304.0Q169 295 169.5 289.0Q170 283 170.0 276.0Q170 269 170 254Q170 203 168.0 158.5Q166 114 164 62Q163 38 158.5 25.0Q154 12 147.5 5.0Q141 -2 133.0 -3.5Q125 -5 117 -5Q89 -5 79.5 7.5Q70 20 66 61Z" transform="translate(1172, 0)" /> <path d="M478 2Q458 2 444.5 18.0Q431 34 426 55Q414 44 398.5 33.0Q383 22 363.0 12.5Q343 3 319.0 -3.0Q295 -9 267 -9Q233 -9 191.5 2.5Q150 14 113.5 42.5Q77 71 52.5 120.0Q28 169 28 243Q28 306 47.0 355.0Q66 404 100.5 437.5Q135 471 182.5 488.5Q230 506 286 506Q334 506 362.0 495.0Q390 484 406 469Q406 496 406.0 530.5Q406 565 406.5 597.5Q407 630 407.5 657.0Q408 684 409 698Q411 732 421.0 744.5Q431 757 456 757Q482 757 491.5 744.5Q501 732 503 701Q504 688 504.5 666.0Q505 644 505.0 618.0Q505 592 505.5 565.5Q506 539 506.0 517.5Q506 496 506.0 482.0Q506 468 506 468Q506 366 504.5 280.0Q503 194 503 143Q505 132 511.5 122.0Q518 112 525.5 102.0Q533 92 539.0 81.0Q545 70 545 58Q545 44 538.0 33.5Q531 23 520.5 16.0Q510 9 498.5 5.5Q487 2 478 2ZM285 90Q347 90 380.0 127.0Q413 164 413 249Q413 412 284 412Q254 412 226.0 403.0Q198 394 176.5 375.0Q155 356 141.5 327.0Q128 298 128 258Q128 225 137.5 195.0Q147 165 166.5 141.5Q186 118 215.5 104.0Q245 90 285 90Z" transform="translate(1549, 0)" /> <path d="M471 -4Q455 -4 445.5 1.5Q436 7 431.0 16.0Q426 25 424.0 37.5Q422 50 421 64Q396 33 356.5 12.0Q317 -9 256 -9Q217 -9 176.5 2.5Q136 14 103.0 42.5Q70 71 49.0 119.0Q28 167 28 240Q28 297 42.0 347.0Q56 397 84.5 434.5Q113 472 156.0 494.0Q199 516 257 516Q308 516 348.0 497.5Q388 479 420 437Q420 449 421.0 461.5Q422 474 426.5 484.5Q431 495 441.0 501.5Q451 508 468 508Q483 508 496.0 496.0Q509 484 511 444Q514 391 515.5 349.0Q517 307 517 262Q517 207 516.0 161.0Q515 115 511 63Q509 40 505.5 26.5Q502 13 497.0 6.5Q492 0 485.0 -2.0Q478 -4 471 -4ZM417 250Q417 302 401.5 335.0Q386 368 362.5 386.5Q339 405 312.0 412.0Q285 419 262 419Q226 419 200.5 406.0Q175 393 159.0 370.5Q143 348 135.5 317.5Q128 287 128 251Q128 163 166.5 121.0Q205 79 271 79Q310 79 337.5 92.5Q365 106 382.5 129.0Q400 152 408.5 183.5Q417 215 417 250Z" transform="translate(2113, 0)" /> <path d="M735 30Q729 47 727.5 68.0Q726 89 726 120Q726 142 726.5 154.5Q727 167 727.0 176.5Q727 186 727.5 195.5Q728 205 728 222Q728 257 726.5 292.5Q725 328 716.0 356.5Q707 385 688.0 403.0Q669 421 633 421Q572 421 538.0 363.0Q504 305 497 178Q495 138 495.0 105.0Q495 72 491.0 48.5Q487 25 476.5 12.0Q466 -1 442 -1Q420 -1 410.0 10.5Q400 22 395.5 45.0Q391 68 390.5 101.0Q390 134 387 178Q384 226 377.5 270.0Q371 314 356.5 347.5Q342 381 317.5 401.0Q293 421 255 421Q219 421 199.5 403.5Q180 386 171.0 357.5Q162 329 160.5 293.5Q159 258 159 222Q159 204 159.5 195.5Q160 187 160.0 180.0Q160 173 160.5 162.0Q161 151 161 128Q161 95 159.5 71.0Q158 47 152 30Q145 10 133.0 5.5Q121 1 111 1Q80 1 71.0 23.0Q62 45 61 87Q61 110 60.5 138.5Q60 167 60 208Q60 228 60.0 243.0Q60 258 60.5 272.0Q61 286 61.5 300.5Q62 315 63 334Q66 395 85.0 431.5Q104 468 130.0 487.0Q156 506 186.0 511.5Q216 517 241 517Q295 517 332.0 501.0Q369 485 392.5 459.0Q416 433 427.5 400.0Q439 367 443 333Q447 366 459.5 398.5Q472 431 496.5 456.5Q521 482 560.0 498.0Q599 514 656 514Q683 514 711.5 508.5Q740 503 764.0 484.0Q788 465 804.5 429.5Q821 394 824 334Q825 315 825.5 300.5Q826 286 826.5 272.0Q827 258 827.0 243.0Q827 228 827 208Q827 167 826.5 138.5Q826 110 826 87Q826 68 824.5 52.0Q823 36 818.0 25.0Q813 14 803.5 7.5Q794 1 776 1Q759 1 750.0 7.5Q741 14 735 30Z" transform="translate(2686, 0)" /> <path d="M292 507Q349 507 394.0 489.5Q439 472 470.5 440.0Q502 408 519.0 362.0Q536 316 536 259Q536 196 516.5 146.0Q497 96 462.5 61.0Q428 26 380.5 7.0Q333 -12 277 -12Q216 -12 169.5 9.0Q123 30 91.5 66.0Q60 102 44.0 149.0Q28 196 28 248Q28 305 46.5 352.5Q65 400 99.5 434.5Q134 469 183.0 488.0Q232 507 292 507ZM281 80Q322 80 351.0 94.5Q380 109 398.5 133.0Q417 157 425.5 187.5Q434 218 434 251Q434 285 425.5 314.5Q417 344 399.5 366.0Q382 388 354.5 400.5Q327 413 289 413Q250 413 221.0 400.0Q192 387 172.5 364.5Q153 342 143.0 311.0Q133 280 133 244Q133 171 170.5 125.5Q208 80 281 80Z" transform="translate(3569, 0)" /> <path d="M735 30Q729 47 727.5 68.0Q726 89 726 120Q726 142 726.5 154.5Q727 167 727.0 176.5Q727 186 727.5 195.5Q728 205 728 222Q728 257 726.5 292.5Q725 328 716.0 356.5Q707 385 688.0 403.0Q669 421 633 421Q572 421 538.0 363.0Q504 305 497 178Q495 138 495.0 105.0Q495 72 491.0 48.5Q487 25 476.5 12.0Q466 -1 442 -1Q420 -1 410.0 10.5Q400 22 395.5 45.0Q391 68 390.5 101.0Q390 134 387 178Q384 226 377.5 270.0Q371 314 356.5 347.5Q342 381 317.5 401.0Q293 421 255 421Q219 421 199.5 403.5Q180 386 171.0 357.5Q162 329 160.5 293.5Q159 258 159 222Q159 204 159.5 195.5Q160 187 160.0 180.0Q160 173 160.5 162.0Q161 151 161 128Q161 95 159.5 71.0Q158 47 152 30Q145 10 133.0 5.5Q121 1 111 1Q80 1 71.0 23.0Q62 45 61 87Q61 110 60.5 138.5Q60 167 60 208Q60 228 60.0 243.0Q60 258 60.5 272.0Q61 286 61.5 300.5Q62 315 63 334Q66 395 85.0 431.5Q104 468 130.0 487.0Q156 506 186.0 511.5Q216 517 241 517Q295 517 332.0 501.0Q369 485 392.5 459.0Q416 433 427.5 400.0Q439 367 443 333Q447 366 459.5 398.5Q472 431 496.5 456.5Q521 482 560.0 498.0Q599 514 656 514Q683 514 711.5 508.5Q740 503 764.0 484.0Q788 465 804.5 429.5Q821 394 824 334Q825 315 825.5 300.5Q826 286 826.5 272.0Q827 258 827.0 243.0Q827 228 827 208Q827 167 826.5 138.5Q826 110 826 87Q826 68 824.5 52.0Q823 36 818.0 25.0Q813 14 803.5 7.5Q794 1 776 1Q759 1 750.0 7.5Q741 14 735 30Z" transform="translate(4133, 0)" /> <path d="M292 184Q257 184 218.5 189.5Q180 195 135 213Q144 152 185.5 121.0Q227 90 305 90Q333 90 355.5 93.5Q378 97 395.0 101.5Q412 106 425.0 109.5Q438 113 449 113Q463 113 476.0 104.5Q489 96 489 76Q489 51 468.5 35.0Q448 19 418.5 9.5Q389 0 356.0 -3.5Q323 -7 298 -7Q239 -7 189.5 9.0Q140 25 104.0 57.5Q68 90 48.0 138.0Q28 186 28 250Q28 312 47.5 360.0Q67 408 101.0 441.0Q135 474 181.5 491.0Q228 508 282 508Q324 508 363.5 497.0Q403 486 433.5 464.0Q464 442 482.5 408.5Q501 375 501 330Q501 290 486.0 262.0Q471 234 443.5 217.0Q416 200 377.5 192.0Q339 184 292 184ZM285 416Q258 416 233.0 409.5Q208 403 187.5 388.5Q167 374 153.0 350.5Q139 327 134 292Q172 275 208.0 268.5Q244 262 284 262Q343 262 371.5 276.5Q400 291 400 329Q400 364 373.5 390.0Q347 416 285 416Z" transform="translate(5016, 0)" />
  </g>
</svg>
