<?xml version="1.0" standalone="no"?>
<svg xmlns="http://www.w3.org/2000/svg" width="3212" height="1245" viewBox="0 -289 3212 1245">
  <g transform="translate(0, 956) scale(1, -1)">
    <path d="M291 246Q277 245 262.5 244.5Q248 244 233 244Q216 244 199.0 244.0Q182 244 161 246V43Q161 11 145.5 3.5Q130 -4 107 -4Q95 -4 88.0 -2.5Q81 -1 76.5 3.5Q72 8 69.5 17.0Q67 26 66 42Q64 60 63.0 94.5Q62 129 61.5 184.0Q61 239 60.5 317.5Q60 396 60 502Q60 543 70.0 581.5Q80 620 106.0 649.5Q132 679 176.5 697.0Q221 715 290 715Q339 715 385.5 704.0Q432 693 468.0 666.0Q504 639 526.0 593.0Q548 547 548 478Q548 386 508.5 335.5Q469 285 400 264L534 80Q552 56 552 31Q552 11 538.5 -0.5Q525 -12 505 -12Q483 -12 467.0 0.5Q451 13 437 33ZM448 479Q448 548 406.5 581.5Q365 615 275 615Q242 615 220.0 609.5Q198 604 185.0 589.0Q172 574 166.5 547.5Q161 521 161 480Q161 451 161.0 412.0Q161 373 162 341Q185 340 213.5 340.0Q242 340 267 340Q295 340 326.5 343.5Q358 347 385.0 361.5Q412 376 430.0 403.5Q448 431 448 479Z" transform="translate(0, 0)" /> <path d="M471 -4Q455 -4 445.5 1.5Q436 7 431.0 16.0Q426 25 424.0 37.5Q422 50 421 64Q396 33 356.5 12.0Q317 -9 256 -9Q217 -9 176.5 2.5Q136 14 103.0 42.5Q70 71 49.0 119.0Q28 167 28 240Q28 297 42.0 347.0Q56 397 84.5 434.5Q113 472 156.0 494.0Q199 516 257 516Q308 516 348.0 497.5Q388 479 420 437Q420 449 421.0 461.5Q422 474 426.5 484.5Q431 495 441.0 501.5Q451 508 468 508Q483 508 496.0 496.0Q509 484 511 444Q514 391 515.5 349.0Q517 307 517 262Q517 207 516.0 161.0Q515 115 511 63Q509 40 505.5 26.5Q502 13 497.0 6.5Q492 0 485.0 -2.0Q478 -4 471 -4ZM417 250Q417 302 401.5 335.0Q386 368 362.5 386.5Q339 405 312.0 412.0Q285 419 262 419Q226 419 200.5 406.0Q175 393 159.0 370.5Q143 348 135.5 317.5Q128 287 128 251Q128 163 166.5 121.0Q205 79 271 79Q310 79 337.5 92.5Q365 106 382.5 129.0Q400 152 408.5 183.5Q417 215 417 250Z" transform="translate(577, 0)" /> <path d="M258 -137Q305 -137 337.5 -118.5Q370 -100 390.0 -65.5Q410 -31 418.5 17.5Q427 66 427 127Q418 95 401.0 73.0Q384 51 361.5 37.5Q339 24 311.0 18.0Q283 12 253 12Q207 12 166.0 25.0Q125 38 94.5 66.0Q64 94 46.0 137.5Q28 181 28 242Q28 301 45.5 350.5Q63 400 96.5 436.0Q130 472 178.0 492.0Q226 512 288 512Q321 512 346.5 506.0Q372 500 392.0 490.0Q412 480 427.5 466.0Q443 452 456 436Q494 388 511.0 322.5Q528 257 528 165Q528 97 516.5 26.0Q505 -45 475.0 -102.5Q445 -160 392.0 -196.5Q339 -233 256 -233Q241 -233 222.5 -231.5Q204 -230 184.5 -227.0Q165 -224 146.0 -218.5Q127 -213 111 -204Q91 -193 79.0 -183.0Q67 -173 67 -150Q67 -131 75.5 -115.5Q84 -100 105 -100Q115 -100 127.0 -106.0Q139 -112 156.5 -118.5Q174 -125 198.5 -131.0Q223 -137 258 -137ZM263 103Q302 103 329.5 117.5Q357 132 374.5 156.0Q392 180 400.5 210.0Q409 240 409 270Q409 295 402.5 320.5Q396 346 381.0 367.0Q366 388 340.0 401.0Q314 414 275 414Q209 414 168.5 374.0Q128 334 128 256Q128 183 164.0 143.0Q200 103 263 103Z" transform="translate(1150, 0)" /> <path d="M292 507Q349 507 394.0 489.5Q439 472 470.5 440.0Q502 408 519.0 362.0Q536 316 536 259Q536 196 516.5 146.0Q497 96 462.5 61.0Q428 26 380.5 7.0Q333 -12 277 -12Q216 -12 169.5 9.0Q123 30 91.5 66.0Q60 102 44.0 149.0Q28 196 28 248Q28 305 46.5 352.5Q65 400 99.5 434.5Q134 469 183.0 488.0Q232 507 292 507ZM281 80Q322 80 351.0 94.5Q380 109 398.5 133.0Q417 157 425.5 187.5Q434 218 434 251Q434 285 425.5 314.5Q417 344 399.5 366.0Q382 388 354.5 400.5Q327 413 289 413Q250 413 221.0 400.0Q192 387 172.5 364.5Q153 342 143.0 311.0Q133 280 133 244Q133 171 170.5 125.5Q208 80 281 80Z" transform="translate(1708, 0)" /> <path d="M149 453Q151 427 150.5 390.0Q150 353 151.5 312.5Q153 272 158.0 231.5Q163 191 175.5 159.0Q188 127 210.5 107.0Q233 87 269 87Q305 87 327.5 107.0Q350 127 362.5 159.0Q375 191 380.0 231.5Q385 272 386.5 312.5Q388 353 387.5 390.0Q387 427 389 453Q393 515 440 515Q458 515 468.0 505.0Q478 495 482.5 477.0Q487 459 488.0 434.0Q489 409 489 378Q489 314 482.5 245.5Q476 177 453.5 120.0Q431 63 387.0 26.0Q343 -11 269 -11Q195 -11 151.0 26.0Q107 63 84.5 120.0Q62 177 55.5 245.5Q49 314 49 378Q49 409 50.0 434.0Q51 459 55.5 477.0Q60 495 70.0 505.0Q80 515 98 515Q145 515 149 453ZM272 745Q282 745 299.5 736.5Q317 728 336.0 715.5Q355 703 373.5 687.5Q392 672 405 659Q416 647 422.5 635.5Q429 624 429 611Q429 594 418.5 581.0Q408 568 388 568Q371 568 349.5 583.0Q328 598 293 630L272 649L251 630Q216 598 193.5 583.5Q171 569 154 569Q136 569 124.5 580.5Q113 592 113 609Q113 618 118.5 630.5Q124 643 139 659Q152 672 170.5 687.5Q189 703 208.0 715.5Q227 728 244.0 736.5Q261 745 272 745Z" transform="translate(2272, 0)" /> <path d="M147 65Q144 128 143.5 214.5Q143 301 143 411Q133 410 119.5 410.0Q106 410 98 410Q80 410 65.5 411.0Q51 412 40.0 417.0Q29 422 23.0 431.5Q17 441 17 458Q17 506 89 506Q100 506 116.0 506.0Q132 506 143 504Q143 557 145.0 589.0Q147 621 152.5 638.5Q158 656 167.5 661.5Q177 667 192 667Q208 667 218.0 656.0Q228 645 233.5 628.0Q239 611 240.5 590.0Q242 569 242 549Q242 535 241.5 523.5Q241 512 241 503Q255 507 270.0 507.5Q285 508 299 508Q336 508 356.0 496.5Q376 485 376 459Q376 443 369.0 433.5Q362 424 350.5 419.0Q339 414 323.5 412.5Q308 411 290 411Q280 411 267.0 411.0Q254 411 243 413Q243 360 243.0 316.0Q243 272 242.0 231.5Q241 191 240.0 151.0Q239 111 237 66Q236 42 232.5 29.0Q229 16 223.0 9.0Q217 2 209.5 0.5Q202 -1 192 -1Q174 -1 161.5 11.5Q149 24 147 65Z" transform="translate(2815, 0)" />
  </g>
</svg>
